<?xml version="1.0" encoding="UTF-8" standalone="no"?>
<!-- Created with Inkscape (http://www.inkscape.org/) -->

<svg
   xmlns:dc="http://purl.org/dc/elements/1.1/"
   xmlns:cc="http://creativecommons.org/ns#"
   xmlns:rdf="http://www.w3.org/1999/02/22-rdf-syntax-ns#"
   xmlns:svg="http://www.w3.org/2000/svg"
   xmlns="http://www.w3.org/2000/svg"
   xmlns:sodipodi="http://sodipodi.sourceforge.net/DTD/sodipodi-0.dtd"
   xmlns:inkscape="http://www.inkscape.org/namespaces/inkscape"
   width="30"
   height="30"
   viewBox="0 0 7.9374998 7.9375002"
   version="1.1"
   id="svg909"
   inkscape:export-filename="/home/etienne/Crafts/caf-labels/docs/formations/formations.png"
   inkscape:export-xdpi="128"
   inkscape:export-ydpi="128"
   inkscape:version="0.92.2 2405546, 2018-03-11"
   sodipodi:docname="formations.svg">
  <defs
     id="defs903">
    <path
       inkscape:connector-curvature="0"
       id="path4636-3-3-2"
       d="m 13.002663,293.85892 a 2.8764884,2.8764884 0 0 1 -2.876488,2.87649 2.8764884,2.8764884 0 0 1 -2.8764885,-2.87649 2.8764884,2.8764884 0 0 1 2.8764885,-2.87649 2.8764884,2.8764884 0 0 1 2.876488,2.87649 z"
       style="opacity:1;fill:#000000;fill-opacity:1;fill-rule:nonzero;stroke:none;stroke-width:0.17591217;stroke-linecap:round;stroke-linejoin:bevel;stroke-miterlimit:4;stroke-dasharray:none;stroke-opacity:1;paint-order:normal" />
  </defs>
  <sodipodi:namedview
     id="base"
     pagecolor="#ffffff"
     bordercolor="#666666"
     borderopacity="1.0"
     inkscape:pageopacity="0.0"
     inkscape:pageshadow="2"
     inkscape:zoom="8"
     inkscape:cx="24.63122"
     inkscape:cy="2.5350026"
     inkscape:document-units="mm"
     inkscape:current-layer="layer1"
     showgrid="false"
     units="px"
     inkscape:window-width="1366"
     inkscape:window-height="704"
     inkscape:window-x="0"
     inkscape:window-y="27"
     inkscape:window-maximized="1" />
  <metadata
     id="metadata906">
    <rdf:RDF>
      <cc:Work
         rdf:about="">
        <dc:format>image/svg+xml</dc:format>
        <dc:type
           rdf:resource="http://purl.org/dc/dcmitype/StillImage" />
        <dc:title />
      </cc:Work>
    </rdf:RDF>
  </metadata>
  <g
     inkscape:label="Layer 1"
     inkscape:groupmode="layer"
     id="layer1"
     transform="translate(0,-289.06247)">
    <path
       inkscape:connector-curvature="0"
       id="path13057"
       d="M 3.96875,289.06246 A 3.9687474,3.9687474 0 0 0 3.9994312e-7,293.03121 3.9687474,3.9687474 0 0 0 3.96875,296.99997 3.9687474,3.9687474 0 0 0 7.9375004,293.03121 3.9687474,3.9687474 0 0 0 3.96875,289.06246 Z"
       style="opacity:1;fill:#000000;fill-opacity:1;fill-rule:nonzero;stroke:none;stroke-width:0.24270947;stroke-linecap:round;stroke-linejoin:bevel;stroke-miterlimit:4;stroke-dasharray:none;stroke-opacity:1;paint-order:normal" />
    <path
       sodipodi:nodetypes="cc"
       inkscape:connector-curvature="0"
       id="path868"
       d="m -4.4622292,289.67487 9.2009382,6.25841"
       style="fill:#e22127;fill-opacity:1;stroke:#e22127;stroke-width:0.5;stroke-linecap:butt;stroke-linejoin:miter;stroke-miterlimit:4;stroke-dasharray:none;stroke-opacity:1"
       clip-path="none" />
    <g
       id="g920"
       transform="matrix(1.1087339,0,0,1.1087339,-0.43235799,-31.820295)"
       style="fill:#e22127;fill-opacity:1">
      <path
         style="fill:#e22127;fill-opacity:1;stroke:none;stroke-width:0.58673519px;stroke-linecap:butt;stroke-linejoin:miter;stroke-opacity:1"
         d="m -0.61912183,290.18659 -0.2163894,0.60516 0.0240852,0.77375 6.22952953,4.22328 0.7196673,0.17408 0.870935,-0.35754 0.4492193,-0.81135 -0.320871,-0.90761 -0.7884254,-0.55923 -0.3117026,-0.96261 -0.8159293,-0.59591 -1.0726251,0.28421 -0.3781691,0.47214 -0.55694,-0.32545 -0.5958214,0.026 -0.3273701,-0.0486 z"
         id="path953"
         inkscape:connector-curvature="0" />
      <path
         sodipodi:nodetypes="cc"
         inkscape:connector-curvature="0"
         id="path853"
         d="m -0.83551058,290.79176 3.38293828,2.3346"
         style="fill:#e22127;fill-opacity:1;stroke:#000000;stroke-width:0.29336759;stroke-linecap:butt;stroke-linejoin:miter;stroke-miterlimit:4;stroke-dasharray:none;stroke-opacity:1" />
      <path
         d="m 3.9471704,293.70849 a 1.1516277,1.1516277 0 0 1 0.3161962,-1.4581 1.1516277,1.1516277 0 0 1 1.489969,0.0777 1.1516277,1.1516277 0 0 1 0.1629033,1.48307"
         sodipodi:open="true"
         sodipodi:end="0.59525696"
         sodipodi:start="2.6504808"
         sodipodi:ry="1.1516277"
         sodipodi:rx="1.1516277"
         sodipodi:cy="293.16537"
         sodipodi:cx="4.9626861"
         sodipodi:type="arc"
         id="path855-3"
         style="opacity:1;fill:#e22127;fill-opacity:1;stroke:#000200;stroke-width:0.58654147;stroke-linecap:square;stroke-linejoin:round;stroke-miterlimit:4;stroke-dasharray:none;stroke-dashoffset:0;stroke-opacity:1;paint-order:stroke fill markers" />
      <path
         sodipodi:open="true"
         d="m 6.1097554,293.52759 a 1.1516277,1.1516277 0 0 1 1.0785761,0.76391 1.1516277,1.1516277 0 0 1 -0.3497634,1.27458 1.1516277,1.1516277 0 0 1 -1.3174068,0.10641"
         sodipodi:end="2.1013798"
         sodipodi:start="4.7174499"
         sodipodi:ry="1.1516277"
         sodipodi:rx="1.1516277"
         sodipodi:cy="294.6792"
         sodipodi:cx="6.1039271"
         sodipodi:type="arc"
         id="path855-3-6"
         style="opacity:1;fill:#e22127;fill-opacity:1;stroke:#000200;stroke-width:0.58673519;stroke-linecap:square;stroke-linejoin:round;stroke-miterlimit:4;stroke-dasharray:none;stroke-dashoffset:0;stroke-opacity:1;paint-order:stroke fill markers" />
      <path
         sodipodi:nodetypes="cc"
         inkscape:connector-curvature="0"
         id="path853-7"
         d="m -0.8114241,291.56552 6.0188387,4.09303"
         style="fill:#e22127;fill-opacity:1;stroke:#000000;stroke-width:0.29336759;stroke-linecap:butt;stroke-linejoin:miter;stroke-miterlimit:4;stroke-dasharray:none;stroke-opacity:1" />
      <path
         sodipodi:nodetypes="cc"
         inkscape:connector-curvature="0"
         id="path853-5"
         d="m -0.61912185,290.1866 3.07626405,2.13312"
         style="fill:#e22127;fill-opacity:1;stroke:#000000;stroke-width:0.29336759;stroke-linecap:butt;stroke-linejoin:miter;stroke-miterlimit:4;stroke-dasharray:none;stroke-opacity:1" />
      <path
         transform="scale(1,-1)"
         sodipodi:open="true"
         d="m 3.4515452,-293.26487 a 0.74545074,0.74545074 0 0 1 0.1366616,0.76254 0.74545074,0.74545074 0 0 1 -0.6141969,0.47212 0.74545074,0.74545074 0 0 1 -0.7017411,-0.32817"
         sodipodi:end="2.5546232"
         sodipodi:start="5.5594558"
         sodipodi:ry="0.74545074"
         sodipodi:rx="0.74545074"
         sodipodi:cy="-292.77124"
         sodipodi:cx="2.8929482"
         sodipodi:type="arc"
         id="path855-3-3-6-7"
         style="opacity:1;fill:#e22127;fill-opacity:1;stroke:#000200;stroke-width:0.58673519;stroke-linecap:square;stroke-linejoin:round;stroke-miterlimit:4;stroke-dasharray:none;stroke-dashoffset:0;stroke-opacity:1;paint-order:stroke fill markers" />
      <path
         sodipodi:open="true"
         d="m 6.0845425,294.99798 a 0.85160214,0.85160214 0 0 1 -0.3930467,0.76888 0.85160214,0.85160214 0 0 1 -0.8629939,0.0301 0.85160214,0.85160214 0 0 1 -0.4456278,-0.73965"
         sodipodi:end="3.1310433"
         sodipodi:start="6.2240512"
         sodipodi:ry="0.85160214"
         sodipodi:rx="0.85160214"
         sodipodi:cy="295.04831"
         sodipodi:cx="5.2344289"
         sodipodi:type="arc"
         id="path855-3-3"
         style="opacity:1;fill:#e22127;fill-opacity:1;stroke:#000200;stroke-width:0.58673519;stroke-linecap:square;stroke-linejoin:round;stroke-miterlimit:4;stroke-dasharray:none;stroke-dashoffset:0;stroke-opacity:1;paint-order:stroke fill markers" />
      <path
         transform="scale(1,-1)"
         sodipodi:open="true"
         d="m 4.962741,-294.68828 a 0.74545074,0.74545074 0 0 1 0.7905377,0.33657 0.74545074,0.74545074 0 0 1 -0.051598,0.85765 0.74545074,0.74545074 0 0 1 -0.825187,0.23936 0.74545074,0.74545074 0 0 1 -0.502536,-0.69691"
         sodipodi:end="3.1310433"
         sodipodi:start="4.5007022"
         sodipodi:ry="0.74545074"
         sodipodi:rx="0.74545074"
         sodipodi:cy="-293.95947"
         sodipodi:cx="5.1193671"
         sodipodi:type="arc"
         id="path855-3-3-6"
         style="opacity:1;fill:#e22127;fill-opacity:1;stroke:#000200;stroke-width:0.58673519;stroke-linecap:square;stroke-linejoin:round;stroke-miterlimit:4;stroke-dasharray:none;stroke-dashoffset:0;stroke-opacity:1;paint-order:stroke fill markers" />
      <path
         sodipodi:nodetypes="cccccccccccccccccccccccc"
         inkscape:connector-curvature="0"
         id="path940"
         d="m 6.5428704,294.63345 -0.1320836,0.13816 -0.3415797,0.071 c 0.022087,0.11354 0.01366,0.0825 0.015346,0.15523 L 5.270324,295.52909 4.3828743,295.0573 c 0.00526,-0.0526 0.018827,-0.11487 0.018827,-0.11487 l -0.1817729,-0.13239 -0.551544,-0.37413 -0.9481078,-1.36687 -0.8995803,-0.62133 0.1153918,-0.30536 1.1658514,0.74624 0.341312,0.159 0.5394897,0.14038 0.00466,0.41204 0.5533139,0.12552 0.4220306,0.96252 -0.00483,0.403 0.7320456,-0.1763 0.097261,-0.15856 c 0.090069,-0.0632 0.1442338,-0.14059 0.1999217,-0.21754 l 0.4145438,-0.0889 z"
         style="fill:#e22127;fill-opacity:1;stroke:none;stroke-width:0.58673519px;stroke-linecap:butt;stroke-linejoin:miter;stroke-opacity:1" />
      <path
         sodipodi:nodetypes="cccc"
         inkscape:connector-curvature="0"
         id="path946"
         d="m 6.1055156,293.62192 -0.043285,-0.0909 c 0.032175,-0.004 0.064591,-0.004 0.097177,-6e-5 z"
         style="fill:#e22127;fill-opacity:1;stroke:none;stroke-width:0.42368072px;stroke-linecap:butt;stroke-linejoin:miter;stroke-opacity:1" />
    </g>
  </g>
</svg>
