<?xml version="1.0" encoding="UTF-8" standalone="no"?>
<!-- Created with Inkscape (http://www.inkscape.org/) -->

<svg
   xmlns:dc="http://purl.org/dc/elements/1.1/"
   xmlns:cc="http://creativecommons.org/ns#"
   xmlns:rdf="http://www.w3.org/1999/02/22-rdf-syntax-ns#"
   xmlns:svg="http://www.w3.org/2000/svg"
   xmlns="http://www.w3.org/2000/svg"
   xmlns:sodipodi="http://sodipodi.sourceforge.net/DTD/sodipodi-0.dtd"
   xmlns:inkscape="http://www.inkscape.org/namespaces/inkscape"
   width="30"
   height="30"
   viewBox="0 0 7.9374998 7.9375002"
   version="1.1"
   id="svg909"
   inkscape:export-filename="/home/etienne/Crafts/caf-labels/docs/racine.ico.png"
   inkscape:export-xdpi="108.8"
   inkscape:export-ydpi="108.8"
   inkscape:version="0.92.2 2405546, 2018-03-11"
   sodipodi:docname="racine.svg">
  <defs
     id="defs903">
    <path
       inkscape:connector-curvature="0"
       id="path4636-3-3-2"
       d="m 13.002663,293.85892 a 2.8764884,2.8764884 0 0 1 -2.876488,2.87649 2.8764884,2.8764884 0 0 1 -2.8764885,-2.87649 2.8764884,2.8764884 0 0 1 2.8764885,-2.87649 2.8764884,2.8764884 0 0 1 2.876488,2.87649 z"
       style="opacity:1;fill:#000000;fill-opacity:1;fill-rule:nonzero;stroke:none;stroke-width:0.17591217;stroke-linecap:round;stroke-linejoin:bevel;stroke-miterlimit:4;stroke-dasharray:none;stroke-opacity:1;paint-order:normal" />
  </defs>
  <sodipodi:namedview
     id="base"
     pagecolor="#ffffff"
     bordercolor="#666666"
     borderopacity="1.0"
     inkscape:pageopacity="0.0"
     inkscape:pageshadow="2"
     inkscape:zoom="5.6568543"
     inkscape:cx="-16.116468"
     inkscape:cy="-3.8730246"
     inkscape:document-units="px"
     inkscape:current-layer="layer1"
     showgrid="false"
     units="px"
     inkscape:window-width="1366"
     inkscape:window-height="704"
     inkscape:window-x="0"
     inkscape:window-y="27"
     inkscape:window-maximized="1" />
  <metadata
     id="metadata906">
    <rdf:RDF>
      <cc:Work
         rdf:about="">
        <dc:format>image/svg+xml</dc:format>
        <dc:type
           rdf:resource="http://purl.org/dc/dcmitype/StillImage" />
        <dc:title></dc:title>
      </cc:Work>
    </rdf:RDF>
  </metadata>
  <g
     inkscape:label="Layer 1"
     inkscape:groupmode="layer"
     id="layer1"
     transform="translate(0,-289.06247)">
    <g
       id="g4529"
       transform="translate(-2.1396015,1.1995812)">
      <g
         id="g4538"
         transform="matrix(0.45643476,0,0,0.45643476,3.508584,160.84548)">
        <path
           inkscape:connector-curvature="0"
           id="path13057-3"
           d="m 10.423511,287.73492 a 3.9687474,3.9687474 0 0 0 -3.9687495,3.96875 3.9687474,3.9687474 0 0 0 3.9687495,3.96876 3.9687474,3.9687474 0 0 0 3.968751,-3.96876 3.9687474,3.9687474 0 0 0 -3.968751,-3.96875 z"
           style="opacity:1;fill:#000000;fill-opacity:1;fill-rule:nonzero;stroke:none;stroke-width:0.24270947;stroke-linecap:round;stroke-linejoin:bevel;stroke-miterlimit:4;stroke-dasharray:none;stroke-opacity:1;paint-order:normal" />
        <path
           style="opacity:1;fill:none;fill-opacity:1;fill-rule:nonzero;stroke:#17819d;stroke-width:0.28725654;stroke-linecap:round;stroke-linejoin:round;stroke-miterlimit:4;stroke-dasharray:none;stroke-opacity:1"
           d="m 8.0914774,295.76371 c 5.2633976,-2.86013 5.2877336,-2.37997 5.2633976,-2.86013"
           id="path4590-5"
           inkscape:connector-curvature="0"
           sodipodi:nodetypes="cc" />
        <path
           style="opacity:1;fill:#17819d;fill-opacity:1;fill-rule:nonzero;stroke:#17819d;stroke-width:0.41202641;stroke-linecap:round;stroke-linejoin:round;stroke-miterlimit:4;stroke-dasharray:none;stroke-opacity:1"
           d="m 9.760413,292.71046 0.155497,0.0329 -0.4203412,2.01881 z"
           id="path4622-3"
           inkscape:connector-curvature="0"
           sodipodi:nodetypes="cccc" />
        <path
           style="opacity:1;fill:#17819d;fill-opacity:1;fill-rule:nonzero;stroke:#17819d;stroke-width:0.41202641;stroke-linecap:round;stroke-linejoin:round;stroke-miterlimit:4;stroke-dasharray:none;stroke-opacity:1"
           d="m 11.142644,292.40242 -1.3229902,-0.26944 0.3072702,-2.30422 1.985326,0.46983 -1.676463,-0.0632 -0.221246,1.741 1.003057,0.37318 0.0831,1.60679 z"
           id="path4624-5"
           inkscape:connector-curvature="0"
           sodipodi:nodetypes="ccccccccc" />
        <ellipse
           transform="rotate(4.4444948)"
           style="opacity:1;fill:#17819d;fill-opacity:1;fill-rule:nonzero;stroke:#17819d;stroke-width:0;stroke-linecap:round;stroke-linejoin:round;stroke-miterlimit:4;stroke-dasharray:none;stroke-opacity:1"
           id="path4626-6"
           cx="32.593502"
           cy="287.1434"
           rx="0.49197471"
           ry="0.57070661" />
        <path
           style="opacity:1;fill:#17819d;fill-opacity:1;fill-rule:nonzero;stroke:#17819d;stroke-width:0.13734213;stroke-linecap:round;stroke-linejoin:round;stroke-miterlimit:4;stroke-dasharray:none;stroke-opacity:1"
           d="m 9.5993357,290.0486 -0.2757408,1.65382 -0.4598096,0.0528 0.053926,-1.40121 z"
           id="path4628-2"
           inkscape:connector-curvature="0"
           sodipodi:nodetypes="ccccc" />
        <path
           style="opacity:1;fill:#17819d;fill-opacity:1;fill-rule:nonzero;stroke:#17819d;stroke-width:0.13734213;stroke-linecap:round;stroke-linejoin:round;stroke-miterlimit:4;stroke-dasharray:none;stroke-opacity:1"
           d="m 12.112209,290.2991 -0.002,3.29585"
           id="path4632-9"
           inkscape:connector-curvature="0"
           sodipodi:nodetypes="cc" />
      </g>
    </g>
    <g
       id="g4487"
       transform="matrix(0.46999705,0,0,0.46999705,1.4085224,154.0291)">
      <path
         style="opacity:1;fill:#000000;fill-opacity:1;fill-rule:nonzero;stroke:none;stroke-width:0.24270947;stroke-linecap:round;stroke-linejoin:bevel;stroke-miterlimit:4;stroke-dasharray:none;stroke-opacity:1;paint-order:normal"
         d="m 5.479025,291.99553 a 3.9687474,3.9687474 0 0 0 -3.9687497,3.96875 3.9687474,3.9687474 0 0 0 3.9687497,3.96876 3.9687474,3.9687474 0 0 0 3.9687503,-3.96876 3.9687474,3.9687474 0 0 0 -3.9687503,-3.96875 z"
         id="path13057-1"
         inkscape:connector-curvature="0" />
      <g
         style="stroke:#50e45a;stroke-opacity:1"
         transform="matrix(2.0905626,0,0,2.0905626,0.05954268,-313.75079)"
         id="g934">
        <path
           sodipodi:nodetypes="csssc"
           inkscape:connector-curvature="0"
           id="path1240-8-9-93-2-2-9-1-4-3-6"
           d="m 2.1920981,292.81368 c 0.4046528,0.0252 0.2015536,0.16689 0.6269933,0.16931 0.2001019,0.001 0.476879,-0.0631 0.5234963,-0.27528 0.037532,-0.17078 -0.1630649,-0.25743 -0.3719997,-0.2331 -0.4248349,0.0495 -0.3559056,0.28953 -0.7784955,0.33909"
           style="fill:#000000;fill-opacity:1;stroke:#0caa1a;stroke-width:0.18345045;stroke-linecap:butt;stroke-linejoin:miter;stroke-miterlimit:4;stroke-dasharray:none;stroke-opacity:1" />
        <ellipse
           ry="0.28907359"
           rx="0.24919443"
           cy="290.21072"
           cx="2.5791411"
           id="path4626-1"
           style="opacity:1;fill:#0caa1a;fill-opacity:1;fill-rule:nonzero;stroke:#0caa1a;stroke-width:0;stroke-linecap:round;stroke-linejoin:round;stroke-miterlimit:4;stroke-dasharray:none;stroke-opacity:1" />
        <path
           sodipodi:nodetypes="cc"
           inkscape:connector-curvature="0"
           id="path4632-2"
           d="m 3.6310108,290.95444 -0.00207,1.45694"
           style="opacity:1;fill:#ffffff;fill-opacity:1;fill-rule:nonzero;stroke:#0caa1a;stroke-width:0.06392849;stroke-linecap:round;stroke-linejoin:round;stroke-miterlimit:4;stroke-dasharray:none;stroke-opacity:1" />
        <path
           style="fill:#000000;fill-opacity:1;stroke:#0caa1a;stroke-width:0.18345045;stroke-linecap:butt;stroke-linejoin:miter;stroke-miterlimit:4;stroke-dasharray:none;stroke-opacity:1"
           d="m 1.5151969,293.29265 c 0.409966,-0.007 0.3110904,0.19425 0.7402111,0.16229 0.2018397,-0.0154 0.4741047,-0.0428 0.5056657,-0.31959 0.021163,-0.18563 -0.1850703,-0.24641 -0.3936821,-0.20526 -0.4243176,0.084 -0.4300267,0.27847 -0.8520867,0.36238"
           id="path1240-8-9-93-2-2-9-1-4-3"
           inkscape:connector-curvature="0"
           sodipodi:nodetypes="csssc" />
        <path
           sodipodi:nodetypes="cccccccccccccccccccccc"
           inkscape:connector-curvature="0"
           id="path4624-0"
           d="m 2.9097246,292.64697 0.1076,-0.6004 -0.3908853,-0.34893 -0.073043,0.14559 -0.032801,0.57041 -0.1119424,0.63427 0.026028,-0.64296 -0.00862,-0.54089 -0.012394,-0.93718 -0.2587423,0.36128 -0.013799,0.41186 -0.026854,-0.42556 0.3077135,-0.48905 0.311908,-0.0861 0.4972651,0.27847 0.3996799,-0.0232 -0.3917435,0.0428 -0.4798743,-0.23613 0.037554,0.18338 -0.063927,0.70555 0.3389336,0.39735 -0.1620563,0.57338"
           style="opacity:1;fill:#0caa1a;fill-opacity:1;fill-rule:nonzero;stroke:#0caa1a;stroke-width:0.19254491;stroke-linecap:round;stroke-linejoin:round;stroke-miterlimit:4;stroke-dasharray:none;stroke-opacity:1" />
        <path
           style="opacity:1;fill:#ffffff;fill-opacity:0;fill-rule:nonzero;stroke:#0caa1a;stroke-width:0.06418163;stroke-linecap:round;stroke-linejoin:round;stroke-miterlimit:4;stroke-dasharray:none;stroke-opacity:1"
           d="m 2.1411256,291.70002 -0.7126283,0.68783"
           id="path4632-1-9"
           inkscape:connector-curvature="0"
           sodipodi:nodetypes="cc" />
      </g>
    </g>
    <g
       id="g4441"
       transform="matrix(0.46999941,0,0,0.46999941,0.63177529,154.65026)">
      <path
         style="opacity:1;fill:#000000;fill-opacity:1;fill-rule:nonzero;stroke:none;stroke-width:0.24270947;stroke-linecap:round;stroke-linejoin:bevel;stroke-miterlimit:4;stroke-dasharray:none;stroke-opacity:1;paint-order:normal"
         d="m 2.6321457,285.99141 a 3.9687474,3.9687474 0 0 0 -3.9687497,3.96875 3.9687474,3.9687474 0 0 0 3.9687497,3.96876 3.9687474,3.9687474 0 0 0 3.968751,-3.96876 3.9687474,3.9687474 0 0 0 -3.968751,-3.96875 z"
         id="path13057"
         inkscape:connector-curvature="0" />
      <path
         clip-path="none"
         style="fill:#e22127;fill-opacity:1;stroke:#e22127;stroke-width:0.5;stroke-linecap:butt;stroke-linejoin:miter;stroke-miterlimit:4;stroke-dasharray:none;stroke-opacity:1"
         d="m -5.7988336,286.60382 9.2009382,6.25841"
         id="path868"
         inkscape:connector-curvature="0"
         sodipodi:nodetypes="cc" />
      <g
         style="fill:#e22127;fill-opacity:1"
         transform="matrix(1.1087339,0,0,1.1087339,-1.7689623,-34.891343)"
         id="g920">
        <path
           inkscape:connector-curvature="0"
           id="path953"
           d="m -0.61912183,290.18659 -0.2163894,0.60516 0.0240852,0.77375 6.22952953,4.22328 0.7196673,0.17408 0.870935,-0.35754 0.4492193,-0.81135 -0.320871,-0.90761 -0.7884254,-0.55923 -0.3117026,-0.96261 -0.8159293,-0.59591 -1.0726251,0.28421 -0.3781691,0.47214 -0.55694,-0.32545 -0.5958214,0.026 -0.3273701,-0.0486 z"
           style="fill:#e22127;fill-opacity:1;stroke:none;stroke-width:0.58673519px;stroke-linecap:butt;stroke-linejoin:miter;stroke-opacity:1" />
        <path
           style="fill:#e22127;fill-opacity:1;stroke:#000000;stroke-width:0.29336759;stroke-linecap:butt;stroke-linejoin:miter;stroke-miterlimit:4;stroke-dasharray:none;stroke-opacity:1"
           d="m -0.83551058,290.79176 3.38293828,2.3346"
           id="path853"
           inkscape:connector-curvature="0"
           sodipodi:nodetypes="cc" />
        <path
           style="opacity:1;fill:#e22127;fill-opacity:1;stroke:#000200;stroke-width:0.58654147;stroke-linecap:square;stroke-linejoin:round;stroke-miterlimit:4;stroke-dasharray:none;stroke-dashoffset:0;stroke-opacity:1;paint-order:stroke fill markers"
           id="path855-3"
           sodipodi:type="arc"
           sodipodi:cx="4.9626861"
           sodipodi:cy="293.16537"
           sodipodi:rx="1.1516277"
           sodipodi:ry="1.1516277"
           sodipodi:start="2.6504808"
           sodipodi:end="0.59525696"
           sodipodi:open="true"
           d="m 3.9471704,293.70849 a 1.1516277,1.1516277 0 0 1 0.3161962,-1.4581 1.1516277,1.1516277 0 0 1 1.489969,0.0777 1.1516277,1.1516277 0 0 1 0.1629033,1.48307" />
        <path
           style="opacity:1;fill:#e22127;fill-opacity:1;stroke:#000200;stroke-width:0.58673519;stroke-linecap:square;stroke-linejoin:round;stroke-miterlimit:4;stroke-dasharray:none;stroke-dashoffset:0;stroke-opacity:1;paint-order:stroke fill markers"
           id="path855-3-6"
           sodipodi:type="arc"
           sodipodi:cx="6.1039271"
           sodipodi:cy="294.6792"
           sodipodi:rx="1.1516277"
           sodipodi:ry="1.1516277"
           sodipodi:start="4.7174499"
           sodipodi:end="2.1013798"
           d="m 6.1097554,293.52759 a 1.1516277,1.1516277 0 0 1 1.0785761,0.76391 1.1516277,1.1516277 0 0 1 -0.3497634,1.27458 1.1516277,1.1516277 0 0 1 -1.3174068,0.10641"
           sodipodi:open="true" />
        <path
           style="fill:#e22127;fill-opacity:1;stroke:#000000;stroke-width:0.29336759;stroke-linecap:butt;stroke-linejoin:miter;stroke-miterlimit:4;stroke-dasharray:none;stroke-opacity:1"
           d="m -0.8114241,291.56552 6.0188387,4.09303"
           id="path853-7"
           inkscape:connector-curvature="0"
           sodipodi:nodetypes="cc" />
        <path
           style="fill:#e22127;fill-opacity:1;stroke:#000000;stroke-width:0.29336759;stroke-linecap:butt;stroke-linejoin:miter;stroke-miterlimit:4;stroke-dasharray:none;stroke-opacity:1"
           d="m -0.61912185,290.1866 3.07626405,2.13312"
           id="path853-5"
           inkscape:connector-curvature="0"
           sodipodi:nodetypes="cc" />
        <path
           style="opacity:1;fill:#e22127;fill-opacity:1;stroke:#000200;stroke-width:0.58673519;stroke-linecap:square;stroke-linejoin:round;stroke-miterlimit:4;stroke-dasharray:none;stroke-dashoffset:0;stroke-opacity:1;paint-order:stroke fill markers"
           id="path855-3-3-6-7"
           sodipodi:type="arc"
           sodipodi:cx="2.8929482"
           sodipodi:cy="-292.77124"
           sodipodi:rx="0.74545074"
           sodipodi:ry="0.74545074"
           sodipodi:start="5.5594558"
           sodipodi:end="2.5546232"
           d="m 3.4515452,-293.26487 a 0.74545074,0.74545074 0 0 1 0.1366616,0.76254 0.74545074,0.74545074 0 0 1 -0.6141969,0.47212 0.74545074,0.74545074 0 0 1 -0.7017411,-0.32817"
           sodipodi:open="true"
           transform="scale(1,-1)" />
        <path
           style="opacity:1;fill:#e22127;fill-opacity:1;stroke:#000200;stroke-width:0.58673519;stroke-linecap:square;stroke-linejoin:round;stroke-miterlimit:4;stroke-dasharray:none;stroke-dashoffset:0;stroke-opacity:1;paint-order:stroke fill markers"
           id="path855-3-3"
           sodipodi:type="arc"
           sodipodi:cx="5.2344289"
           sodipodi:cy="295.04831"
           sodipodi:rx="0.85160214"
           sodipodi:ry="0.85160214"
           sodipodi:start="6.2240512"
           sodipodi:end="3.1310433"
           d="m 6.0845425,294.99798 a 0.85160214,0.85160214 0 0 1 -0.3930467,0.76888 0.85160214,0.85160214 0 0 1 -0.8629939,0.0301 0.85160214,0.85160214 0 0 1 -0.4456278,-0.73965"
           sodipodi:open="true" />
        <path
           style="opacity:1;fill:#e22127;fill-opacity:1;stroke:#000200;stroke-width:0.58673519;stroke-linecap:square;stroke-linejoin:round;stroke-miterlimit:4;stroke-dasharray:none;stroke-dashoffset:0;stroke-opacity:1;paint-order:stroke fill markers"
           id="path855-3-3-6"
           sodipodi:type="arc"
           sodipodi:cx="5.1193671"
           sodipodi:cy="-293.95947"
           sodipodi:rx="0.74545074"
           sodipodi:ry="0.74545074"
           sodipodi:start="4.5007022"
           sodipodi:end="3.1310433"
           d="m 4.962741,-294.68828 a 0.74545074,0.74545074 0 0 1 0.7905377,0.33657 0.74545074,0.74545074 0 0 1 -0.051598,0.85765 0.74545074,0.74545074 0 0 1 -0.825187,0.23936 0.74545074,0.74545074 0 0 1 -0.502536,-0.69691"
           sodipodi:open="true"
           transform="scale(1,-1)" />
        <path
           style="fill:#e22127;fill-opacity:1;stroke:none;stroke-width:0.58673519px;stroke-linecap:butt;stroke-linejoin:miter;stroke-opacity:1"
           d="m 6.5428704,294.63345 -0.1320836,0.13816 -0.3415797,0.071 c 0.022087,0.11354 0.01366,0.0825 0.015346,0.15523 L 5.270324,295.52909 4.3828743,295.0573 c 0.00526,-0.0526 0.018827,-0.11487 0.018827,-0.11487 l -0.1817729,-0.13239 -0.551544,-0.37413 -0.9481078,-1.36687 -0.8995803,-0.62133 0.1153918,-0.30536 1.1658514,0.74624 0.341312,0.159 0.5394897,0.14038 0.00466,0.41204 0.5533139,0.12552 0.4220306,0.96252 -0.00483,0.403 0.7320456,-0.1763 0.097261,-0.15856 c 0.090069,-0.0632 0.1442338,-0.14059 0.1999217,-0.21754 l 0.4145438,-0.0889 z"
           id="path940"
           inkscape:connector-curvature="0"
           sodipodi:nodetypes="cccccccccccccccccccccccc" />
        <path
           style="fill:#e22127;fill-opacity:1;stroke:none;stroke-width:0.42368072px;stroke-linecap:butt;stroke-linejoin:miter;stroke-opacity:1"
           d="m 6.1055156,293.62192 -0.043285,-0.0909 c 0.032175,-0.004 0.064591,-0.004 0.097177,-6e-5 z"
           id="path946"
           inkscape:connector-curvature="0"
           sodipodi:nodetypes="cccc" />
      </g>
    </g>
  </g>
</svg>
