<?xml version="1.0" encoding="UTF-8" standalone="no"?>
<!-- Created with Inkscape (http://www.inkscape.org/) -->

<svg
   xmlns:dc="http://purl.org/dc/elements/1.1/"
   xmlns:cc="http://creativecommons.org/ns#"
   xmlns:rdf="http://www.w3.org/1999/02/22-rdf-syntax-ns#"
   xmlns:svg="http://www.w3.org/2000/svg"
   xmlns="http://www.w3.org/2000/svg"
   xmlns:sodipodi="http://sodipodi.sourceforge.net/DTD/sodipodi-0.dtd"
   xmlns:inkscape="http://www.inkscape.org/namespaces/inkscape"
   width="30"
   height="30"
   viewBox="0 0 7.9374998 7.9375002"
   version="1.1"
   id="svg909"
   inkscape:export-filename="/home/etienne/Crafts/caf-labels/docs/raquettes/raquettes.png"
   inkscape:export-xdpi="128"
   inkscape:export-ydpi="128"
   inkscape:version="0.92.2 2405546, 2018-03-11"
   sodipodi:docname="raquettes.svg">
  <defs
     id="defs903">
    <path
       inkscape:connector-curvature="0"
       id="path4636-3-3-2"
       d="m 13.002663,293.85892 a 2.8764884,2.8764884 0 0 1 -2.876488,2.87649 2.8764884,2.8764884 0 0 1 -2.8764885,-2.87649 2.8764884,2.8764884 0 0 1 2.8764885,-2.87649 2.8764884,2.8764884 0 0 1 2.876488,2.87649 z"
       style="opacity:1;fill:#000000;fill-opacity:1;fill-rule:nonzero;stroke:none;stroke-width:0.17591217;stroke-linecap:round;stroke-linejoin:bevel;stroke-miterlimit:4;stroke-dasharray:none;stroke-opacity:1;paint-order:normal" />
  </defs>
  <sodipodi:namedview
     id="base"
     pagecolor="#ffffff"
     bordercolor="#666666"
     borderopacity="1.0"
     inkscape:pageopacity="0.0"
     inkscape:pageshadow="2"
     inkscape:zoom="7.919596"
     inkscape:cx="5.7087186"
     inkscape:cy="3.6546623"
     inkscape:document-units="mm"
     inkscape:current-layer="layer1"
     showgrid="false"
     units="px"
     inkscape:window-width="1366"
     inkscape:window-height="704"
     inkscape:window-x="0"
     inkscape:window-y="27"
     inkscape:window-maximized="1" />
  <metadata
     id="metadata906">
    <rdf:RDF>
      <cc:Work
         rdf:about="">
        <dc:format>image/svg+xml</dc:format>
        <dc:type
           rdf:resource="http://purl.org/dc/dcmitype/StillImage" />
        <dc:title />
      </cc:Work>
    </rdf:RDF>
  </metadata>
  <g
     inkscape:label="Layer 1"
     inkscape:groupmode="layer"
     id="layer1"
     transform="translate(0,-289.06247)">
    <path
       inkscape:connector-curvature="0"
       id="path13057"
       d="M 3.96875,289.06246 A 3.9687474,3.9687474 0 0 0 3.9994312e-7,293.03121 3.9687474,3.9687474 0 0 0 3.96875,296.99997 3.9687474,3.9687474 0 0 0 7.9375004,293.03121 3.9687474,3.9687474 0 0 0 3.96875,289.06246 Z"
       style="opacity:1;fill:#000000;fill-opacity:1;fill-rule:nonzero;stroke:none;stroke-width:0.24270947;stroke-linecap:round;stroke-linejoin:bevel;stroke-miterlimit:4;stroke-dasharray:none;stroke-opacity:1;paint-order:normal" />
    <g
       id="g934"
       transform="matrix(2.0905626,0,0,2.0905626,-1.4507322,-316.68388)"
       style="stroke:#50e45a;stroke-opacity:1">
      <path
         style="fill:#000000;fill-opacity:1;stroke:#0caa1a;stroke-width:0.18345045;stroke-linecap:butt;stroke-linejoin:miter;stroke-miterlimit:4;stroke-dasharray:none;stroke-opacity:1"
         d="m 2.1920981,292.81368 c 0.4046528,0.0252 0.2015536,0.16689 0.6269933,0.16931 0.2001019,0.001 0.476879,-0.0631 0.5234963,-0.27528 0.037532,-0.17078 -0.1630649,-0.25743 -0.3719997,-0.2331 -0.4248349,0.0495 -0.3559056,0.28953 -0.7784955,0.33909"
         id="path1240-8-9-93-2-2-9-1-4-3-6"
         inkscape:connector-curvature="0"
         sodipodi:nodetypes="csssc" />
      <ellipse
         style="opacity:1;fill:#0caa1a;fill-opacity:1;fill-rule:nonzero;stroke:#0caa1a;stroke-width:0;stroke-linecap:round;stroke-linejoin:round;stroke-miterlimit:4;stroke-dasharray:none;stroke-opacity:1"
         id="path4626-1"
         cx="2.5791411"
         cy="290.21072"
         rx="0.24919443"
         ry="0.28907359" />
      <path
         style="opacity:1;fill:#ffffff;fill-opacity:1;fill-rule:nonzero;stroke:#0caa1a;stroke-width:0.06392849;stroke-linecap:round;stroke-linejoin:round;stroke-miterlimit:4;stroke-dasharray:none;stroke-opacity:1"
         d="m 3.6310108,290.95444 -0.00207,1.45694"
         id="path4632-2"
         inkscape:connector-curvature="0"
         sodipodi:nodetypes="cc" />
      <path
         sodipodi:nodetypes="csssc"
         inkscape:connector-curvature="0"
         id="path1240-8-9-93-2-2-9-1-4-3"
         d="m 1.5151969,293.29265 c 0.409966,-0.007 0.3110904,0.19425 0.7402111,0.16229 0.2018397,-0.0154 0.4741047,-0.0428 0.5056657,-0.31959 0.021163,-0.18563 -0.1850703,-0.24641 -0.3936821,-0.20526 -0.4243176,0.084 -0.4300267,0.27847 -0.8520867,0.36238"
         style="fill:#000000;fill-opacity:1;stroke:#0caa1a;stroke-width:0.18345045;stroke-linecap:butt;stroke-linejoin:miter;stroke-miterlimit:4;stroke-dasharray:none;stroke-opacity:1" />
      <path
         style="opacity:1;fill:#0caa1a;fill-opacity:1;fill-rule:nonzero;stroke:#0caa1a;stroke-width:0.19254491;stroke-linecap:round;stroke-linejoin:round;stroke-miterlimit:4;stroke-dasharray:none;stroke-opacity:1"
         d="m 2.9097246,292.64697 0.1076,-0.6004 -0.3908853,-0.34893 -0.073043,0.14559 -0.032801,0.57041 -0.1119424,0.63427 0.026028,-0.64296 -0.00862,-0.54089 -0.012394,-0.93718 -0.2587423,0.36128 -0.013799,0.41186 -0.026854,-0.42556 0.3077135,-0.48905 0.311908,-0.0861 0.4972651,0.27847 0.3996799,-0.0232 -0.3917435,0.0428 -0.4798743,-0.23613 0.037554,0.18338 -0.063927,0.70555 0.3389336,0.39735 -0.1620563,0.57338"
         id="path4624-0"
         inkscape:connector-curvature="0"
         sodipodi:nodetypes="cccccccccccccccccccccc" />
      <path
         sodipodi:nodetypes="cc"
         inkscape:connector-curvature="0"
         id="path4632-1-9"
         d="m 2.1411256,291.70002 -0.7126283,0.68783"
         style="opacity:1;fill:#ffffff;fill-opacity:0;fill-rule:nonzero;stroke:#0caa1a;stroke-width:0.06418163;stroke-linecap:round;stroke-linejoin:round;stroke-miterlimit:4;stroke-dasharray:none;stroke-opacity:1" />
    </g>
  </g>
</svg>
