<?xml version="1.0" encoding="UTF-8" standalone="no"?>
<!-- Created with Inkscape (http://www.inkscape.org/) -->

<svg
   xmlns:dc="http://purl.org/dc/elements/1.1/"
   xmlns:cc="http://creativecommons.org/ns#"
   xmlns:rdf="http://www.w3.org/1999/02/22-rdf-syntax-ns#"
   xmlns:svg="http://www.w3.org/2000/svg"
   xmlns="http://www.w3.org/2000/svg"
   xmlns:xlink="http://www.w3.org/1999/xlink"
   xmlns:sodipodi="http://sodipodi.sourceforge.net/DTD/sodipodi-0.dtd"
   xmlns:inkscape="http://www.inkscape.org/namespaces/inkscape"
   inkscape:export-ydpi="576"
   inkscape:export-xdpi="576"
   inkscape:export-filename="/home/etienne/Crafts/caf-labels/210x270/12-theorie.png"
   inkscape:version="0.92.2 2405546, 2018-03-11"
   sodipodi:docname="81-na2.svg"
   id="svg8"
   version="1.1"
   viewBox="0 0 9.2604169 11.90625"
   height="45"
   width="35">
  <defs
     id="defs2">
    <linearGradient
       inkscape:collect="always"
       id="linearGradient1493">
      <stop
         style="stop-color:#b20010;stop-opacity:1"
         offset="0"
         id="stop1489" />
      <stop
         style="stop-color:#000000;stop-opacity:0.99585062"
         offset="1"
         id="stop1491" />
    </linearGradient>
    <path
       inkscape:connector-curvature="0"
       id="path4636-3"
       d="m 13.002663,293.85892 a 2.8764884,2.8764884 0 0 1 -2.876488,2.87649 2.8764884,2.8764884 0 0 1 -2.8764885,-2.87649 2.8764884,2.8764884 0 0 1 2.8764885,-2.87649 2.8764884,2.8764884 0 0 1 2.876488,2.87649 z"
       style="opacity:1;fill:#000000;fill-opacity:1;fill-rule:nonzero;stroke:none;stroke-width:0.17591217;stroke-linecap:round;stroke-linejoin:bevel;stroke-miterlimit:4;stroke-dasharray:none;stroke-opacity:1;paint-order:normal" />
    <path
       inkscape:connector-curvature="0"
       id="path4636-1-3"
       d="m 7.2496865,293.85892 a 2.8764884,2.8764884 0 0 0 2.8764895,2.87649 2.8764884,2.8764884 0 0 0 2.876491,-2.87649 2.8764884,2.8764884 0 0 0 -2.876491,-2.87649 2.8764884,2.8764884 0 0 0 -2.8764895,2.87649 z"
       style="opacity:1;fill:#000000;fill-opacity:1;fill-rule:nonzero;stroke:none;stroke-width:0.17591217;stroke-linecap:round;stroke-linejoin:bevel;stroke-miterlimit:4;stroke-dasharray:none;stroke-opacity:1;paint-order:normal" />
    <clipPath
       clipPathUnits="userSpaceOnUse"
       id="clipPath974">
      <rect
         style="opacity:1;fill:#f44300;fill-opacity:1;stroke:none;stroke-width:0.89127684;stroke-linecap:square;stroke-linejoin:round;stroke-miterlimit:4;stroke-dasharray:none;stroke-dashoffset:0;stroke-opacity:1;paint-order:stroke fill markers"
         id="rect976"
         width="4.3298779"
         height="3.4234564"
         x="-4.4394069"
         y="286.76318"
         rx="0"
         ry="0" />
    </clipPath>
    <clipPath
       clipPathUnits="userSpaceOnUse"
       id="clipPath958">
      <rect
         style="opacity:1;fill:#6e356a;fill-opacity:1;stroke:none;stroke-width:0.03225468;stroke-linecap:butt;stroke-linejoin:round;stroke-miterlimit:4;stroke-dasharray:none;stroke-dashoffset:0;stroke-opacity:1;paint-order:stroke fill markers"
         id="rect960"
         width="4.2928185"
         height="3.9800308"
         x="1.9207945"
         y="286.99228" />
    </clipPath>
    <path
       inkscape:connector-curvature="0"
       id="path4636-3-1"
       d="m 13.002663,293.85892 a 2.8764884,2.8764884 0 0 1 -2.876488,2.87649 2.8764884,2.8764884 0 0 1 -2.8764885,-2.87649 2.8764884,2.8764884 0 0 1 2.8764885,-2.87649 2.8764884,2.8764884 0 0 1 2.876488,2.87649 z"
       style="opacity:1;fill:#000000;fill-opacity:1;fill-rule:nonzero;stroke:none;stroke-width:0.17591217;stroke-linecap:round;stroke-linejoin:bevel;stroke-miterlimit:4;stroke-dasharray:none;stroke-opacity:1;paint-order:normal" />
    <path
       inkscape:connector-curvature="0"
       id="path4636-1-3-4"
       d="m 7.2496865,293.85892 a 2.8764884,2.8764884 0 0 0 2.8764895,2.87649 2.8764884,2.8764884 0 0 0 2.876491,-2.87649 2.8764884,2.8764884 0 0 0 -2.876491,-2.87649 2.8764884,2.8764884 0 0 0 -2.8764895,2.87649 z"
       style="opacity:1;fill:#000000;fill-opacity:1;fill-rule:nonzero;stroke:none;stroke-width:0.17591217;stroke-linecap:round;stroke-linejoin:bevel;stroke-miterlimit:4;stroke-dasharray:none;stroke-opacity:1;paint-order:normal" />
    <radialGradient
       inkscape:collect="always"
       xlink:href="#linearGradient1493"
       id="radialGradient1519"
       cx="3.9173524"
       cy="292.24725"
       fx="3.9173524"
       fy="292.24725"
       r="4.365625"
       gradientTransform="matrix(0.96652218,0.66858659,-0.5152531,0.74486025,150.60118,72.309237)"
       gradientUnits="userSpaceOnUse" />
    <clipPath
       clipPathUnits="userSpaceOnUse"
       id="clipPath958-3">
      <rect
         style="opacity:1;fill:#6e356a;fill-opacity:1;stroke:none;stroke-width:0.03225468;stroke-linecap:butt;stroke-linejoin:round;stroke-miterlimit:4;stroke-dasharray:none;stroke-dashoffset:0;stroke-opacity:1;paint-order:stroke fill markers"
         id="rect960-6"
         width="4.2928185"
         height="3.9800308"
         x="1.9207945"
         y="286.99228" />
    </clipPath>
    <clipPath
       clipPathUnits="userSpaceOnUse"
       id="clipPath974-7">
      <rect
         style="opacity:1;fill:#f44300;fill-opacity:1;stroke:none;stroke-width:0.89127684;stroke-linecap:square;stroke-linejoin:round;stroke-miterlimit:4;stroke-dasharray:none;stroke-dashoffset:0;stroke-opacity:1;paint-order:stroke fill markers"
         id="rect976-5"
         width="4.3298779"
         height="3.4234564"
         x="-4.4394069"
         y="286.76318"
         rx="0"
         ry="0" />
    </clipPath>
    <radialGradient
       inkscape:collect="always"
       xlink:href="#linearGradient3127"
       id="radialGradient1511-3"
       cx="4.2046967"
       cy="292.43054"
       fx="4.2046967"
       fy="292.43054"
       r="4.3656249"
       gradientTransform="matrix(0.79320709,0.52540195,-0.42670443,0.64420201,125.55612,102.19747)"
       gradientUnits="userSpaceOnUse" />
    <linearGradient
       id="linearGradient3127"
       inkscape:collect="always">
      <stop
         id="stop3123"
         offset="0"
         style="stop-color:#0061aa;stop-opacity:1" />
      <stop
         id="stop3125"
         offset="1"
         style="stop-color:#000000;stop-opacity:1" />
    </linearGradient>
  </defs>
  <sodipodi:namedview
     showguides="true"
     inkscape:window-maximized="1"
     inkscape:window-y="27"
     inkscape:window-x="0"
     inkscape:window-height="704"
     inkscape:window-width="1366"
     units="px"
     showgrid="false"
     inkscape:current-layer="layer1"
     inkscape:document-units="px"
     inkscape:cy="28.71407"
     inkscape:cx="6.8807644"
     inkscape:zoom="5.6568542"
     inkscape:pageshadow="2"
     inkscape:pageopacity="0.0"
     borderopacity="1.0"
     bordercolor="#666666"
     pagecolor="#ffffff"
     id="base" />
  <metadata
     id="metadata5">
    <rdf:RDF>
      <cc:Work
         rdf:about="">
        <dc:format>image/svg+xml</dc:format>
        <dc:type
           rdf:resource="http://purl.org/dc/dcmitype/StillImage" />
        <dc:title />
      </cc:Work>
    </rdf:RDF>
  </metadata>
  <g
     inkscape:label="Layer 1"
     inkscape:groupmode="layer"
     id="layer1"
     transform="translate(0,-285.09375)">
    <path
       style="opacity:1;fill:url(#radialGradient1511-3);fill-opacity:1;fill-rule:nonzero;stroke:#000000;stroke-width:0.13229167;stroke-linecap:square;stroke-linejoin:miter;stroke-miterlimit:6;stroke-dasharray:none;stroke-opacity:1;paint-order:normal"
       d="m 1.3228147,285.42459 c -0.66268653,0 -0.99208553,0.32965 -0.99208553,0.99219 v 9.2603 c 0,0.64862 0.3301263,0.99219 0.99208553,0.99219 l 6.6145826,-10e-5 c 0.661387,0 0.992086,-0.32723 0.992086,-0.99209 v -9.2603 c 0,-0.6603 -0.331207,-0.99218 -0.992086,-0.99218 z"
       id="path5900-3-3"
       inkscape:connector-curvature="0"
       sodipodi:nodetypes="ccccccccc" />
    <text
       xml:space="preserve"
       style="font-style:normal;font-weight:normal;font-size:3.52777767px;line-height:6.61458349px;font-family:sans-serif;letter-spacing:0px;word-spacing:0px;fill:#000000;fill-opacity:1;stroke:none;stroke-width:0.26458335px;stroke-linecap:butt;stroke-linejoin:miter;stroke-opacity:1"
       id="text4655"
       transform="translate(-0.14432892,1.1084295)"><textPath
         xlink:href="#path4665-5"
         id="textPath4695"></textPath></text>
    <text
       xml:space="preserve"
       style="font-style:normal;font-weight:normal;font-size:3.52777767px;line-height:6.61458349px;font-family:sans-serif;letter-spacing:0px;word-spacing:0px;fill:#000000;fill-opacity:1;stroke:none;stroke-width:0.26458335px;stroke-linecap:butt;stroke-linejoin:miter;stroke-opacity:1"
       id="text4659"
       transform="translate(-0.02338608,0.15498933)"><textPath
         xlink:href="#path4665"
         id="textPath4674"></textPath></text>
    <text
       xml:space="preserve"
       style="font-style:normal;font-weight:normal;font-size:3.52777767px;line-height:6.61458349px;font-family:sans-serif;letter-spacing:0px;word-spacing:0px;fill:#000000;fill-opacity:1;stroke:none;stroke-width:0.26458335px;stroke-linecap:butt;stroke-linejoin:miter;stroke-opacity:1"
       x="-3.3403645"
       y="294.65182"
       id="text4700"><tspan
         sodipodi:role="line"
         id="tspan4698"
         x="-3.3403645"
         y="298.87552"
         style="stroke-width:0.26458335px" /></text>
    <text
       xml:space="preserve"
       style="font-style:normal;font-weight:normal;font-size:10.58333302px;line-height:6.61458349px;font-family:sans-serif;letter-spacing:0px;word-spacing:0px;fill:#000000;fill-opacity:1;stroke:none;stroke-width:0.26458335px;stroke-linecap:butt;stroke-linejoin:miter;stroke-opacity:1"
       x="2.6076558"
       y="295.13992"
       id="text5863-0-0"><tspan
         sodipodi:role="line"
         id="tspan5861-3-9"
         x="2.6076558"
         y="301.19641"
         style="font-style:normal;font-variant:normal;font-weight:bold;font-stretch:normal;font-size:1.41111112px;font-family:sans-serif;-inkscape-font-specification:'sans-serif Bold';fill:#d48100;fill-opacity:1;stroke-width:0.26458335px" /></text>
    <path
       style="opacity:1;fill:#ffffff;fill-opacity:1;fill-rule:nonzero;stroke:#000000;stroke-width:0.13227685;stroke-miterlimit:4;stroke-dasharray:none;stroke-opacity:1"
       d="m 0.3309582,290.63216 c 1.4614567,1.34667 8.4679688,5.63167 8.4679688,5.63167 -0.1529973,0.26803 -0.4400268,0.40173 -0.8611906,0.40173 H 1.3231531 c -0.6619909,0 -0.9921915,-0.32967 -0.9921915,-0.9922 z"
       id="path4565-6-36"
       inkscape:connector-curvature="0"
       sodipodi:nodetypes="cccccc" />
    <path
       style="font-style:normal;font-variant:normal;font-weight:bold;font-stretch:normal;font-size:10.93088341px;line-height:6.83180189px;font-family:Verdana;-inkscape-font-specification:'Verdana Bold';letter-spacing:0px;word-spacing:0px;opacity:1;fill:#004f8a;fill-opacity:1;stroke:#000000;stroke-width:0;stroke-linecap:butt;stroke-linejoin:miter;stroke-miterlimit:4;stroke-dasharray:none;stroke-opacity:1"
       d="m 6.6850645,285.80383 c -0.3785366,0 -0.7637968,0.0399 -1.1559205,0.11849 -0.3894006,0.0786 -0.6877615,0.15717 -0.8947012,0.23584 l -0.2168013,1.25956 h 0.130081 c 0.2627832,-0.1496 0.5405984,-0.27269 0.8323052,-0.36907 0.294429,-0.0965 0.566956,-0.1449 0.8174989,-0.1449 0.3349647,0 0.5783072,0.0716 0.7307786,0.21363 0.1556332,0.13957 0.2107402,0.33771 0.1660384,0.59646 -0.037254,0.21561 -0.1434263,0.43395 -0.3204429,0.65465 -0.1770157,0.22069 -0.4567992,0.47945 -0.8375935,0.77623 -0.2552087,0.20036 -0.5903314,0.43949 -1.0057459,0.71598 -0.4126904,0.27651 -0.8225187,0.5376 -1.2299504,0.78365 l -0.1618076,0.93595 4.6448342,0.0123 c 0.096762,-0.0665 0.179299,-0.13711 0.2305492,-0.21045 l 0.1258512,-0.87356 -2.7718831,-0.0123 c 0.1184813,-0.0709 0.3184203,-0.19565 0.5996411,-0.37333 0.2816585,-0.1801 0.5656509,-0.37705 0.8502839,-0.59012 0.4540418,-0.34246 0.8038747,-0.67408 1.0501631,-0.99624 0.2490124,-0.32215 0.4045924,-0.66286 0.4663867,-1.02054 0.094229,-0.5454 -0.033789,-0.96596 -0.3828378,-1.26273 -0.3486108,-0.29933 -0.904205,-0.44948 -1.6667264,-0.44948 z"
       id="text5863-2-7-6-9"
       inkscape:connector-curvature="0"
       sodipodi:nodetypes="ccccccscccccccccccccccccc" />
    <text
       xml:space="preserve"
       style="font-style:normal;font-weight:normal;font-size:10.58333397px;line-height:1.25;font-family:sans-serif;letter-spacing:0px;word-spacing:0px;fill:#000000;fill-opacity:1;stroke:none;stroke-width:0.26458335"
       x="-1.769401"
       y="287.14426"
       id="text4679"><tspan
         sodipodi:role="line"
         id="tspan4677"
         x="-1.769401"
         y="296.50803"
         style="stroke-width:0.26458335" /></text>
    <g
       transform="translate(-2.6084616,-3.5221793)"
       id="g4605">
      <path
         sodipodi:nodetypes="cccccccccccccccccccccccccccccccccccccccccccccccccccc"
         inkscape:connector-curvature="0"
         id="path1012"
         d="m -7.303326,292.54694 0.1589376,0.10566 v 0.49301 l 0.2699753,-0.15589 0.1428838,0.0826 v 0.17243 l -0.4020402,0.23214 v 0.31605 l 0.295028,-0.16312 0.00219,0.33356 0.2804785,-0.16186 v -0.46803 l 0.1597036,-0.0984 0.1382628,0.091 v 0.3098 l 0.4206583,-0.24604 0.1737994,0.0878 0.00149,0.20261 -0.4332726,0.2314 0.2698713,0.15231 7.417e-4,0.18264 -0.1530503,0.0806 -0.4069561,-0.23627 -0.2645453,0.15476 0.2718652,0.17046 -0.288595,0.16782 0.2666363,0.15632 0.4045887,-0.23674 0.1610995,0.0904 0.00157,0.18455 -0.2682044,0.13752 0.4357666,0.24492 0.00236,0.19999 -0.1900439,0.0833 -0.4226967,-0.24337 9.646e-4,0.30326 -0.1338403,0.0915 -0.1584129,-0.0988 -0.00472,-0.46269 -0.2666363,-0.1579 -0.0042,0.34299 -0.2927778,-0.19032 0.00105,0.31789 0.4015234,0.22166 0.00315,0.18508 -0.144297,0.0826 -0.2697734,-0.15685 0.00105,0.48832 -0.1617046,0.10562 -0.1597046,-0.10501 2.4e-5,-3.5156 z"
         style="fill:#000000;fill-opacity:1;stroke:#000000;stroke-width:0;stroke-linecap:butt;stroke-linejoin:miter;stroke-miterlimit:4;stroke-dasharray:none;stroke-opacity:1" />
      <path
         sodipodi:nodetypes="cccccccccccccccccccccccccccccccccccccccccccccccccccc"
         inkscape:connector-curvature="0"
         id="path1012-3"
         d="m -7.3136233,292.54494 -0.1589376,0.10566 v 0.49301 l -0.2699753,-0.15589 -0.1428837,0.0826 v 0.17243 l 0.4020402,0.23214 v 0.31605 l -0.2950281,-0.16312 -0.00219,0.33356 -0.2804785,-0.16186 v -0.46803 l -0.1597036,-0.0984 -0.1382628,0.091 v 0.3098 l -0.4206583,-0.24604 -0.1737994,0.0878 -0.00149,0.20261 0.4332726,0.2314 -0.2698713,0.15231 -7.408e-4,0.18264 0.153049,0.0806 0.4069561,-0.23627 0.2645453,0.15476 -0.2718652,0.17046 0.288595,0.16782 -0.2666363,0.15632 -0.4045887,-0.23674 -0.1610995,0.0904 -0.00157,0.18455 0.2682044,0.13752 -0.4357666,0.24492 -0.00236,0.19999 0.1900439,0.0833 0.4226967,-0.24337 -9.658e-4,0.30326 0.1338405,0.0915 0.1584129,-0.0988 0.00472,-0.46269 0.2666363,-0.1579 0.0042,0.34299 0.2927778,-0.19032 -0.00105,0.31789 -0.4015234,0.22166 -0.00315,0.18508 0.144297,0.0826 0.2697734,-0.15685 -0.00105,0.48832 0.1617055,0.10562 0.1597046,-0.10501 -2.35e-5,-3.5156 z"
         style="fill:#000000;fill-opacity:1;stroke:#000000;stroke-width:0;stroke-linecap:butt;stroke-linejoin:miter;stroke-miterlimit:4;stroke-dasharray:none;stroke-opacity:1" />
    </g>
    <text
       xml:space="preserve"
       style="font-style:normal;font-weight:normal;font-size:1.76388884px;line-height:1.80000007px;font-family:sans-serif;text-align:center;letter-spacing:-0.02910417px;word-spacing:0px;text-anchor:middle;fill:#ffffff;fill-opacity:1;stroke:none;stroke-width:0.31030414px;stroke-linecap:butt;stroke-linejoin:miter;stroke-opacity:1"
       x="2.811904"
       y="286.93283"
       id="text5863-5"
       transform="scale(0.99999651,1.0000035)"><tspan
         sodipodi:role="line"
         x="2.7973518"
         y="286.93283"
         style="font-style:normal;font-variant:normal;font-weight:bold;font-stretch:normal;font-size:1.76388896px;line-height:1.70000005px;font-family:Carlito;-inkscape-font-specification:'Carlito Bold';text-align:center;letter-spacing:-0.02910417px;word-spacing:0px;text-anchor:middle;fill:#ffffff;fill-opacity:1;stroke-width:0.31030414px"
         dx="-1.9433931e-10 -0.082682297 -0.099218749 -0.099218749 -0.099218749 0 0 0 0 0 0 0 0 0 0 0 3.1179975e-10"
         id="tspan4560">NEIGE</tspan></text>
    <text
       xml:space="preserve"
       style="font-style:normal;font-weight:normal;font-size:1.76388884px;line-height:1.80000007px;font-family:sans-serif;text-align:center;letter-spacing:-0.02910417px;word-spacing:0px;text-anchor:middle;fill:#ffffff;fill-opacity:1;stroke:none;stroke-width:0.31030414px;stroke-linecap:butt;stroke-linejoin:miter;stroke-opacity:1"
       x="4.6491027"
       y="289.29868"
       id="text5863-5-3"
       transform="scale(0.99999651,1.0000035)"><tspan
         sodipodi:role="line"
         x="4.634551"
         y="289.29868"
         style="font-style:normal;font-variant:normal;font-weight:bold;font-stretch:normal;font-size:1.76388896px;line-height:1.70000005px;font-family:Carlito;-inkscape-font-specification:'Carlito Bold';text-align:center;letter-spacing:-0.02910417px;word-spacing:0px;text-anchor:middle;fill:#ffffff;fill-opacity:1;stroke-width:0.31030414px"
         dx="-7.631896e-09 -0.29765624 -0.29765624 -0.06614583 -3.9196295e-09 -0.06614583 -0.1157552 -0.06614583 -0.1157552 -0.099218749 0 0 0 0 0 0 0 0 0 0 0 3.1179975e-10"
         id="tspan4560-6">AVALANCHES</tspan></text>
    <text
       xml:space="preserve"
       style="font-style:normal;font-weight:normal;font-size:1.23472226px;line-height:1.80000007px;font-family:sans-serif;text-align:center;letter-spacing:-0.15875px;word-spacing:0px;text-anchor:middle;fill:#ffffff;fill-opacity:1;stroke:none;stroke-width:0;stroke-linecap:butt;stroke-linejoin:miter;stroke-miterlimit:4;stroke-dasharray:none;stroke-opacity:1"
       x="2.8832116"
       y="288.02994"
       id="text5863-5-6"
       transform="scale(0.99999651,1.0000035)"><tspan
         sodipodi:role="line"
         x="2.8832116"
         y="288.02994"
         style="font-style:normal;font-variant:normal;font-weight:bold;font-stretch:normal;font-size:1.41111124px;line-height:1.70000005px;font-family:Carlito;-inkscape-font-specification:'Carlito Bold';text-align:center;letter-spacing:0px;word-spacing:0px;text-anchor:middle;fill:#ffffff;fill-opacity:1;stroke:#ffffff;stroke-width:0;stroke-miterlimit:4;stroke-dasharray:none;stroke-opacity:1"
         dx="0 0 0 0 0 0 0 0 0 0 0 0 3.1179975e-10"
         id="tspan4560-8">&amp;</tspan></text>
    <g
       id="g951"
       transform="matrix(2.0452198,0,0,2.0452198,-3.5315719,-299.53435)"
       clip-path="url(#clipPath958-3)">
      <g
         id="g966"
         transform="matrix(0.90898762,0,0,0.90898762,5.5983171,27.066978)"
         clip-path="url(#clipPath974-7)">
        <path
           inkscape:connector-curvature="0"
           id="path953"
           d="m -5.6514578,285.97193 -0.097579,0.27289 0.010861,0.34892 2.8091546,1.90445 0.324528,0.0785 0.3927409,-0.16123 0.2025717,-0.36587 -0.1446941,-0.40928 -0.3555339,-0.25218 -0.1405597,-0.43408 -0.3679365,-0.26872 -0.4836914,0.12816 -0.1705322,0.21291 -0.2511475,-0.14676 -0.2686807,0.0117 -0.1476248,-0.0219 z"
           style="fill:#ffffff;fill-opacity:1;stroke:none;stroke-width:0.26458335px;stroke-linecap:butt;stroke-linejoin:miter;stroke-opacity:1"
           transform="translate(1.1693042,1.1225245)" />
        <path
           style="fill:none;stroke:#000000;stroke-width:0.13229167;stroke-linecap:butt;stroke-linejoin:miter;stroke-miterlimit:4;stroke-dasharray:none;stroke-opacity:1"
           d="m -4.5797323,287.36735 1.5255079,1.05277"
           id="path853"
           inkscape:connector-curvature="0"
           sodipodi:nodetypes="cc" />
        <path
           style="opacity:1;fill:#ffffff;fill-opacity:1;stroke:#000200;stroke-width:0.264496;stroke-linecap:square;stroke-linejoin:round;stroke-miterlimit:4;stroke-dasharray:none;stroke-dashoffset:0;stroke-opacity:1;paint-order:stroke fill markers"
           id="path855-3"
           sodipodi:type="arc"
           sodipodi:cx="-1.9650836"
           sodipodi:cy="288.43771"
           sodipodi:rx="0.51931691"
           sodipodi:ry="0.51931691"
           sodipodi:start="2.6504808"
           sodipodi:end="0.59525696"
           sodipodi:open="true"
           d="m -2.4230219,288.68263 a 0.51931691,0.51931691 0 0 1 0.142586,-0.65752 0.51931691,0.51931691 0 0 1 0.6718891,0.035 0.51931691,0.51931691 0 0 1 0.07346,0.66878" />
        <path
           style="opacity:1;fill:#ffffff;fill-opacity:1;stroke:#000200;stroke-width:0.26458335;stroke-linecap:square;stroke-linejoin:round;stroke-miterlimit:4;stroke-dasharray:none;stroke-dashoffset:0;stroke-opacity:1;paint-order:stroke fill markers"
           id="path855-3-6"
           sodipodi:type="arc"
           sodipodi:cx="-1.4504505"
           sodipodi:cy="289.12036"
           sodipodi:rx="0.51931691"
           sodipodi:ry="0.51931691"
           sodipodi:start="4.7174499"
           sodipodi:end="2.1013798"
           d="m -1.4478223,288.60105 a 0.51931691,0.51931691 0 0 1 0.48637489,0.34448 0.51931691,0.51931691 0 0 1 -0.15772289,0.57476 0.51931691,0.51931691 0 0 1 -0.5940736,0.048"
           sodipodi:open="true" />
        <path
           style="fill:none;stroke:#000000;stroke-width:0.13229167;stroke-linecap:butt;stroke-linejoin:miter;stroke-miterlimit:4;stroke-dasharray:none;stroke-opacity:1"
           d="m -4.5688707,287.71627 2.7141453,1.84572"
           id="path853-7"
           inkscape:connector-curvature="0"
           sodipodi:nodetypes="cc" />
        <path
           style="fill:none;stroke:#000000;stroke-width:0.13229167;stroke-linecap:butt;stroke-linejoin:miter;stroke-miterlimit:4;stroke-dasharray:none;stroke-opacity:1"
           d="m -4.4821536,287.09446 1.3872157,0.96191"
           id="path853-5"
           inkscape:connector-curvature="0"
           sodipodi:nodetypes="cc" />
        <path
           style="opacity:1;fill:#ffffff;fill-opacity:1;stroke:#000200;stroke-width:0.26458335;stroke-linecap:square;stroke-linejoin:round;stroke-miterlimit:4;stroke-dasharray:none;stroke-dashoffset:0;stroke-opacity:1;paint-order:stroke fill markers"
           id="path855-3-3-6-7"
           sodipodi:type="arc"
           sodipodi:cx="-2.8984149"
           sodipodi:cy="-288.25998"
           sodipodi:rx="0.33615482"
           sodipodi:ry="0.33615482"
           sodipodi:start="5.5594558"
           sodipodi:end="2.5546232"
           d="m -2.6465202,-288.48258 a 0.33615482,0.33615482 0 0 1 0.061626,0.34386 0.33615482,0.33615482 0 0 1 -0.2769669,0.2129 0.33615482,0.33615482 0 0 1 -0.3164444,-0.14798"
           sodipodi:open="true"
           transform="scale(1,-1)" />
        <path
           style="opacity:1;fill:#ffffff;fill-opacity:1;stroke:#000200;stroke-width:0.26458335;stroke-linecap:square;stroke-linejoin:round;stroke-miterlimit:4;stroke-dasharray:none;stroke-dashoffset:0;stroke-opacity:1;paint-order:stroke fill markers"
           id="path855-3-3"
           sodipodi:type="arc"
           sodipodi:cx="-1.8425435"
           sodipodi:cy="289.2868"
           sodipodi:rx="0.38402292"
           sodipodi:ry="0.38402292"
           sodipodi:start="6.2240512"
           sodipodi:end="3.1310433"
           d="m -1.4591918,289.26411 a 0.38402292,0.38402292 0 0 1 -0.1772412,0.34672 0.38402292,0.38402292 0 0 1 -0.3891599,0.0136 0.38402292,0.38402292 0 0 1 -0.2009521,-0.33353"
           sodipodi:open="true" />
        <path
           style="opacity:1;fill:#ffffff;fill-opacity:1;stroke:#000200;stroke-width:0.26458335;stroke-linecap:square;stroke-linejoin:round;stroke-miterlimit:4;stroke-dasharray:none;stroke-dashoffset:0;stroke-opacity:1;paint-order:stroke fill markers"
           id="path855-3-3-6"
           sodipodi:type="arc"
           sodipodi:cx="-1.8944296"
           sodipodi:cy="-288.79581"
           sodipodi:rx="0.33615482"
           sodipodi:ry="0.33615482"
           sodipodi:start="4.5007022"
           sodipodi:end="3.1310433"
           d="m -1.9650588,-289.12446 a 0.33615482,0.33615482 0 0 1 0.3564864,0.15178 0.33615482,0.33615482 0 0 1 -0.023268,0.38675 0.33615482,0.33615482 0 0 1 -0.3721112,0.10794 0.33615482,0.33615482 0 0 1 -0.2266145,-0.31427"
           sodipodi:open="true"
           transform="scale(1,-1)" />
        <path
           style="fill:#ffffff;fill-opacity:1;stroke:none;stroke-width:0.26458335px;stroke-linecap:butt;stroke-linejoin:miter;stroke-opacity:1"
           d="m -1.2525127,289.09973 -0.059562,0.0623 -0.1540325,0.032 c 0.00996,0.0512 0.00616,0.0372 0.00692,0.07 l -0.3671697,0.23958 -0.4001881,-0.21275 c 0.00237,-0.0237 0.00849,-0.0518 0.00849,-0.0518 l -0.081969,-0.0597 -0.2487142,-0.16871 -0.4275413,-0.61638 -0.4056583,-0.28018 0.052035,-0.1377 0.525731,0.33651 0.1539118,0.0717 0.2432784,0.0633 0.0021,0.18581 0.2495123,0.0566 0.1903112,0.43404 -0.00218,0.18173 0.3301099,-0.0795 0.043859,-0.0715 c 0.040616,-0.0285 0.065041,-0.0634 0.090153,-0.0981 l 0.1869351,-0.0401 z"
           id="path940"
           inkscape:connector-curvature="0"
           sodipodi:nodetypes="cccccccccccccccccccccccc" />
        <path
           style="fill:#ffffff;fill-opacity:1;stroke:none;stroke-width:0.1910553px;stroke-linecap:butt;stroke-linejoin:miter;stroke-opacity:1"
           d="m -1.4497342,288.64359 -0.019519,-0.041 c 0.014509,-0.002 0.029127,-0.002 0.043821,-3e-5 z"
           id="path946"
           inkscape:connector-curvature="0"
           sodipodi:nodetypes="cccc" />
      </g>
    </g>
  </g>
</svg>
