<?xml version="1.0" encoding="UTF-8" standalone="no"?>
<!-- Created with Inkscape (http://www.inkscape.org/) -->

<svg
   xmlns:dc="http://purl.org/dc/elements/1.1/"
   xmlns:cc="http://creativecommons.org/ns#"
   xmlns:rdf="http://www.w3.org/1999/02/22-rdf-syntax-ns#"
   xmlns:svg="http://www.w3.org/2000/svg"
   xmlns="http://www.w3.org/2000/svg"
   xmlns:xlink="http://www.w3.org/1999/xlink"
   xmlns:sodipodi="http://sodipodi.sourceforge.net/DTD/sodipodi-0.dtd"
   xmlns:inkscape="http://www.inkscape.org/namespaces/inkscape"
   inkscape:export-ydpi="576"
   inkscape:export-xdpi="576"
   inkscape:export-filename="/home/etienne/Crafts/caf-labels/210x270/12-theorie.png"
   inkscape:version="0.92.2 5c3e80d, 2017-08-06"
   sodipodi:docname="12-theorie.svg"
   id="svg8"
   version="1.1"
   viewBox="0 0 9.2604169 11.90625"
   height="45"
   width="35">
  <defs
     id="defs2">
    <path
       inkscape:connector-curvature="0"
       id="path4636-3"
       d="m 13.002663,293.85892 a 2.8764884,2.8764884 0 0 1 -2.876488,2.87649 2.8764884,2.8764884 0 0 1 -2.8764885,-2.87649 2.8764884,2.8764884 0 0 1 2.8764885,-2.87649 2.8764884,2.8764884 0 0 1 2.876488,2.87649 z"
       style="opacity:1;fill:#000000;fill-opacity:1;fill-rule:nonzero;stroke:none;stroke-width:0.17591217;stroke-linecap:round;stroke-linejoin:bevel;stroke-miterlimit:4;stroke-dasharray:none;stroke-opacity:1;paint-order:normal" />
    <path
       inkscape:connector-curvature="0"
       id="path4636-1-3"
       d="m 7.2496865,293.85892 a 2.8764884,2.8764884 0 0 0 2.8764895,2.87649 2.8764884,2.8764884 0 0 0 2.876491,-2.87649 2.8764884,2.8764884 0 0 0 -2.876491,-2.87649 2.8764884,2.8764884 0 0 0 -2.8764895,2.87649 z"
       style="opacity:1;fill:#000000;fill-opacity:1;fill-rule:nonzero;stroke:none;stroke-width:0.17591217;stroke-linecap:round;stroke-linejoin:bevel;stroke-miterlimit:4;stroke-dasharray:none;stroke-opacity:1;paint-order:normal" />
    <clipPath
       clipPathUnits="userSpaceOnUse"
       id="clipPath974">
      <rect
         style="opacity:1;fill:#f44300;fill-opacity:1;stroke:none;stroke-width:0.89127684;stroke-linecap:square;stroke-linejoin:round;stroke-miterlimit:4;stroke-dasharray:none;stroke-dashoffset:0;stroke-opacity:1;paint-order:stroke fill markers"
         id="rect976"
         width="4.3298779"
         height="3.4234564"
         x="-4.4394069"
         y="286.76318"
         rx="0"
         ry="0" />
    </clipPath>
    <clipPath
       clipPathUnits="userSpaceOnUse"
       id="clipPath958">
      <rect
         style="opacity:1;fill:#6e356a;fill-opacity:1;stroke:none;stroke-width:0.03225468;stroke-linecap:butt;stroke-linejoin:round;stroke-miterlimit:4;stroke-dasharray:none;stroke-dashoffset:0;stroke-opacity:1;paint-order:stroke fill markers"
         id="rect960"
         width="4.2928185"
         height="3.9800308"
         x="1.9207945"
         y="286.99228" />
    </clipPath>
  </defs>
  <sodipodi:namedview
     showguides="true"
     inkscape:window-maximized="1"
     inkscape:window-y="27"
     inkscape:window-x="0"
     inkscape:window-height="704"
     inkscape:window-width="1366"
     units="px"
     showgrid="false"
     inkscape:current-layer="layer1"
     inkscape:document-units="px"
     inkscape:cy="2.213019"
     inkscape:cx="27.922474"
     inkscape:zoom="8.0000004"
     inkscape:pageshadow="2"
     inkscape:pageopacity="0.0"
     borderopacity="1.0"
     bordercolor="#666666"
     pagecolor="#ffffff"
     id="base" />
  <metadata
     id="metadata5">
    <rdf:RDF>
      <cc:Work
         rdf:about="">
        <dc:format>image/svg+xml</dc:format>
        <dc:type
           rdf:resource="http://purl.org/dc/dcmitype/StillImage" />
        <dc:title />
      </cc:Work>
    </rdf:RDF>
  </metadata>
  <g
     inkscape:label="Layer 1"
     inkscape:groupmode="layer"
     id="layer1"
     transform="translate(0,-285.09375)">
    <path
       style="opacity:1;fill:#000000;fill-opacity:1;fill-rule:nonzero;stroke:#000000;stroke-width:0.13249582;stroke-linecap:square;stroke-linejoin:miter;stroke-miterlimit:6;stroke-dasharray:none;stroke-opacity:1;paint-order:normal"
       d="m 1.3229168,285.42449 c -0.66268655,0 -0.99208555,0.32965 -0.99208555,0.99219 v 9.2603 c 0,0.64862 0.3301263,0.99219 0.99208555,0.99219 l 6.6145833,-1e-4 c 0.6613861,0 0.9920853,-0.32723 0.9920853,-0.99209 v -9.2603 c 0,-0.6603 -0.3312072,-0.99218 -0.9920853,-0.99218 z"
       id="path5900-3"
       inkscape:connector-curvature="0"
       sodipodi:nodetypes="ccccccccc" />
    <text
       xml:space="preserve"
       style="font-style:normal;font-weight:normal;font-size:3.52777767px;line-height:6.61458349px;font-family:sans-serif;letter-spacing:0px;word-spacing:0px;fill:#000000;fill-opacity:1;stroke:none;stroke-width:0.26458335px;stroke-linecap:butt;stroke-linejoin:miter;stroke-opacity:1"
       id="text4655"
       transform="translate(-0.14432892,1.1084295)"><textPath
         xlink:href="#path4665-5"
         id="textPath4695"></textPath></text>
    <text
       xml:space="preserve"
       style="font-style:normal;font-weight:normal;font-size:3.52777767px;line-height:6.61458349px;font-family:sans-serif;letter-spacing:0px;word-spacing:0px;fill:#000000;fill-opacity:1;stroke:none;stroke-width:0.26458335px;stroke-linecap:butt;stroke-linejoin:miter;stroke-opacity:1"
       id="text4659"
       transform="translate(-0.02338608,0.15498933)"><textPath
         xlink:href="#path4665"
         id="textPath4674"></textPath></text>
    <text
       xml:space="preserve"
       style="font-style:normal;font-weight:normal;font-size:3.52777767px;line-height:6.61458349px;font-family:sans-serif;letter-spacing:0px;word-spacing:0px;fill:#000000;fill-opacity:1;stroke:none;stroke-width:0.26458335px;stroke-linecap:butt;stroke-linejoin:miter;stroke-opacity:1"
       x="-3.3403645"
       y="294.65182"
       id="text4700"><tspan
         sodipodi:role="line"
         id="tspan4698"
         x="-3.3403645"
         y="298.87552"
         style="stroke-width:0.26458335px" /></text>
    <text
       xml:space="preserve"
       style="font-style:normal;font-weight:normal;font-size:10.58333302px;line-height:6.61458349px;font-family:sans-serif;letter-spacing:0px;word-spacing:0px;fill:#000000;fill-opacity:1;stroke:none;stroke-width:0.26458335px;stroke-linecap:butt;stroke-linejoin:miter;stroke-opacity:1"
       x="2.6076558"
       y="295.13992"
       id="text5863-0-0"><tspan
         sodipodi:role="line"
         id="tspan5861-3-9"
         x="2.6076558"
         y="301.19641"
         style="font-style:normal;font-variant:normal;font-weight:bold;font-stretch:normal;font-size:1.41111112px;font-family:sans-serif;-inkscape-font-specification:'sans-serif Bold';fill:#d48100;fill-opacity:1;stroke-width:0.26458335px" /></text>
    <path
       inkscape:connector-curvature="0"
       style="opacity:1;fill:#ffffff;fill-opacity:1;fill-rule:nonzero;stroke:#000200;stroke-width:0.13226186;stroke-miterlimit:4;stroke-dasharray:none;stroke-opacity:1"
       d="m 0.33072917,290.45338 v 5.2237 c 0.0151425,0.66122 0.33117283,0.9933 1.03328263,0.9933 l 6.5734883,-0.001 c 0.5016214,0 0.8116421,-0.18857 0.9328139,-0.56751 l -3.9255428,-2.74755 -0.3830472,0.0305 z"
       id="path4565"
       sodipodi:nodetypes="cccccccc" />
    <text
       xml:space="preserve"
       style="font-style:normal;font-weight:normal;font-size:1.76388884px;line-height:1.80000007px;font-family:sans-serif;text-align:center;letter-spacing:-0.15875px;word-spacing:0px;text-anchor:middle;fill:#ffffff;fill-opacity:1;stroke:none;stroke-width:0.31030414px;stroke-linecap:butt;stroke-linejoin:miter;stroke-opacity:1"
       x="4.5988355"
       y="287.19736"
       id="text5863-5"
       transform="scale(0.99999651,1.0000035)"><tspan
         sodipodi:role="line"
         x="4.5988355"
         y="287.19736"
         style="font-style:normal;font-variant:normal;font-weight:bold;font-stretch:normal;font-size:1.76388896px;line-height:1.70000005px;font-family:Carlito;-inkscape-font-specification:'Carlito Bold';text-align:center;letter-spacing:0px;word-spacing:0px;text-anchor:middle;fill:#ffffff;fill-opacity:1;stroke-width:0.31030414px"
         dx="0 0 0 0 0 0 0 0 0 0 0 0 0 0 0 0 0 0 3.1179975e-10"
         id="tspan6000">THÉORIE</tspan></text>
    <g
       id="g4640"
       transform="matrix(2.4964373,0.06638412,-0.06638412,2.4964373,9.4755487,-414.05605)"
       style="opacity:1;fill:#000000;fill-opacity:1;stroke:#0e0e0e;stroke-opacity:1">
      <path
         sodipodi:nodetypes="cc"
         inkscape:connector-curvature="0"
         id="path4590"
         d="m -1.7094394,287.14212 c 1.27295717,-0.52073 1.250845,-0.39683 1.27295717,-0.52073"
         style="opacity:1;fill:none;fill-opacity:1;fill-rule:nonzero;stroke:#0e0e0e;stroke-width:0.04711282;stroke-linecap:round;stroke-linejoin:round;stroke-miterlimit:4;stroke-dasharray:none;stroke-opacity:1" />
      <path
         sodipodi:nodetypes="cccc"
         inkscape:connector-curvature="0"
         id="path4622"
         d="m -1.4046534,286.88205 0.064428,-0.39056 0.030357,0.004 -0.094785,0.38656"
         style="opacity:1;fill:#000000;fill-opacity:1;fill-rule:nonzero;stroke:#0e0e0e;stroke-width:0.079375;stroke-linecap:round;stroke-linejoin:round;stroke-miterlimit:4;stroke-dasharray:none;stroke-opacity:1" />
      <path
         sodipodi:nodetypes="ccccccccc"
         inkscape:connector-curvature="0"
         id="path4624"
         d="m -1.0514964,286.76996 -0.020967,-0.30065 -0.2533911,-0.0877 0.036499,-0.44356 0.4347913,0.11285 -0.3693977,-0.0394 -0.039879,0.33499 0.217336,0.10045 -0.00499,0.32301"
         style="opacity:1;fill:#000000;fill-opacity:1;fill-rule:nonzero;stroke:#0e0e0e;stroke-width:0.079375;stroke-linecap:round;stroke-linejoin:round;stroke-miterlimit:4;stroke-dasharray:none;stroke-opacity:1" />
      <ellipse
         ry="0.10987692"
         rx="0.091586769"
         cy="285.76859"
         cx="0.039385397"
         id="path4626"
         style="opacity:1;fill:#000000;fill-opacity:1;fill-rule:nonzero;stroke:#0e0e0e;stroke-width:0;stroke-linecap:round;stroke-linejoin:round;stroke-miterlimit:4;stroke-dasharray:none;stroke-opacity:1"
         transform="matrix(0.99998877,-0.00473828,-0.0045816,0.9999895,0,0)" />
      <path
         sodipodi:nodetypes="ccccc"
         inkscape:connector-curvature="0"
         id="path4628"
         d="m -1.3712867,285.95605 -0.028271,0.32176 -0.087526,0.017 -0.010561,-0.26993 z"
         style="opacity:1;fill:#000000;fill-opacity:1;fill-rule:nonzero;stroke:#0e0e0e;stroke-width:0.02645833;stroke-linecap:round;stroke-linejoin:round;stroke-miterlimit:4;stroke-dasharray:none;stroke-opacity:1" />
      <path
         sodipodi:nodetypes="cc"
         inkscape:connector-curvature="0"
         id="path4632"
         d="m -0.8545649,286.0509 -0.020463,0.63434"
         style="opacity:1;fill:#000000;fill-opacity:1;fill-rule:nonzero;stroke:#0e0e0e;stroke-width:0.02645833;stroke-linecap:round;stroke-linejoin:round;stroke-miterlimit:4;stroke-dasharray:none;stroke-opacity:1" />
    </g>
    <g
       id="g951"
       transform="matrix(1.8777393,0,0,1.8777393,-3.2098763,-251.04084)"
       clip-path="url(#clipPath958)">
      <g
         id="g966"
         transform="matrix(0.87724818,0,0,0.87724818,5.4574128,36.265165)"
         clip-path="url(#clipPath974)">
        <path
           inkscape:connector-curvature="0"
           id="path953"
           d="m -5.6514578,285.97193 -0.097579,0.27289 0.010861,0.34892 2.8091546,1.90445 0.324528,0.0785 0.3927409,-0.16123 0.2025717,-0.36587 -0.1446941,-0.40928 -0.3555339,-0.25218 -0.1405597,-0.43408 -0.3679365,-0.26872 -0.4836914,0.12816 -0.1705322,0.21291 -0.2511475,-0.14676 -0.2686807,0.0117 -0.1476248,-0.0219 z"
           style="fill:#ffffff;fill-opacity:1;stroke:none;stroke-width:0.26458335px;stroke-linecap:butt;stroke-linejoin:miter;stroke-opacity:1"
           transform="translate(1.1693042,1.1225245)" />
        <path
           style="fill:none;stroke:#000000;stroke-width:0.13229167;stroke-linecap:butt;stroke-linejoin:miter;stroke-miterlimit:4;stroke-dasharray:none;stroke-opacity:1"
           d="m -4.5797323,287.36735 1.5255079,1.05277"
           id="path853"
           inkscape:connector-curvature="0"
           sodipodi:nodetypes="cc" />
        <path
           style="opacity:1;fill:#ffffff;fill-opacity:1;stroke:#000200;stroke-width:0.264496;stroke-linecap:square;stroke-linejoin:round;stroke-miterlimit:4;stroke-dasharray:none;stroke-dashoffset:0;stroke-opacity:1;paint-order:stroke fill markers"
           id="path855-3"
           sodipodi:type="arc"
           sodipodi:cx="-1.9650836"
           sodipodi:cy="288.43771"
           sodipodi:rx="0.51931691"
           sodipodi:ry="0.51931691"
           sodipodi:start="2.6504808"
           sodipodi:end="0.59525696"
           sodipodi:open="true"
           d="m -2.4230219,288.68263 a 0.51931691,0.51931691 0 0 1 0.142586,-0.65752 0.51931691,0.51931691 0 0 1 0.6718891,0.035 0.51931691,0.51931691 0 0 1 0.07346,0.66878" />
        <path
           style="opacity:1;fill:#ffffff;fill-opacity:1;stroke:#000200;stroke-width:0.26458335;stroke-linecap:square;stroke-linejoin:round;stroke-miterlimit:4;stroke-dasharray:none;stroke-dashoffset:0;stroke-opacity:1;paint-order:stroke fill markers"
           id="path855-3-6"
           sodipodi:type="arc"
           sodipodi:cx="-1.4504505"
           sodipodi:cy="289.12036"
           sodipodi:rx="0.51931691"
           sodipodi:ry="0.51931691"
           sodipodi:start="4.7174499"
           sodipodi:end="2.1013798"
           d="m -1.4478223,288.60105 a 0.51931691,0.51931691 0 0 1 0.48637489,0.34448 0.51931691,0.51931691 0 0 1 -0.15772289,0.57476 0.51931691,0.51931691 0 0 1 -0.5940736,0.048"
           sodipodi:open="true" />
        <path
           style="fill:none;stroke:#000000;stroke-width:0.13229167;stroke-linecap:butt;stroke-linejoin:miter;stroke-miterlimit:4;stroke-dasharray:none;stroke-opacity:1"
           d="m -4.5688707,287.71627 2.7141453,1.84572"
           id="path853-7"
           inkscape:connector-curvature="0"
           sodipodi:nodetypes="cc" />
        <path
           style="fill:none;stroke:#000000;stroke-width:0.13229167;stroke-linecap:butt;stroke-linejoin:miter;stroke-miterlimit:4;stroke-dasharray:none;stroke-opacity:1"
           d="m -4.4821536,287.09446 1.3872157,0.96191"
           id="path853-5"
           inkscape:connector-curvature="0"
           sodipodi:nodetypes="cc" />
        <path
           style="opacity:1;fill:#ffffff;fill-opacity:1;stroke:#000200;stroke-width:0.26458335;stroke-linecap:square;stroke-linejoin:round;stroke-miterlimit:4;stroke-dasharray:none;stroke-dashoffset:0;stroke-opacity:1;paint-order:stroke fill markers"
           id="path855-3-3-6-7"
           sodipodi:type="arc"
           sodipodi:cx="-2.8984149"
           sodipodi:cy="-288.25998"
           sodipodi:rx="0.33615482"
           sodipodi:ry="0.33615482"
           sodipodi:start="5.5594558"
           sodipodi:end="2.5546232"
           d="m -2.6465202,-288.48258 a 0.33615482,0.33615482 0 0 1 0.061626,0.34386 0.33615482,0.33615482 0 0 1 -0.2769669,0.2129 0.33615482,0.33615482 0 0 1 -0.3164444,-0.14798"
           sodipodi:open="true"
           transform="scale(1,-1)" />
        <path
           style="opacity:1;fill:#ffffff;fill-opacity:1;stroke:#000200;stroke-width:0.26458335;stroke-linecap:square;stroke-linejoin:round;stroke-miterlimit:4;stroke-dasharray:none;stroke-dashoffset:0;stroke-opacity:1;paint-order:stroke fill markers"
           id="path855-3-3"
           sodipodi:type="arc"
           sodipodi:cx="-1.8425435"
           sodipodi:cy="289.2868"
           sodipodi:rx="0.38402292"
           sodipodi:ry="0.38402292"
           sodipodi:start="6.2240512"
           sodipodi:end="3.1310433"
           d="m -1.4591918,289.26411 a 0.38402292,0.38402292 0 0 1 -0.1772412,0.34672 0.38402292,0.38402292 0 0 1 -0.3891599,0.0136 0.38402292,0.38402292 0 0 1 -0.2009521,-0.33353"
           sodipodi:open="true" />
        <path
           style="opacity:1;fill:#ffffff;fill-opacity:1;stroke:#000200;stroke-width:0.26458335;stroke-linecap:square;stroke-linejoin:round;stroke-miterlimit:4;stroke-dasharray:none;stroke-dashoffset:0;stroke-opacity:1;paint-order:stroke fill markers"
           id="path855-3-3-6"
           sodipodi:type="arc"
           sodipodi:cx="-1.8944296"
           sodipodi:cy="-288.79581"
           sodipodi:rx="0.33615482"
           sodipodi:ry="0.33615482"
           sodipodi:start="4.5007022"
           sodipodi:end="3.1310433"
           d="m -1.9650588,-289.12446 a 0.33615482,0.33615482 0 0 1 0.3564864,0.15178 0.33615482,0.33615482 0 0 1 -0.023268,0.38675 0.33615482,0.33615482 0 0 1 -0.3721112,0.10794 0.33615482,0.33615482 0 0 1 -0.2266145,-0.31427"
           sodipodi:open="true"
           transform="scale(1,-1)" />
        <path
           style="fill:#ffffff;fill-opacity:1;stroke:none;stroke-width:0.26458335px;stroke-linecap:butt;stroke-linejoin:miter;stroke-opacity:1"
           d="m -1.2525127,289.09973 -0.059562,0.0623 -0.1540325,0.032 c 0.00996,0.0512 0.00616,0.0372 0.00692,0.07 l -0.3671697,0.23958 -0.4001881,-0.21275 c 0.00237,-0.0237 0.00849,-0.0518 0.00849,-0.0518 l -0.081969,-0.0597 -0.2487142,-0.16871 -0.4304865,-0.6046 -0.4027131,-0.29196 0.052035,-0.1377 0.525731,0.33651 0.1539118,0.0717 0.2432784,0.0633 0.0021,0.18581 0.2495123,0.0566 0.1903112,0.43404 -0.00218,0.18173 0.3301099,-0.0795 0.043859,-0.0715 c 0.040616,-0.0285 0.065041,-0.0634 0.090153,-0.0981 l 0.1869351,-0.0401 z"
           id="path940"
           inkscape:connector-curvature="0"
           sodipodi:nodetypes="cccccccccccccccccccccccc" />
        <path
           style="fill:#ffffff;fill-opacity:1;stroke:none;stroke-width:0.1910553px;stroke-linecap:butt;stroke-linejoin:miter;stroke-opacity:1"
           d="m -1.4497342,288.64359 -0.019519,-0.041 c 0.014509,-0.002 0.029127,-0.002 0.043821,-3e-5 z"
           id="path946"
           inkscape:connector-curvature="0"
           sodipodi:nodetypes="cccc" />
      </g>
    </g>
    <path
       style="fill:#ffffff;fill-opacity:1;stroke:#000000;stroke-width:0.12663524;stroke-linecap:butt;stroke-linejoin:miter;stroke-miterlimit:4;stroke-dasharray:none;stroke-opacity:1"
       d="m 8.7040676,287.55261 -0.2014709,0.13392 v 0.62495 l -0.3422248,-0.19761 -0.1811227,0.10476 v 0.21859 l 0.5096321,0.29424 v 0.40064 l -0.3739814,-0.20678 -0.00268,0.42283 -0.3555392,-0.20517 v -0.59329 l -0.2024422,-0.12472 -0.1752647,0.11537 v 0.39271 l -0.533232,-0.31188 -0.2203113,0.1112 -0.00191,0.25681 0.5492237,0.29334 -0.3420937,0.19306 -9.398e-4,0.23152 0.1940092,0.10219 0.5158637,-0.29948 0.3353422,0.19615 -0.3446207,0.21609 0.3658274,0.21273 -0.3379925,0.19816 -0.512863,-0.30009 -0.2042124,0.11458 -0.00202,0.23394 0.3399812,0.17432 -0.5523854,0.31048 -0.00297,0.2535 0.2409024,0.10564 0.5358176,-0.3085 -0.00132,0.38441 0.1696588,0.11602 0.2008074,-0.12524 0.00592,-0.58651 0.3379929,-0.20016 0.00534,0.43477 0.3711298,-0.24125 -0.00132,0.40297 -0.5089774,0.28099 -0.00393,0.2346 0.1829139,0.10475 0.3419691,-0.19882 -0.00132,0.619 0.2049791,0.13388 0.2024444,-0.13311 v -1.94765 H 8.5533135 l -0.1818046,-0.26684 0.1731646,-0.28945 0.3633031,-0.002 -0.00132,-1.94995 z"
       id="path1012"
       inkscape:connector-curvature="0"
       sodipodi:nodetypes="ccccccccccccccccccccccccccccccccccccccccccccccccccccccccc" />
    <g
       id="g1025"
       transform="matrix(0.44977317,0.72285657,-0.72285657,0.44977317,234.27771,159.38985)">
      <g
         id="g1053"
         transform="translate(-6.6030211,26.500109)">
        <circle
           style="opacity:1;fill:#000000;fill-opacity:1;stroke:#000000;stroke-width:0.29077128;stroke-linecap:square;stroke-linejoin:round;stroke-miterlimit:4;stroke-dasharray:none;stroke-dashoffset:0;stroke-opacity:1;paint-order:stroke fill markers"
           id="path1016"
           cx="-5.3065605"
           cy="293.68246"
           r="1.390067" />
        <path
           style="fill:#ffffff;fill-opacity:1;stroke:#ffffff;stroke-width:0.1537462;stroke-linecap:butt;stroke-linejoin:miter;stroke-miterlimit:4;stroke-dasharray:none;stroke-opacity:1"
           d="m -5.430236,292.79761 v 1.84495 l 0.1537462,0.21525 0.1537461,-0.21525 v -1.84495 l -0.1537461,-0.21523 z"
           id="path1018"
           inkscape:connector-curvature="0"
           sodipodi:nodetypes="ccccccc" />
        <path
           sodipodi:nodetypes="cccc"
           inkscape:connector-curvature="0"
           id="path1046"
           d="m -6.0246274,293.40893 -0.3515425,-0.21874 0.3670704,-0.0855 -0.3498356,-0.21768"
           style="fill:none;stroke:#ffffff;stroke-width:0.12299695;stroke-linecap:butt;stroke-linejoin:miter;stroke-miterlimit:4;stroke-dasharray:none;stroke-opacity:1" />
        <path
           style="fill:#e50000;fill-opacity:1;stroke:none;stroke-width:0.30749241px;stroke-linecap:butt;stroke-linejoin:miter;stroke-opacity:1"
           d="m -5.5092936,293.71023 0.4681959,-0.0133 -0.00314,-0.92574 -0.2341147,-0.32642 -0.229077,0.32811 z"
           id="path1020"
           inkscape:connector-curvature="0"
           sodipodi:nodetypes="cccccc" />
      </g>
    </g>
  </g>
</svg>
