<?xml version="1.0" encoding="UTF-8" standalone="no"?>
<!-- Created with Inkscape (http://www.inkscape.org/) -->

<svg
   xmlns:dc="http://purl.org/dc/elements/1.1/"
   xmlns:cc="http://creativecommons.org/ns#"
   xmlns:rdf="http://www.w3.org/1999/02/22-rdf-syntax-ns#"
   xmlns:svg="http://www.w3.org/2000/svg"
   xmlns="http://www.w3.org/2000/svg"
   xmlns:xlink="http://www.w3.org/1999/xlink"
   xmlns:sodipodi="http://sodipodi.sourceforge.net/DTD/sodipodi-0.dtd"
   xmlns:inkscape="http://www.inkscape.org/namespaces/inkscape"
   width="35"
   height="45"
   viewBox="0 0 9.2604169 11.90625"
   version="1.1"
   id="svg8"
   sodipodi:docname="45-nuit-tente.svg"
   inkscape:version="0.92.2 5c3e80d, 2017-08-06"
   inkscape:export-filename="/home/etienne/Documents/CAF/labels/70x90/45-nuit-tente.png"
   inkscape:export-xdpi="192"
   inkscape:export-ydpi="192">
  <defs
     id="defs2">
    <inkscape:perspective
       sodipodi:type="inkscape:persp3d"
       inkscape:vp_x="-8.501353 : 15.097536 : 1"
       inkscape:vp_y="0 : 1000 : 0"
       inkscape:vp_z="32.626168 : 14.081761 : 1"
       inkscape:persp3d-origin="7.5500269 : 5.8061606 : 1"
       id="perspective4569" />
    <path
       style="opacity:0.98000004;fill:none;fill-opacity:1;fill-rule:nonzero;stroke:none;stroke-width:0.01176898;stroke-miterlimit:4;stroke-dasharray:none;stroke-opacity:1"
       d="m -4.1294545e-5,294.34829 c 0,0 2.647074194545,-1.50592 6.491807494545,-1.49872 4.0941928,-0.007 6.7372928,1.48403 6.7372928,1.48403"
       id="path5715"
       inkscape:connector-curvature="0"
       sodipodi:nodetypes="ccc" />
    <path
       style="opacity:0.98000004;fill:none;fill-opacity:1;fill-rule:nonzero;stroke:none;stroke-width:0.01176898;stroke-miterlimit:4;stroke-dasharray:none;stroke-opacity:1"
       d="m -4.1294545e-5,294.34829 c 0,0 2.647074194545,-1.50592 6.491807494545,-1.49872 4.0941928,-0.007 6.7372928,1.48403 6.7372928,1.48403"
       id="path5715-8"
       inkscape:connector-curvature="0"
       sodipodi:nodetypes="ccc" />
    <path
       style="opacity:0.98000004;fill:none;fill-opacity:1;fill-rule:nonzero;stroke:none;stroke-width:0.01176898;stroke-miterlimit:4;stroke-dasharray:none;stroke-opacity:1"
       d="m -4.1294545e-5,294.34829 c 0,0 2.647074194545,-1.50592 6.491807494545,-1.49872 4.0941928,-0.007 6.7372928,1.48403 6.7372928,1.48403"
       id="path5715-7"
       inkscape:connector-curvature="0"
       sodipodi:nodetypes="ccc" />
    <path
       style="opacity:0.98000004;fill:none;fill-opacity:1;fill-rule:nonzero;stroke:none;stroke-width:0.01176898;stroke-miterlimit:4;stroke-dasharray:none;stroke-opacity:1"
       d="m -4.1294545e-5,294.34829 c 0,0 2.647074194545,-1.50592 6.491807494545,-1.49872 4.0941928,-0.007 6.7372928,1.48403 6.7372928,1.48403"
       id="path5715-2"
       inkscape:connector-curvature="0"
       sodipodi:nodetypes="ccc" />
  </defs>
  <sodipodi:namedview
     id="base"
     pagecolor="#ffffff"
     bordercolor="#666666"
     borderopacity="1.0"
     inkscape:pageopacity="0.0"
     inkscape:pageshadow="2"
     inkscape:zoom="7.9999995"
     inkscape:cx="28.63739"
     inkscape:cy="16.788085"
     inkscape:document-units="px"
     inkscape:current-layer="g4562"
     showgrid="false"
     units="px"
     inkscape:window-width="1366"
     inkscape:window-height="704"
     inkscape:window-x="0"
     inkscape:window-y="27"
     inkscape:window-maximized="1"
     showguides="true" />
  <metadata
     id="metadata5">
    <rdf:RDF>
      <cc:Work
         rdf:about="">
        <dc:format>image/svg+xml</dc:format>
        <dc:type
           rdf:resource="http://purl.org/dc/dcmitype/StillImage" />
        <dc:title />
      </cc:Work>
    </rdf:RDF>
  </metadata>
  <g
     inkscape:label="Layer 1"
     inkscape:groupmode="layer"
     id="layer1"
     transform="translate(0,-285.09375)">
    <path
       style="opacity:1;fill:#000000;fill-opacity:1;fill-rule:nonzero;stroke:#000000;stroke-width:0.13249582;stroke-linecap:square;stroke-linejoin:miter;stroke-miterlimit:6;stroke-dasharray:none;stroke-opacity:1;paint-order:normal"
       d="m 1.3230187,285.42449 c -0.66268635,0 -0.99208535,0.32965 -0.99208535,0.99219 l -1.021e-4,9.2603 c 0,0.64862 0.3302284,0.99219 0.99218745,0.99219 l 6.6145835,-1e-4 c 0.6613861,0 0.9920851,-0.32723 0.9920851,-0.99209 v -9.2603 c 0,-0.6603 -0.331207,-0.99218 -0.9920851,-0.99218 z"
       id="path5900-3"
       inkscape:connector-curvature="0"
       sodipodi:nodetypes="ccccccccc" />
    <text
       xml:space="preserve"
       style="font-style:normal;font-weight:normal;font-size:3.52777767px;line-height:6.61458349px;font-family:sans-serif;letter-spacing:0px;word-spacing:0px;fill:#000000;fill-opacity:1;stroke:none;stroke-width:0.26458335px;stroke-linecap:butt;stroke-linejoin:miter;stroke-opacity:1"
       id="text4655"
       transform="translate(-0.14432892,1.1084295)"><textPath
         xlink:href="#path4665-5"
         id="textPath4695"></textPath></text>
    <text
       xml:space="preserve"
       style="font-style:normal;font-weight:normal;font-size:3.52777767px;line-height:6.61458349px;font-family:sans-serif;letter-spacing:0px;word-spacing:0px;fill:#000000;fill-opacity:1;stroke:none;stroke-width:0.26458335px;stroke-linecap:butt;stroke-linejoin:miter;stroke-opacity:1"
       id="text4659"
       transform="translate(-0.02338608,0.15498933)"><textPath
         xlink:href="#path4665"
         id="textPath4674"></textPath></text>
    <text
       xml:space="preserve"
       style="font-style:normal;font-weight:normal;font-size:3.52777767px;line-height:6.61458349px;font-family:sans-serif;letter-spacing:0px;word-spacing:0px;fill:#000000;fill-opacity:1;stroke:none;stroke-width:0.26458335px;stroke-linecap:butt;stroke-linejoin:miter;stroke-opacity:1"
       x="-3.3403645"
       y="294.65182"
       id="text4700"><tspan
         sodipodi:role="line"
         id="tspan4698"
         x="-3.3403645"
         y="298.87552"
         style="stroke-width:0.26458335px" /></text>
    <text
       xml:space="preserve"
       style="font-style:normal;font-weight:normal;font-size:10.58333302px;line-height:6.61458349px;font-family:sans-serif;letter-spacing:0px;word-spacing:0px;fill:#000000;fill-opacity:1;stroke:none;stroke-width:0.26458335px;stroke-linecap:butt;stroke-linejoin:miter;stroke-opacity:1"
       x="2.6076558"
       y="295.13992"
       id="text5863-0-0"><tspan
         sodipodi:role="line"
         id="tspan5861-3-9"
         x="2.6076558"
         y="301.19641"
         style="font-style:normal;font-variant:normal;font-weight:bold;font-stretch:normal;font-size:1.41111112px;font-family:sans-serif;-inkscape-font-specification:'sans-serif Bold';fill:#d48100;fill-opacity:1;stroke-width:0.26458335px" /></text>
    <text
       xml:space="preserve"
       style="font-style:normal;font-weight:normal;font-size:1.76388931px;line-height:1.80000007px;font-family:sans-serif;text-align:center;letter-spacing:-0.15875px;word-spacing:0px;text-anchor:middle;fill:#ffffff;fill-opacity:1;stroke:none;stroke-width:0.31030414px;stroke-linecap:butt;stroke-linejoin:miter;stroke-opacity:1"
       x="4.635397"
       y="286.93192"
       id="text5863-5"
       transform="scale(0.9999965,1.0000035)"><tspan
         sodipodi:role="line"
         x="4.635397"
         y="286.93192"
         style="font-style:normal;font-variant:normal;font-weight:bold;font-stretch:normal;font-size:1.76388931px;line-height:1.70000017px;font-family:Carlito;-inkscape-font-specification:'Carlito Bold';text-align:center;letter-spacing:0px;word-spacing:0px;text-anchor:middle;fill:#ffffff;fill-opacity:1;stroke-width:0.31030414px"
         dx="0 0 0 0 0 0 0 0 0 0 0 0 0 0 0 3.1179975e-10"
         id="tspan6000">SOUS</tspan></text>
    <path
       style="opacity:1;fill:#ffffff;fill-opacity:1;fill-rule:nonzero;stroke:#000000;stroke-width:0;stroke-linecap:butt;stroke-linejoin:bevel;stroke-miterlimit:4;stroke-dasharray:none;stroke-opacity:1"
       d="m 0.73315353,286.10543 a 0.77316504,0.77316504 0 0 0 0.59245327,0.91901 0.77316504,0.77316504 0 0 0 0.86293,-0.42836 0.77316504,0.77316504 0 0 1 -0.6606097,0.16526 0.77316504,0.77316504 0 0 1 -0.59277811,-0.9191 0.77316504,0.77316504 0 0 1 0.0560987,-0.16411 0.77316504,0.77316504 0 0 0 -0.25808112,0.42727 z"
       id="path4813"
       inkscape:connector-curvature="0" />
    <text
       xml:space="preserve"
       style="font-style:normal;font-weight:normal;font-size:1.76388896px;line-height:1.80000007px;font-family:sans-serif;text-align:center;letter-spacing:-0.15875px;word-spacing:0px;text-anchor:middle;fill:#ffffff;fill-opacity:1;stroke:none;stroke-width:0.31030414px;stroke-linecap:butt;stroke-linejoin:miter;stroke-opacity:1"
       x="4.6519203"
       y="288.53232"
       id="text5863-5-6"
       transform="scale(0.9999965,1.0000035)"><tspan
         sodipodi:role="line"
         x="4.6519203"
         y="288.53232"
         style="font-style:normal;font-variant:normal;font-weight:bold;font-stretch:normal;font-size:1.76388931px;line-height:1.80000007px;font-family:Carlito;-inkscape-font-specification:'Carlito Bold';text-align:center;letter-spacing:0px;word-spacing:0px;text-anchor:middle;fill:#ffffff;fill-opacity:1;stroke-width:0.31030414px"
         dx="0 0 0 0 0 0 0 0 0 3.1179975e-10"
         id="tspan5197-5">TENTE</tspan><tspan
         sodipodi:role="line"
         x="4.6519203"
         y="290.34955"
         style="font-style:normal;font-variant:normal;font-weight:bold;font-stretch:normal;font-size:1.94027781px;line-height:1.70000017px;font-family:Carlito;-inkscape-font-specification:'Carlito Bold';text-align:center;letter-spacing:0px;word-spacing:0px;text-anchor:middle;fill:#ffffff;fill-opacity:1;stroke-width:0.31030414px"
         dx="0 0 0 0 0 0 0 0 0 0 0 3.1179975e-10"
         id="tspan6000-6" /></text>
    <path
       inkscape:connector-curvature="0"
       style="opacity:1;fill:#3d3d82;fill-opacity:1;fill-rule:nonzero;stroke:#000000;stroke-width:0.11894457;stroke-linecap:butt;stroke-linejoin:miter;stroke-miterlimit:4;stroke-dasharray:none;stroke-opacity:1"
       d="m 2.3250269,289.63061 c -0.7038116,-0.4471 -1.44457847,2.04755 -1.40721951,0.37799 -0.1994812,0.36838 -0.486322,0.76256 -0.58707822,0.98189 v 4.69326 c 0,0.64862 0.32355492,0.98552 0.98551393,0.98552 h 6.621257 c 0.6613861,0 0.9855139,-0.32733 0.9855139,-0.99219 v -2.90788 c -2.0733055,-0.94702 -5.2258949,-1.12596 -7.5886842,0.75293 1.2836688,-1.0259 2.758153,-1.29289 2.758153,-1.29289 -0.9378948,-0.70036 -1.0636443,-2.15153 -1.7674559,-2.59863 z"
       id="path4565-6-3"
       sodipodi:nodetypes="zccsssscccz" />
    <g
       id="g8537"
       transform="translate(0.06614584,0.23151044)">
      <g
         transform="matrix(0.96435558,0,0,0.96435558,-0.80560701,13.372987)"
         id="g4534">
        <g
           id="g4729"
           transform="matrix(0.77859936,0,0,0.77859936,2.6947872,65.885876)">
          <path
             sodipodi:nodetypes="ccccc"
             inkscape:connector-curvature="0"
             id="path4539"
             d="m 1.3629162,287.4813 c 0.5835176,0.27709 1.2444763,0.61106 1.7942324,1.12163 0.00824,-0.004 1.5087828,-0.78448 2.9709464,-0.88537 0.055995,-1.8402 -1.7171371,-2.7185 -2.266462,-2.73294 -0.9263388,0.0189 -2.5366165,0.73766 -2.4987168,2.49668 z"
             style="opacity:1;fill:#000000;fill-opacity:1;fill-rule:nonzero;stroke:#fbfbfb;stroke-width:0.281904;stroke-linecap:butt;stroke-linejoin:round;stroke-miterlimit:4;stroke-dasharray:none;stroke-opacity:1" />
        </g>
      </g>
      <path
         sodipodi:nodetypes="cc"
         inkscape:connector-curvature="0"
         id="path4534"
         d="m 4.2283373,293.52408 c -0.035628,-0.94333 -0.07077,-1.93031 0.4642829,-2.63394"
         style="opacity:1;fill:#000000;fill-opacity:0;fill-rule:nonzero;stroke:#ffffff;stroke-width:0.21166667;stroke-linecap:round;stroke-linejoin:miter;stroke-miterlimit:4;stroke-dasharray:none;stroke-opacity:1;paint-order:normal" />
      <path
         sodipodi:nodetypes="csc"
         inkscape:connector-curvature="0"
         id="path4583"
         d="m 5.7502137,292.99806 c -0.00259,-0.88049 -0.2114924,-1.25474 -0.4894379,-1.21174 -0.3748802,0.058 -0.4328586,0.47082 -0.4007019,1.481"
         style="opacity:1;fill:#000000;fill-opacity:0;fill-rule:nonzero;stroke:#ffffff;stroke-width:0.21166667;stroke-linecap:round;stroke-linejoin:round;stroke-miterlimit:4;stroke-dasharray:none;stroke-opacity:1;paint-order:normal" />
    </g>
    <g
       id="g4558">
      <path
         sodipodi:nodetypes="cccscscssscscssscscc"
         inkscape:connector-curvature="0"
         id="path4646"
         d="m 10.974789,295.15415 c -0.01234,0.004 -0.02358,0.01 -0.03462,0.0165 l -0.05064,0.047 c -0.02514,0.0337 -0.04237,0.0747 -0.04237,0.12144 0,0.008 0.0037,0.0152 0.0046,0.0233 -0.0734,-0.0273 -0.307171,-0.0278 -0.364871,-0.0186 -0.196515,0.0312 -0.364366,0.0892 -0.367465,0.19215 0.0044,0.0847 -0.04371,0.10918 -0.07626,0.11534 -0.05203,0.01 -0.1145732,0.0313 -0.2015891,0.0188 0,0 -0.0921,0.26429 -0.05418,0.27226 0.09328,0.0196 0.07304,-0.15214 0.1072419,-0.16989 0.1430832,-0.0245 0.2877642,0.0389 0.3266012,0.0302 0.07342,-0.0164 0.09932,-0.15324 0.213875,-0.15324 0.10049,0 0.267592,0.006 0.438451,0.0228 0.101169,0.01 0.441933,0.15475 0.450045,0.10861 0.01123,-0.0639 -0.278025,-0.17245 -0.278025,-0.17245 -0.03075,-0.0177 -0.05411,-0.0437 -0.01787,-0.10908 0.03624,-0.0654 0.150291,-0.0642 0.161261,-0.15865 0.0058,-0.0502 -0.06239,-0.14713 -0.137756,-0.18595 z"
         style="opacity:1;fill:#000000;fill-opacity:1;fill-rule:nonzero;stroke:#000000;stroke-width:0;stroke-linecap:round;stroke-linejoin:round;stroke-miterlimit:6;stroke-dasharray:none;stroke-opacity:1;paint-order:normal" />
      <ellipse
         ry="0.040586479"
         rx="0.038733352"
         cy="295.52954"
         cx="10.120024"
         id="path4702"
         style="opacity:1;fill:#000000;fill-opacity:1;fill-rule:nonzero;stroke:#000000;stroke-width:0;stroke-linecap:round;stroke-linejoin:round;stroke-miterlimit:6;stroke-dasharray:none;stroke-opacity:1;paint-order:normal" />
      <ellipse
         style="opacity:1;fill:#000000;fill-opacity:1;fill-rule:nonzero;stroke:#ffffff;stroke-width:0;stroke-linecap:round;stroke-linejoin:round;stroke-miterlimit:6;stroke-dasharray:none;stroke-opacity:1;paint-order:normal"
         id="path4568"
         cx="-249.28127"
         cy="158.31293"
         rx="0.051671486"
         ry="0.2343671"
         transform="rotate(-59.67039)" />
      <ellipse
         style="opacity:1;fill:#000000;fill-opacity:1;fill-rule:nonzero;stroke:#ffffff;stroke-width:0;stroke-linecap:round;stroke-linejoin:round;stroke-miterlimit:6;stroke-dasharray:none;stroke-opacity:1;paint-order:normal"
         id="path4568-3"
         cx="-196.07895"
         cy="220.74199"
         rx="0.051671486"
         ry="0.2343671"
         transform="rotate(-43.731419)" />
    </g>
    <path
       inkscape:connector-curvature="0"
       style="opacity:1;fill:#000000;fill-opacity:1;fill-rule:nonzero;stroke:#000000;stroke-width:0;stroke-linecap:round;stroke-linejoin:round;stroke-miterlimit:6;stroke-dasharray:none;stroke-opacity:1;paint-order:normal"
       d="m 10.89352,293.42463 c -0.0339,0.005 -0.04593,0.11862 -0.02687,0.25425 0.01027,0.0727 0.02806,0.14046 0.04858,0.185 -0.01235,0.004 -0.02358,0.01 -0.03462,0.0165 -0.0069,-0.0487 -0.0316,-0.11865 -0.06666,-0.18862 -0.06128,-0.122 -0.135647,-0.2086 -0.166399,-0.19379 -0.03075,0.0152 -0.0057,0.12701 0.05581,0.2496 0.04079,0.0811 0.08935,0.15011 0.126607,0.17983 -0.02514,0.0337 -0.04237,0.0747 -0.04237,0.12144 0,0.008 0.0038,0.0152 0.0046,0.0233 -0.0734,-0.0273 -0.160062,-0.005 -0.21704,0.008 -0.189207,0.0428 -0.28784,0.14868 -0.290939,0.25166 0,0.0223 -6.62e-4,0.0461 -10e-4,0.0693 a 0.05481114,0.05743348 0 0 0 -0.02222,-0.005 0.05481114,0.05743348 0 0 0 -0.05478,0.0574 0.05481114,0.05743348 0 0 0 0.05478,0.0574 0.05481114,0.05743348 0 0 0 0.03979,-0.0181 c 0.003,0.005 0.0047,0.0103 0.0088,0.014 0.05634,0.0499 0.183105,0.0382 0.297656,0.0382 0.191095,-1e-5 0.352788,-0.0422 0.353983,-0.20205 3.71e-4,-0.0495 -0.02902,-0.0684 0.0072,-0.13384 0.03624,-0.0654 0.150262,-0.0641 0.161231,-0.15865 0.0058,-0.0502 -0.06261,-0.14722 -0.137976,-0.18604 0.0098,-0.0481 0.009,-0.12371 -0.0021,-0.20308 -0.01914,-0.1359 -0.06221,-0.24196 -0.09612,-0.23668 z"
       id="path4646-2" />
    <path
       inkscape:connector-curvature="0"
       style="opacity:1;fill:#000000;fill-opacity:1;fill-rule:nonzero;stroke:#000000;stroke-width:0;stroke-linecap:round;stroke-linejoin:round;stroke-miterlimit:6;stroke-dasharray:none;stroke-opacity:1;paint-order:normal"
       d="m 12.323536,293.85187 c -0.0339,0.005 -0.04593,0.11862 -0.02687,0.25425 0.01027,0.0727 0.02806,0.14046 0.04858,0.185 -0.01235,0.004 -0.02358,0.01 -0.03462,0.0165 -0.0069,-0.0487 -0.0316,-0.11865 -0.06666,-0.18862 -0.06128,-0.122 -0.135647,-0.2086 -0.166399,-0.19379 -0.03075,0.0152 -0.0057,0.12701 0.05581,0.2496 0.04079,0.0811 0.08935,0.15011 0.126608,0.17983 -0.02514,0.0337 -0.04237,0.0747 -0.04237,0.12144 0,0.008 0.0038,0.0152 0.0046,0.0233 -0.06616,0.0502 -0.105983,0.12351 -0.162961,0.14685 -0.163339,0.0756 -0.281993,0.0931 -0.290938,0.25166 -1e-6,0.0223 -6.62e-4,0.046 -0.001,0.0693 -0.007,-0.003 -0.01456,-0.005 -0.02222,-0.005 -0.03025,2e-5 -0.05476,0.0257 -0.05478,0.0574 1.8e-5,0.0317 0.02453,0.0574 0.05478,0.0574 0.01507,-4e-5 0.02947,-0.007 0.03979,-0.0181 0.003,0.005 0.0047,0.0104 0.0088,0.014 0.05634,0.0499 0.183105,0.0382 0.297656,0.0382 0.232162,-0.003 0.232093,-0.25469 0.256943,-0.26937 0.04941,-0.0292 0.270707,0.0783 0.284807,0.0135 0.009,-0.0414 -0.203228,-0.10672 -0.249285,-0.1292 -0.0304,-0.0148 -0.01319,-0.0391 0.01464,-0.0894 0.03624,-0.0654 0.150261,-0.0641 0.16123,-0.15865 0.0058,-0.0502 -0.06261,-0.14721 -0.137976,-0.18603 0.0098,-0.0481 0.009,-0.12372 -0.0021,-0.20309 -0.01914,-0.1359 -0.06221,-0.24196 -0.09612,-0.23668 z"
       id="path4646-2-1"
       sodipodi:nodetypes="ccccccccsccccccccccssscccccc" />
    <g
       id="g4562">
      <path
         sodipodi:nodetypes="cccscsssscssscscc"
         inkscape:connector-curvature="0"
         id="path4646-27"
         d="m 12.629112,296.09597 c -0.01234,0.004 -0.02358,0.01 -0.03462,0.0165 l -0.05064,0.047 c -0.02513,0.0337 -0.04237,0.0747 -0.04237,0.12144 0,0.008 0.0037,0.0153 0.0046,0.0233 -0.0734,-0.0272 -0.102543,-0.1155 -0.277173,-0.12384 -0.198734,-0.009 -0.281284,0.0983 -0.323616,0.19215 -0.0615,0.13641 -0.0778,0.23898 0.06846,0.35675 0.07424,0.0598 0.609071,-0.027 0.599003,-0.064 -0.02119,-0.078 -0.319635,0.006 -0.280153,-0.0429 0.141483,-5e-5 0.165927,-0.0576 0.212547,-0.0451 0.09824,0.0262 0.185518,0.21948 0.243326,0.20842 0.06372,-0.0122 -0.09301,-0.20715 -0.09301,-0.20715 -0.02041,-0.0456 -0.0097,-0.0716 0.02657,-0.13699 0.03624,-0.0654 0.150292,-0.0641 0.161261,-0.15864 0.0058,-0.0502 -0.06239,-0.14713 -0.137756,-0.18595 z"
         style="opacity:1;fill:#000000;fill-opacity:1;fill-rule:nonzero;stroke:#000000;stroke-width:0;stroke-linecap:round;stroke-linejoin:round;stroke-miterlimit:6;stroke-dasharray:none;stroke-opacity:1;paint-order:normal" />
      <ellipse
         ry="0.040586479"
         rx="0.038733352"
         cy="296.61206"
         cx="11.870287"
         id="path4702-0"
         style="opacity:1;fill:#000000;fill-opacity:1;fill-rule:nonzero;stroke:#000000;stroke-width:0;stroke-linecap:round;stroke-linejoin:round;stroke-miterlimit:6;stroke-dasharray:none;stroke-opacity:1;paint-order:normal" />
      <ellipse
         style="opacity:1;fill:#000000;fill-opacity:1;fill-rule:nonzero;stroke:#ffffff;stroke-width:0;stroke-linecap:round;stroke-linejoin:round;stroke-miterlimit:6;stroke-dasharray:none;stroke-opacity:1;paint-order:normal"
         id="path4568-3-6"
         cx="-250.48611"
         cy="158.29904"
         rx="0.051671486"
         ry="0.2343671"
         transform="rotate(-60.111296)" />
      <ellipse
         style="opacity:1;fill:#000000;fill-opacity:1;fill-rule:nonzero;stroke:#ffffff;stroke-width:0;stroke-linecap:round;stroke-linejoin:round;stroke-miterlimit:6;stroke-dasharray:none;stroke-opacity:1;paint-order:normal"
         id="path4568-3-7"
         cx="-195.52887"
         cy="222.54123"
         rx="0.051671486"
         ry="0.2343671"
         transform="rotate(-43.731419)" />
    </g>
  </g>
</svg>
