<?xml version="1.0" encoding="UTF-8" standalone="no"?>
<!-- Created with Inkscape (http://www.inkscape.org/) -->

<svg
   xmlns:dc="http://purl.org/dc/elements/1.1/"
   xmlns:cc="http://creativecommons.org/ns#"
   xmlns:rdf="http://www.w3.org/1999/02/22-rdf-syntax-ns#"
   xmlns:svg="http://www.w3.org/2000/svg"
   xmlns="http://www.w3.org/2000/svg"
   xmlns:xlink="http://www.w3.org/1999/xlink"
   xmlns:sodipodi="http://sodipodi.sourceforge.net/DTD/sodipodi-0.dtd"
   xmlns:inkscape="http://www.inkscape.org/namespaces/inkscape"
   width="35"
   height="45"
   viewBox="0 0 9.2604169 11.90625"
   version="1.1"
   id="svg8"
   sodipodi:docname="46-nuit-trou.svg"
   inkscape:version="0.92.2 5c3e80d, 2017-08-06"
   inkscape:export-filename="/home/etienne/Documents/CAF/labels/70x90/46-nuit-trou.png"
   inkscape:export-xdpi="192"
   inkscape:export-ydpi="192">
  <defs
     id="defs2">
    <inkscape:perspective
       sodipodi:type="inkscape:persp3d"
       inkscape:vp_x="-8.501353 : 15.097536 : 1"
       inkscape:vp_y="0 : 1000 : 0"
       inkscape:vp_z="32.626168 : 14.081761 : 1"
       inkscape:persp3d-origin="7.5500269 : 5.8061606 : 1"
       id="perspective4569" />
    <path
       style="opacity:0.98000004;fill:none;fill-opacity:1;fill-rule:nonzero;stroke:none;stroke-width:0.01176898;stroke-miterlimit:4;stroke-dasharray:none;stroke-opacity:1"
       d="m -4.1294545e-5,294.34829 c 0,0 2.647074194545,-1.50592 6.491807494545,-1.49872 4.0941928,-0.007 6.7372928,1.48403 6.7372928,1.48403"
       id="path5715"
       inkscape:connector-curvature="0"
       sodipodi:nodetypes="ccc" />
    <path
       style="opacity:0.98000004;fill:none;fill-opacity:1;fill-rule:nonzero;stroke:none;stroke-width:0.01176898;stroke-miterlimit:4;stroke-dasharray:none;stroke-opacity:1"
       d="m -4.1294545e-5,294.34829 c 0,0 2.647074194545,-1.50592 6.491807494545,-1.49872 4.0941928,-0.007 6.7372928,1.48403 6.7372928,1.48403"
       id="path5715-8"
       inkscape:connector-curvature="0"
       sodipodi:nodetypes="ccc" />
    <path
       style="opacity:0.98000004;fill:none;fill-opacity:1;fill-rule:nonzero;stroke:none;stroke-width:0.01176898;stroke-miterlimit:4;stroke-dasharray:none;stroke-opacity:1"
       d="m -4.1294545e-5,294.34829 c 0,0 2.647074194545,-1.50592 6.491807494545,-1.49872 4.0941928,-0.007 6.7372928,1.48403 6.7372928,1.48403"
       id="path5715-7"
       inkscape:connector-curvature="0"
       sodipodi:nodetypes="ccc" />
    <path
       style="opacity:0.98000004;fill:none;fill-opacity:1;fill-rule:nonzero;stroke:none;stroke-width:0.01176898;stroke-miterlimit:4;stroke-dasharray:none;stroke-opacity:1"
       d="m -4.1294545e-5,294.34829 c 0,0 2.647074194545,-1.50592 6.491807494545,-1.49872 4.0941928,-0.007 6.7372928,1.48403 6.7372928,1.48403"
       id="path5715-2"
       inkscape:connector-curvature="0"
       sodipodi:nodetypes="ccc" />
  </defs>
  <sodipodi:namedview
     id="base"
     pagecolor="#ffffff"
     bordercolor="#666666"
     borderopacity="1.0"
     inkscape:pageopacity="0.0"
     inkscape:pageshadow="2"
     inkscape:zoom="7.9999995"
     inkscape:cx="5.5913157"
     inkscape:cy="13.173968"
     inkscape:document-units="px"
     inkscape:current-layer="layer1"
     showgrid="false"
     units="px"
     inkscape:window-width="1366"
     inkscape:window-height="704"
     inkscape:window-x="0"
     inkscape:window-y="27"
     inkscape:window-maximized="1"
     showguides="true" />
  <metadata
     id="metadata5">
    <rdf:RDF>
      <cc:Work
         rdf:about="">
        <dc:format>image/svg+xml</dc:format>
        <dc:type
           rdf:resource="http://purl.org/dc/dcmitype/StillImage" />
        <dc:title />
      </cc:Work>
    </rdf:RDF>
  </metadata>
  <g
     inkscape:label="Layer 1"
     inkscape:groupmode="layer"
     id="layer1"
     transform="translate(0,-285.09375)">
    <path
       style="opacity:1;fill:#000000;fill-opacity:1;fill-rule:nonzero;stroke:#000000;stroke-width:0;stroke-linecap:square;stroke-linejoin:miter;stroke-miterlimit:6;stroke-dasharray:none;stroke-opacity:1;paint-order:normal"
       d="m 1.2720476,285.35834 c -0.67288948,0 -1.00736008,0.33353 -1.00736008,1.00387 l -1.0368e-4,9.36934 c 0,0.65625 0.33531278,1.00387 1.00746376,1.00387 l 6.7164253,-10e-5 c 0.6715691,0 1.0073597,-0.33108 1.0073597,-1.00377 l 3e-7,-9.36935 c 0,-0.66807 -0.3363067,-1.00385 -1.00736,-1.00385 z"
       id="path5900-3"
       inkscape:connector-curvature="0"
       sodipodi:nodetypes="ccccccccc" />
    <text
       xml:space="preserve"
       style="font-style:normal;font-weight:normal;font-size:3.52777767px;line-height:6.61458349px;font-family:sans-serif;letter-spacing:0px;word-spacing:0px;fill:#000000;fill-opacity:1;stroke:none;stroke-width:0.26458335px;stroke-linecap:butt;stroke-linejoin:miter;stroke-opacity:1"
       id="text4655"
       transform="translate(-0.14432892,1.1084295)"><textPath
         xlink:href="#path4665-5"
         id="textPath4695"></textPath></text>
    <text
       xml:space="preserve"
       style="font-style:normal;font-weight:normal;font-size:3.52777767px;line-height:6.61458349px;font-family:sans-serif;letter-spacing:0px;word-spacing:0px;fill:#000000;fill-opacity:1;stroke:none;stroke-width:0.26458335px;stroke-linecap:butt;stroke-linejoin:miter;stroke-opacity:1"
       id="text4659"
       transform="translate(-0.02338608,0.15498933)"><textPath
         xlink:href="#path4665"
         id="textPath4674"></textPath></text>
    <text
       xml:space="preserve"
       style="font-style:normal;font-weight:normal;font-size:3.52777767px;line-height:6.61458349px;font-family:sans-serif;letter-spacing:0px;word-spacing:0px;fill:#000000;fill-opacity:1;stroke:none;stroke-width:0.26458335px;stroke-linecap:butt;stroke-linejoin:miter;stroke-opacity:1"
       x="-3.3403645"
       y="294.65182"
       id="text4700"><tspan
         sodipodi:role="line"
         id="tspan4698"
         x="-3.3403645"
         y="298.87552"
         style="stroke-width:0.26458335px" /></text>
    <text
       xml:space="preserve"
       style="font-style:normal;font-weight:normal;font-size:10.58333302px;line-height:6.61458349px;font-family:sans-serif;letter-spacing:0px;word-spacing:0px;fill:#000000;fill-opacity:1;stroke:none;stroke-width:0.26458335px;stroke-linecap:butt;stroke-linejoin:miter;stroke-opacity:1"
       x="2.6076558"
       y="295.13992"
       id="text5863-0-0"><tspan
         sodipodi:role="line"
         id="tspan5861-3-9"
         x="2.6076558"
         y="301.19641"
         style="font-style:normal;font-variant:normal;font-weight:bold;font-stretch:normal;font-size:1.41111112px;font-family:sans-serif;-inkscape-font-specification:'sans-serif Bold';fill:#d48100;fill-opacity:1;stroke-width:0.26458335px" /></text>
    <text
       xml:space="preserve"
       style="font-style:normal;font-weight:normal;font-size:1.76388931px;line-height:1.80000007px;font-family:sans-serif;text-align:center;letter-spacing:-0.15875px;word-spacing:0px;text-anchor:middle;fill:#ffffff;fill-opacity:1;stroke:none;stroke-width:0.31030414px;stroke-linecap:butt;stroke-linejoin:miter;stroke-opacity:1"
       x="4.6322975"
       y="286.93192"
       id="text5863-5"
       transform="scale(0.9999965,1.0000035)"><tspan
         sodipodi:role="line"
         x="4.6322975"
         y="286.93192"
         style="font-style:normal;font-variant:normal;font-weight:bold;font-stretch:normal;font-size:1.76388931px;line-height:1.70000017px;font-family:Carlito;-inkscape-font-specification:'Carlito Bold';text-align:center;letter-spacing:0px;word-spacing:0px;text-anchor:middle;fill:#ffffff;fill-opacity:1;stroke-width:0.31030414px"
         dx="0 0 0 0 0 0 0 0 0 0 0 0 0 0 0 0 0 0 3.1179975e-10"
         id="tspan6000">DANS UN</tspan></text>
    <text
       xml:space="preserve"
       style="font-style:normal;font-weight:normal;font-size:1.76388896px;line-height:1.80000007px;font-family:sans-serif;text-align:center;letter-spacing:-0.15875px;word-spacing:0px;text-anchor:middle;fill:#ffffff;fill-opacity:1;stroke:none;stroke-width:0.31030414px;stroke-linecap:butt;stroke-linejoin:miter;stroke-opacity:1"
       x="4.6694708"
       y="288.51941"
       id="text5863-5-6"
       transform="scale(0.9999965,1.0000035)"><tspan
         sodipodi:role="line"
         x="4.6694708"
         y="288.51941"
         style="font-style:normal;font-variant:normal;font-weight:bold;font-stretch:normal;font-size:1.76388931px;line-height:1.80000007px;font-family:Carlito;-inkscape-font-specification:'Carlito Bold';text-align:center;letter-spacing:0px;word-spacing:0px;text-anchor:middle;fill:#ffffff;fill-opacity:1;stroke-width:0.31030414px"
         dx="0 0 0 0 0 0 0 0 3.1179975e-10"
         id="tspan5197-5">TROU</tspan><tspan
         sodipodi:role="line"
         x="4.6694708"
         y="290.33664"
         style="font-style:normal;font-variant:normal;font-weight:bold;font-stretch:normal;font-size:1.94027781px;line-height:1.70000017px;font-family:Carlito;-inkscape-font-specification:'Carlito Bold';text-align:center;letter-spacing:0px;word-spacing:0px;text-anchor:middle;fill:#ffffff;fill-opacity:1;stroke-width:0.31030414px"
         dx="0 0 0 0 0 0 0 0 0 0 0 3.1179975e-10"
         id="tspan6000-6" /></text>
    <path
       style="opacity:1;fill:#ffffff;fill-opacity:1;fill-rule:nonzero;stroke:#000000;stroke-width:0;stroke-linecap:butt;stroke-linejoin:bevel;stroke-miterlimit:4;stroke-dasharray:none;stroke-opacity:1"
       d="m 23.329946,286.11267 a 0.79636915,0.79636915 0 0 0 -1.087931,0.29125 0.79636915,0.79636915 0 0 0 0.148012,0.9812 0.79636915,0.79636915 0 0 1 0.0462,-0.69987 0.79636915,0.79636915 0 0 1 1.088116,-0.29157 0.79636915,0.79636915 0 0 1 0.143237,0.1067 0.79636915,0.79636915 0 0 0 -0.337619,-0.38775 z"
       id="path4813-6"
       inkscape:connector-curvature="0" />
    <path
       inkscape:connector-curvature="0"
       style="opacity:1;fill:#3d3d82;fill-opacity:1;fill-rule:nonzero;stroke:#000000;stroke-width:0.14908056;stroke-linecap:square;stroke-linejoin:bevel;stroke-miterlimit:6;stroke-dasharray:none;stroke-opacity:1"
       d="m 0.33912362,290.13737 v 5.53129 c 0,0.64864 0.32958375,0.99221 0.99025038,0.99221 h 6.601669 c 0.660095,0 0.9902502,-0.32733 0.9902502,-0.99221 v -0.99064 c -1.0492014,-1.9687 -2.6426745,-0.87656 -4.8692465,-1.04906 -3.6277799,0.10189 -1.2583507,-1.78636 0.3997105,-1.8315 2.4791376,0.0303 2.389835,1.80066 3.0341566,0.83619 -0.780787,-1.22749 -1.9708783,-3.05337 -7.14679018,-2.49628 z"
       id="path4565-6-3-3"
       sodipodi:nodetypes="cssssccccc" />
    <g
       id="g4544"
       transform="translate(-2.145113,3.866734)">
      <ellipse
         transform="rotate(74.618084)"
         style="opacity:1;fill:#fefffd;fill-opacity:1;fill-rule:nonzero;stroke:#ffffff;stroke-width:0;stroke-linecap:round;stroke-linejoin:round;stroke-miterlimit:4;stroke-dasharray:none;stroke-opacity:1"
         id="path4626-6"
         cx="280.65781"
         cy="68.855743"
         rx="0.25969136"
         ry="0.30125034" />
      <path
         style="opacity:1;fill:#000000;fill-opacity:1;fill-rule:nonzero;stroke:#ffffff;stroke-width:0.22489583;stroke-linecap:square;stroke-linejoin:round;stroke-miterlimit:4;stroke-dasharray:none;stroke-opacity:1;paint-order:fill markers stroke"
         d="m 4.8780876,289.41909 c -0.00776,-0.22496 2.4382004,-0.78956 2.6163363,-0.36944 0,0 0.074343,0.17843 0.1117244,0.32336 0.027679,0.10731 0.8777465,-0.17647 0.8166804,0.15684 8.218e-4,0.34482 -3.2096176,0.20031 -3.371101,0.17028 -0.1614833,-0.03 -0.1654036,-0.1865 -0.1736401,-0.28104 z"
         id="path5091"
         inkscape:connector-curvature="0"
         sodipodi:nodetypes="ccsccc" />
    </g>
    <path
       style="opacity:1;fill:#ffffff;fill-opacity:1;fill-rule:nonzero;stroke:#000000;stroke-width:0;stroke-linecap:butt;stroke-linejoin:bevel;stroke-miterlimit:4;stroke-dasharray:none;stroke-opacity:1"
       d="m 8.3672469,288.36799 a 0.94912467,0.94912467 0 0 0 -1.2966125,0.34711 0.94912467,0.94912467 0 0 0 0.1764029,1.16941 0.94912467,0.94912467 0 0 1 0.055062,-0.83411 0.94912467,0.94912467 0 0 1 1.2968329,-0.3475 0.94912467,0.94912467 0 0 1 0.170712,0.12717 0.94912467,0.94912467 0 0 0 -0.4023794,-0.46213 z"
       id="path4813"
       inkscape:connector-curvature="0" />
    <path
       style="opacity:1;fill:#3d3d82;fill-opacity:1;fill-rule:nonzero;stroke:#ffffff;stroke-width:0;stroke-linecap:round;stroke-linejoin:round;stroke-miterlimit:6;stroke-dasharray:none;stroke-opacity:1;paint-order:normal"
       d="m -3.48525,289.96241 c 0,0 0.00698,0.0957 0.01554,0.14943 0.00908,0.0567 0.03421,0.14528 0.053817,0.14612 0.015776,-1.5e-4 0.094444,0.0176 0.09474,-0.004 4.836e-4,-0.0324 -0.014217,-0.1129 -0.024913,-0.14832 -0.028472,-0.0946 0.077836,-0.33132 0.1471266,-0.31953 0.1085581,0.0186 0.5793113,0.0509 0.6590798,0.0206 0.1007005,-0.0155 0.023086,0.4483 0.082763,0.46086 0.051274,0.0115 0.1330631,0.0296 0.1356381,0.0133 0.00279,-0.0177 -0.029414,-0.0826 -0.027635,-0.0962 0.00627,-0.0489 0.038657,-0.23402 0.038657,-0.23402 0.091693,0.0426 0.1107284,0.27737 0.1680514,0.2906 0.016458,0.005 0.1116155,0.0349 0.110306,-0.002 -0.00332,-0.0922 -0.22197,-0.44735 -0.1649584,-0.47406 0.1014894,-0.0475 0.098338,-0.24217 0.1598942,-0.29331 0.1028572,-0.0855 0.3421838,0.01 0.3913176,0.005 0.052034,-0.004 0.091667,-0.0817 0.048324,-0.0909 -0.1312621,-0.0284 -0.1233341,-0.07 -0.2186085,-0.19587 -0.025112,-0.0331 -0.060286,-0.0597 -0.1051432,-0.074 -0.063284,-0.0202 -0.05054,-0.16863 -0.00146,-0.25576 -0.1787291,0.13461 -0.2642766,0.32933 -0.4580629,0.42091 -0.1075772,0.051 -0.4098962,0.0276 -0.5282498,0.0219 -0.2530182,-0.0109 -0.5475333,-0.0254 -0.6107276,0.152 -0.5136913,-0.3796 -0.8126642,0.36282 -1.6032339,-0.0306 0.6446406,0.94345 1.1253336,0.0903 1.5636418,0.15557 0.014311,-0.01 -0.02196,0.0456 -0.03588,0.12969 -0.017102,0.10306 -0.062654,0.0523 -0.098995,0.14218 -0.025155,0.0622 0.011998,0.3933 0.060261,0.4022 0.019218,0.004 0.099549,0.0135 0.1008216,-0.003 9.637e-4,-0.0136 -0.019926,-0.0388 -0.029193,-0.12842 -0.00848,-0.0703 0.039389,-0.0989 0.077134,-0.1603 z"
       id="path4522"
       inkscape:connector-curvature="0"
       sodipodi:nodetypes="cssssscsssssssssssscsscccssssccc" />
    <path
       style="opacity:1;fill:#3d3d82;fill-opacity:1;fill-rule:nonzero;stroke:#ffffff;stroke-width:0;stroke-linecap:round;stroke-linejoin:round;stroke-miterlimit:6;stroke-dasharray:none;stroke-opacity:1;paint-order:normal"
       d="m -3.6800672,291.37975 c 0,0 0.00911,0.0771 0.018858,0.13078 0.010319,0.0564 0.037427,0.14447 0.05705,0.14486 0.015819,-1.3e-4 0.094809,0.0154 0.094632,-0.006 -2.249e-4,-0.0323 -0.016713,-0.11257 -0.028197,-0.14773 -0.030559,-0.0939 0.070462,-0.31468 0.1399966,-0.30443 0.1089578,0.0162 0.5802954,0.038 0.6593771,0.006 0.04092,-0.006 0.091825,0.004 0.064905,0.0577 -0.039093,0.0788 -0.2885804,0.15878 -0.2731119,0.18018 0.020985,0.0292 0.039049,0.0854 0.055743,0.0837 0.033424,-0.004 0.2295759,-0.0949 0.2404092,-0.10355 0.043969,-0.0349 0.1316916,-0.10644 0.1316916,-0.10644 0.035959,0.0443 0.036625,0.3201 0.094229,0.33206 0.016484,0.004 0.1115305,0.028 0.1092368,-0.01 -0.015718,-0.2562 -0.1144396,-0.4703 -0.058038,-0.49828 0.1004008,-0.0498 0.075155,-0.23553 0.1355614,-0.28803 0.1009597,-0.0877 0.3485223,0.01 0.397529,9e-4 0.051913,-0.006 0.072616,-0.0837 0.029085,-0.0919 -0.1318349,-0.0253 -0.1291996,-0.0675 -0.2277212,-0.19097 -0.03231,-0.0404 -0.053821,-0.0557 -0.1041677,-0.0639 -0.065578,-0.0101 -0.046518,-0.17523 6.142e-4,-0.26345 -0.1756999,0.13857 -0.2568973,0.33512 -0.4486059,0.43097 -0.1064164,0.0532 -0.3781146,0.0474 -0.4966296,0.0436 -0.2531923,-0.005 -0.5789867,-0.0237 -0.6382382,0.15512 -0.5219901,-0.36808 -0.8044104,0.38077 -1.603519,0.005 0.6654292,0.9289 1.1270648,0.0653 1.5667119,0.1208 0.014133,-0.0102 -0.00891,0.0436 -0.04396,0.12133 -0.020298,0.0449 -0.074602,0.10754 -0.095814,0.14434 -0.033563,0.0581 -0.286385,0.23936 -0.2379325,0.24721 0.019364,0.004 0.098003,0.0497 0.098866,0.0326 6.783e-4,-0.0136 0.1573521,-0.0961 0.2202306,-0.16066 0.061923,-0.0635 0.1230881,-0.0651 0.1759284,-0.11068 z"
       id="path4522-7"
       inkscape:connector-curvature="0"
       sodipodi:nodetypes="cssssscssssssssssssscsscccssssscc" />
    <g
       id="g4641"
       transform="rotate(5.9136769,-2.3083442,307.87877)">
      <path
         sodipodi:nodetypes="cssssscsssssssssccccccccccscccssssccc"
         inkscape:connector-curvature="0"
         id="path4522-5"
         d="m -4.555282,292.95955 c 0,0 0.00911,0.0955 0.018858,0.14905 0.010319,0.0564 0.037429,0.14448 0.05705,0.14487 0.015819,-1.3e-4 0.094809,0.0154 0.094632,-0.006 -2.248e-4,-0.0323 -0.016713,-0.11256 -0.028196,-0.14774 -0.03056,-0.0938 0.070462,-0.33294 0.1399965,-0.3227 0.1089578,0.0162 0.5802955,0.038 0.6593771,0.006 0.100351,-0.0178 0.033043,0.44768 0.092972,0.45891 0.051498,0.0102 0.1337068,0.0267 0.1358838,0.0102 0.0024,-0.0177 -0.031223,-0.0817 -0.029746,-0.0955 0.00519,-0.0491 0.033453,-0.23481 0.033453,-0.23481 0.092629,0.0406 0.1168584,0.27484 0.1744622,0.28681 0.016484,0.004 0.1123496,0.0324 0.110216,-0.005 -0.00538,-0.0922 -0.2090823,-0.47587 -0.1775092,-0.53033 0.00805,-0.0139 0.014036,-0.0992 0.014814,-0.13378 5.055e-4,-0.0225 0.05066,0.003 0.055181,-0.0114 0.014119,-0.0461 -0.00546,-0.0487 0.013419,-0.11928 0,0 0.1161116,-0.008 0.168372,-0.0274 -0.025485,-0.0296 -0.077699,-0.12327 -0.078199,-0.16592 0.027869,-0.0412 0.084503,-0.11206 0.092284,-0.23342 -0.076892,0.0184 -0.148227,0.0874 -0.1996509,0.1237 -0.042375,-0.0103 -0.0299,-0.0138 -0.095336,-0.002 -0.042167,-0.0296 -0.1257934,-0.0912 -0.222267,-0.11631 0.01938,0.0836 0.078536,0.2046 0.1140019,0.23235 -0.00933,0.0487 -0.019949,0.0863 -0.047505,0.0938 0,0 -0.064,-0.006 -0.074971,-0.005 -0.166846,-0.0113 -0.3940415,-9.1e-4 -0.4705213,-0.004 -0.2530965,-0.006 -0.5376233,-0.0289 -0.5968746,0.14996 -0.7340414,-0.25839 -0.6508562,0.64035 -1.4682451,0.3353 0.6946776,0.82288 1.0978167,-0.31129 1.4314378,-0.20824 0.014133,-0.0102 -0.020946,0.0461 -0.032992,0.13045 -0.014813,0.10344 -0.061487,0.0536 -0.095814,0.14435 -0.023779,0.0628 0.020724,0.39293 0.069176,0.40077 0.019364,0.004 0.09983,0.0113 0.100693,-0.005 6.783e-4,-0.0136 -0.020783,-0.0384 -0.032038,-0.12775 -0.010045,-0.07 0.037169,-0.0998 0.073558,-0.16196 z"
         style="opacity:1;fill:#3d3d82;fill-opacity:1;fill-rule:nonzero;stroke:#ffffff;stroke-width:0;stroke-linecap:round;stroke-linejoin:round;stroke-miterlimit:6;stroke-dasharray:none;stroke-opacity:1;paint-order:normal" />
      <path
         sodipodi:nodetypes="ccccccc"
         inkscape:connector-curvature="0"
         id="path4607"
         d="m -3.4393177,292.21667 c -0.00521,0.0308 -0.027625,0.0959 -0.06016,0.14851 0.075563,0.0102 0.1400831,0.003 0.1631967,0.0298 l 0.01619,0.13515 0.1235166,0.004 0.026398,-0.13026 c 0.02767,-0.0238 0.063609,-0.0183 0.1625225,-0.0239"
         style="opacity:1;fill:none;fill-opacity:1;fill-rule:nonzero;stroke:#000000;stroke-width:0.05291667;stroke-linecap:butt;stroke-linejoin:round;stroke-miterlimit:6;stroke-dasharray:none;stroke-opacity:1;paint-order:normal" />
    </g>
    <path
       style="opacity:1;fill:#3d3d82;fill-opacity:1;fill-rule:nonzero;stroke:#ffffff;stroke-width:0;stroke-linecap:round;stroke-linejoin:round;stroke-miterlimit:6;stroke-dasharray:none;stroke-opacity:1;paint-order:normal"
       d="m -5.6713096,294.86046 c 0.00406,0.0152 -0.035289,0.0791 -0.074805,0.0799 -0.059506,9.1e-4 -0.2177395,-0.0869 -0.2466416,-0.13008 -0.085875,-0.12833 -0.2067689,-0.19264 -0.2763037,-0.18241 -0.1089577,0.0162 -0.5802953,0.038 -0.6593769,0.006 -0.059122,0.0956 -0.1544414,0.11044 -0.2635845,0.10116 -0.064528,-0.005 -0.2705873,-0.0652 -0.3630914,0.049 -0.010643,0.0131 -0.09602,0.0241 -0.093726,-0.0126 0.015719,-0.25622 0.4117397,-0.17302 0.3553379,-0.201 -0.1004008,-0.0498 -0.075155,-0.23552 -0.1355614,-0.28803 -0.1009592,-0.0877 -0.38213,0.01 -0.4311365,9e-4 -0.051913,-0.006 -0.077748,-0.0837 -0.034217,-0.0919 0.1318349,-0.0253 0.1562683,-0.0675 0.25479,-0.19099 0.03231,-0.0404 0.061615,-0.0609 0.1080838,-0.0716 0.064729,-0.0149 0.054273,-0.16747 0.00714,-0.25569 0.1756996,0.13857 0.256897,0.33512 0.4486055,0.43097 0.1064164,0.0533 0.3781146,0.0474 0.4966296,0.0436 0.2531923,-0.005 0.5789867,-0.0237 0.6382382,0.15513 0.4134108,0.0197 0.8302628,-0.44132 1.6035193,0.005 -0.8619061,0.0706 -1.0650199,0.55131 -1.5667122,0.12081 -0.014133,-0.0102 0.00891,0.0436 0.04396,0.12133 0.020298,0.0449 0.087528,0.0972 0.1087401,0.13401 0.033563,0.0581 0.2456469,0.0275 0.2456883,0.0765 2.5e-5,0.0296 -0.063762,0.0639 -0.08077,0.0662 0,0 -0.1961308,0.0229 -0.2590092,-0.0417 0.020811,0.0792 0.1665972,0.0438 0.1742013,0.0726 z"
       id="path4522-7-3"
       inkscape:connector-curvature="0"
       sodipodi:nodetypes="cssscssssssssscsscccsssscsc" />
    <path
       style="opacity:1;fill:#3d3d82;fill-opacity:1;fill-rule:nonzero;stroke:#ffffff;stroke-width:0;stroke-linecap:round;stroke-linejoin:round;stroke-miterlimit:6;stroke-dasharray:none;stroke-opacity:1;paint-order:normal"
       d="m -2.7397988,294.54208 c -0.03188,0.005 -0.1383463,0.0148 -0.1268626,-0.0202 0.030559,-0.0938 0.2341887,-0.32368 0.2341887,-0.32368 -0.074909,0.0808 -0.238593,0.0204 -0.3176747,-0.0113 -0.168859,0.004 0.204374,0.10631 0.1868467,0.1392 -0.015059,0.0283 -0.065939,0.10005 -0.068116,0.0835 -0.1947938,-0.10065 -0.3200528,-0.11694 -0.4682806,-0.24383 -0.1004009,-0.0498 -0.085182,-0.2727 -0.1455887,-0.3252 -0.1009596,-0.0877 -0.3167266,0.002 -0.3657336,-0.004 -0.051913,-0.006 -0.086797,-0.0837 -0.043266,-0.0919 0.131835,-0.0253 0.1035474,-0.0672 0.2015933,-0.19098 0.025847,-0.0326 0.054263,-0.0583 0.09944,-0.0716 0.063724,-0.0187 0.054273,-0.16745 0.00714,-0.25568 0.1756999,0.13858 0.2568973,0.33513 0.4486058,0.43099 0.1064165,0.0532 0.2436831,0.0113 0.362198,0.006 0.2531923,-0.005 0.4755779,0.0564 0.5348293,0.23527 0.3318751,-0.30226 0.3792687,0.29731 0.5578868,0.4377 -0.3098598,-0.0306 -0.4049909,-0.25768 -0.5753692,-0.31576 -0.01635,-0.005 -0.014091,0.0645 -0.2151427,0.188 -0.2010515,0.12357 -0.2746797,0.32698 -0.3066965,0.33196 z"
       id="path4522-56"
       inkscape:connector-curvature="0"
       sodipodi:nodetypes="csscsccssssscssccscsc" />
    <path
       style="opacity:1;fill:#3d3d82;fill-opacity:1;fill-rule:nonzero;stroke:#ffffff;stroke-width:0;stroke-linecap:round;stroke-linejoin:round;stroke-miterlimit:6;stroke-dasharray:none;stroke-opacity:1;paint-order:normal"
       d="m -3.358535,287.77751 c 0,0 0.071168,0.0899 0.080921,0.14352 0.010319,0.0564 0.063281,0.10958 0.082903,0.10995 0.015819,-1.5e-4 0.090932,0.002 0.090753,-0.0206 -2.25e-4,-0.0323 -0.075646,-0.12332 -0.072001,-0.16012 0.00966,-0.0974 0.070462,-0.19994 0.1399966,-0.1897 0.1089581,0.0162 0.5400789,0.0235 0.6191605,-0.006 0.100351,-0.0177 0.033043,0.44769 0.092972,0.45891 0.051498,0.0102 0.1337067,0.0267 0.1358839,0.0102 0.0024,-0.0177 -0.031223,-0.0817 -0.029745,-0.0955 0.00519,-0.0491 0.044422,-0.29329 0.044422,-0.29329 0.030142,0.0132 0.1176013,0.0609 0.1375488,0.0852 0.041353,0.0502 0.082143,0.13877 0.1210019,0.14681 0.01655,0.004 0.1030759,0.0197 0.1008915,-0.0177 -0.00235,-0.0401 -0.048274,-0.0688 -0.092861,-0.15897 -0.05778,-0.11682 -0.1079924,-0.16873 -0.1079924,-0.16873 0.020976,-0.0413 0.040425,-0.2721 0.1008296,-0.32461 0.1009594,-0.0876 0.3542122,0.0142 0.4032192,0.006 0.051913,-0.006 0.07387,-0.0837 0.030339,-0.0919 -0.131835,-0.0253 -0.1224589,-0.0712 -0.2253199,-0.19098 -0.026826,-0.0313 -0.059213,-0.0595 -0.1080834,-0.0716 -0.064441,-0.0162 -0.054273,-0.16746 -0.00714,-0.25567 -0.1757,0.13855 -0.2568975,0.33512 -0.4486059,0.43097 -0.1064165,0.0534 -0.3832852,0.0475 -0.5018001,0.0436 -0.2531922,-0.005 -0.5738165,-0.0237 -0.6330678,0.15514 -0.4708057,-0.29497 -0.617952,0.31494 -1.4060924,-0.20216 0.5703716,0.99107 0.9625423,0.35411 1.3692848,0.32921 0.014133,-0.0102 -0.020946,0.0461 -0.032992,0.13044 -0.014813,0.10344 -0.061487,0.0536 -0.095814,0.14437 -0.023779,0.0628 0.020723,0.39292 0.069176,0.40077 0.019364,0.004 0.09983,0.0113 0.1006929,-0.005 6.784e-4,-0.0136 -0.020783,-0.0384 -0.032038,-0.12774 -0.010045,-0.0701 0.037169,-0.15151 0.073558,-0.21367 z"
       id="path4522-3"
       inkscape:connector-curvature="0"
       sodipodi:nodetypes="cssssscsssssssssssssscsscccssssccc" />
    <path
       style="opacity:1;fill:#3d3d82;fill-opacity:1;fill-rule:nonzero;stroke:#ffffff;stroke-width:0;stroke-linecap:round;stroke-linejoin:round;stroke-miterlimit:6;stroke-dasharray:none;stroke-opacity:1;paint-order:normal"
       d="m -6.1269472,290.83748 c -0.03188,0.005 -0.1383463,0.0148 -0.1268626,-0.0202 0.030559,-0.0938 0.2341887,-0.32368 0.2341887,-0.32368 -0.074909,0.0808 -0.238593,0.0204 -0.3176747,-0.0113 -0.1688589,0.004 0.204374,0.10631 0.1868467,0.1392 -0.015059,0.0283 -0.065939,0.10005 -0.068116,0.0835 -0.1947937,-0.10065 -0.3200527,-0.11694 -0.4682805,-0.24383 -0.1004009,-0.0498 -0.085182,-0.2727 -0.1455887,-0.3252 -0.1009596,-0.0877 -0.3167266,0.002 -0.3657336,-0.004 -0.051913,-0.006 -0.086797,-0.0837 -0.043266,-0.0919 0.131835,-0.0253 0.1035474,-0.0672 0.2015933,-0.19098 0.025847,-0.0326 0.054263,-0.0583 0.09944,-0.0716 0.063724,-0.0187 0.054273,-0.16745 0.00714,-0.25568 0.1756999,0.13858 0.2568973,0.33513 0.4486058,0.43099 0.1064165,0.0532 0.243683,0.0113 0.3621979,0.006 0.2531923,-0.005 0.4755779,0.0564 0.5348293,0.23527 0.5949687,-0.27303 0.6862112,0.33824 1.142539,0.31492 -0.4004808,0.15065 -0.8931755,-0.10274 -1.1600214,-0.19298 -0.016196,-0.005 -0.014091,0.0645 -0.2151427,0.188 -0.2010515,0.12357 -0.2746797,0.32698 -0.3066965,0.33196 z"
       id="path4522-56-9"
       inkscape:connector-curvature="0"
       sodipodi:nodetypes="csscsccssssscssccscsc" />
  </g>
</svg>
