<?xml version="1.0" encoding="UTF-8" standalone="no"?>
<!-- Created with Inkscape (http://www.inkscape.org/) -->

<svg
   xmlns:dc="http://purl.org/dc/elements/1.1/"
   xmlns:cc="http://creativecommons.org/ns#"
   xmlns:rdf="http://www.w3.org/1999/02/22-rdf-syntax-ns#"
   xmlns:svg="http://www.w3.org/2000/svg"
   xmlns="http://www.w3.org/2000/svg"
   xmlns:xlink="http://www.w3.org/1999/xlink"
   xmlns:sodipodi="http://sodipodi.sourceforge.net/DTD/sodipodi-0.dtd"
   xmlns:inkscape="http://www.inkscape.org/namespaces/inkscape"
   width="35"
   height="45"
   viewBox="0 0 9.2604169 11.90625"
   version="1.1"
   id="svg8"
   sodipodi:docname="71-trois-jours.svg"
   inkscape:version="0.92.2 5c3e80d, 2017-08-06"
   inkscape:export-filename="/home/etienne/Documents/CAF/labels/70x90/71-trois-jours.png"
   inkscape:export-xdpi="191.21904"
   inkscape:export-ydpi="191.21904">
  <defs
     id="defs2">
    <marker
       inkscape:stockid="Arrow1Lstart"
       orient="auto"
       refY="0.0"
       refX="0.0"
       id="marker1234"
       style="overflow:visible"
       inkscape:isstock="true">
      <path
         id="path1232"
         d="M 0.0,0.0 L 5.0,-5.0 L -12.5,0.0 L 5.0,5.0 L 0.0,0.0 z "
         style="fill-rule:evenodd;stroke:#000000;stroke-width:1pt;stroke-opacity:1;fill:#000000;fill-opacity:1"
         transform="scale(0.8) translate(12.5,0)" />
    </marker>
    <marker
       inkscape:stockid="Arrow1Lstart"
       orient="auto"
       refY="0.0"
       refX="0.0"
       id="Arrow1Lstart"
       style="overflow:visible"
       inkscape:isstock="true">
      <path
         id="path950"
         d="M 0.0,0.0 L 5.0,-5.0 L -12.5,0.0 L 5.0,5.0 L 0.0,0.0 z "
         style="fill-rule:evenodd;stroke:#000000;stroke-width:1pt;stroke-opacity:1;fill:#000000;fill-opacity:1"
         transform="scale(0.8) translate(12.5,0)" />
    </marker>
    <path
       style="opacity:0.98000004;fill:none;fill-opacity:1;fill-rule:nonzero;stroke:none;stroke-width:0.01176898;stroke-miterlimit:4;stroke-dasharray:none;stroke-opacity:1"
       d="m -4.1294545e-5,294.34829 c 0,0 2.647074194545,-1.50592 6.491807494545,-1.49872 4.0941928,-0.007 6.7372928,1.48403 6.7372928,1.48403"
       id="path5715"
       inkscape:connector-curvature="0"
       sodipodi:nodetypes="ccc" />
    <path
       style="opacity:0.98000004;fill:none;fill-opacity:1;fill-rule:nonzero;stroke:none;stroke-width:0.01176898;stroke-miterlimit:4;stroke-dasharray:none;stroke-opacity:1"
       d="m -4.1294545e-5,294.34829 c 0,0 2.647074194545,-1.50592 6.491807494545,-1.49872 4.0941928,-0.007 6.7372928,1.48403 6.7372928,1.48403"
       id="path5715-8"
       inkscape:connector-curvature="0"
       sodipodi:nodetypes="ccc" />
    <path
       style="opacity:0.98000004;fill:none;fill-opacity:1;fill-rule:nonzero;stroke:none;stroke-width:0.01176898;stroke-miterlimit:4;stroke-dasharray:none;stroke-opacity:1"
       d="m -4.1294545e-5,294.34829 c 0,0 2.647074194545,-1.50592 6.491807494545,-1.49872 4.0941928,-0.007 6.7372928,1.48403 6.7372928,1.48403"
       id="path5715-7"
       inkscape:connector-curvature="0"
       sodipodi:nodetypes="ccc" />
    <path
       style="opacity:0.98000004;fill:none;fill-opacity:1;fill-rule:nonzero;stroke:none;stroke-width:0.01176898;stroke-miterlimit:4;stroke-dasharray:none;stroke-opacity:1"
       d="m -4.1294545e-5,294.34829 c 0,0 2.647074194545,-1.50592 6.491807494545,-1.49872 4.0941928,-0.007 6.7372928,1.48403 6.7372928,1.48403"
       id="path5715-2"
       inkscape:connector-curvature="0"
       sodipodi:nodetypes="ccc" />
    <path
       inkscape:connector-curvature="0"
       id="path4636-3"
       d="m 13.002663,293.85892 a 2.8764884,2.8764884 0 0 1 -2.876488,2.87649 2.8764884,2.8764884 0 0 1 -2.8764885,-2.87649 2.8764884,2.8764884 0 0 1 2.8764885,-2.87649 2.8764884,2.8764884 0 0 1 2.876488,2.87649 z"
       style="opacity:1;fill:#000000;fill-opacity:1;fill-rule:nonzero;stroke:none;stroke-width:0.17591217;stroke-linecap:round;stroke-linejoin:bevel;stroke-miterlimit:4;stroke-dasharray:none;stroke-opacity:1;paint-order:normal" />
    <path
       inkscape:connector-curvature="0"
       id="path4636-1-3"
       d="m 7.2496865,293.85892 a 2.8764884,2.8764884 0 0 0 2.8764895,2.87649 2.8764884,2.8764884 0 0 0 2.876491,-2.87649 2.8764884,2.8764884 0 0 0 -2.876491,-2.87649 2.8764884,2.8764884 0 0 0 -2.8764895,2.87649 z"
       style="opacity:1;fill:#000000;fill-opacity:1;fill-rule:nonzero;stroke:none;stroke-width:0.17591217;stroke-linecap:round;stroke-linejoin:bevel;stroke-miterlimit:4;stroke-dasharray:none;stroke-opacity:1;paint-order:normal" />
    <linearGradient
       id="linearGradient878"
       inkscape:collect="always">
      <stop
         id="stop874"
         offset="0"
         style="stop-color:#4d5857;stop-opacity:1" />
      <stop
         id="stop876"
         offset="1"
         style="stop-color:#baf5f6;stop-opacity:1" />
    </linearGradient>
    <linearGradient
       inkscape:collect="always"
       xlink:href="#linearGradient878"
       id="linearGradient6751"
       x1="0.34775239"
       y1="294.18268"
       x2="6.4939933"
       y2="293.62885"
       gradientUnits="userSpaceOnUse" />
    <clipPath
       clipPathUnits="userSpaceOnUse"
       id="clipPath1100">
      <path
         sodipodi:nodetypes="cccccccc"
         inkscape:connector-curvature="0"
         id="path1102"
         d="m 8.9131512,291.5595 c -2.817108,0.75484 -4.146603,0.39806 -4.146603,0.39806 -2.0726546,-0.29548 -3.2148063,-1.60078 -4.43581903,-3.11287 v 6.83239 c 0,0.66227 0.33059254,0.9922 0.99218753,0.9922 h 6.6145834 c 0.6619907,0 0.9921875,-0.32967 0.9921875,-0.9922 z"
         style="opacity:1;fill:#ffffff;fill-opacity:1;fill-rule:nonzero;stroke:#000000;stroke-width:0.13227685;stroke-miterlimit:4;stroke-dasharray:none;stroke-opacity:1" />
    </clipPath>
    <clipPath
       clipPathUnits="userSpaceOnUse"
       id="clipPath1106">
      <path
         sodipodi:nodetypes="cccccccc"
         inkscape:connector-curvature="0"
         id="path1108"
         d="m 8.4853448,291.67274 c -2.8171082,0.75484 -3.718804,0.28482 -3.718804,0.28482 -2.0726546,-0.29548 -3.2148063,-1.60078 -4.43581904,-3.11287 v 6.83239 c 0,0.66227 0.33059249,0.9922 0.99218754,0.9922 H 7.937493 c 0.6619898,0 0.9921869,-0.32967 0.9921869,-0.9922 z"
         style="opacity:1;fill:#ffffff;fill-opacity:1;fill-rule:nonzero;stroke:#000000;stroke-width:0.13227685;stroke-miterlimit:4;stroke-dasharray:none;stroke-opacity:1" />
    </clipPath>
    <clipPath
       clipPathUnits="userSpaceOnUse"
       id="clipPath1106-3">
      <path
         sodipodi:nodetypes="cccccccc"
         inkscape:connector-curvature="0"
         id="path1108-6"
         d="m 8.4853448,291.67274 c -2.8171082,0.75484 -3.718804,0.28482 -3.718804,0.28482 -2.0726546,-0.29548 -3.2148063,-1.60078 -4.43581904,-3.11287 v 6.83239 c 0,0.66227 0.33059249,0.9922 0.99218754,0.9922 H 7.937493 c 0.6619898,0 0.9921869,-0.32967 0.9921869,-0.9922 z"
         style="opacity:1;fill:#ffffff;fill-opacity:1;fill-rule:nonzero;stroke:#000000;stroke-width:0.13227685;stroke-miterlimit:4;stroke-dasharray:none;stroke-opacity:1" />
    </clipPath>
    <clipPath
       clipPathUnits="userSpaceOnUse"
       id="clipPath1106-3-5">
      <path
         sodipodi:nodetypes="cccccccc"
         inkscape:connector-curvature="0"
         id="path1108-6-3"
         d="m 8.4853448,291.67274 c -2.8171082,0.75484 -3.718804,0.28482 -3.718804,0.28482 -2.0726546,-0.29548 -3.2148063,-1.60078 -4.43581904,-3.11287 v 6.83239 c 0,0.66227 0.33059249,0.9922 0.99218754,0.9922 H 7.937493 c 0.6619898,0 0.9921869,-0.32967 0.9921869,-0.9922 z"
         style="opacity:1;fill:#ffffff;fill-opacity:1;fill-rule:nonzero;stroke:#000000;stroke-width:0.13227685;stroke-miterlimit:4;stroke-dasharray:none;stroke-opacity:1" />
    </clipPath>
    <clipPath
       clipPathUnits="userSpaceOnUse"
       id="clipPath1106-3-5-6">
      <path
         sodipodi:nodetypes="cccccccc"
         inkscape:connector-curvature="0"
         id="path1108-6-3-2"
         d="m 8.4853448,291.67274 c -2.8171082,0.75484 -3.718804,0.28482 -3.718804,0.28482 -2.0726546,-0.29548 -3.2148063,-1.60078 -4.43581904,-3.11287 v 6.83239 c 0,0.66227 0.33059249,0.9922 0.99218754,0.9922 H 7.937493 c 0.6619898,0 0.9921869,-0.32967 0.9921869,-0.9922 z"
         style="opacity:1;fill:#ffffff;fill-opacity:1;fill-rule:nonzero;stroke:#000000;stroke-width:0.13227685;stroke-miterlimit:4;stroke-dasharray:none;stroke-opacity:1" />
    </clipPath>
    <clipPath
       clipPathUnits="userSpaceOnUse"
       id="clipPath1106-3-5-6-1">
      <path
         sodipodi:nodetypes="cccccccc"
         inkscape:connector-curvature="0"
         id="path1108-6-3-2-2"
         d="m 8.4853448,291.67274 c -2.8171082,0.75484 -3.718804,0.28482 -3.718804,0.28482 -2.0726546,-0.29548 -3.2148063,-1.60078 -4.43581904,-3.11287 v 6.83239 c 0,0.66227 0.33059249,0.9922 0.99218754,0.9922 H 7.937493 c 0.6619898,0 0.9921869,-0.32967 0.9921869,-0.9922 z"
         style="opacity:1;fill:#ffffff;fill-opacity:1;fill-rule:nonzero;stroke:#000000;stroke-width:0.13227685;stroke-miterlimit:4;stroke-dasharray:none;stroke-opacity:1" />
    </clipPath>
    <clipPath
       clipPathUnits="userSpaceOnUse"
       id="clipPath1106-3-5-6-1-0">
      <path
         sodipodi:nodetypes="cccccccc"
         inkscape:connector-curvature="0"
         id="path1108-6-3-2-2-9"
         d="m 8.4853448,291.67274 c -2.8171082,0.75484 -3.718804,0.28482 -3.718804,0.28482 -2.0726546,-0.29548 -3.2148063,-1.60078 -4.43581904,-3.11287 v 6.83239 c 0,0.66227 0.33059249,0.9922 0.99218754,0.9922 H 7.937493 c 0.6619898,0 0.9921869,-0.32967 0.9921869,-0.9922 z"
         style="opacity:1;fill:#ffffff;fill-opacity:1;fill-rule:nonzero;stroke:#000000;stroke-width:0.13227685;stroke-miterlimit:4;stroke-dasharray:none;stroke-opacity:1" />
    </clipPath>
    <clipPath
       clipPathUnits="userSpaceOnUse"
       id="clipPath1106-3-5-6-1-6">
      <path
         sodipodi:nodetypes="cccccccc"
         inkscape:connector-curvature="0"
         id="path1108-6-3-2-2-0"
         d="m 8.4853448,291.67274 c -2.8171082,0.75484 -3.718804,0.28482 -3.718804,0.28482 -2.0726546,-0.29548 -3.2148063,-1.60078 -4.43581904,-3.11287 v 6.83239 c 0,0.66227 0.33059249,0.9922 0.99218754,0.9922 H 7.937493 c 0.6619898,0 0.9921869,-0.32967 0.9921869,-0.9922 z"
         style="opacity:1;fill:#ffffff;fill-opacity:1;fill-rule:nonzero;stroke:#000000;stroke-width:0.13227685;stroke-miterlimit:4;stroke-dasharray:none;stroke-opacity:1" />
    </clipPath>
    <clipPath
       clipPathUnits="userSpaceOnUse"
       id="clipPath1106-3-5-6-6">
      <path
         sodipodi:nodetypes="cccccccc"
         inkscape:connector-curvature="0"
         id="path1108-6-3-2-26"
         d="m 8.4853448,291.67274 c -2.8171082,0.75484 -3.718804,0.28482 -3.718804,0.28482 -2.0726546,-0.29548 -3.2148063,-1.60078 -4.43581904,-3.11287 v 6.83239 c 0,0.66227 0.33059249,0.9922 0.99218754,0.9922 H 7.937493 c 0.6619898,0 0.9921869,-0.32967 0.9921869,-0.9922 z"
         style="opacity:1;fill:#ffffff;fill-opacity:1;fill-rule:nonzero;stroke:#000000;stroke-width:0.13227685;stroke-miterlimit:4;stroke-dasharray:none;stroke-opacity:1" />
    </clipPath>
    <clipPath
       clipPathUnits="userSpaceOnUse"
       id="clipPath1106-3-5-6-7">
      <path
         sodipodi:nodetypes="cccccccc"
         inkscape:connector-curvature="0"
         id="path1108-6-3-2-9"
         d="m 8.4853448,291.67274 c -2.8171082,0.75484 -3.718804,0.28482 -3.718804,0.28482 -2.0726546,-0.29548 -3.2148063,-1.60078 -4.43581904,-3.11287 v 6.83239 c 0,0.66227 0.33059249,0.9922 0.99218754,0.9922 H 7.937493 c 0.6619898,0 0.9921869,-0.32967 0.9921869,-0.9922 z"
         style="opacity:1;fill:#ffffff;fill-opacity:1;fill-rule:nonzero;stroke:#000000;stroke-width:0.13227685;stroke-miterlimit:4;stroke-dasharray:none;stroke-opacity:1" />
    </clipPath>
    <clipPath
       clipPathUnits="userSpaceOnUse"
       id="clipPath1106-3-5-0">
      <path
         sodipodi:nodetypes="cccccccc"
         inkscape:connector-curvature="0"
         id="path1108-6-3-23"
         d="m 8.4853448,291.67274 c -2.8171082,0.75484 -3.718804,0.28482 -3.718804,0.28482 -2.0726546,-0.29548 -3.2148063,-1.60078 -4.43581904,-3.11287 v 6.83239 c 0,0.66227 0.33059249,0.9922 0.99218754,0.9922 H 7.937493 c 0.6619898,0 0.9921869,-0.32967 0.9921869,-0.9922 z"
         style="opacity:1;fill:#ffffff;fill-opacity:1;fill-rule:nonzero;stroke:#000000;stroke-width:0.13227685;stroke-miterlimit:4;stroke-dasharray:none;stroke-opacity:1" />
    </clipPath>
    <clipPath
       clipPathUnits="userSpaceOnUse"
       id="clipPath1106-3-5-0-5">
      <path
         sodipodi:nodetypes="cccccccc"
         inkscape:connector-curvature="0"
         id="path1108-6-3-23-9"
         d="m 8.4853448,291.67274 c -2.8171082,0.75484 -3.718804,0.28482 -3.718804,0.28482 -2.0726546,-0.29548 -3.2148063,-1.60078 -4.43581904,-3.11287 v 6.83239 c 0,0.66227 0.33059249,0.9922 0.99218754,0.9922 H 7.937493 c 0.6619898,0 0.9921869,-0.32967 0.9921869,-0.9922 z"
         style="opacity:1;fill:#ffffff;fill-opacity:1;fill-rule:nonzero;stroke:#000000;stroke-width:0.13227685;stroke-miterlimit:4;stroke-dasharray:none;stroke-opacity:1" />
    </clipPath>
    <clipPath
       clipPathUnits="userSpaceOnUse"
       id="clipPath1106-3-5-0-5-2">
      <path
         sodipodi:nodetypes="cccccccc"
         inkscape:connector-curvature="0"
         id="path1108-6-3-23-9-8"
         d="m 8.4853448,291.67274 c -2.8171082,0.75484 -3.718804,0.28482 -3.718804,0.28482 -2.0726546,-0.29548 -3.2148063,-1.60078 -4.43581904,-3.11287 v 6.83239 c 0,0.66227 0.33059249,0.9922 0.99218754,0.9922 H 7.937493 c 0.6619898,0 0.9921869,-0.32967 0.9921869,-0.9922 z"
         style="opacity:1;fill:#ffffff;fill-opacity:1;fill-rule:nonzero;stroke:#000000;stroke-width:0.13227685;stroke-miterlimit:4;stroke-dasharray:none;stroke-opacity:1" />
    </clipPath>
    <clipPath
       clipPathUnits="userSpaceOnUse"
       id="clipPath1106-3-3">
      <path
         sodipodi:nodetypes="cccccccc"
         inkscape:connector-curvature="0"
         id="path1108-6-1"
         d="m 8.4853448,291.67274 c -2.8171082,0.75484 -3.718804,0.28482 -3.718804,0.28482 -2.0726546,-0.29548 -3.2148063,-1.60078 -4.43581904,-3.11287 v 6.83239 c 0,0.66227 0.33059249,0.9922 0.99218754,0.9922 H 7.937493 c 0.6619898,0 0.9921869,-0.32967 0.9921869,-0.9922 z"
         style="opacity:1;fill:#ffffff;fill-opacity:1;fill-rule:nonzero;stroke:#000000;stroke-width:0.13227685;stroke-miterlimit:4;stroke-dasharray:none;stroke-opacity:1" />
    </clipPath>
    <clipPath
       clipPathUnits="userSpaceOnUse"
       id="clipPath1106-3-5-4">
      <path
         sodipodi:nodetypes="cccccccc"
         inkscape:connector-curvature="0"
         id="path1108-6-3-7"
         d="m 8.4853448,291.67274 c -2.8171082,0.75484 -3.718804,0.28482 -3.718804,0.28482 -2.0726546,-0.29548 -3.2148063,-1.60078 -4.43581904,-3.11287 v 6.83239 c 0,0.66227 0.33059249,0.9922 0.99218754,0.9922 H 7.937493 c 0.6619898,0 0.9921869,-0.32967 0.9921869,-0.9922 z"
         style="opacity:1;fill:#ffffff;fill-opacity:1;fill-rule:nonzero;stroke:#000000;stroke-width:0.13227685;stroke-miterlimit:4;stroke-dasharray:none;stroke-opacity:1" />
    </clipPath>
    <clipPath
       clipPathUnits="userSpaceOnUse"
       id="clipPath1106-3-5-4-4">
      <path
         sodipodi:nodetypes="cccccccc"
         inkscape:connector-curvature="0"
         id="path1108-6-3-7-5"
         d="m 8.4853448,291.67274 c -2.8171082,0.75484 -3.718804,0.28482 -3.718804,0.28482 -2.0726546,-0.29548 -3.2148063,-1.60078 -4.43581904,-3.11287 v 6.83239 c 0,0.66227 0.33059249,0.9922 0.99218754,0.9922 H 7.937493 c 0.6619898,0 0.9921869,-0.32967 0.9921869,-0.9922 z"
         style="opacity:1;fill:#ffffff;fill-opacity:1;fill-rule:nonzero;stroke:#000000;stroke-width:0.13227685;stroke-miterlimit:4;stroke-dasharray:none;stroke-opacity:1" />
    </clipPath>
    <clipPath
       clipPathUnits="userSpaceOnUse"
       id="clipPath1106-3-5-03">
      <path
         sodipodi:nodetypes="cccccccc"
         inkscape:connector-curvature="0"
         id="path1108-6-3-6"
         d="m 8.4853448,291.67274 c -2.8171082,0.75484 -3.718804,0.28482 -3.718804,0.28482 -2.0726546,-0.29548 -3.2148063,-1.60078 -4.43581904,-3.11287 v 6.83239 c 0,0.66227 0.33059249,0.9922 0.99218754,0.9922 H 7.937493 c 0.6619898,0 0.9921869,-0.32967 0.9921869,-0.9922 z"
         style="opacity:1;fill:#ffffff;fill-opacity:1;fill-rule:nonzero;stroke:#000000;stroke-width:0.13227685;stroke-miterlimit:4;stroke-dasharray:none;stroke-opacity:1" />
    </clipPath>
    <linearGradient
       gradientTransform="matrix(-1,0,0,1,9.2574904,7.889354e-6)"
       inkscape:collect="always"
       xlink:href="#linearGradient1174-3"
       id="linearGradient1264"
       x1="4.4907651"
       y1="290.57187"
       x2="9.8311014"
       y2="294.02295"
       gradientUnits="userSpaceOnUse" />
    <linearGradient
       id="linearGradient1174-3"
       inkscape:collect="always">
      <stop
         id="stop1257-6"
         offset="0"
         style="stop-color:#d8c024;stop-opacity:1" />
      <stop
         id="stop1203-7"
         offset="0.33377236"
         style="stop-color:#e2d05e;stop-opacity:1;" />
      <stop
         style="stop-color:#e9db86;stop-opacity:1;"
         offset="0.67348325"
         id="stop1205-5" />
      <stop
         id="stop1197-3"
         offset="1"
         style="stop-color:#ffffff;stop-opacity:1" />
    </linearGradient>
    <clipPath
       clipPathUnits="userSpaceOnUse"
       id="clipPath1106-3-5-9">
      <path
         sodipodi:nodetypes="cccccccc"
         inkscape:connector-curvature="0"
         id="path1108-6-3-73"
         d="m 8.4853448,291.67274 c -2.8171082,0.75484 -3.718804,0.28482 -3.718804,0.28482 -2.0726546,-0.29548 -3.2148063,-1.60078 -4.43581904,-3.11287 v 6.83239 c 0,0.66227 0.33059249,0.9922 0.99218754,0.9922 H 7.937493 c 0.6619898,0 0.9921869,-0.32967 0.9921869,-0.9922 z"
         style="opacity:1;fill:#ffffff;fill-opacity:1;fill-rule:nonzero;stroke:#000000;stroke-width:0.13227685;stroke-miterlimit:4;stroke-dasharray:none;stroke-opacity:1" />
    </clipPath>
    <clipPath
       clipPathUnits="userSpaceOnUse"
       id="clipPath1106-3-5-0-6">
      <path
         sodipodi:nodetypes="cccccccc"
         inkscape:connector-curvature="0"
         id="path1108-6-3-23-1"
         d="m 8.4853448,291.67274 c -2.8171082,0.75484 -3.718804,0.28482 -3.718804,0.28482 -2.0726546,-0.29548 -3.2148063,-1.60078 -4.43581904,-3.11287 v 6.83239 c 0,0.66227 0.33059249,0.9922 0.99218754,0.9922 H 7.937493 c 0.6619898,0 0.9921869,-0.32967 0.9921869,-0.9922 z"
         style="opacity:1;fill:#ffffff;fill-opacity:1;fill-rule:nonzero;stroke:#000000;stroke-width:0.13227685;stroke-miterlimit:4;stroke-dasharray:none;stroke-opacity:1" />
    </clipPath>
    <clipPath
       clipPathUnits="userSpaceOnUse"
       id="clipPath1106-3-5-0-5-29">
      <path
         sodipodi:nodetypes="cccccccc"
         inkscape:connector-curvature="0"
         id="path1108-6-3-23-9-3"
         d="m 8.4853448,291.67274 c -2.8171082,0.75484 -3.718804,0.28482 -3.718804,0.28482 -2.0726546,-0.29548 -3.2148063,-1.60078 -4.43581904,-3.11287 v 6.83239 c 0,0.66227 0.33059249,0.9922 0.99218754,0.9922 H 7.937493 c 0.6619898,0 0.9921869,-0.32967 0.9921869,-0.9922 z"
         style="opacity:1;fill:#ffffff;fill-opacity:1;fill-rule:nonzero;stroke:#000000;stroke-width:0.13227685;stroke-miterlimit:4;stroke-dasharray:none;stroke-opacity:1" />
    </clipPath>
    <clipPath
       clipPathUnits="userSpaceOnUse"
       id="clipPath1106-3-3-1">
      <path
         sodipodi:nodetypes="cccccccc"
         inkscape:connector-curvature="0"
         id="path1108-6-1-9"
         d="m 8.4853448,291.67274 c -2.8171082,0.75484 -3.718804,0.28482 -3.718804,0.28482 -2.0726546,-0.29548 -3.2148063,-1.60078 -4.43581904,-3.11287 v 6.83239 c 0,0.66227 0.33059249,0.9922 0.99218754,0.9922 H 7.937493 c 0.6619898,0 0.9921869,-0.32967 0.9921869,-0.9922 z"
         style="opacity:1;fill:#ffffff;fill-opacity:1;fill-rule:nonzero;stroke:#000000;stroke-width:0.13227685;stroke-miterlimit:4;stroke-dasharray:none;stroke-opacity:1" />
    </clipPath>
    <clipPath
       clipPathUnits="userSpaceOnUse"
       id="clipPath1106-3-5-4-47">
      <path
         sodipodi:nodetypes="cccccccc"
         inkscape:connector-curvature="0"
         id="path1108-6-3-7-8"
         d="m 8.4853448,291.67274 c -2.8171082,0.75484 -3.718804,0.28482 -3.718804,0.28482 -2.0726546,-0.29548 -3.2148063,-1.60078 -4.43581904,-3.11287 v 6.83239 c 0,0.66227 0.33059249,0.9922 0.99218754,0.9922 H 7.937493 c 0.6619898,0 0.9921869,-0.32967 0.9921869,-0.9922 z"
         style="opacity:1;fill:#ffffff;fill-opacity:1;fill-rule:nonzero;stroke:#000000;stroke-width:0.13227685;stroke-miterlimit:4;stroke-dasharray:none;stroke-opacity:1" />
    </clipPath>
    <clipPath
       clipPathUnits="userSpaceOnUse"
       id="clipPath1106-3-5-03-4">
      <path
         sodipodi:nodetypes="cccccccc"
         inkscape:connector-curvature="0"
         id="path1108-6-3-6-5"
         d="m 8.4853448,291.67274 c -2.8171082,0.75484 -3.718804,0.28482 -3.718804,0.28482 -2.0726546,-0.29548 -3.2148063,-1.60078 -4.43581904,-3.11287 v 6.83239 c 0,0.66227 0.33059249,0.9922 0.99218754,0.9922 H 7.937493 c 0.6619898,0 0.9921869,-0.32967 0.9921869,-0.9922 z"
         style="opacity:1;fill:#ffffff;fill-opacity:1;fill-rule:nonzero;stroke:#000000;stroke-width:0.13227685;stroke-miterlimit:4;stroke-dasharray:none;stroke-opacity:1" />
    </clipPath>
    <clipPath
       clipPathUnits="userSpaceOnUse"
       id="clipPath1106-3-5-4-4-0">
      <path
         sodipodi:nodetypes="cccccccc"
         inkscape:connector-curvature="0"
         id="path1108-6-3-7-5-3"
         d="m 8.4853448,291.67274 c -2.8171082,0.75484 -3.718804,0.28482 -3.718804,0.28482 -2.0726546,-0.29548 -3.2148063,-1.60078 -4.43581904,-3.11287 v 6.83239 c 0,0.66227 0.33059249,0.9922 0.99218754,0.9922 H 7.937493 c 0.6619898,0 0.9921869,-0.32967 0.9921869,-0.9922 z"
         style="opacity:1;fill:#ffffff;fill-opacity:1;fill-rule:nonzero;stroke:#000000;stroke-width:0.13227685;stroke-miterlimit:4;stroke-dasharray:none;stroke-opacity:1" />
    </clipPath>
    <clipPath
       clipPathUnits="userSpaceOnUse"
       id="clipPath1106-3-5-0-63">
      <path
         sodipodi:nodetypes="cccccccc"
         inkscape:connector-curvature="0"
         id="path1108-6-3-23-2"
         d="m 8.4853448,291.67274 c -2.8171082,0.75484 -3.718804,0.28482 -3.718804,0.28482 -2.0726546,-0.29548 -3.2148063,-1.60078 -4.43581904,-3.11287 v 6.83239 c 0,0.66227 0.33059249,0.9922 0.99218754,0.9922 H 7.937493 c 0.6619898,0 0.9921869,-0.32967 0.9921869,-0.9922 z"
         style="opacity:1;fill:#ffffff;fill-opacity:1;fill-rule:nonzero;stroke:#000000;stroke-width:0.13227685;stroke-miterlimit:4;stroke-dasharray:none;stroke-opacity:1" />
    </clipPath>
    <clipPath
       clipPathUnits="userSpaceOnUse"
       id="clipPath1106-3-5-0-5-0">
      <path
         sodipodi:nodetypes="cccccccc"
         inkscape:connector-curvature="0"
         id="path1108-6-3-23-9-6"
         d="m 8.4853448,291.67274 c -2.8171082,0.75484 -3.718804,0.28482 -3.718804,0.28482 -2.0726546,-0.29548 -3.2148063,-1.60078 -4.43581904,-3.11287 v 6.83239 c 0,0.66227 0.33059249,0.9922 0.99218754,0.9922 H 7.937493 c 0.6619898,0 0.9921869,-0.32967 0.9921869,-0.9922 z"
         style="opacity:1;fill:#ffffff;fill-opacity:1;fill-rule:nonzero;stroke:#000000;stroke-width:0.13227685;stroke-miterlimit:4;stroke-dasharray:none;stroke-opacity:1" />
    </clipPath>
    <clipPath
       clipPathUnits="userSpaceOnUse"
       id="clipPath1106-3-3-15">
      <path
         sodipodi:nodetypes="cccccccc"
         inkscape:connector-curvature="0"
         id="path1108-6-1-5"
         d="m 8.4853448,291.67274 c -2.8171082,0.75484 -3.718804,0.28482 -3.718804,0.28482 -2.0726546,-0.29548 -3.2148063,-1.60078 -4.43581904,-3.11287 v 6.83239 c 0,0.66227 0.33059249,0.9922 0.99218754,0.9922 H 7.937493 c 0.6619898,0 0.9921869,-0.32967 0.9921869,-0.9922 z"
         style="opacity:1;fill:#ffffff;fill-opacity:1;fill-rule:nonzero;stroke:#000000;stroke-width:0.13227685;stroke-miterlimit:4;stroke-dasharray:none;stroke-opacity:1" />
    </clipPath>
    <clipPath
       clipPathUnits="userSpaceOnUse"
       id="clipPath1106-3-5-4-476">
      <path
         sodipodi:nodetypes="cccccccc"
         inkscape:connector-curvature="0"
         id="path1108-6-3-7-56"
         d="m 8.4853448,291.67274 c -2.8171082,0.75484 -3.718804,0.28482 -3.718804,0.28482 -2.0726546,-0.29548 -3.2148063,-1.60078 -4.43581904,-3.11287 v 6.83239 c 0,0.66227 0.33059249,0.9922 0.99218754,0.9922 H 7.937493 c 0.6619898,0 0.9921869,-0.32967 0.9921869,-0.9922 z"
         style="opacity:1;fill:#ffffff;fill-opacity:1;fill-rule:nonzero;stroke:#000000;stroke-width:0.13227685;stroke-miterlimit:4;stroke-dasharray:none;stroke-opacity:1" />
    </clipPath>
    <clipPath
       clipPathUnits="userSpaceOnUse"
       id="clipPath1106-3-5-03-9">
      <path
         sodipodi:nodetypes="cccccccc"
         inkscape:connector-curvature="0"
         id="path1108-6-3-6-3"
         d="m 8.4853448,291.67274 c -2.8171082,0.75484 -3.718804,0.28482 -3.718804,0.28482 -2.0726546,-0.29548 -3.2148063,-1.60078 -4.43581904,-3.11287 v 6.83239 c 0,0.66227 0.33059249,0.9922 0.99218754,0.9922 H 7.937493 c 0.6619898,0 0.9921869,-0.32967 0.9921869,-0.9922 z"
         style="opacity:1;fill:#ffffff;fill-opacity:1;fill-rule:nonzero;stroke:#000000;stroke-width:0.13227685;stroke-miterlimit:4;stroke-dasharray:none;stroke-opacity:1" />
    </clipPath>
    <clipPath
       clipPathUnits="userSpaceOnUse"
       id="clipPath1106-3-5-4-4-7">
      <path
         sodipodi:nodetypes="cccccccc"
         inkscape:connector-curvature="0"
         id="path1108-6-3-7-5-4"
         d="m 8.4853448,291.67274 c -2.8171082,0.75484 -3.718804,0.28482 -3.718804,0.28482 -2.0726546,-0.29548 -3.2148063,-1.60078 -4.43581904,-3.11287 v 6.83239 c 0,0.66227 0.33059249,0.9922 0.99218754,0.9922 H 7.937493 c 0.6619898,0 0.9921869,-0.32967 0.9921869,-0.9922 z"
         style="opacity:1;fill:#ffffff;fill-opacity:1;fill-rule:nonzero;stroke:#000000;stroke-width:0.13227685;stroke-miterlimit:4;stroke-dasharray:none;stroke-opacity:1" />
    </clipPath>
  </defs>
  <sodipodi:namedview
     id="base"
     pagecolor="#ffffff"
     bordercolor="#666666"
     borderopacity="1.0"
     inkscape:pageopacity="0.0"
     inkscape:pageshadow="2"
     inkscape:zoom="22.627416"
     inkscape:cx="21.232076"
     inkscape:cy="12.05423"
     inkscape:document-units="px"
     inkscape:current-layer="g1323"
     showgrid="false"
     units="px"
     inkscape:window-width="1366"
     inkscape:window-height="704"
     inkscape:window-x="0"
     inkscape:window-y="27"
     inkscape:window-maximized="1"
     showguides="true" />
  <metadata
     id="metadata5">
    <rdf:RDF>
      <cc:Work
         rdf:about="">
        <dc:format>image/svg+xml</dc:format>
        <dc:type
           rdf:resource="http://purl.org/dc/dcmitype/StillImage" />
        <dc:title />
        <cc:license
           rdf:resource="http://creativecommons.org/publicdomain/zero/1.0/" />
      </cc:Work>
      <cc:License
         rdf:about="http://creativecommons.org/publicdomain/zero/1.0/">
        <cc:permits
           rdf:resource="http://creativecommons.org/ns#Reproduction" />
        <cc:permits
           rdf:resource="http://creativecommons.org/ns#Distribution" />
        <cc:permits
           rdf:resource="http://creativecommons.org/ns#DerivativeWorks" />
      </cc:License>
    </rdf:RDF>
  </metadata>
  <g
     inkscape:label="Layer 1"
     inkscape:groupmode="layer"
     id="layer1"
     transform="translate(0,-285.09375)">
    <path
       style="opacity:1;fill:#000000;fill-opacity:1;fill-rule:nonzero;stroke:#000000;stroke-width:0.13249582;stroke-linecap:square;stroke-linejoin:miter;stroke-miterlimit:6;stroke-dasharray:none;stroke-opacity:1;paint-order:normal"
       d="m 1.3230186,285.42449 c -0.66268625,0 -0.99208525,0.32965 -0.99208525,0.99219 l -1.021e-4,9.2603 c 0,0.64862 0.3302283,0.99219 0.99218735,0.99219 l 6.6145835,-1e-4 c 0.6613862,0 0.9920852,-0.32723 0.9920852,-0.99209 v -9.2603 c 0,-0.6603 -0.331207,-0.99218 -0.9920852,-0.99218 z"
       id="path5900-3"
       inkscape:connector-curvature="0"
       sodipodi:nodetypes="ccccccccc" />
    <text
       xml:space="preserve"
       style="font-style:normal;font-weight:normal;font-size:3.52777767px;line-height:6.61458349px;font-family:sans-serif;letter-spacing:0px;word-spacing:0px;fill:#000000;fill-opacity:1;stroke:none;stroke-width:0.26458335px;stroke-linecap:butt;stroke-linejoin:miter;stroke-opacity:1"
       id="text4655"
       transform="translate(-0.14432892,1.1084295)"><textPath
         xlink:href="#path4665-5"
         id="textPath4695"></textPath></text>
    <text
       xml:space="preserve"
       style="font-style:normal;font-weight:normal;font-size:3.52777767px;line-height:6.61458349px;font-family:sans-serif;letter-spacing:0px;word-spacing:0px;fill:#000000;fill-opacity:1;stroke:none;stroke-width:0.26458335px;stroke-linecap:butt;stroke-linejoin:miter;stroke-opacity:1"
       id="text4659"
       transform="translate(-0.02338608,0.15498933)"><textPath
         xlink:href="#path4665"
         id="textPath4674"></textPath></text>
    <text
       xml:space="preserve"
       style="font-style:normal;font-weight:normal;font-size:3.52777767px;line-height:6.61458349px;font-family:sans-serif;letter-spacing:0px;word-spacing:0px;fill:#000000;fill-opacity:1;stroke:none;stroke-width:0.26458335px;stroke-linecap:butt;stroke-linejoin:miter;stroke-opacity:1"
       x="-3.3403645"
       y="294.65182"
       id="text4700"><tspan
         sodipodi:role="line"
         id="tspan4698"
         x="-3.3403645"
         y="298.87552"
         style="stroke-width:0.26458335px" /></text>
    <text
       xml:space="preserve"
       style="font-style:normal;font-weight:normal;font-size:10.58333302px;line-height:6.61458349px;font-family:sans-serif;letter-spacing:0px;word-spacing:0px;fill:#000000;fill-opacity:1;stroke:none;stroke-width:0.26458335px;stroke-linecap:butt;stroke-linejoin:miter;stroke-opacity:1"
       x="2.6076558"
       y="295.13992"
       id="text5863-0-0"><tspan
         sodipodi:role="line"
         id="tspan5861-3-9"
         x="2.6076558"
         y="301.19641"
         style="font-style:normal;font-variant:normal;font-weight:bold;font-stretch:normal;font-size:1.41111112px;font-family:sans-serif;-inkscape-font-specification:'sans-serif Bold';fill:#d48100;fill-opacity:1;stroke-width:0.26458335px" /></text>
    <g
       id="g4640-3-2-8"
       transform="matrix(2.0495003,0.18828516,-0.18828516,2.0495003,63.049149,-298.74972)" />
    <text
       xml:space="preserve"
       style="font-style:normal;font-weight:normal;font-size:1.76388884px;line-height:1.80000007px;font-family:sans-serif;text-align:center;letter-spacing:-0.15875px;word-spacing:0px;text-anchor:middle;fill:#ffffff;fill-opacity:1;stroke:none;stroke-width:0.31030414px;stroke-linecap:butt;stroke-linejoin:miter;stroke-opacity:1"
       x="5.5314565"
       y="287.19736"
       id="text5863-5-3"
       transform="scale(0.99999651,1.0000035)"><tspan
         sodipodi:role="line"
         x="5.5314565"
         y="287.19736"
         style="font-style:normal;font-variant:normal;font-weight:bold;font-stretch:normal;font-size:1.76388896px;line-height:1.70000005px;font-family:Carlito;-inkscape-font-specification:'Carlito Bold';text-align:center;letter-spacing:0px;word-spacing:0px;text-anchor:middle;fill:#ffffff;fill-opacity:1;stroke-width:0.31030414px"
         dx="0 0 0 0 0 0 0 0 0 0 0 0 0 0 0 0 3.1179975e-10"
         id="tspan6000-6">JOURS</tspan></text>
    <text
       xml:space="preserve"
       style="font-style:normal;font-variant:normal;font-weight:600;font-stretch:normal;font-size:2.82222223px;line-height:1.25;font-family:'URW Gothic';-inkscape-font-specification:'URW Gothic Semi-Bold';letter-spacing:0px;word-spacing:0px;fill:#000000;fill-opacity:1;stroke:none;stroke-width:0.22282963"
       x="1.2900161"
       y="287.52832"
       id="text868"><tspan
         sodipodi:role="line"
         id="tspan866"
         x="1.2900161"
         y="287.52832"
         style="font-style:normal;font-variant:normal;font-weight:bold;font-stretch:normal;font-size:2.46944451px;font-family:'Arabic Newspaper';-inkscape-font-specification:'Arabic Newspaper Bold';fill:#ffffff;fill-opacity:1;stroke-width:0.22282963">3</tspan></text>
    <path
       style="opacity:1;fill:#ffffff;fill-opacity:1;fill-rule:nonzero;stroke:#000000;stroke-width:0.13227685;stroke-miterlimit:4;stroke-dasharray:none;stroke-opacity:1"
       d="m 8.934065,293.83866 c -1.0958669,-1.54487 -2.8075579,-3.69849 -5.6157855,-4.08749 -0.2962509,-0.042 -0.3444012,0.36049 -0.2209946,0.81629 0.1493836,0.55175 0.4781938,1.18164 0.4638826,1.1959 -0.1852151,0.70802 -3.22606085,3.9111 -3.22606085,3.91664 0,0.66227 0.330592,0.9922 0.99218705,0.9922 h 6.6145838 c 0.6619906,0 0.9921875,-0.32967 0.9921875,-0.9922 z"
       id="path4565-6-36-3"
       inkscape:connector-curvature="0"
       sodipodi:nodetypes="ccscccccc" />
    <path
       sodipodi:type="star"
       style="opacity:1;fill:#d1b917;fill-opacity:1;stroke:#d1b917;stroke-width:0;stroke-miterlimit:6;stroke-dasharray:none;stroke-opacity:1"
       id="path917-5"
       sodipodi:sides="11"
       sodipodi:cx="8.037715"
       sodipodi:cy="288.07169"
       sodipodi:r1="0.61603588"
       sodipodi:r2="0.30801794"
       sodipodi:arg1="0.43467022"
       sodipodi:arg2="0.72026955"
       inkscape:flatsided="false"
       inkscape:rounded="0"
       inkscape:randomized="0"
       d="m 8.596465,288.33111 -0.3272351,-0.0563 0.098283,0.31716 -0.2448741,-0.22424 -0.088787,0.31994 -0.084767,-0.32103 -0.2476672,0.22115 0.1022528,-0.3159 -0.327915,0.0521 0.2568081,-0.21047 -0.3040521,-0.13342 0.3298287,-0.0382 -0.1836547,-0.27662 0.298131,0.14617 -0.00495,-0.332 0.1717788,0.28414 0.1753291,-0.28197 -0.00911,0.33191 0.2999409,-0.14241 -0.1871097,0.27429 0.3293234,0.0423 -0.3057015,0.12959 z" />
    <path
       style="color:#000000;font-style:normal;font-variant:normal;font-weight:normal;font-stretch:normal;font-size:medium;line-height:normal;font-family:sans-serif;font-variant-ligatures:normal;font-variant-position:normal;font-variant-caps:normal;font-variant-numeric:normal;font-variant-alternates:normal;font-feature-settings:normal;text-indent:0;text-align:start;text-decoration:none;text-decoration-line:none;text-decoration-style:solid;text-decoration-color:#000000;letter-spacing:normal;word-spacing:normal;text-transform:none;writing-mode:lr-tb;direction:ltr;text-orientation:mixed;dominant-baseline:auto;baseline-shift:baseline;text-anchor:start;white-space:normal;shape-padding:0;clip-rule:nonzero;display:inline;overflow:visible;visibility:visible;opacity:1;isolation:auto;mix-blend-mode:normal;color-interpolation:sRGB;color-interpolation-filters:linearRGB;solid-color:#000000;solid-opacity:1;vector-effect:none;fill:url(#linearGradient1264);fill-opacity:1;fill-rule:nonzero;stroke:none;stroke-width:0.13227685;stroke-linecap:butt;stroke-linejoin:miter;stroke-miterlimit:4;stroke-dasharray:none;stroke-dashoffset:0;stroke-opacity:1;color-rendering:auto;image-rendering:auto;shape-rendering:auto;text-rendering:auto;enable-background:accumulate"
       d="m 0.33633115,294.10263 c 0,0.14669 -0.12019329,0.98894 -2.5172e-4,1.55027 0.141806,0.66367 -0.65679028,0.59633 0.14650969,0.57605 3.02411898,-0.91095 5.56159898,-3.75704 4.89124768,-4.87111 -0.1088506,-0.1809 -0.4297067,-0.0889 -0.6059169,-0.18221 -0.2165178,-0.1147 -0.211548,-0.59335 -0.5976066,-0.67812 -0.1379233,-0.0303 -0.3547567,0.12607 -0.4404564,0.19132 -0.094867,0.0722 -0.3952181,0.0329 -0.5736129,-0.1425 -0.8970383,1.75372 -1.4978708,2.33012 -2.81991285,3.5563 z"
       id="path4565-6-36-3-3"
       inkscape:connector-curvature="0"
       sodipodi:nodetypes="cscsssscc" />
    <path
       style="color:#000000;font-style:normal;font-variant:normal;font-weight:normal;font-stretch:normal;font-size:medium;line-height:normal;font-family:sans-serif;font-variant-ligatures:normal;font-variant-position:normal;font-variant-caps:normal;font-variant-numeric:normal;font-variant-alternates:normal;font-feature-settings:normal;text-indent:0;text-align:start;text-decoration:none;text-decoration-line:none;text-decoration-style:solid;text-decoration-color:#000000;letter-spacing:normal;word-spacing:normal;text-transform:none;writing-mode:lr-tb;direction:ltr;text-orientation:mixed;dominant-baseline:auto;baseline-shift:baseline;text-anchor:start;white-space:normal;shape-padding:0;clip-rule:nonzero;display:inline;overflow:visible;visibility:visible;opacity:1;isolation:auto;mix-blend-mode:normal;color-interpolation:sRGB;color-interpolation-filters:linearRGB;solid-color:#000000;solid-opacity:1;vector-effect:none;fill:#000000;fill-opacity:1;fill-rule:nonzero;stroke:none;stroke-width:0.13249582;stroke-linecap:square;stroke-linejoin:miter;stroke-miterlimit:6;stroke-dasharray:none;stroke-dashoffset:0;stroke-opacity:1;paint-order:normal;color-rendering:auto;image-rendering:auto;shape-rendering:auto;text-rendering:auto;enable-background:accumulate"
       d="m 1.3231773,285.35847 c -0.34232796,0 -0.61017496,0.0847 -0.79101596,0.26562 -0.18084,0.18089 -0.267578,0.45072 -0.267578,0.79297 v 9.25976 c 0,0.33556 0.08696,0.60272 0.267578,0.78516 0.180622,0.18245 0.448575,0.27344 0.79101596,0.27344 h 6.6152342 c 0.341619,0 0.609971,-0.0851 0.791016,-0.26563 0.181045,-0.18057 0.267578,-0.44955 0.267578,-0.79297 v -9.25976 c 0,-0.34123 -0.08659,-0.60992 -0.267578,-0.79102 -0.180992,-0.18109 -0.449487,-0.26757 -0.791016,-0.26757 z m 0,0.13281 h 6.6152342 c 0.31935,0 0.547435,0.0786 0.697266,0.22851 0.149831,0.14992 0.228516,0.3782 0.228515,0.69727 v 9.25976 c 0,0.32145 -0.07886,0.54996 -0.228515,0.69922 -0.149651,0.14926 -0.377498,0.22657 -0.697266,0.22657 H 1.3231773 c -0.319518,0 -0.54728396,-0.0809 -0.69726596,-0.23243 -0.149981,-0.15149 -0.228515,-0.38029 -0.228515,-0.69336 v -9.25976 c 0,-0.32029 0.07898,-0.54965 0.228515,-0.69922 0.149531,-0.14957 0.37690796,-0.22656 0.69726596,-0.22656 z"
       id="path5900-3-0"
       inkscape:connector-curvature="0" />
    <g
       id="g1323"
       transform="matrix(0.76850244,-0.23861897,0.23861897,0.76850244,-67.186316,69.590475)">
      <path
         sodipodi:nodetypes="cccc"
         inkscape:connector-curvature="0"
         id="path927"
         d="m 2.8474919,296.32077 c 1.3022186,-1.67823 5.0923686,-1.95327 4.2059356,-3.76367 0.9797369,1.89599 -2.4639033,2.05947 -3.7403219,3.91305 z"
         style="fill:#000000;fill-opacity:1;stroke:#000000;stroke-width:0.03287993;stroke-linecap:butt;stroke-linejoin:bevel;stroke-miterlimit:4;stroke-dasharray:none;stroke-opacity:1" />
      <path
         sodipodi:nodetypes="cccc"
         inkscape:connector-curvature="0"
         id="path927-6"
         d="m 3.563506,296.5924 c 1.4683515,-2.07464 4.6185936,-2.0231 3.4588654,-4.14863 1.3431009,2.19182 -1.7884224,2.09899 -2.9505978,4.30028 z"
         style="fill:#000000;fill-opacity:1;stroke:#000000;stroke-width:0.03287993;stroke-linecap:butt;stroke-linejoin:bevel;stroke-miterlimit:4;stroke-dasharray:none;stroke-opacity:1" />
      <path
         style="fill:#000000;fill-opacity:1;stroke:#000000;stroke-width:0.01643996;stroke-linecap:round;stroke-linejoin:miter;stroke-miterlimit:4;stroke-dasharray:none;stroke-opacity:1"
         d="m 5.2422659,294.52822 c -0.5218369,0.24185 -1.9003405,0.64777 -2.2268079,1.08604 0,0 0.3719963,-0.20334 0.7589358,-0.43532 0.6621703,-0.39699 1.1455694,-0.47881 1.4678721,-0.65072 z"
         id="path2233-6"
         inkscape:connector-curvature="0"
         sodipodi:nodetypes="ccsc" />
    </g>
  </g>
</svg>
