<?xml version="1.0" encoding="UTF-8" standalone="no"?>
<!-- Created with Inkscape (http://www.inkscape.org/) -->

<svg
   xmlns:dc="http://purl.org/dc/elements/1.1/"
   xmlns:cc="http://creativecommons.org/ns#"
   xmlns:rdf="http://www.w3.org/1999/02/22-rdf-syntax-ns#"
   xmlns:svg="http://www.w3.org/2000/svg"
   xmlns="http://www.w3.org/2000/svg"
   xmlns:xlink="http://www.w3.org/1999/xlink"
   xmlns:sodipodi="http://sodipodi.sourceforge.net/DTD/sodipodi-0.dtd"
   xmlns:inkscape="http://www.inkscape.org/namespaces/inkscape"
   width="35"
   height="45"
   viewBox="0 0 9.2604169 11.90625"
   version="1.1"
   id="svg8"
   sodipodi:docname="72-quatre-jours.svg"
   inkscape:version="0.92.2 5c3e80d, 2017-08-06"
   inkscape:export-filename="/home/etienne/Documents/CAF/labels/70x90/72-quatre-jours.png"
   inkscape:export-xdpi="191.21904"
   inkscape:export-ydpi="191.21904">
  <defs
     id="defs2">
    <linearGradient
       id="linearGradient1174"
       inkscape:collect="always">
      <stop
         id="stop1257"
         offset="0"
         style="stop-color:#d8c024;stop-opacity:1" />
      <stop
         id="stop1203"
         offset="0.3191486"
         style="stop-color:#e2d05e;stop-opacity:1;" />
      <stop
         style="stop-color:#e9db86;stop-opacity:1;"
         offset="0.52734768"
         id="stop1205" />
      <stop
         id="stop1197"
         offset="1"
         style="stop-color:#ffffff;stop-opacity:1" />
    </linearGradient>
    <path
       style="opacity:0.98000004;fill:none;fill-opacity:1;fill-rule:nonzero;stroke:none;stroke-width:0.01176898;stroke-miterlimit:4;stroke-dasharray:none;stroke-opacity:1"
       d="m -4.1294545e-5,294.34829 c 0,0 2.647074194545,-1.50592 6.491807494545,-1.49872 4.0941928,-0.007 6.7372928,1.48403 6.7372928,1.48403"
       id="path5715"
       inkscape:connector-curvature="0"
       sodipodi:nodetypes="ccc" />
    <path
       style="opacity:0.98000004;fill:none;fill-opacity:1;fill-rule:nonzero;stroke:none;stroke-width:0.01176898;stroke-miterlimit:4;stroke-dasharray:none;stroke-opacity:1"
       d="m -4.1294545e-5,294.34829 c 0,0 2.647074194545,-1.50592 6.491807494545,-1.49872 4.0941928,-0.007 6.7372928,1.48403 6.7372928,1.48403"
       id="path5715-8"
       inkscape:connector-curvature="0"
       sodipodi:nodetypes="ccc" />
    <path
       style="opacity:0.98000004;fill:none;fill-opacity:1;fill-rule:nonzero;stroke:none;stroke-width:0.01176898;stroke-miterlimit:4;stroke-dasharray:none;stroke-opacity:1"
       d="m -4.1294545e-5,294.34829 c 0,0 2.647074194545,-1.50592 6.491807494545,-1.49872 4.0941928,-0.007 6.7372928,1.48403 6.7372928,1.48403"
       id="path5715-7"
       inkscape:connector-curvature="0"
       sodipodi:nodetypes="ccc" />
    <path
       style="opacity:0.98000004;fill:none;fill-opacity:1;fill-rule:nonzero;stroke:none;stroke-width:0.01176898;stroke-miterlimit:4;stroke-dasharray:none;stroke-opacity:1"
       d="m -4.1294545e-5,294.34829 c 0,0 2.647074194545,-1.50592 6.491807494545,-1.49872 4.0941928,-0.007 6.7372928,1.48403 6.7372928,1.48403"
       id="path5715-2"
       inkscape:connector-curvature="0"
       sodipodi:nodetypes="ccc" />
    <path
       inkscape:connector-curvature="0"
       id="path4636-3"
       d="m 13.002663,293.85892 a 2.8764884,2.8764884 0 0 1 -2.876488,2.87649 2.8764884,2.8764884 0 0 1 -2.8764885,-2.87649 2.8764884,2.8764884 0 0 1 2.8764885,-2.87649 2.8764884,2.8764884 0 0 1 2.876488,2.87649 z"
       style="opacity:1;fill:#000000;fill-opacity:1;fill-rule:nonzero;stroke:none;stroke-width:0.17591217;stroke-linecap:round;stroke-linejoin:bevel;stroke-miterlimit:4;stroke-dasharray:none;stroke-opacity:1;paint-order:normal" />
    <path
       inkscape:connector-curvature="0"
       id="path4636-1-3"
       d="m 7.2496865,293.85892 a 2.8764884,2.8764884 0 0 0 2.8764895,2.87649 2.8764884,2.8764884 0 0 0 2.876491,-2.87649 2.8764884,2.8764884 0 0 0 -2.876491,-2.87649 2.8764884,2.8764884 0 0 0 -2.8764895,2.87649 z"
       style="opacity:1;fill:#000000;fill-opacity:1;fill-rule:nonzero;stroke:none;stroke-width:0.17591217;stroke-linecap:round;stroke-linejoin:bevel;stroke-miterlimit:4;stroke-dasharray:none;stroke-opacity:1;paint-order:normal" />
    <linearGradient
       id="linearGradient878"
       inkscape:collect="always">
      <stop
         id="stop874"
         offset="0"
         style="stop-color:#4d5857;stop-opacity:1" />
      <stop
         id="stop876"
         offset="1"
         style="stop-color:#baf5f6;stop-opacity:1" />
    </linearGradient>
    <linearGradient
       inkscape:collect="always"
       xlink:href="#linearGradient878"
       id="linearGradient6751"
       x1="0.34775239"
       y1="294.18268"
       x2="6.4939933"
       y2="293.62885"
       gradientUnits="userSpaceOnUse" />
    <clipPath
       clipPathUnits="userSpaceOnUse"
       id="clipPath1100">
      <path
         sodipodi:nodetypes="cccccccc"
         inkscape:connector-curvature="0"
         id="path1102"
         d="m 8.9131512,291.5595 c -2.817108,0.75484 -4.146603,0.39806 -4.146603,0.39806 -2.0726546,-0.29548 -3.2148063,-1.60078 -4.43581903,-3.11287 v 6.83239 c 0,0.66227 0.33059254,0.9922 0.99218753,0.9922 h 6.6145834 c 0.6619907,0 0.9921875,-0.32967 0.9921875,-0.9922 z"
         style="opacity:1;fill:#ffffff;fill-opacity:1;fill-rule:nonzero;stroke:#000000;stroke-width:0.13227685;stroke-miterlimit:4;stroke-dasharray:none;stroke-opacity:1" />
    </clipPath>
    <clipPath
       clipPathUnits="userSpaceOnUse"
       id="clipPath1106">
      <path
         sodipodi:nodetypes="cccccccc"
         inkscape:connector-curvature="0"
         id="path1108"
         d="m 8.4853448,291.67274 c -2.8171082,0.75484 -3.718804,0.28482 -3.718804,0.28482 -2.0726546,-0.29548 -3.2148063,-1.60078 -4.43581904,-3.11287 v 6.83239 c 0,0.66227 0.33059249,0.9922 0.99218754,0.9922 H 7.937493 c 0.6619898,0 0.9921869,-0.32967 0.9921869,-0.9922 z"
         style="opacity:1;fill:#ffffff;fill-opacity:1;fill-rule:nonzero;stroke:#000000;stroke-width:0.13227685;stroke-miterlimit:4;stroke-dasharray:none;stroke-opacity:1" />
    </clipPath>
    <clipPath
       clipPathUnits="userSpaceOnUse"
       id="clipPath1106-3">
      <path
         sodipodi:nodetypes="cccccccc"
         inkscape:connector-curvature="0"
         id="path1108-6"
         d="m 8.4853448,291.67274 c -2.8171082,0.75484 -3.718804,0.28482 -3.718804,0.28482 -2.0726546,-0.29548 -3.2148063,-1.60078 -4.43581904,-3.11287 v 6.83239 c 0,0.66227 0.33059249,0.9922 0.99218754,0.9922 H 7.937493 c 0.6619898,0 0.9921869,-0.32967 0.9921869,-0.9922 z"
         style="opacity:1;fill:#ffffff;fill-opacity:1;fill-rule:nonzero;stroke:#000000;stroke-width:0.13227685;stroke-miterlimit:4;stroke-dasharray:none;stroke-opacity:1" />
    </clipPath>
    <clipPath
       clipPathUnits="userSpaceOnUse"
       id="clipPath1106-3-5">
      <path
         sodipodi:nodetypes="cccccccc"
         inkscape:connector-curvature="0"
         id="path1108-6-3"
         d="m 8.4853448,291.67274 c -2.8171082,0.75484 -3.718804,0.28482 -3.718804,0.28482 -2.0726546,-0.29548 -3.2148063,-1.60078 -4.43581904,-3.11287 v 6.83239 c 0,0.66227 0.33059249,0.9922 0.99218754,0.9922 H 7.937493 c 0.6619898,0 0.9921869,-0.32967 0.9921869,-0.9922 z"
         style="opacity:1;fill:#ffffff;fill-opacity:1;fill-rule:nonzero;stroke:#000000;stroke-width:0.13227685;stroke-miterlimit:4;stroke-dasharray:none;stroke-opacity:1" />
    </clipPath>
    <clipPath
       clipPathUnits="userSpaceOnUse"
       id="clipPath1106-3-5-6">
      <path
         sodipodi:nodetypes="cccccccc"
         inkscape:connector-curvature="0"
         id="path1108-6-3-2"
         d="m 8.4853448,291.67274 c -2.8171082,0.75484 -3.718804,0.28482 -3.718804,0.28482 -2.0726546,-0.29548 -3.2148063,-1.60078 -4.43581904,-3.11287 v 6.83239 c 0,0.66227 0.33059249,0.9922 0.99218754,0.9922 H 7.937493 c 0.6619898,0 0.9921869,-0.32967 0.9921869,-0.9922 z"
         style="opacity:1;fill:#ffffff;fill-opacity:1;fill-rule:nonzero;stroke:#000000;stroke-width:0.13227685;stroke-miterlimit:4;stroke-dasharray:none;stroke-opacity:1" />
    </clipPath>
    <clipPath
       clipPathUnits="userSpaceOnUse"
       id="clipPath1106-3-5-6-1">
      <path
         sodipodi:nodetypes="cccccccc"
         inkscape:connector-curvature="0"
         id="path1108-6-3-2-2"
         d="m 8.4853448,291.67274 c -2.8171082,0.75484 -3.718804,0.28482 -3.718804,0.28482 -2.0726546,-0.29548 -3.2148063,-1.60078 -4.43581904,-3.11287 v 6.83239 c 0,0.66227 0.33059249,0.9922 0.99218754,0.9922 H 7.937493 c 0.6619898,0 0.9921869,-0.32967 0.9921869,-0.9922 z"
         style="opacity:1;fill:#ffffff;fill-opacity:1;fill-rule:nonzero;stroke:#000000;stroke-width:0.13227685;stroke-miterlimit:4;stroke-dasharray:none;stroke-opacity:1" />
    </clipPath>
    <clipPath
       clipPathUnits="userSpaceOnUse"
       id="clipPath1106-3-5-6-1-0">
      <path
         sodipodi:nodetypes="cccccccc"
         inkscape:connector-curvature="0"
         id="path1108-6-3-2-2-9"
         d="m 8.4853448,291.67274 c -2.8171082,0.75484 -3.718804,0.28482 -3.718804,0.28482 -2.0726546,-0.29548 -3.2148063,-1.60078 -4.43581904,-3.11287 v 6.83239 c 0,0.66227 0.33059249,0.9922 0.99218754,0.9922 H 7.937493 c 0.6619898,0 0.9921869,-0.32967 0.9921869,-0.9922 z"
         style="opacity:1;fill:#ffffff;fill-opacity:1;fill-rule:nonzero;stroke:#000000;stroke-width:0.13227685;stroke-miterlimit:4;stroke-dasharray:none;stroke-opacity:1" />
    </clipPath>
    <clipPath
       clipPathUnits="userSpaceOnUse"
       id="clipPath1106-3-5-6-1-6">
      <path
         sodipodi:nodetypes="cccccccc"
         inkscape:connector-curvature="0"
         id="path1108-6-3-2-2-0"
         d="m 8.4853448,291.67274 c -2.8171082,0.75484 -3.718804,0.28482 -3.718804,0.28482 -2.0726546,-0.29548 -3.2148063,-1.60078 -4.43581904,-3.11287 v 6.83239 c 0,0.66227 0.33059249,0.9922 0.99218754,0.9922 H 7.937493 c 0.6619898,0 0.9921869,-0.32967 0.9921869,-0.9922 z"
         style="opacity:1;fill:#ffffff;fill-opacity:1;fill-rule:nonzero;stroke:#000000;stroke-width:0.13227685;stroke-miterlimit:4;stroke-dasharray:none;stroke-opacity:1" />
    </clipPath>
    <clipPath
       clipPathUnits="userSpaceOnUse"
       id="clipPath1106-3-5-6-6">
      <path
         sodipodi:nodetypes="cccccccc"
         inkscape:connector-curvature="0"
         id="path1108-6-3-2-26"
         d="m 8.4853448,291.67274 c -2.8171082,0.75484 -3.718804,0.28482 -3.718804,0.28482 -2.0726546,-0.29548 -3.2148063,-1.60078 -4.43581904,-3.11287 v 6.83239 c 0,0.66227 0.33059249,0.9922 0.99218754,0.9922 H 7.937493 c 0.6619898,0 0.9921869,-0.32967 0.9921869,-0.9922 z"
         style="opacity:1;fill:#ffffff;fill-opacity:1;fill-rule:nonzero;stroke:#000000;stroke-width:0.13227685;stroke-miterlimit:4;stroke-dasharray:none;stroke-opacity:1" />
    </clipPath>
    <clipPath
       clipPathUnits="userSpaceOnUse"
       id="clipPath1106-3-5-6-7">
      <path
         sodipodi:nodetypes="cccccccc"
         inkscape:connector-curvature="0"
         id="path1108-6-3-2-9"
         d="m 8.4853448,291.67274 c -2.8171082,0.75484 -3.718804,0.28482 -3.718804,0.28482 -2.0726546,-0.29548 -3.2148063,-1.60078 -4.43581904,-3.11287 v 6.83239 c 0,0.66227 0.33059249,0.9922 0.99218754,0.9922 H 7.937493 c 0.6619898,0 0.9921869,-0.32967 0.9921869,-0.9922 z"
         style="opacity:1;fill:#ffffff;fill-opacity:1;fill-rule:nonzero;stroke:#000000;stroke-width:0.13227685;stroke-miterlimit:4;stroke-dasharray:none;stroke-opacity:1" />
    </clipPath>
    <clipPath
       clipPathUnits="userSpaceOnUse"
       id="clipPath1106-3-5-0">
      <path
         sodipodi:nodetypes="cccccccc"
         inkscape:connector-curvature="0"
         id="path1108-6-3-23"
         d="m 8.4853448,291.67274 c -2.8171082,0.75484 -3.718804,0.28482 -3.718804,0.28482 -2.0726546,-0.29548 -3.2148063,-1.60078 -4.43581904,-3.11287 v 6.83239 c 0,0.66227 0.33059249,0.9922 0.99218754,0.9922 H 7.937493 c 0.6619898,0 0.9921869,-0.32967 0.9921869,-0.9922 z"
         style="opacity:1;fill:#ffffff;fill-opacity:1;fill-rule:nonzero;stroke:#000000;stroke-width:0.13227685;stroke-miterlimit:4;stroke-dasharray:none;stroke-opacity:1" />
    </clipPath>
    <clipPath
       clipPathUnits="userSpaceOnUse"
       id="clipPath1106-3-5-0-5">
      <path
         sodipodi:nodetypes="cccccccc"
         inkscape:connector-curvature="0"
         id="path1108-6-3-23-9"
         d="m 8.4853448,291.67274 c -2.8171082,0.75484 -3.718804,0.28482 -3.718804,0.28482 -2.0726546,-0.29548 -3.2148063,-1.60078 -4.43581904,-3.11287 v 6.83239 c 0,0.66227 0.33059249,0.9922 0.99218754,0.9922 H 7.937493 c 0.6619898,0 0.9921869,-0.32967 0.9921869,-0.9922 z"
         style="opacity:1;fill:#ffffff;fill-opacity:1;fill-rule:nonzero;stroke:#000000;stroke-width:0.13227685;stroke-miterlimit:4;stroke-dasharray:none;stroke-opacity:1" />
    </clipPath>
    <clipPath
       clipPathUnits="userSpaceOnUse"
       id="clipPath1106-3-5-0-5-2">
      <path
         sodipodi:nodetypes="cccccccc"
         inkscape:connector-curvature="0"
         id="path1108-6-3-23-9-8"
         d="m 8.4853448,291.67274 c -2.8171082,0.75484 -3.718804,0.28482 -3.718804,0.28482 -2.0726546,-0.29548 -3.2148063,-1.60078 -4.43581904,-3.11287 v 6.83239 c 0,0.66227 0.33059249,0.9922 0.99218754,0.9922 H 7.937493 c 0.6619898,0 0.9921869,-0.32967 0.9921869,-0.9922 z"
         style="opacity:1;fill:#ffffff;fill-opacity:1;fill-rule:nonzero;stroke:#000000;stroke-width:0.13227685;stroke-miterlimit:4;stroke-dasharray:none;stroke-opacity:1" />
    </clipPath>
    <clipPath
       clipPathUnits="userSpaceOnUse"
       id="clipPath1106-3-3">
      <path
         sodipodi:nodetypes="cccccccc"
         inkscape:connector-curvature="0"
         id="path1108-6-1"
         d="m 8.4853448,291.67274 c -2.8171082,0.75484 -3.718804,0.28482 -3.718804,0.28482 -2.0726546,-0.29548 -3.2148063,-1.60078 -4.43581904,-3.11287 v 6.83239 c 0,0.66227 0.33059249,0.9922 0.99218754,0.9922 H 7.937493 c 0.6619898,0 0.9921869,-0.32967 0.9921869,-0.9922 z"
         style="opacity:1;fill:#ffffff;fill-opacity:1;fill-rule:nonzero;stroke:#000000;stroke-width:0.13227685;stroke-miterlimit:4;stroke-dasharray:none;stroke-opacity:1" />
    </clipPath>
    <clipPath
       clipPathUnits="userSpaceOnUse"
       id="clipPath1106-3-5-4">
      <path
         sodipodi:nodetypes="cccccccc"
         inkscape:connector-curvature="0"
         id="path1108-6-3-7"
         d="m 8.4853448,291.67274 c -2.8171082,0.75484 -3.718804,0.28482 -3.718804,0.28482 -2.0726546,-0.29548 -3.2148063,-1.60078 -4.43581904,-3.11287 v 6.83239 c 0,0.66227 0.33059249,0.9922 0.99218754,0.9922 H 7.937493 c 0.6619898,0 0.9921869,-0.32967 0.9921869,-0.9922 z"
         style="opacity:1;fill:#ffffff;fill-opacity:1;fill-rule:nonzero;stroke:#000000;stroke-width:0.13227685;stroke-miterlimit:4;stroke-dasharray:none;stroke-opacity:1" />
    </clipPath>
    <clipPath
       clipPathUnits="userSpaceOnUse"
       id="clipPath1106-3-5-4-4">
      <path
         sodipodi:nodetypes="cccccccc"
         inkscape:connector-curvature="0"
         id="path1108-6-3-7-5"
         d="m 8.4853448,291.67274 c -2.8171082,0.75484 -3.718804,0.28482 -3.718804,0.28482 -2.0726546,-0.29548 -3.2148063,-1.60078 -4.43581904,-3.11287 v 6.83239 c 0,0.66227 0.33059249,0.9922 0.99218754,0.9922 H 7.937493 c 0.6619898,0 0.9921869,-0.32967 0.9921869,-0.9922 z"
         style="opacity:1;fill:#ffffff;fill-opacity:1;fill-rule:nonzero;stroke:#000000;stroke-width:0.13227685;stroke-miterlimit:4;stroke-dasharray:none;stroke-opacity:1" />
    </clipPath>
    <clipPath
       clipPathUnits="userSpaceOnUse"
       id="clipPath1106-3-5-03">
      <path
         sodipodi:nodetypes="cccccccc"
         inkscape:connector-curvature="0"
         id="path1108-6-3-6"
         d="m 8.4853448,291.67274 c -2.8171082,0.75484 -3.718804,0.28482 -3.718804,0.28482 -2.0726546,-0.29548 -3.2148063,-1.60078 -4.43581904,-3.11287 v 6.83239 c 0,0.66227 0.33059249,0.9922 0.99218754,0.9922 H 7.937493 c 0.6619898,0 0.9921869,-0.32967 0.9921869,-0.9922 z"
         style="opacity:1;fill:#ffffff;fill-opacity:1;fill-rule:nonzero;stroke:#000000;stroke-width:0.13227685;stroke-miterlimit:4;stroke-dasharray:none;stroke-opacity:1" />
    </clipPath>
    <linearGradient
       inkscape:collect="always"
       xlink:href="#linearGradient1174"
       id="linearGradient1330"
       x1="8.8940554"
       y1="292.45895"
       x2="2.0033863"
       y2="293.95566"
       gradientUnits="userSpaceOnUse" />
  </defs>
  <sodipodi:namedview
     id="base"
     pagecolor="#ffffff"
     bordercolor="#666666"
     borderopacity="1.0"
     inkscape:pageopacity="0.0"
     inkscape:pageshadow="2"
     inkscape:zoom="3.9999998"
     inkscape:cx="2.5029996"
     inkscape:cy="4.1999394"
     inkscape:document-units="px"
     inkscape:current-layer="layer1"
     showgrid="false"
     units="px"
     inkscape:window-width="1366"
     inkscape:window-height="704"
     inkscape:window-x="0"
     inkscape:window-y="27"
     inkscape:window-maximized="1"
     showguides="true" />
  <metadata
     id="metadata5">
    <rdf:RDF>
      <cc:Work
         rdf:about="">
        <dc:format>image/svg+xml</dc:format>
        <dc:type
           rdf:resource="http://purl.org/dc/dcmitype/StillImage" />
        <dc:title></dc:title>
        <cc:license
           rdf:resource="http://creativecommons.org/publicdomain/zero/1.0/" />
      </cc:Work>
      <cc:License
         rdf:about="http://creativecommons.org/publicdomain/zero/1.0/">
        <cc:permits
           rdf:resource="http://creativecommons.org/ns#Reproduction" />
        <cc:permits
           rdf:resource="http://creativecommons.org/ns#Distribution" />
        <cc:permits
           rdf:resource="http://creativecommons.org/ns#DerivativeWorks" />
      </cc:License>
    </rdf:RDF>
  </metadata>
  <g
     inkscape:label="Layer 1"
     inkscape:groupmode="layer"
     id="layer1"
     transform="translate(0,-285.09375)">
    <path
       style="opacity:1;fill:#000000;fill-opacity:1;fill-rule:nonzero;stroke:#000000;stroke-width:0.13249582;stroke-linecap:square;stroke-linejoin:miter;stroke-miterlimit:6;stroke-dasharray:none;stroke-opacity:1;paint-order:normal"
       d="m 1.3230186,285.42449 c -0.66268625,0 -0.99208525,0.32965 -0.99208525,0.99219 l -1.021e-4,9.2603 c 0,0.64862 0.3302283,0.99219 0.99218735,0.99219 l 6.6145835,-1e-4 c 0.6613862,0 0.9920852,-0.32723 0.9920852,-0.99209 v -9.2603 c 0,-0.6603 -0.331207,-0.99218 -0.9920852,-0.99218 z"
       id="path5900-3"
       inkscape:connector-curvature="0"
       sodipodi:nodetypes="ccccccccc" />
    <text
       xml:space="preserve"
       style="font-style:normal;font-weight:normal;font-size:3.52777767px;line-height:6.61458349px;font-family:sans-serif;letter-spacing:0px;word-spacing:0px;fill:#000000;fill-opacity:1;stroke:none;stroke-width:0.26458335px;stroke-linecap:butt;stroke-linejoin:miter;stroke-opacity:1"
       id="text4655"
       transform="translate(-0.14432892,1.1084295)"><textPath
         xlink:href="#path4665-5"
         id="textPath4695"></textPath></text>
    <text
       xml:space="preserve"
       style="font-style:normal;font-weight:normal;font-size:3.52777767px;line-height:6.61458349px;font-family:sans-serif;letter-spacing:0px;word-spacing:0px;fill:#000000;fill-opacity:1;stroke:none;stroke-width:0.26458335px;stroke-linecap:butt;stroke-linejoin:miter;stroke-opacity:1"
       id="text4659"
       transform="translate(-0.02338608,0.15498933)"><textPath
         xlink:href="#path4665"
         id="textPath4674"></textPath></text>
    <text
       xml:space="preserve"
       style="font-style:normal;font-weight:normal;font-size:3.52777767px;line-height:6.61458349px;font-family:sans-serif;letter-spacing:0px;word-spacing:0px;fill:#000000;fill-opacity:1;stroke:none;stroke-width:0.26458335px;stroke-linecap:butt;stroke-linejoin:miter;stroke-opacity:1"
       x="-3.3403645"
       y="294.65182"
       id="text4700"><tspan
         sodipodi:role="line"
         id="tspan4698"
         x="-3.3403645"
         y="298.87552"
         style="stroke-width:0.26458335px" /></text>
    <text
       xml:space="preserve"
       style="font-style:normal;font-weight:normal;font-size:10.58333302px;line-height:6.61458349px;font-family:sans-serif;letter-spacing:0px;word-spacing:0px;fill:#000000;fill-opacity:1;stroke:none;stroke-width:0.26458335px;stroke-linecap:butt;stroke-linejoin:miter;stroke-opacity:1"
       x="2.6076558"
       y="295.13992"
       id="text5863-0-0"><tspan
         sodipodi:role="line"
         id="tspan5861-3-9"
         x="2.6076558"
         y="301.19641"
         style="font-style:normal;font-variant:normal;font-weight:bold;font-stretch:normal;font-size:1.41111112px;font-family:sans-serif;-inkscape-font-specification:'sans-serif Bold';fill:#d48100;fill-opacity:1;stroke-width:0.26458335px" /></text>
    <g
       id="g4640-3-2-8"
       transform="matrix(2.0495003,0.18828516,-0.18828516,2.0495003,63.049149,-298.74972)" />
    <text
       xml:space="preserve"
       style="font-style:normal;font-weight:normal;font-size:1.76388884px;line-height:1.80000007px;font-family:sans-serif;text-align:center;letter-spacing:-0.15875px;word-spacing:0px;text-anchor:middle;fill:#ffffff;fill-opacity:1;stroke:none;stroke-width:0.31030414px;stroke-linecap:butt;stroke-linejoin:miter;stroke-opacity:1"
       x="5.5314565"
       y="287.1973"
       id="text5863-5-3"
       transform="scale(0.99999651,1.0000035)"><tspan
         sodipodi:role="line"
         x="5.5314565"
         y="287.1973"
         style="font-style:normal;font-variant:normal;font-weight:bold;font-stretch:normal;font-size:1.76388896px;line-height:1.70000005px;font-family:Carlito;-inkscape-font-specification:'Carlito Bold';text-align:center;letter-spacing:0px;word-spacing:0px;text-anchor:middle;fill:#ffffff;fill-opacity:1;stroke-width:0.31030414px"
         dx="0 0 0 0 0 0 0 0 0 0 0 0 0 0 0 0 3.1179975e-10"
         id="tspan6000-6">JOURS</tspan></text>
    <text
       xml:space="preserve"
       style="font-style:normal;font-variant:normal;font-weight:600;font-stretch:normal;font-size:2.82222223px;line-height:1.25;font-family:'URW Gothic';-inkscape-font-specification:'URW Gothic Semi-Bold';letter-spacing:0px;word-spacing:0px;fill:#000000;fill-opacity:1;stroke:none;stroke-width:0.22282963"
       x="1.2913597"
       y="287.52832"
       id="text868"><tspan
         sodipodi:role="line"
         id="tspan866"
         x="1.2913597"
         y="287.52832"
         style="font-style:normal;font-variant:normal;font-weight:bold;font-stretch:normal;font-size:2.46944451px;font-family:'Arabic Newspaper';-inkscape-font-specification:'Arabic Newspaper Bold';fill:#ffffff;fill-opacity:1;stroke-width:0.22282963">4</tspan></text>
    <path
       style="opacity:1;fill:url(#linearGradient1330);fill-opacity:1;fill-rule:nonzero;stroke:#000000;stroke-width:0.13227685;stroke-miterlimit:4;stroke-dasharray:none;stroke-opacity:1"
       d="m 8.9296876,292.89896 c 0,0 -2.9091281,-3.14845 -4.2994792,-2.64584 -1.3903511,0.50261 -2.7868226,2.04213 -4.29947923,2.11667 v 3.30729 c 0,0.66227 0.33059253,0.9922 0.99218753,0.9922 h 6.6145834 c 0.6619906,0 0.9921875,-0.32967 0.9921875,-0.9922 z"
       id="path4565-6-36-3"
       inkscape:connector-curvature="0"
       sodipodi:nodetypes="czcccccc" />
    <path
       sodipodi:type="star"
       style="opacity:1;fill:#d1b917;fill-opacity:1;stroke:#d1b917;stroke-width:0;stroke-miterlimit:6;stroke-dasharray:none;stroke-opacity:1"
       id="path917"
       sodipodi:sides="11"
       sodipodi:cx="7.9875751"
       sodipodi:cy="288.20063"
       sodipodi:r1="0.61603588"
       sodipodi:r2="0.30801794"
       sodipodi:arg1="0.43467022"
       sodipodi:arg2="0.72026955"
       inkscape:flatsided="false"
       inkscape:rounded="0"
       inkscape:randomized="0"
       d="m 8.5463251,288.46004 -0.3272351,-0.0562 0.098283,0.31715 -0.2448741,-0.22424 -0.088787,0.31995 -0.084767,-0.32104 -0.2476672,0.22116 0.1022528,-0.3159 -0.327915,0.0521 0.2568081,-0.21046 -0.3040521,-0.13342 0.3298287,-0.0382 -0.1836547,-0.27662 0.298131,0.14617 -0.00495,-0.332 0.1717788,0.28415 0.1753291,-0.28197 -0.00911,0.33191 0.2999409,-0.14242 -0.1871098,0.2743 0.3293235,0.0423 -0.3057015,0.12959 z" />
    <g
       id="g1190"
       style="stroke-width:0.03854496;stroke-miterlimit:4;stroke-dasharray:none"
       transform="matrix(1.0621894,0,0,0.99809135,0.31805998,0.67473812)">
      <path
         style="fill:#000000;fill-opacity:1;stroke:#000000;stroke-width:0.02641288;stroke-linecap:butt;stroke-linejoin:miter;stroke-miterlimit:4;stroke-dasharray:none;stroke-opacity:1"
         d="m 4.0630816,292.06246 c -1.2439103,0.42163 0.3692261,0.79214 0.3692261,0.79214 0,0 -1.2106546,-0.50693 -0.3692261,-0.79214 z"
         id="path853-6-3-7-5"
         inkscape:connector-curvature="0"
         sodipodi:nodetypes="ccc"
         clip-path="url(#clipPath1106-3-5)"
         transform="matrix(-1.8723849,0,0,1.1373882,12.307913,-39.939718)" />
      <path
         style="fill:#000000;fill-opacity:1;stroke:#000000;stroke-width:0.01713409;stroke-linecap:butt;stroke-linejoin:miter;stroke-miterlimit:4;stroke-dasharray:none;stroke-opacity:1"
         d="m 4.0630816,292.06246 c -1.2439103,0.42163 0.318679,0.79037 0.318679,0.79037 0,0 -1.1601075,-0.50516 -0.318679,-0.79037 z"
         id="path853-6-3-7-5-7"
         inkscape:connector-curvature="0"
         sodipodi:nodetypes="ccc"
         clip-path="url(#clipPath1106-3-5-0)"
         transform="matrix(2.8855536,0,0,1.7538169,-7.7153126,-219.07444)" />
      <path
         style="fill:#000000;fill-opacity:1;stroke:#000000;stroke-width:0.01289426;stroke-linecap:butt;stroke-linejoin:miter;stroke-miterlimit:4;stroke-dasharray:none;stroke-opacity:1"
         d="m 4.0630816,292.06246 c -0.8852104,0.30005 -0.3066847,0.69619 -0.00556,0.83522 l 0.5603238,0.001 c -0.3852325,-0.0823 -1.2531942,-0.59955 -0.5547592,-0.83629 z"
         id="path853-6-3-7-5-7-2"
         inkscape:connector-curvature="0"
         sodipodi:nodetypes="ccccc"
         clip-path="url(#clipPath1106-3-5-0-5)"
         transform="matrix(-3.7089099,0,0,2.4093308,19.998096,-409.13929)" />
      <path
         style="fill:#000000;fill-opacity:1;stroke:#000000;stroke-width:0.08320492;stroke-linecap:butt;stroke-linejoin:miter;stroke-miterlimit:4;stroke-dasharray:none;stroke-opacity:1"
         d="m 4.0630816,292.06246 c -0.089917,0.0305 -0.1656341,-0.0345 -0.2796096,0.0216 -0.7982906,0.39285 0.6490984,0.87665 0.6490984,0.87665 0,0 -1.2109173,-0.61304 -0.3694888,-0.89825 z"
         id="path853-6-3-7-9"
         inkscape:connector-curvature="0"
         sodipodi:nodetypes="cscc"
         clip-path="url(#clipPath1106-3-3)"
         transform="matrix(-0.60195178,0,0,0.35651312,6.9127905,186.00391)" />
      <path
         style="fill:#000000;fill-opacity:1;stroke:#000000;stroke-width:0.03518031;stroke-linecap:butt;stroke-linejoin:miter;stroke-miterlimit:4;stroke-dasharray:none;stroke-opacity:1"
         d="m 4.0630816,292.06246 c -1.2439103,0.42163 0.3922535,0.88387 0.3922535,0.88387 0,0 -1.233682,-0.59866 -0.3922535,-0.88387 z"
         id="path853-6-3-7-5-8"
         inkscape:connector-curvature="0"
         sodipodi:nodetypes="ccc"
         clip-path="url(#clipPath1106-3-5-4)"
         transform="matrix(1.466243,0,0,0.81870979,-1.8331136,52.409703)" />
      <path
         style="fill:#000000;fill-opacity:1;stroke:#000000;stroke-width:0.04071268;stroke-linecap:butt;stroke-linejoin:miter;stroke-miterlimit:4;stroke-dasharray:none;stroke-opacity:1"
         d="m 4.0630816,292.06246 c -1.2439103,0.42163 0.3246062,0.88367 0.3246062,0.88367 0,0 -1.1660347,-0.59846 -0.3246062,-0.88367 z"
         id="path853-6-3-7-5-1"
         inkscape:connector-curvature="0"
         sodipodi:nodetypes="ccc"
         clip-path="url(#clipPath1106-3-5-03)"
         transform="matrix(-1.2004714,0,0,0.74666183,9.3916451,72.792404)" />
      <path
         style="fill:#000000;fill-opacity:1;stroke:#000000;stroke-width:0.06185689;stroke-linecap:butt;stroke-linejoin:miter;stroke-miterlimit:4;stroke-dasharray:none;stroke-opacity:1"
         d="m 4.0630816,292.06246 c -1.2439103,0.42163 0.3246062,0.88367 0.3246062,0.88367 0,0 -1.1660347,-0.59846 -0.3246062,-0.88367 z"
         id="path853-6-3-7-5-8-0"
         inkscape:connector-curvature="0"
         sodipodi:nodetypes="ccc"
         clip-path="url(#clipPath1106-3-5-4-4)"
         transform="matrix(0.82725935,0,0,0.46937226,0.88337461,153.36223)" />
    </g>
  </g>
</svg>
