<?xml version="1.0" encoding="UTF-8" standalone="no"?>
<!-- Created with Inkscape (http://www.inkscape.org/) -->

<svg
   xmlns:dc="http://purl.org/dc/elements/1.1/"
   xmlns:cc="http://creativecommons.org/ns#"
   xmlns:rdf="http://www.w3.org/1999/02/22-rdf-syntax-ns#"
   xmlns:svg="http://www.w3.org/2000/svg"
   xmlns="http://www.w3.org/2000/svg"
   xmlns:xlink="http://www.w3.org/1999/xlink"
   xmlns:sodipodi="http://sodipodi.sourceforge.net/DTD/sodipodi-0.dtd"
   xmlns:inkscape="http://www.inkscape.org/namespaces/inkscape"
   width="35"
   height="45"
   viewBox="0 0 9.2604169 11.90625"
   version="1.1"
   id="svg8"
   sodipodi:docname="12-2piolets.svg"
   inkscape:version="0.92.4 5da689c313, 2019-01-14"
   inkscape:export-filename="/home/etienne/Documents/CAF/labels/70x90/11-initiation.png"
   inkscape:export-xdpi="191.21904"
   inkscape:export-ydpi="191.21904">
  <defs
     id="defs2">
    <linearGradient
       id="linearGradient2729"
       inkscape:collect="always">
      <stop
         id="stop2725"
         offset="0"
         style="stop-color:#ffffff;stop-opacity:1;" />
      <stop
         id="stop2727"
         offset="1"
         style="stop-color:#ba9200;stop-opacity:1" />
    </linearGradient>
    <linearGradient
       inkscape:collect="always"
       id="linearGradient2071">
      <stop
         style="stop-color:#ffffff;stop-opacity:1;"
         offset="0"
         id="stop2067" />
      <stop
         style="stop-color:#0c9200;stop-opacity:1"
         offset="1"
         id="stop2069" />
    </linearGradient>
    <path
       style="opacity:0.98000004;fill:none;fill-opacity:1;fill-rule:nonzero;stroke:none;stroke-width:0.01176898;stroke-miterlimit:4;stroke-dasharray:none;stroke-opacity:1"
       d="m -4.1294545e-5,294.34829 c 0,0 2.647074194545,-1.50592 6.491807494545,-1.49872 4.0941928,-0.007 6.7372928,1.48403 6.7372928,1.48403"
       id="path5715"
       inkscape:connector-curvature="0"
       sodipodi:nodetypes="ccc" />
    <path
       style="opacity:0.98000004;fill:none;fill-opacity:1;fill-rule:nonzero;stroke:none;stroke-width:0.01176898;stroke-miterlimit:4;stroke-dasharray:none;stroke-opacity:1"
       d="m -4.1294545e-5,294.34829 c 0,0 2.647074194545,-1.50592 6.491807494545,-1.49872 4.0941928,-0.007 6.7372928,1.48403 6.7372928,1.48403"
       id="path5715-8"
       inkscape:connector-curvature="0"
       sodipodi:nodetypes="ccc" />
    <path
       style="opacity:0.98000004;fill:none;fill-opacity:1;fill-rule:nonzero;stroke:none;stroke-width:0.01176898;stroke-miterlimit:4;stroke-dasharray:none;stroke-opacity:1"
       d="m -4.1294545e-5,294.34829 c 0,0 2.647074194545,-1.50592 6.491807494545,-1.49872 4.0941928,-0.007 6.7372928,1.48403 6.7372928,1.48403"
       id="path5715-7"
       inkscape:connector-curvature="0"
       sodipodi:nodetypes="ccc" />
    <path
       style="opacity:0.98000004;fill:none;fill-opacity:1;fill-rule:nonzero;stroke:none;stroke-width:0.01176898;stroke-miterlimit:4;stroke-dasharray:none;stroke-opacity:1"
       d="m -4.1294545e-5,294.34829 c 0,0 2.647074194545,-1.50592 6.491807494545,-1.49872 4.0941928,-0.007 6.7372928,1.48403 6.7372928,1.48403"
       id="path5715-2"
       inkscape:connector-curvature="0"
       sodipodi:nodetypes="ccc" />
    <path
       inkscape:connector-curvature="0"
       id="path4636-3"
       d="m 13.002663,293.85892 a 2.8764884,2.8764884 0 0 1 -2.876488,2.87649 2.8764884,2.8764884 0 0 1 -2.8764885,-2.87649 2.8764884,2.8764884 0 0 1 2.8764885,-2.87649 2.8764884,2.8764884 0 0 1 2.876488,2.87649 z"
       style="opacity:1;fill:#000000;fill-opacity:1;fill-rule:nonzero;stroke:none;stroke-width:0.17591217;stroke-linecap:round;stroke-linejoin:bevel;stroke-miterlimit:4;stroke-dasharray:none;stroke-opacity:1;paint-order:normal" />
    <path
       inkscape:connector-curvature="0"
       id="path4636-1-3"
       d="m 7.2496865,293.85892 a 2.8764884,2.8764884 0 0 0 2.8764895,2.87649 2.8764884,2.8764884 0 0 0 2.876491,-2.87649 2.8764884,2.8764884 0 0 0 -2.876491,-2.87649 2.8764884,2.8764884 0 0 0 -2.8764895,2.87649 z"
       style="opacity:1;fill:#000000;fill-opacity:1;fill-rule:nonzero;stroke:none;stroke-width:0.17591217;stroke-linecap:round;stroke-linejoin:bevel;stroke-miterlimit:4;stroke-dasharray:none;stroke-opacity:1;paint-order:normal" />
    <linearGradient
       inkscape:collect="always"
       xlink:href="#linearGradient2071"
       id="linearGradient2073"
       x1="5.7546883"
       y1="296.56238"
       x2="5.7546873"
       y2="291.43607"
       gradientUnits="userSpaceOnUse" />
    <linearGradient
       inkscape:collect="always"
       xlink:href="#linearGradient2729"
       id="linearGradient2691"
       gradientUnits="userSpaceOnUse"
       x1="12.104689"
       y1="299.38535"
       x2="5.0766935"
       y2="292.47479" />
    <clipPath
       clipPathUnits="userSpaceOnUse"
       id="clipPath2050-3">
      <path
         sodipodi:nodetypes="ccccc"
         inkscape:connector-curvature="0"
         id="path2052-6"
         d="m 4.6155769,296.79855 -5.8909494,-7.23835 4.9358109,-3.62693 2.9508448,0.40665 z"
         style="fill:#0c9200;fill-opacity:1;stroke:none;stroke-width:0.24493064px;stroke-linecap:butt;stroke-linejoin:miter;stroke-opacity:1" />
    </clipPath>
    <clipPath
       clipPathUnits="userSpaceOnUse"
       id="clipPath2050-2">
      <path
         sodipodi:nodetypes="ccccc"
         inkscape:connector-curvature="0"
         id="path2052-9"
         d="m 4.6155769,296.79855 -5.8909494,-7.23835 4.9358109,-3.62693 2.9508448,0.40665 z"
         style="fill:#0c9200;fill-opacity:1;stroke:none;stroke-width:0.24493064px;stroke-linecap:butt;stroke-linejoin:miter;stroke-opacity:1" />
    </clipPath>
  </defs>
  <sodipodi:namedview
     id="base"
     pagecolor="#ffffff"
     bordercolor="#666666"
     borderopacity="1.0"
     inkscape:pageopacity="0.0"
     inkscape:pageshadow="2"
     inkscape:zoom="8"
     inkscape:cx="-9.2560956"
     inkscape:cy="32.089392"
     inkscape:document-units="px"
     inkscape:current-layer="layer1"
     showgrid="false"
     units="px"
     inkscape:window-width="1366"
     inkscape:window-height="704"
     inkscape:window-x="0"
     inkscape:window-y="27"
     inkscape:window-maximized="1"
     showguides="true" />
  <metadata
     id="metadata5">
    <rdf:RDF>
      <cc:Work
         rdf:about="">
        <dc:format>image/svg+xml</dc:format>
        <dc:type
           rdf:resource="http://purl.org/dc/dcmitype/StillImage" />
        <dc:title />
        <cc:license
           rdf:resource="http://creativecommons.org/publicdomain/zero/1.0/" />
      </cc:Work>
      <cc:License
         rdf:about="http://creativecommons.org/publicdomain/zero/1.0/">
        <cc:permits
           rdf:resource="http://creativecommons.org/ns#Reproduction" />
        <cc:permits
           rdf:resource="http://creativecommons.org/ns#Distribution" />
        <cc:permits
           rdf:resource="http://creativecommons.org/ns#DerivativeWorks" />
      </cc:License>
    </rdf:RDF>
  </metadata>
  <g
     inkscape:label="Layer 1"
     inkscape:groupmode="layer"
     id="layer1"
     transform="translate(0,-285.09375)">
    <path
       style="opacity:1;fill:#281f00;fill-opacity:1;fill-rule:nonzero;stroke:#000000;stroke-width:0.13255625;stroke-linecap:square;stroke-linejoin:miter;stroke-miterlimit:6;stroke-dasharray:none;stroke-opacity:1;paint-order:normal"
       d="m 1.3230186,285.42449 c -0.66268625,0 -0.99208525,0.32965 -0.99208525,0.99219 l -1.021e-4,9.2603 c 0,0.64862 0.3302283,0.99219 0.99218735,0.99219 l 6.6145835,-1e-4 c 0.6613862,0 0.9920852,-0.32723 0.9920852,-0.99209 v -9.2603 c 0,-0.6603 -0.331207,-0.99218 -0.9920852,-0.99218 z"
       id="path5900-3"
       inkscape:connector-curvature="0"
       sodipodi:nodetypes="ccccccccc" />
    <text
       xml:space="preserve"
       style="font-style:normal;font-weight:normal;font-size:3.52777767px;line-height:6.61458349px;font-family:sans-serif;letter-spacing:0px;word-spacing:0px;fill:#000000;fill-opacity:1;stroke:none;stroke-width:0.26458335px;stroke-linecap:butt;stroke-linejoin:miter;stroke-opacity:1"
       id="text4655"
       transform="translate(-0.14432892,1.1084295)"><textPath
         xlink:href="#path4665-5"
         id="textPath4695"></textPath></text>
    <text
       xml:space="preserve"
       style="font-style:normal;font-weight:normal;font-size:3.52777767px;line-height:6.61458349px;font-family:sans-serif;letter-spacing:0px;word-spacing:0px;fill:#000000;fill-opacity:1;stroke:none;stroke-width:0.26458335px;stroke-linecap:butt;stroke-linejoin:miter;stroke-opacity:1"
       id="text4659"
       transform="translate(-0.02338608,0.15498933)"><textPath
         xlink:href="#path4665"
         id="textPath4674"></textPath></text>
    <text
       xml:space="preserve"
       style="font-style:normal;font-weight:normal;font-size:3.52777767px;line-height:6.61458349px;font-family:sans-serif;letter-spacing:0px;word-spacing:0px;fill:#000000;fill-opacity:1;stroke:none;stroke-width:0.26458335px;stroke-linecap:butt;stroke-linejoin:miter;stroke-opacity:1"
       x="-3.3403645"
       y="294.65182"
       id="text4700"><tspan
         sodipodi:role="line"
         id="tspan4698"
         x="-3.3403645"
         y="298.87552"
         style="stroke-width:0.26458335px" /></text>
    <text
       xml:space="preserve"
       style="font-style:normal;font-weight:normal;font-size:10.58333302px;line-height:6.61458349px;font-family:sans-serif;letter-spacing:0px;word-spacing:0px;fill:#000000;fill-opacity:1;stroke:none;stroke-width:0.26458335px;stroke-linecap:butt;stroke-linejoin:miter;stroke-opacity:1"
       x="2.6076558"
       y="295.13992"
       id="text5863-0-0"><tspan
         sodipodi:role="line"
         id="tspan5861-3-9"
         x="2.6076558"
         y="301.19641"
         style="font-style:normal;font-variant:normal;font-weight:bold;font-stretch:normal;font-size:1.41111112px;font-family:sans-serif;-inkscape-font-specification:'sans-serif Bold';fill:#d48100;fill-opacity:1;stroke-width:0.26458335px" /></text>
    <g
       id="g4640-3-2-8"
       transform="matrix(2.0495003,0.18828516,-0.18828516,2.0495003,63.049149,-298.74972)" />
    <path
       sodipodi:nodetypes="ccccccc"
       inkscape:connector-curvature="0"
       id="path3376"
       d="m 1.3230186,285.42449 c -0.66268625,0 -0.99208525,0.32965 -0.99208525,0.99219 l -1.021e-4,9.2603 c 0,0.64862 0.3302283,0.99219 0.99218735,0.99219 l 3.241044,-5e-5 v -11.24463 z"
       style="opacity:1;fill:#000000;fill-opacity:1;fill-rule:nonzero;stroke:#000000;stroke-width:0.13255624;stroke-linecap:square;stroke-linejoin:miter;stroke-miterlimit:6;stroke-dasharray:none;stroke-opacity:1;paint-order:normal" />
    <text
       xml:space="preserve"
       style="font-style:normal;font-weight:normal;font-size:1.76388884px;line-height:1.80000007px;font-family:sans-serif;text-align:center;letter-spacing:-0.20372917px;word-spacing:0px;text-anchor:middle;fill:#ffffff;fill-opacity:1;stroke:none;stroke-width:0.31030414px;stroke-linecap:butt;stroke-linejoin:miter;stroke-opacity:1;"
       x="4.6426044"
       y="287.19736"
       id="text5863-5"
       transform="scale(0.99999651,1.0000035)"><tspan
         sodipodi:role="line"
         x="4.5420628"
         y="287.19736"
         style="font-style:normal;font-variant:normal;font-weight:bold;font-stretch:normal;font-size:1.76388896px;line-height:1.70000005px;font-family:Carlito;-inkscape-font-specification:'Carlito Bold';text-align:center;letter-spacing:-0.20372917px;word-spacing:0px;text-anchor:middle;fill:#ffffff;fill-opacity:1;stroke-width:0.31030414px;"
         dx="0 0 8.6765872e-10 0 0 0 0 0 0 0 0 0 0 0 0 0 0 0 0 0 0 0 0 0 0 0 0 0 0 3.1179975e-10"
         id="tspan2759">PROGRESSION</tspan></text>
    <g
       id="g2737"
       transform="matrix(-0.87634514,0.98192725,0.98192725,0.87634514,-277.80361,32.428104)"
       clip-path="none"
       inkscape:transform-center-x="-3.1042862"
       inkscape:transform-center-y="-0.05502595"
       style="fill:#ffde5d;fill-opacity:1">
      <g
         clip-path="none"
         id="g2679"
         style="fill:#ffde5d;fill-opacity:1">
        <path
           style="opacity:0.98999999;fill:#ffde5d;fill-opacity:1;fill-rule:nonzero;stroke:none;stroke-width:1.40469444;stroke-linecap:butt;stroke-linejoin:bevel;stroke-miterlimit:4;stroke-dasharray:none;stroke-opacity:1"
           d="m 12.609375,21.058594 c -0.290084,0.278841 -0.140625,0.736328 -0.140625,0.736328 0.471947,0.231069 2.01769,0.296831 1.992188,0.855469 l -0.01953,0.460937 -1.193359,1.945313 c 0.150117,0.06089 1.224687,0.773074 1.349609,0.570312 0.08427,-0.136787 0.199989,-0.271419 0.265625,-0.341797 -0.07616,-0.09024 0.08575,-0.242167 0.199219,-0.164062 0.01351,-0.0066 -0.004,0.0016 0.03906,-0.01953 -0.011,-0.08426 0.05371,-0.233317 0.220704,-0.107421 0.04341,-0.01585 0.01954,-0.0044 0.03125,-0.0078 0.01087,-0.151903 0.173302,-0.181279 0.248046,-0.03711 0.04584,-0.0036 -0.01593,-0.0028 0.03125,-0.002 0.03843,-0.08488 0.174857,-0.211897 0.248047,0.03125 0.04838,0.0062 0.0023,-0.0052 0.04297,0.0059 0.03438,-0.124309 0.224243,-0.135793 0.199219,0.07031 0.04068,0.01512 -0.0045,-0.0062 0.04492,0.01758 0.148058,-0.142443 0.260266,-0.01924 0.226562,0.123046 0.04031,0.02388 0.01314,0.0095 0.01953,0.01367 0.375108,0.246618 0.642456,0.605695 0.654297,0.796875 0.229695,0.118165 0.447715,0.332832 0.556641,0.501953 0.05512,0.08533 0.0098,0.140626 0.0098,0.140626 0,0 0.212645,0.08324 0.261718,0.142578 0.05839,0.117468 0.04595,0.12509 0.06055,0.197265 0,0 0.109817,0.04762 0.152344,0.0957 0.0481,0.03007 0.0405,0.102123 0.07031,0.138672 0.03074,0.03355 0.08933,0.024 0.11914,0.06055 0.01542,0.05729 0.03889,0.102335 0.06836,0.138672 0.0251,0.02966 0.08197,0.01078 0.107421,0.04102 0.0069,0.05196 0.02055,0.09275 0.04297,0.121093 0.02426,0.0295 0.0789,0.0113 0.103516,0.04102 0.01201,0.05515 0.03103,0.0993 0.05859,0.130859 0.03006,0.03312 0.08967,0.0203 0.11914,0.05664 0.01695,0.05788 0.04431,0.104749 0.07617,0.142578 0.02626,0.02932 0.08116,0.01027 0.107422,0.04102 0.01542,0.05729 0.1717,0.186319 0.201172,0.222656 0,0 0.279198,-0.489577 0.185547,-0.587891 C 17.291552,25.444957 17.638033,24.121436 16.40823,23.27736 16.33821,23.22929 15.962918,22.959 15.962918,22.959 c -0.05882,0.151088 -0.200859,0.364713 -0.200859,0.364713 -0.06872,-0.534109 -1.899311,-1.75595 -3.152657,-2.265103 z m 3.441406,2.621094 c 0.07742,-6.79e-4 0.153379,0.02103 0.21875,0.0625 0.187338,0.117826 0.244103,0.364972 0.126953,0.552734 -0.1179,0.188533 -0.36652,0.245436 -0.554687,0.126953 -0.187338,-0.117826 -0.244103,-0.364972 -0.126953,-0.552734 0.07236,-0.116287 0.198985,-0.187695 0.335937,-0.189453 z"
           transform="matrix(0.27914253,-0.17451386,0.17451386,0.27914253,-4.1415751,284.69276)"
           id="path4526-2"
           inkscape:connector-curvature="0"
           sodipodi:nodetypes="cccccccccccccccccccccccccccccccccccccccccccccccc" />
      </g>
      <path
         sodipodi:nodetypes="ccsscscsccc"
         inkscape:connector-curvature="0"
         id="path2731"
         d="m 3.9225176,288.62376 v 0.79427 c 0,0 -0.017928,0.79591 0.024805,1.19063 0.095276,0.87999 1.0087114,3.56991 1.0474101,3.72544 0.045447,0.18265 0.2815073,0.30988 0.361803,0.44389 0.070784,-0.10969 0.118868,-0.24647 0.1479829,-0.4388 0.00783,-0.0517 -0.086039,-0.0405 -0.099093,-0.10689 0,0 -0.9701031,-2.79344 -1.0511863,-3.70632 -0.033908,-0.38175 0.024805,-1.14929 0.024805,-1.14929 v -0.79276 z"
         style="fill:#ffde5d;fill-opacity:1;stroke:none;stroke-width:0.26458335px;stroke-linecap:butt;stroke-linejoin:miter;stroke-opacity:1" />
    </g>
    <g
       inkscape:transform-center-y="-0.055025923"
       inkscape:transform-center-x="3.1042808"
       clip-path="none"
       transform="matrix(0.87634514,0.98192725,-0.98192725,0.87634514,287.06267,32.428104)"
       id="g3374"
       style="fill:#fac600;fill-opacity:1">
      <g
         id="g3370"
         clip-path="none"
         style="fill:#fac600;fill-opacity:1">
        <path
           inkscape:connector-curvature="0"
           id="path3368"
           transform="matrix(0.27914253,-0.17451386,0.17451386,0.27914253,-4.1415751,284.69276)"
           d="m 13.410457,22.840483 c 0.114874,0.216875 0.530238,0.331641 0.530238,0.331641 0.01655,-0.02101 0.259424,-0.139155 0.277559,-0.145699 0.0768,-0.02771 0.163483,0.05501 0.223154,0.0849 l -1.193359,1.945313 c 0.150117,0.06089 1.224687,0.773074 1.349609,0.570312 0.08427,-0.136787 0.199989,-0.271419 0.265625,-0.341797 -0.07616,-0.09024 0.08575,-0.242167 0.199219,-0.164062 0.01351,-0.0066 -0.004,0.0016 0.03906,-0.01953 -0.011,-0.08426 0.05371,-0.233317 0.220704,-0.107421 0.04341,-0.01585 0.01954,-0.0044 0.03125,-0.0078 0.01087,-0.151903 0.173302,-0.181279 0.248046,-0.03711 0.04584,-0.0036 -0.01593,-0.0028 0.03125,-0.002 0.03843,-0.08488 0.174857,-0.211897 0.248047,0.03125 0.04838,0.0062 0.0023,-0.0052 0.04297,0.0059 0.03438,-0.124309 0.224243,-0.135793 0.199219,0.07031 0.04068,0.01512 -0.0045,-0.0062 0.04492,0.01758 0.148058,-0.142443 0.260266,-0.01924 0.226562,0.123046 0.04031,0.02388 0.01314,0.0095 0.01953,0.01367 0.375108,0.246618 0.642456,0.605695 0.654297,0.796875 0.229695,0.118165 0.447715,0.332832 0.556641,0.501953 0.05512,0.08533 0.0098,0.140626 0.0098,0.140626 0,0 0.212645,0.08324 0.261718,0.142578 0.05839,0.117468 0.04595,0.12509 0.06055,0.197265 0,0 0.109817,0.04762 0.152344,0.0957 0.0481,0.03007 0.0405,0.102123 0.07031,0.138672 0.03074,0.03355 0.08933,0.024 0.11914,0.06055 0.01542,0.05729 0.03889,0.102335 0.06836,0.138672 0.0251,0.02966 0.08197,0.01078 0.107421,0.04102 0.0069,0.05196 0.02055,0.09275 0.04297,0.121093 0.02426,0.0295 0.0789,0.0113 0.103516,0.04102 0.01201,0.05515 0.03103,0.0993 0.05859,0.130859 0.03006,0.03312 0.08967,0.0203 0.11914,0.05664 0.01695,0.05788 0.04431,0.104749 0.07617,0.142578 0.02626,0.02932 0.08116,0.01027 0.107422,0.04102 0.01542,0.05729 0.1717,0.186319 0.201172,0.222656 0,0 0.279198,-0.489577 0.185547,-0.587891 C 17.291552,25.444957 17.638033,24.121436 16.40823,23.27736 16.33821,23.22929 15.962918,22.959 15.962918,22.959 c -0.05882,0.151088 -0.20287,0.364623 -0.20287,0.364623 -0.04733,-0.367876 -0.300459,-0.653572 -0.889789,-0.927516 l -0.259208,0.03727 -0.133566,-0.170788 c 0,0 -0.331717,-0.09276 -0.584438,-0.195431 z m 2.640324,0.839205 c 0.07742,-6.79e-4 0.153379,0.02103 0.21875,0.0625 0.187338,0.117826 0.244103,0.364972 0.126953,0.552734 -0.1179,0.188533 -0.36652,0.245436 -0.554687,0.126953 -0.187338,-0.117826 -0.244103,-0.364972 -0.126953,-0.552734 0.07236,-0.116287 0.198985,-0.187695 0.335937,-0.189453 z"
           style="opacity:0.98999999;fill:#fac600;fill-opacity:1;fill-rule:nonzero;stroke:none;stroke-width:1.40469444;stroke-linecap:butt;stroke-linejoin:bevel;stroke-miterlimit:4;stroke-dasharray:none;stroke-opacity:1"
           sodipodi:nodetypes="csscccccccccccccccccccccccccccccccccccccscccccccccc" />
      </g>
      <path
         style="fill:#fac600;fill-opacity:1;stroke:none;stroke-width:0.26458335px;stroke-linecap:butt;stroke-linejoin:miter;stroke-opacity:1"
         d="m 3.9225176,288.62376 v 0.79427 c 0,0 -0.017928,0.79591 0.024805,1.19063 0.095276,0.87999 1.0087114,3.56991 1.0474101,3.72544 0.045447,0.18265 0.2815073,0.30988 0.361803,0.44389 0.070784,-0.10969 0.118868,-0.24647 0.1479829,-0.4388 0.00783,-0.0517 -0.086039,-0.0405 -0.099093,-0.10689 0,0 -0.9701031,-2.79344 -1.0511863,-3.70632 -0.033908,-0.38175 0.024805,-1.14929 0.024805,-1.14929 v -0.79276 z"
         id="path3372"
         inkscape:connector-curvature="0"
         sodipodi:nodetypes="ccsscscsccc" />
    </g>
  </g>
</svg>
