<?xml version="1.0" encoding="UTF-8" standalone="no"?>
<!-- Created with Inkscape (http://www.inkscape.org/) -->

<svg
   xmlns:dc="http://purl.org/dc/elements/1.1/"
   xmlns:cc="http://creativecommons.org/ns#"
   xmlns:rdf="http://www.w3.org/1999/02/22-rdf-syntax-ns#"
   xmlns:svg="http://www.w3.org/2000/svg"
   xmlns="http://www.w3.org/2000/svg"
   xmlns:xlink="http://www.w3.org/1999/xlink"
   xmlns:sodipodi="http://sodipodi.sourceforge.net/DTD/sodipodi-0.dtd"
   xmlns:inkscape="http://www.inkscape.org/namespaces/inkscape"
   width="35"
   height="45"
   viewBox="0 0 9.2604169 11.90625"
   version="1.1"
   id="svg8"
   sodipodi:docname="13-3piolets.svg"
   inkscape:version="0.92.4 5da689c313, 2019-01-14"
   inkscape:export-filename="/home/etienne/Documents/CAF/labels/70x90/11-initiation.png"
   inkscape:export-xdpi="191.21904"
   inkscape:export-ydpi="191.21904">
  <defs
     id="defs2">
    <linearGradient
       id="linearGradient2729"
       inkscape:collect="always">
      <stop
         id="stop2725"
         offset="0"
         style="stop-color:#ffffff;stop-opacity:1;" />
      <stop
         id="stop2727"
         offset="1"
         style="stop-color:#c14800;stop-opacity:1" />
    </linearGradient>
    <linearGradient
       inkscape:collect="always"
       id="linearGradient2071">
      <stop
         style="stop-color:#ffffff;stop-opacity:1;"
         offset="0"
         id="stop2067" />
      <stop
         style="stop-color:#0c9200;stop-opacity:1"
         offset="1"
         id="stop2069" />
    </linearGradient>
    <path
       style="opacity:0.98000004;fill:none;fill-opacity:1;fill-rule:nonzero;stroke:none;stroke-width:0.01176898;stroke-miterlimit:4;stroke-dasharray:none;stroke-opacity:1"
       d="m -4.1294545e-5,294.34829 c 0,0 2.647074194545,-1.50592 6.491807494545,-1.49872 4.0941928,-0.007 6.7372928,1.48403 6.7372928,1.48403"
       id="path5715"
       inkscape:connector-curvature="0"
       sodipodi:nodetypes="ccc" />
    <path
       style="opacity:0.98000004;fill:none;fill-opacity:1;fill-rule:nonzero;stroke:none;stroke-width:0.01176898;stroke-miterlimit:4;stroke-dasharray:none;stroke-opacity:1"
       d="m -4.1294545e-5,294.34829 c 0,0 2.647074194545,-1.50592 6.491807494545,-1.49872 4.0941928,-0.007 6.7372928,1.48403 6.7372928,1.48403"
       id="path5715-8"
       inkscape:connector-curvature="0"
       sodipodi:nodetypes="ccc" />
    <path
       style="opacity:0.98000004;fill:none;fill-opacity:1;fill-rule:nonzero;stroke:none;stroke-width:0.01176898;stroke-miterlimit:4;stroke-dasharray:none;stroke-opacity:1"
       d="m -4.1294545e-5,294.34829 c 0,0 2.647074194545,-1.50592 6.491807494545,-1.49872 4.0941928,-0.007 6.7372928,1.48403 6.7372928,1.48403"
       id="path5715-7"
       inkscape:connector-curvature="0"
       sodipodi:nodetypes="ccc" />
    <path
       style="opacity:0.98000004;fill:none;fill-opacity:1;fill-rule:nonzero;stroke:none;stroke-width:0.01176898;stroke-miterlimit:4;stroke-dasharray:none;stroke-opacity:1"
       d="m -4.1294545e-5,294.34829 c 0,0 2.647074194545,-1.50592 6.491807494545,-1.49872 4.0941928,-0.007 6.7372928,1.48403 6.7372928,1.48403"
       id="path5715-2"
       inkscape:connector-curvature="0"
       sodipodi:nodetypes="ccc" />
    <path
       inkscape:connector-curvature="0"
       id="path4636-3"
       d="m 13.002663,293.85892 a 2.8764884,2.8764884 0 0 1 -2.876488,2.87649 2.8764884,2.8764884 0 0 1 -2.8764885,-2.87649 2.8764884,2.8764884 0 0 1 2.8764885,-2.87649 2.8764884,2.8764884 0 0 1 2.876488,2.87649 z"
       style="opacity:1;fill:#000000;fill-opacity:1;fill-rule:nonzero;stroke:none;stroke-width:0.17591217;stroke-linecap:round;stroke-linejoin:bevel;stroke-miterlimit:4;stroke-dasharray:none;stroke-opacity:1;paint-order:normal" />
    <path
       inkscape:connector-curvature="0"
       id="path4636-1-3"
       d="m 7.2496865,293.85892 a 2.8764884,2.8764884 0 0 0 2.8764895,2.87649 2.8764884,2.8764884 0 0 0 2.876491,-2.87649 2.8764884,2.8764884 0 0 0 -2.876491,-2.87649 2.8764884,2.8764884 0 0 0 -2.8764895,2.87649 z"
       style="opacity:1;fill:#000000;fill-opacity:1;fill-rule:nonzero;stroke:none;stroke-width:0.17591217;stroke-linecap:round;stroke-linejoin:bevel;stroke-miterlimit:4;stroke-dasharray:none;stroke-opacity:1;paint-order:normal" />
    <linearGradient
       inkscape:collect="always"
       xlink:href="#linearGradient2071"
       id="linearGradient2073"
       x1="5.7546883"
       y1="296.56238"
       x2="5.7546873"
       y2="291.43607"
       gradientUnits="userSpaceOnUse" />
    <linearGradient
       inkscape:collect="always"
       xlink:href="#linearGradient2729"
       id="linearGradient2691"
       gradientUnits="userSpaceOnUse"
       x1="8.5658865"
       y1="296.93793"
       x2="4.1341152"
       y2="291.61487" />
    <clipPath
       clipPathUnits="userSpaceOnUse"
       id="clipPath2054">
      <path
         sodipodi:nodetypes="ccccc"
         inkscape:connector-curvature="0"
         id="path2056"
         d="M 3.5228534,295.81537 -0.74662028,292.42632 1.2741,286.81856 6.3548553,285.05837 Z"
         style="fill:#0c9200;fill-opacity:1;stroke:none;stroke-width:0.24533992px;stroke-linecap:butt;stroke-linejoin:miter;stroke-opacity:1" />
    </clipPath>
    <clipPath
       clipPathUnits="userSpaceOnUse"
       id="clipPath2054-3">
      <path
         sodipodi:nodetypes="ccccc"
         inkscape:connector-curvature="0"
         id="path2056-6"
         d="M 3.5228534,295.81537 -0.74662028,292.42632 1.2741,286.81856 6.3548553,285.05837 Z"
         style="fill:#0c9200;fill-opacity:1;stroke:none;stroke-width:0.24533992px;stroke-linecap:butt;stroke-linejoin:miter;stroke-opacity:1" />
    </clipPath>
  </defs>
  <sodipodi:namedview
     id="base"
     pagecolor="#ffffff"
     bordercolor="#666666"
     borderopacity="1.0"
     inkscape:pageopacity="0.0"
     inkscape:pageshadow="2"
     inkscape:zoom="3.9999998"
     inkscape:cx="23.521648"
     inkscape:cy="33.530732"
     inkscape:document-units="px"
     inkscape:current-layer="layer1"
     showgrid="false"
     units="px"
     inkscape:window-width="1366"
     inkscape:window-height="704"
     inkscape:window-x="0"
     inkscape:window-y="27"
     inkscape:window-maximized="1"
     showguides="true" />
  <metadata
     id="metadata5">
    <rdf:RDF>
      <cc:Work
         rdf:about="">
        <dc:format>image/svg+xml</dc:format>
        <dc:type
           rdf:resource="http://purl.org/dc/dcmitype/StillImage" />
        <dc:title />
        <cc:license
           rdf:resource="http://creativecommons.org/publicdomain/zero/1.0/" />
      </cc:Work>
      <cc:License
         rdf:about="http://creativecommons.org/publicdomain/zero/1.0/">
        <cc:permits
           rdf:resource="http://creativecommons.org/ns#Reproduction" />
        <cc:permits
           rdf:resource="http://creativecommons.org/ns#Distribution" />
        <cc:permits
           rdf:resource="http://creativecommons.org/ns#DerivativeWorks" />
      </cc:License>
    </rdf:RDF>
  </metadata>
  <g
     inkscape:label="Layer 1"
     inkscape:groupmode="layer"
     id="layer1"
     transform="translate(0,-285.09375)">
    <path
       style="opacity:1;fill:#000000;fill-opacity:1;fill-rule:nonzero;stroke:#000000;stroke-width:0.13249582;stroke-linecap:square;stroke-linejoin:miter;stroke-miterlimit:6;stroke-dasharray:none;stroke-opacity:1;paint-order:normal"
       d="m 1.3230186,285.42449 c -0.66268625,0 -0.99208525,0.32965 -0.99208525,0.99219 l -1.021e-4,9.2603 c 0,0.64862 0.3302283,0.99219 0.99218735,0.99219 l 6.6145835,-1e-4 c 0.6613862,0 0.9920852,-0.32723 0.9920852,-0.99209 v -9.2603 c 0,-0.6603 -0.331207,-0.99218 -0.9920852,-0.99218 z"
       id="path5900-3"
       inkscape:connector-curvature="0"
       sodipodi:nodetypes="ccccccccc" />
    <text
       xml:space="preserve"
       style="font-style:normal;font-weight:normal;font-size:3.52777767px;line-height:6.61458349px;font-family:sans-serif;letter-spacing:0px;word-spacing:0px;fill:#000000;fill-opacity:1;stroke:none;stroke-width:0.26458335px;stroke-linecap:butt;stroke-linejoin:miter;stroke-opacity:1"
       id="text4655"
       transform="translate(-0.14432892,1.1084295)"><textPath
         xlink:href="#path4665-5"
         id="textPath4695"></textPath></text>
    <text
       xml:space="preserve"
       style="font-style:normal;font-weight:normal;font-size:3.52777767px;line-height:6.61458349px;font-family:sans-serif;letter-spacing:0px;word-spacing:0px;fill:#000000;fill-opacity:1;stroke:none;stroke-width:0.26458335px;stroke-linecap:butt;stroke-linejoin:miter;stroke-opacity:1"
       id="text4659"
       transform="translate(-0.02338608,0.15498933)"><textPath
         xlink:href="#path4665"
         id="textPath4674"></textPath></text>
    <text
       xml:space="preserve"
       style="font-style:normal;font-weight:normal;font-size:3.52777767px;line-height:6.61458349px;font-family:sans-serif;letter-spacing:0px;word-spacing:0px;fill:#000000;fill-opacity:1;stroke:none;stroke-width:0.26458335px;stroke-linecap:butt;stroke-linejoin:miter;stroke-opacity:1"
       x="-3.3403645"
       y="294.65182"
       id="text4700"><tspan
         sodipodi:role="line"
         id="tspan4698"
         x="-3.3403645"
         y="298.87552"
         style="stroke-width:0.26458335px" /></text>
    <text
       xml:space="preserve"
       style="font-style:normal;font-weight:normal;font-size:10.58333302px;line-height:6.61458349px;font-family:sans-serif;letter-spacing:0px;word-spacing:0px;fill:#000000;fill-opacity:1;stroke:none;stroke-width:0.26458335px;stroke-linecap:butt;stroke-linejoin:miter;stroke-opacity:1"
       x="2.6076558"
       y="295.13992"
       id="text5863-0-0"><tspan
         sodipodi:role="line"
         id="tspan5861-3-9"
         x="2.6076558"
         y="301.19641"
         style="font-style:normal;font-variant:normal;font-weight:bold;font-stretch:normal;font-size:1.41111112px;font-family:sans-serif;-inkscape-font-specification:'sans-serif Bold';fill:#d48100;fill-opacity:1;stroke-width:0.26458335px" /></text>
    <g
       id="g4640-3-2-8"
       transform="matrix(2.0495003,0.18828516,-0.18828516,2.0495003,63.049149,-298.74972)" />
    <path
       sodipodi:nodetypes="cccccc"
       inkscape:connector-curvature="0"
       id="path2757"
       d="m 8.5525922,296.52412 c 0.2513958,-0.15567 0.3770951,-0.43724 0.3770951,-0.84714 v -9.2603 c 0,-0.6603 -0.331207,-0.99218 -0.9920852,-0.99218 l -2.7782265,-1e-5 z"
       style="opacity:1;fill:#420c00;fill-opacity:1;fill-rule:nonzero;stroke:#000000;stroke-width:0.13249582;stroke-linecap:square;stroke-linejoin:miter;stroke-miterlimit:6;stroke-dasharray:none;stroke-opacity:1;paint-order:normal" />
    <text
       xml:space="preserve"
       style="font-style:normal;font-weight:normal;font-size:1.76388884px;line-height:1.80000007px;font-family:sans-serif;text-align:center;letter-spacing:-0.15875px;word-spacing:0px;text-anchor:middle;fill:#ffffff;fill-opacity:1;stroke:none;stroke-width:0.31030414px;stroke-linecap:butt;stroke-linejoin:miter;stroke-opacity:1"
       x="4.6192183"
       y="287.19736"
       id="text5863-5"
       transform="scale(0.99999651,1.0000035)"><tspan
         sodipodi:role="line"
         x="4.6192183"
         y="287.19736"
         style="font-style:normal;font-variant:normal;font-weight:bold;font-stretch:normal;font-size:1.76388896px;line-height:1.70000005px;font-family:Carlito;-inkscape-font-specification:'Carlito Bold';text-align:center;letter-spacing:-0.13229167px;word-spacing:0px;text-anchor:middle;fill:#ffffff;fill-opacity:1;stroke-width:0.31030414px"
         dx="0 0 0 0 0 0 0 0 0 0 0 0 0 0 0 0 0 0 0 0 3.1179975e-10"
         id="tspan6000">AUTONOMIE</tspan></text>
    <path
       inkscape:connector-curvature="0"
       d="m -10.662462,295.62896 0.102004,0.0243 c 0.08944,-0.21721 0.249426,-0.39678 0.438706,-0.44285 0.04926,-0.0122 0.1475076,0.0427 0.1475076,0.0427 l 0.4649377,0.6314 c 0.04223,-0.0397 0.07608,-0.27848 0.156404,-0.4735 0.02176,-0.0528 0.05011,-0.12976 0.04935,-0.13485 -0.03704,-0.0111 -0.08796,-0.0641 -0.0055,-0.11095 3.757e-4,-0.0215 0.0017,-0.008 0.0012,-0.0163 -0.061241,-0.0316 -0.044541,-0.10398 0.028989,-0.10928 0.0055,-0.0207 -0.0043,0.005 0.0046,-0.0139 -0.02809,-0.0308 -0.05699,-0.11016 0.05757,-0.0969 0.01164,-0.0189 -0.0015,-0.002 0.0094,-0.0172 -0.04547,-0.0363 -0.01567,-0.11777 0.06636,-0.07 0.01193,-0.0156 -0.0029,6.1e-4 0.01493,-0.0165 -0.03291,-0.0872 0.02343,-0.11183 0.07692,-0.0718 0.01718,-0.0126 0.0161,-0.0131 0.01867,-0.015 0.1699794,-0.11215 0.4350636,-0.21742 0.5169172,-0.18806 0.090238,-0.0747 0.2190125,-0.12702 0.3089568,-0.14219 0.045357,-0.007 0.060866,0.0211 0.060866,0.0211 0,0 0.072908,-0.0738 0.1060027,-0.0838 0.059489,-0.003 0.060007,0.004 0.092698,0.0111 0,0 0.040161,-0.0378 0.067739,-0.047 0.021307,-0.0139 0.049901,0.002 0.070731,-0.003 0.018717,-0.008 0.025514,-0.0337 0.046261,-0.0396 0.026548,0.003 0.049652,0.002 0.069929,-0.004 0.016796,-0.005 0.019018,-0.0316 0.036228,-0.0366 0.022876,0.005 0.042172,0.007 0.058171,0.004 0.016481,-0.005 0.018963,-0.0313 0.035936,-0.0363 0.025175,0.005 0.046607,0.005 0.064876,-0.001 0.01842,-0.008 0.023807,-0.0344 0.044164,-0.0402 0.027098,0.003 0.051413,-1.8e-4 0.072828,-0.006 0.017163,-0.005 0.020767,-0.0313 0.037782,-0.0369 0.026626,0.003 0.108159,-0.0387 0.1284245,-0.0451 0,0 -0.1139013,-0.13391 -0.1716085,-0.11239 -1.1742056,0.43418 -1.6078864,0.21789 -2.1164328,0.44597 -0.04732,0.0214 -0.2856917,0.17689 -0.3345727,0.20736 -0.03209,0.0215 -0.2083465,0.36994 -0.2083465,0.36994 l -0.08868,0.0887 c -0.334864,0.16652 -0.532607,0.56309 -0.532607,0.56309 z m 0.7856936,-0.60954 a 0.18595395,0.18595395 0 0 1 0.07717,-0.1168 0.18595395,0.18595395 0 0 1 0.2587857,0.0468 0.18595395,0.18595395 0 0 1 -0.04677,0.2588 0.18595395,0.18595395 0 0 1 -0.258787,-0.0468 0.18595395,0.18595395 0 0 1 -0.0299,-0.14176 z m 0.3732407,-0.31809 a 0.07275311,0.07275311 0 0 1 1.34e-4,-5.3e-4 0.07275311,0.07275311 0 0 1 0.03042,-0.0457 0.07275311,0.07275311 0 0 1 0.101109,0.0183 0.07275311,0.07275311 0 0 1 -0.01841,0.10153 0.07275311,0.07275311 0 0 1 -0.101109,-0.0183 0.07275311,0.07275311 0 0 1 -0.01199,-0.055 z m 0.272152,-0.19462 a 0.09269246,0.09269246 0 0 1 0.03787,-0.0592 0.09269246,0.09269246 0 0 1 0.128726,0.0237 0.09269246,0.09269246 0 0 1 -0.02315,0.12895 0.09269246,0.09269246 0 0 1 -0.129359,-0.0237 0.09269246,0.09269246 0 0 1 -0.01443,-0.0706 z m -0.8920533,0.55179 0.6109383,0.92587 c 0,0 0.46402,0.63124 0.8224312,1.0448 0.7990508,0.92194 4.0888747,2.32481 4.0888747,2.32481 0.1309976,0.0475 0.3940228,-0.0839 0.4735203,-0.0855 -0.041384,-0.075 -0.050859,-0.21427 -0.1548958,-0.36077 0.040885,-0.12704 0.03092,-0.31291 -0.00682,-0.37631 -0.03467,-0.0581 -0.1445104,-0.1771 -0.1610696,-0.064 -0.0054,0.0363 0.049146,0.0706 0.056109,0.11157 0.014444,0.0846 -0.020344,0.13393 -0.069686,0.24784 0,0 -0.046403,-0.0541 -0.1469105,-0.0987 -0.281614,-0.12517 -0.8422468,-0.32761 -1.1034088,-0.43543 -0.072964,-0.0299 -0.1398884,-0.0846 -0.1495943,-0.0892 -0.028151,-0.0133 0.029447,-0.36456 -0.032972,-0.45001 -0.032781,-0.0449 -0.1387542,-0.18327 -0.1709669,-0.0727 -0.00566,0.0246 0.053822,0.064 0.062802,0.12668 0.00811,0.0569 -0.033902,0.1308 -0.077911,0.26601 0,0 -0.025495,-0.003 -0.029186,-0.004 -0.066791,-0.0326 -0.1258776,-0.0788 -0.1944282,-0.11334 -0.7442793,-0.37573 -1.5744275,-0.85024 -2.0167131,-1.31797 -0.3629373,-0.38385 -0.7565521,-1.01193 -0.7565521,-1.01193 l -0.239756,-0.34535 -0.2974847,0.12755 z m 5.5658473,4.22665 0.2326759,-0.32597 c 0.057613,0.0961 0.083828,0.21561 0.1077777,0.26176 -0.066842,0.002 -0.2072971,0.0901 -0.3401131,0.0643 z"
       style="opacity:0.98999999;fill:#772b1f;fill-opacity:1;fill-rule:nonzero;stroke:none;stroke-width:0.63739109;stroke-linecap:butt;stroke-linejoin:bevel;stroke-miterlimit:4;stroke-dasharray:none;stroke-opacity:1"
       id="path854" />
    <path
       inkscape:connector-curvature="0"
       d="m -9.4224707,293.98316 0.09491,0.0447 c 0.131831,-0.1944 0.3250668,-0.33756 0.5197861,-0.34407 0.050537,-0.003 0.1357321,0.0719 0.1357321,0.0719 l 0.3265314,0.71289 c 0.048762,-0.0313 0.1311833,-0.25714 0.2496282,-0.43169 0.032029,-0.0474 0.075679,-0.11681 0.076225,-0.12174 -0.034243,-0.0177 -0.073065,-0.0806 0.017179,-0.11006 0.00402,-0.0215 0.00337,-0.008 0.0051,-0.015 -0.053676,-0.0435 -0.022447,-0.11084 0.05021,-0.10132 0.00973,-0.0186 -0.0051,0.005 0.00784,-0.0117 -0.021212,-0.036 -0.033388,-0.11943 0.076873,-0.0827 0.015171,-0.0162 -0.00127,-0.002 0.013044,-0.0143 -0.037085,-0.0449 0.00874,-0.11843 0.078681,-0.0556 0.016208,-0.0111 -0.00325,-1.7e-4 0.018222,-0.0125 -0.014473,-0.0922 0.045759,-0.1044 0.089947,-0.0548 0.019465,-0.007 0.018391,-0.008 0.021818,-0.009 0.1893221,-0.0751 0.4702103,-0.12432 0.5444183,-0.0787 0.1037217,-0.0547 0.2401686,-0.0801 0.3314576,-0.0761 0.046115,0.002 0.055318,0.0333 0.055318,0.0333 0,0 0.086012,-0.0578 0.1209154,-0.0606 0.058841,0.008 0.057973,0.0159 0.088568,0.029 0,0 0.046638,-0.0291 0.07579,-0.0325 0.022992,-0.0113 0.048433,0.0125 0.06978,0.009 0.020492,-0.002 0.032476,-0.027 0.053523,-0.0289 0.025366,0.009 0.048148,0.0114 0.069304,0.009 0.017701,-10e-4 0.025037,-0.0268 0.042617,-0.029 0.02109,0.0111 0.039527,0.0166 0.056152,0.0159 0.017386,-10e-4 0.024987,-0.0268 0.042372,-0.0284 0.023738,0.009 0.044378,0.0144 0.0636,0.0133 0.020172,-0.002 0.031473,-0.0278 0.052002,-0.0295 0.02595,0.009 0.050279,0.009 0.072483,0.007 0.017883,-0.002 0.026122,-0.0267 0.044456,-0.0287 0.025339,0.009 0.1138224,-0.0166 0.1347694,-0.0188 0,0 -0.084238,-0.15427 -0.1451102,-0.14504 -1.2380396,0.18578 -1.6185372,-0.11428 -2.1628945,0.005 -0.05064,0.0119 -0.3157871,0.11474 -0.3698286,0.13488 -0.035926,0.0142 -0.2794432,0.31963 -0.2794432,0.31963 l -0.104937,0.0692 c -0.3625907,0.094 -0.6370627,0.44201 -0.6370627,0.44201 z m 0.8933991,-0.43671 a 0.18595394,0.18595394 0 0 1 0.099723,-0.0981 0.18595394,0.18595394 0 0 1 0.243806,0.0985 0.18595394,0.18595394 0 0 1 -0.098481,0.24387 0.18595394,0.18595394 0 0 1 -0.2438162,-0.0985 0.18595394,0.18595394 0 0 1 -4.719e-4,-0.14497 z m 0.4302941,-0.23521 a 0.07275311,0.07275311 0 0 1 2.408e-4,-5.3e-4 0.07275311,0.07275311 0 0 1 0.039364,-0.0383 0.07275311,0.07275311 0 0 1 0.095243,0.0385 0.07275311,0.07275311 0 0 1 -0.038587,0.0958 0.07275311,0.07275311 0 0 1 -0.095243,-0.0385 0.07275311,0.07275311 0 0 1 -4.772e-4,-0.0564 z m 0.3061189,-0.13508 a 0.09269246,0.09269246 0 0 1 0.049968,-0.0495 0.09269246,0.09269246 0 0 1 0.1211397,0.0495 0.09269246,0.09269246 0 0 1 -0.049088,0.12131 0.09269246,0.09269246 0 0 1 -0.121893,-0.0492 0.09269246,0.09269246 0 0 1 1.87e-4,-0.0719 z m -0.9857686,0.35842 0.4094599,1.03091 c 0,0 0.3256753,0.71258 0.5923059,1.1905 0.5944362,1.0654 3.5294237,3.10918 3.5294237,3.10918 0.1185421,0.0733 0.4028221,-0.002 0.4809837,0.0127 -0.025257,-0.0819 -0.00614,-0.22015 -0.078131,-0.38477 0.065929,-0.11608 0.094055,-0.30002 0.069997,-0.36981 -0.022037,-0.0639 -0.1054007,-0.20279 -0.144672,-0.0956 -0.012769,0.0344 0.033697,0.0791 0.032266,0.12075 -0.00312,0.0858 -0.047218,0.12701 -0.1187328,0.22837 0,0 -0.034183,-0.0621 -0.123729,-0.12655 -0.2501926,-0.1799 -0.7578278,-0.49235 -0.9915287,-0.65109 -0.065408,-0.0445 -0.1197287,-0.11129 -0.1282724,-0.11789 -0.024799,-0.0188 0.1030653,-0.35094 0.059401,-0.44727 -0.023064,-0.0509 -0.098505,-0.20769 -0.152577,-0.10602 -0.011774,0.0218 0.039663,0.0734 0.035681,0.1368 -0.00371,0.0575 -0.060316,0.12093 -0.1305316,0.24455 0,0 -0.024212,-0.008 -0.027591,-0.0116 -0.058738,-0.0454 -0.1071522,-0.10266 -0.1672412,-0.1506 -0.6521101,-0.51947 -1.3681708,-1.1532 -1.705863,-1.70126 -0.2771092,-0.44973 -0.5344999,-1.14481 -0.5344999,-1.14481 l -0.1643543,-0.38696 -0.3172317,0.0643 z m 4.5878927,5.27205 0.2939192,-0.27203 c 0.036836,0.1057 0.038143,0.22819 0.052187,0.27825 -0.066129,-0.0113 -0.2213007,0.0461 -0.346107,-0.006 z"
       style="opacity:0.98999999;fill:#982512;fill-opacity:1;fill-rule:nonzero;stroke:none;stroke-width:0.63739109;stroke-linecap:butt;stroke-linejoin:bevel;stroke-miterlimit:4;stroke-dasharray:none;stroke-opacity:1"
       id="path856" />
    <path
       id="path858"
       style="opacity:0.98999999;fill:#ff2f0d;fill-opacity:1;fill-rule:nonzero;stroke:none;stroke-width:0.63739109;stroke-linecap:butt;stroke-linejoin:bevel;stroke-miterlimit:4;stroke-dasharray:none;stroke-opacity:1"
       d="m -7.7084531,292.45772 0.08132,0.0662 c 0.1748872,-0.15682 0.3969298,-0.24912 0.5874764,-0.20837 0.04954,0.0111 0.114345,0.10256 0.114345,0.10256 l 0.1447718,0.77066 c 0.054662,-0.0193 0.1894239,-0.21781 0.3464419,-0.35869 0.042556,-0.038 0.1014516,-0.0951 0.1029664,-0.10009 -0.02888,-0.0256 -0.051408,-0.0958 0.043308,-0.10236 0.00996,-0.019 0.00568,-0.008 0.0093,-0.0123 -0.041542,-0.0552 0.00501,-0.11294 0.073255,-0.0861 0.015007,-0.0149 -0.00621,0.004 0.010144,-0.009 -0.011909,-0.0401 -0.00361,-0.12395 0.093944,-0.0624 0.018624,-0.012 -0.00101,-0.002 0.016052,-0.0118 -0.025239,-0.0527 0.037072,-0.11281 0.089855,-0.0348 0.01796,-0.007 -0.00314,-0.002 0.020809,-0.007 0.00825,-0.0929 0.069971,-0.0901 0.1006737,-0.0307 0.020862,-0.003 0.020005,-0.004 0.023376,-0.004 0.2018287,-0.0277 0.4863121,-0.006 0.5473235,0.0549 0.1137748,-0.0281 0.252409,-0.0195 0.3400644,0.005 0.044246,0.0127 0.045635,0.0455 0.045635,0.0455 0,0 0.097442,-0.0352 0.1318715,-0.0295 0.054938,0.0228 0.05245,0.0294 0.078905,0.0497 0,0 0.052234,-0.0174 0.081374,-0.0128 0.025088,-0.004 0.044129,0.0235 0.065188,0.027 0.020582,0.002 0.03788,-0.0189 0.058788,-0.0161 0.022349,0.0151 0.043854,0.0232 0.064761,0.0267 0.017367,0.002 0.030783,-0.0201 0.048395,-0.0177 0.017785,0.0158 0.03435,0.0256 0.050592,0.0288 0.017079,0.002 0.03074,-0.0201 0.047887,-0.0175 0.020558,0.0154 0.039659,0.0249 0.058608,0.0279 0.020161,0.002 0.036735,-0.0198 0.057582,-0.016 0.023064,0.0147 0.046101,0.0223 0.068324,0.026 0.017865,0.002 0.032195,-0.0194 0.050096,-0.0169 0.022418,0.0152 0.1143177,0.012 0.1352208,0.0157 0,0 -0.044491,-0.17005 -0.1057891,-0.17579 -1.2462857,-0.11851 -1.5430725,-0.50169 -2.10024,-0.51687 -0.051816,-0.001 -0.3341384,0.0353 -0.3914646,0.0414 -0.038395,0.004 -0.3482864,0.24278 -0.3482864,0.24278 l -0.1186,0.0415 c -0.373966,0.004 -0.7243101,0.27594 -0.7243101,0.27594 z m 0.9724165,-0.20803 a 0.18595393,0.18595393 0 0 1 0.1200909,-0.0716 0.18595393,0.18595393 0 0 1 0.2128224,0.15449 0.18595393,0.18595393 0 0 1 -0.1544698,0.21284 0.18595393,0.18595393 0 0 1 -0.2128166,-0.15448 0.18595393,0.18595393 0 0 1 0.034575,-0.14074 z m 0.4743577,-0.12439 a 0.07275311,0.07275311 0 0 1 3.44e-4,-4.6e-4 0.07275311,0.07275311 0 0 1 0.047303,-0.0279 0.07275311,0.07275311 0 0 1 0.083117,0.0603 0.07275311,0.07275311 0 0 1 -0.06066,0.0835 0.07275311,0.07275311 0 0 1 -0.083117,-0.0604 0.07275311,0.07275311 0 0 1 0.013126,-0.055 z m 0.3296693,-0.0573 a 0.09269245,0.09269245 0 0 1 0.060106,-0.0363 0.09269245,0.09269245 0 0 1 0.105569,0.0772 0.09269245,0.09269245 0 0 1 -0.077156,0.1057 0.09269245,0.09269245 0 0 1 -0.1064231,-0.0774 0.09269245,0.09269245 0 0 1 0.017637,-0.0697 z m -1.0431058,0.11027 0.1484815,1.0993 c 0,0 0.1440098,0.77012 0.2873804,1.29824 0.3196529,1.17741 2.6744168,3.86926 2.6744168,3.86926 0.097353,0.0997 0.3914093,0.0953 0.4637175,0.1284 -0.00469,-0.0856 0.047168,-0.21515 0.01706,-0.39225 0.092013,-0.0967 0.1636641,-0.2685 0.1571766,-0.34201 -0.00596,-0.0673 -0.053317,-0.22224 -0.1173068,-0.12764 -0.020167,0.0306 0.013544,0.0847 0.00217,0.12495 -0.023651,0.0827 -0.076398,0.11189 -0.1703395,0.19299 0,0 -0.018325,-0.0686 -0.089519,-0.15269 -0.199359,-0.235 -0.6165392,-0.66074 -0.8050188,-0.87122 -0.052735,-0.0589 -0.089282,-0.13695 -0.096029,-0.14535 -0.019539,-0.0244 0.1847268,-0.31572 0.1656024,-0.41972 -0.01007,-0.0547 -0.045458,-0.22534 -0.1224518,-0.13977 -0.016087,0.019 0.020743,0.0808 0.00156,0.14136 -0.017454,0.0549 -0.087063,0.10343 -0.1857084,0.2058 0,0 -0.021212,-0.0147 -0.023958,-0.0183 -0.046121,-0.0584 -0.079218,-0.12555 -0.1259348,-0.18652 -0.5074171,-0.66155 -1.0493052,-1.4494 -1.2447056,-2.06277 -0.1603491,-0.50324 -0.2423194,-1.23992 -0.2423194,-1.23992 l -0.066066,-0.4152 -0.3233764,-0.0141 z m 3.1794347,6.22374 0.3509222,-0.19305 c 0.010237,0.11161 -0.018066,0.23067 -0.016531,0.28263 -0.061545,-0.0267 -0.2258867,-0.008 -0.3343727,-0.0897 z"
       inkscape:connector-curvature="0" />
    <path
       inkscape:connector-curvature="0"
       d="m 0.65111614,292.85239 0.10256905,0.0217 c 0.0832297,-0.21966 0.23804559,-0.40368 0.42594781,-0.45509 0.048905,-0.013 0.1486411,0.0385 0.1486411,0.0385 l 0.4828108,0.61787 c 0.039613,-0.0423 0.068097,-0.28051 0.1428329,-0.47778 0.020547,-0.0532 0.046343,-0.13115 0.045397,-0.13623 -0.037452,-0.009 -0.089697,-0.0614 -0.00863,-0.11084 -1.501e-4,-0.0216 9.258e-4,-0.0102 0.00244,-0.0152 -0.062304,-0.0299 -0.047494,-0.10257 0.025473,-0.11017 0.00677,-0.02 -0.00351,0.006 0.00532,-0.012 -0.02904,-0.0301 -0.060203,-0.10849 0.055117,-0.0983 0.01117,-0.019 -0.00188,-10e-4 0.00862,-0.018 -0.046643,-0.0351 -0.018902,-0.11721 0.063833,-0.0722 0.013125,-0.0142 -0.00404,-4.7e-4 0.015329,-0.0151 -0.035382,-0.0862 0.020707,-0.11218 0.075411,-0.0734 0.017436,-0.0118 0.015994,-0.0122 0.018946,-0.0145 0.1665144,-0.11737 0.4291482,-0.22883 0.5113064,-0.20282 0.088125,-0.0772 0.2151476,-0.13344 0.3042778,-0.15194 0.045107,-0.009 0.06145,0.0194 0.06145,0.0194 0,0 0.07031,-0.0761 0.1033803,-0.087 0.059221,-0.005 0.060046,0.002 0.092929,0.007 0,0 0.038179,-0.0398 0.066814,-0.0482 0.020439,-0.0151 0.04998,6e-4 0.070293,-0.006 0.019355,-0.008 0.025346,-0.034 0.04473,-0.0415 0.026794,0.003 0.049637,6.2e-4 0.069747,-0.006 0.016595,-0.006 0.017694,-0.0322 0.034766,-0.0381 0.022979,0.006 0.04231,0.007 0.058137,0.002 0.01643,-0.006 0.017674,-0.0322 0.034332,-0.0377 0.025323,0.004 0.046625,0.004 0.064928,-0.002 0.018999,-0.007 0.023123,-0.0347 0.043831,-0.0407 0.027211,0.002 0.051129,-0.001 0.072641,-0.008 0.016867,-0.006 0.019784,-0.032 0.036518,-0.0383 0.026855,0.003 0.1069875,-0.0418 0.1273053,-0.0483 0,0 -0.1176775,-0.13056 -0.1747677,-0.10742 -1.1612937,0.46762 -1.6009937,0.26376 -2.1027887,0.50639 -0.046469,0.0228 -0.2804904,0.18499 -0.3286462,0.2167 -0.032191,0.0212 -0.197684,0.37571 -0.197684,0.37571 l -0.086221,0.0914 c -0.33026201,0.17549 -0.51640062,0.578 -0.51640062,0.578 z m 0.80217936,-0.76267 c 0.00823,-0.0477 0.034982,-0.09 0.073783,-0.11872 0.0826,-0.061 0.1990977,-0.0434 0.2600071,0.0394 0.060914,0.0827 0.043367,0.19909 -0.03931,0.26004 -0.082599,0.061 -0.1990948,0.0434 -0.2599954,-0.0394 -0.029875,-0.0405 -0.042182,-0.0913 -0.033953,-0.14087 z m -0.2793452,0.17746 0.6371844,0.90801 c 0,0 0.4818936,0.61775 0.8519787,1.02087 0.4594962,0.50049 1.973341,0.76374 3.038954,1.04213 0.1256141,0.0332 0.230938,0.37284 0.5074799,0.46847 0.7839251,0.27105 1.2866258,0.11471 1.2866258,0.11471 0.1322756,0.0437 0.3913967,-0.0953 0.4708588,-0.0992 -0.043516,-0.0739 -0.057023,-0.21276 -0.1651582,-0.35619 0.037277,-0.12818 0.021925,-0.31369 -0.017632,-0.37598 -0.036241,-0.0572 -0.1495028,-0.17288 -0.1628526,-0.0594 -0.00382,0.0365 0.0509,0.069 0.059323,0.10993 0.016957,0.0842 -0.016462,0.13445 -0.062604,0.24967 0,0 -0.1553389,0.15878 -0.2570765,0.11716 -0.1591513,-0.026 -0.3785402,-0.004 -0.593687,-0.0447 -0.054187,-0.0105 -0.085394,-0.16031 -0.1199975,-0.16235 -0.036305,-0.002 -0.052423,0.12654 -0.086338,0.12315 -0.1286634,-0.0125 -0.2011181,-0.0333 -0.251055,-0.0684 -0.2967157,-0.2027 -0.2875909,-0.59363 -0.31375,-0.89012 -0.034144,-0.0441 -0.1439607,-0.17921 -0.1729947,-0.0679 -0.00545,0.0242 0.05554,0.0622 0.066358,0.12483 0.00976,0.0568 -0.036552,0.15716 -0.077155,0.29337 -0.082294,-0.0242 -0.164967,-0.0554 -0.2489948,-0.0745 C 4.75425,294.42225 3.4735135,294.24692 3.018034,293.79202 2.6443077,293.4188 2.2328796,292.80224 2.2328796,292.80224 l -0.2495231,-0.33836 -0.2936345,0.13615 z"
       style="opacity:0.98999999;fill:#772b1f;fill-opacity:1;fill-rule:nonzero;stroke:none;stroke-width:0.63739109;stroke-linecap:butt;stroke-linejoin:bevel;stroke-miterlimit:4;stroke-dasharray:none;stroke-opacity:1"
       id="path857"
       sodipodi:nodetypes="cccccccccccccccccccccccccccccccccccccccccccccccccccssccccccccsssccccccccccc"
       inkscape:transform-center-x="0.15282104"
       inkscape:transform-center-y="-1.2056244" />
    <path
       inkscape:transform-center-y="-0.85026485"
       inkscape:transform-center-x="-0.0056044987"
       sodipodi:nodetypes="cccccccccccccccccccccccccccccccccccccccccccccccccccssccccccccsssccccccccccc"
       id="path2045"
       style="opacity:0.98999999;fill:#982512;fill-opacity:1;fill-rule:nonzero;stroke:none;stroke-width:0.63739109;stroke-linecap:butt;stroke-linejoin:bevel;stroke-miterlimit:4;stroke-dasharray:none;stroke-opacity:1"
       d="m 1.8595758,290.56038 0.090904,0.0522 c 0.147303,-0.18298 0.3515904,-0.30985 0.5461729,-0.3004 0.050547,0.003 0.1293993,0.0826 0.1293993,0.0826 l 0.2671741,0.73722 c 0.050788,-0.0279 0.1518077,-0.24552 0.2840799,-0.40984 0.036074,-0.0443 0.084761,-0.11028 0.085442,-0.11542 -0.032629,-0.0206 -0.066182,-0.0862 0.026197,-0.10804 0.00654,-0.0205 0.00402,-0.009 0.00706,-0.0138 -0.04993,-0.0478 -0.013288,-0.11229 0.058412,-0.0968 0.012642,-0.0169 -0.00559,0.006 0.00877,-0.01 -0.018227,-0.0377 -0.023581,-0.12177 0.082928,-0.0764 0.016489,-0.0145 -0.00134,-0.002 0.013815,-0.0145 -0.033432,-0.0479 0.018415,-0.1173 0.083099,-0.0488 0.016898,-0.009 -0.00367,-0.002 0.019286,-0.01 -0.00687,-0.093 0.05451,-0.1002 0.094472,-0.0463 0.02018,-0.005 0.018969,-0.006 0.022523,-0.008 0.1947192,-0.0599 0.4789779,-0.0843 0.5490073,-0.0341 0.1077475,-0.046 0.245936,-0.06 0.3364085,-0.05 0.045752,0.005 0.052365,0.0376 0.052365,0.0376 0,0 0.090471,-0.0506 0.1252882,-0.0507 0.057863,0.0136 0.0566,0.0201 0.085882,0.0362 0,0 0.048628,-0.026 0.078469,-0.025 0.024144,-0.008 0.04741,0.0159 0.06868,0.0161 0.020699,-10e-4 0.034623,-0.0244 0.055381,-0.0256 0.024499,0.0113 0.047079,0.0158 0.068191,0.0159 0.017524,-4.5e-4 0.026815,-0.0252 0.044879,-0.0255 0.020199,0.0122 0.038002,0.0198 0.054659,0.0198 0.017321,-4.5e-4 0.026794,-0.0252 0.044335,-0.0252 0.02272,0.0118 0.043227,0.018 0.062242,0.0186 0.020401,-10e-4 0.032768,-0.0258 0.054275,-0.025 0.025238,0.0108 0.049186,0.0143 0.071621,0.0147 0.017863,-4.3e-4 0.028752,-0.0243 0.046566,-0.0249 0.024577,0.0113 0.1147151,-0.007 0.136005,-0.006 0,0 -0.071335,-0.16064 -0.1327604,-0.15642 -1.2490825,0.084 -1.603781,-0.24624 -2.1561042,-0.17135 -0.051284,0.007 -0.3240554,0.0888 -0.3796778,0.10398 -0.03718,0.0101 -0.3045406,0.29579 -0.3045406,0.29579 l -0.1103364,0.0601 c -0.36842,0.0643 -0.6703111,0.38915 -0.6703111,0.38915 z m 0.9992895,-0.47598 c 0.022611,-0.0427 0.061227,-0.0748 0.1069917,-0.0899 0.097453,-0.0323 0.2026911,0.0206 0.2349665,0.11809 0.032271,0.0975 -0.020575,0.20272 -0.1180839,0.23498 -0.097451,0.0323 -0.2026878,-0.0206 -0.2349574,-0.11808 -0.015838,-0.0477 -0.011754,-0.0999 0.01145,-0.14445 z m -0.3206278,0.082 0.3238539,1.06096 c 0,0 0.2663353,0.73681 0.4930084,1.2349 0.2814434,0.61839 1.6387927,1.33856 2.5653531,1.93397 0.1093129,0.0702 0.1037971,0.42611 0.3369998,0.60284 0.6610816,0.50097 1.1874741,0.50841 1.1874741,0.50841 0.1121648,0.0826 0.4016609,0.0308 0.4783717,0.0519 -0.018431,-0.0837 0.011842,-0.21995 -0.04643,-0.38988 0.075223,-0.11027 0.1182118,-0.29138 0.099949,-0.36288 -0.016736,-0.0656 -0.08846,-0.21074 -0.136366,-0.10701 -0.01495,0.0334 0.026998,0.0813 0.022254,0.12294 -0.010037,0.0853 -0.057381,0.1227 -0.1370084,0.2179 0,0 -0.1969503,0.10272 -0.2807397,0.0315 -0.1431336,-0.0743 -0.3586334,-0.12118 -0.5505078,-0.22672 -0.048364,-0.0266 -0.031418,-0.17889 -0.06368,-0.19157 -0.033779,-0.0136 -0.08911,0.10401 -0.1202978,0.0902 -0.118434,-0.0518 -0.1808556,-0.0941 -0.217627,-0.14263 -0.2191397,-0.28479 -0.089116,-0.65358 -0.021955,-0.94354 -0.018815,-0.0524 -0.081215,-0.21506 -0.1433789,-0.11822 -0.012708,0.0213 0.033497,0.0764 0.024336,0.13925 -0.00835,0.057 -0.083534,0.13807 -0.1644115,0.25495 -0.070654,-0.0487 -0.1396502,-0.10377 -0.2135758,-0.14811 -0.7013639,-0.4589 -1.8644263,-1.02309 -2.1562001,-1.59691 -0.2394177,-0.47079 -0.4391354,-1.18461 -0.4391354,-1.18461 l -0.1321662,-0.39911 -0.3213961,0.0383 z"
       inkscape:connector-curvature="0" />
    <path
       inkscape:connector-curvature="0"
       d="m 3.4982854,288.7954 0.072702,0.0755 c 0.1925918,-0.13448 0.4242041,-0.19917 0.6083864,-0.1357 0.047821,0.017 0.1010816,0.11565 0.1010816,0.11565 l 0.050375,0.78252 c 0.056585,-0.0126 0.2144026,-0.19328 0.3873492,-0.31407 0.046982,-0.0323 0.1122147,-0.0822 0.1143066,-0.0869 -0.025565,-0.029 -0.039428,-0.10132 0.055366,-0.0964 0.01202,-0.0179 0.00643,-0.008 0.010629,-0.0113 -0.034567,-0.0598 0.018641,-0.11153 0.083145,-0.0766 0.016867,-0.0127 -0.00669,0.003 0.011202,-0.007 -0.00697,-0.0413 0.011408,-0.12351 0.1010033,-0.0503 0.01989,-0.009 -6.458e-4,-0.002 0.017328,-0.0101 -0.018695,-0.0554 0.050475,-0.10746 0.093421,-0.0236 0.01887,-0.004 -0.00311,-0.003 0.021297,-0.004 0.019428,-0.0912 0.080354,-0.081 0.1036659,-0.018 0.021059,-4.2e-4 0.020174,-0.002 0.023727,-7.3e-4 0.2036963,-0.003 0.4834571,0.0529 0.5366445,0.12078 0.1163317,-0.0141 0.2529082,0.0112 0.3369537,0.0461 0.042389,0.0179 0.039778,0.0507 0.039778,0.0507 0,0 0.1009861,-0.0232 0.1344515,-0.0136 0.051751,0.0292 0.048525,0.0356 0.072299,0.0589 0,0 0.053922,-0.0113 0.082355,-0.002 0.025396,-9.3e-4 0.040977,0.0287 0.061433,0.0347 0.020224,0.005 0.040037,-0.0137 0.060295,-0.009 0.020346,0.0177 0.040748,0.0284 0.061044,0.0343 0.017006,0.004 0.032768,-0.0166 0.050181,-0.0118 0.015725,0.0178 0.030985,0.0295 0.046713,0.0346 0.016719,0.004 0.032738,-0.0166 0.049626,-0.0118 0.018514,0.0177 0.036363,0.0295 0.054796,0.0348 0.019803,0.005 0.038667,-0.0155 0.059095,-0.009 0.021128,0.0174 0.043084,0.0277 0.064684,0.0341 0.017482,0.004 0.034382,-0.0153 0.051716,-0.011 0.02039,0.0178 0.1119974,0.0257 0.1323493,0.032 0,0 -0.023568,-0.17419 -0.083725,-0.18731 -1.2227587,-0.26857 -1.4709539,-0.68486 -2.0221816,-0.76741 -0.051297,-0.007 -0.335953,-0.005 -0.3936041,-0.006 -0.038598,-5.7e-4 -0.3751055,0.19884 -0.3751055,0.19884 l -0.1227317,0.0269 c -0.3716975,-0.0413 -0.7523938,0.1862 -0.7523938,0.1862 z m 1.0925273,-0.17758 c 0.033669,-0.0347 0.079693,-0.0547 0.1278831,-0.0565 0.1026136,-0.004 0.1888419,0.0765 0.1925471,0.17913 0.00372,0.10261 -0.076441,0.18888 -0.1790853,0.1926 -0.1026092,0.004 -0.1888372,-0.0765 -0.1925435,-0.17912 -0.00188,-0.0502 0.016632,-0.0992 0.051386,-0.13548 z m -0.3307485,-0.011 0.014264,1.10921 c 0,0 0.049683,0.78188 0.1280401,1.32347 0.097295,0.67245 1.1991263,1.74342 1.9222313,2.57418 0.085301,0.098 -0.01949,0.43813 0.1549918,0.67302 0.4946263,0.66584 0.997942,0.82017 0.997942,0.82017 0.084564,0.11076 0.3769878,0.142 0.4447553,0.18362 0.00572,-0.0855 0.072873,-0.20787 0.064439,-0.3873 0.1030586,-0.0848 0.1949743,-0.24671 0.197435,-0.32046 0.00223,-0.0675 -0.026008,-0.22706 -0.1009832,-0.14091 -0.023726,0.0279 0.00317,0.0857 -0.013012,0.12425 -0.033502,0.0792 -0.089405,0.10177 -0.1924784,0.17091 0,0 -0.2178194,0.0436 -0.2782935,-0.0485 -0.1166741,-0.11129 -0.3104412,-0.21663 -0.4651393,-0.37163 -0.038999,-0.0391 0.019854,-0.18053 -0.00757,-0.20174 -0.028764,-0.0222 -0.1146405,0.075 -0.1407495,0.053 -0.09922,-0.0828 -0.1473213,-0.1409 -0.1690605,-0.1978 -0.1307626,-0.33472 0.097197,-0.65243 0.2427562,-0.91204 -0.00339,-0.0556 -0.017839,-0.22919 -0.1046265,-0.15356 -0.018199,0.017 0.010828,0.0827 -0.015569,0.1405 -0.023975,0.0524 -0.1188066,0.1092 -0.2291437,0.19881 -0.054208,-0.0665 -0.105052,-0.13871 -0.163628,-0.20196 -0.5450731,-0.63669 -1.5039772,-1.5036 -1.6236585,-2.13612 -0.098224,-0.51895 -0.090376,-1.26014 -0.090376,-1.26014 l -0.015295,-0.42014 -0.3192843,-0.0531 z"
       style="opacity:0.98999999;fill:#ff2f0d;fill-opacity:1;fill-rule:nonzero;stroke:none;stroke-width:0.63739109;stroke-linecap:butt;stroke-linejoin:bevel;stroke-miterlimit:4;stroke-dasharray:none;stroke-opacity:1"
       id="path1259"
       sodipodi:nodetypes="cccccccccccccccccccccccccccccccccccccccccccccccccccssccccccccsssccccccccccc"
       inkscape:transform-center-x="-0.22625717"
       inkscape:transform-center-y="-0.61532472" />
  </g>
</svg>
