<?xml version="1.0" encoding="UTF-8" standalone="no"?>
<!-- Created with Inkscape (http://www.inkscape.org/) -->

<svg
   xmlns:dc="http://purl.org/dc/elements/1.1/"
   xmlns:cc="http://creativecommons.org/ns#"
   xmlns:rdf="http://www.w3.org/1999/02/22-rdf-syntax-ns#"
   xmlns:svg="http://www.w3.org/2000/svg"
   xmlns="http://www.w3.org/2000/svg"
   xmlns:xlink="http://www.w3.org/1999/xlink"
   xmlns:sodipodi="http://sodipodi.sourceforge.net/DTD/sodipodi-0.dtd"
   xmlns:inkscape="http://www.inkscape.org/namespaces/inkscape"
   width="35"
   height="45"
   viewBox="0 0 9.2604169 11.90625"
   version="1.1"
   id="svg8"
   sodipodi:docname="40-nuit-gite.svg"
   inkscape:version="0.92.2 5c3e80d, 2017-08-06"
   inkscape:export-filename="/home/etienne/Documents/CAF/labels/70x90/40-nuit-gite.png"
   inkscape:export-xdpi="192"
   inkscape:export-ydpi="192">
  <defs
     id="defs2">
    <path
       style="opacity:0.98000004;fill:none;fill-opacity:1;fill-rule:nonzero;stroke:none;stroke-width:0.01176898;stroke-miterlimit:4;stroke-dasharray:none;stroke-opacity:1"
       d="m -4.1294545e-5,294.34829 c 0,0 2.647074194545,-1.50592 6.491807494545,-1.49872 4.0941928,-0.007 6.7372928,1.48403 6.7372928,1.48403"
       id="path5715"
       inkscape:connector-curvature="0"
       sodipodi:nodetypes="ccc" />
    <path
       style="opacity:0.98000004;fill:none;fill-opacity:1;fill-rule:nonzero;stroke:none;stroke-width:0.01176898;stroke-miterlimit:4;stroke-dasharray:none;stroke-opacity:1"
       d="m -4.1294545e-5,294.34829 c 0,0 2.647074194545,-1.50592 6.491807494545,-1.49872 4.0941928,-0.007 6.7372928,1.48403 6.7372928,1.48403"
       id="path5715-8"
       inkscape:connector-curvature="0"
       sodipodi:nodetypes="ccc" />
    <path
       style="opacity:0.98000004;fill:none;fill-opacity:1;fill-rule:nonzero;stroke:none;stroke-width:0.01176898;stroke-miterlimit:4;stroke-dasharray:none;stroke-opacity:1"
       d="m -4.1294545e-5,294.34829 c 0,0 2.647074194545,-1.50592 6.491807494545,-1.49872 4.0941928,-0.007 6.7372928,1.48403 6.7372928,1.48403"
       id="path5715-7"
       inkscape:connector-curvature="0"
       sodipodi:nodetypes="ccc" />
    <path
       style="opacity:0.98000004;fill:none;fill-opacity:1;fill-rule:nonzero;stroke:none;stroke-width:0.01176898;stroke-miterlimit:4;stroke-dasharray:none;stroke-opacity:1"
       d="m -4.1294545e-5,294.34829 c 0,0 2.647074194545,-1.50592 6.491807494545,-1.49872 4.0941928,-0.007 6.7372928,1.48403 6.7372928,1.48403"
       id="path5715-2"
       inkscape:connector-curvature="0"
       sodipodi:nodetypes="ccc" />
  </defs>
  <sodipodi:namedview
     id="base"
     pagecolor="#ffffff"
     bordercolor="#666666"
     borderopacity="1.0"
     inkscape:pageopacity="0.0"
     inkscape:pageshadow="2"
     inkscape:zoom="5.6568543"
     inkscape:cx="-23.919177"
     inkscape:cy="19.849103"
     inkscape:document-units="px"
     inkscape:current-layer="layer1"
     showgrid="false"
     units="px"
     inkscape:window-width="1366"
     inkscape:window-height="704"
     inkscape:window-x="0"
     inkscape:window-y="27"
     inkscape:window-maximized="1"
     showguides="false" />
  <metadata
     id="metadata5">
    <rdf:RDF>
      <cc:Work
         rdf:about="">
        <dc:format>image/svg+xml</dc:format>
        <dc:type
           rdf:resource="http://purl.org/dc/dcmitype/StillImage" />
        <dc:title />
      </cc:Work>
    </rdf:RDF>
  </metadata>
  <g
     inkscape:label="Layer 1"
     inkscape:groupmode="layer"
     id="layer1"
     transform="translate(0,-285.09375)">
    <path
       style="opacity:1;fill:#000000;fill-opacity:1;fill-rule:nonzero;stroke:#000000;stroke-width:0.13249582;stroke-linecap:square;stroke-linejoin:miter;stroke-miterlimit:6;stroke-dasharray:none;stroke-opacity:1;paint-order:normal"
       d="m 1.3230187,285.42449 c -0.66268635,0 -0.99208535,0.32965 -0.99208535,0.99219 l -1.021e-4,9.2603 c 0,0.64862 0.3302284,0.99219 0.99218745,0.99219 l 6.6145835,-1e-4 c 0.6613861,0 0.9920851,-0.32723 0.9920851,-0.99209 v -9.2603 c 0,-0.6603 -0.331207,-0.99218 -0.9920851,-0.99218 z"
       id="path5900-3"
       inkscape:connector-curvature="0"
       sodipodi:nodetypes="ccccccccc" />
    <text
       xml:space="preserve"
       style="font-style:normal;font-weight:normal;font-size:3.52777767px;line-height:6.61458349px;font-family:sans-serif;letter-spacing:0px;word-spacing:0px;fill:#000000;fill-opacity:1;stroke:none;stroke-width:0.26458335px;stroke-linecap:butt;stroke-linejoin:miter;stroke-opacity:1"
       id="text4655"
       transform="translate(-0.14432892,1.1084295)"><textPath
         xlink:href="#path4665-5"
         id="textPath4695"></textPath></text>
    <text
       xml:space="preserve"
       style="font-style:normal;font-weight:normal;font-size:3.52777767px;line-height:6.61458349px;font-family:sans-serif;letter-spacing:0px;word-spacing:0px;fill:#000000;fill-opacity:1;stroke:none;stroke-width:0.26458335px;stroke-linecap:butt;stroke-linejoin:miter;stroke-opacity:1"
       id="text4659"
       transform="translate(-0.02338608,0.15498933)"><textPath
         xlink:href="#path4665"
         id="textPath4674"></textPath></text>
    <text
       xml:space="preserve"
       style="font-style:normal;font-weight:normal;font-size:3.52777767px;line-height:6.61458349px;font-family:sans-serif;letter-spacing:0px;word-spacing:0px;fill:#000000;fill-opacity:1;stroke:none;stroke-width:0.26458335px;stroke-linecap:butt;stroke-linejoin:miter;stroke-opacity:1"
       x="-3.3403645"
       y="294.65182"
       id="text4700"><tspan
         sodipodi:role="line"
         id="tspan4698"
         x="-3.3403645"
         y="298.87552"
         style="stroke-width:0.26458335px" /></text>
    <text
       xml:space="preserve"
       style="font-style:normal;font-weight:normal;font-size:10.58333302px;line-height:6.61458349px;font-family:sans-serif;letter-spacing:0px;word-spacing:0px;fill:#000000;fill-opacity:1;stroke:none;stroke-width:0.26458335px;stroke-linecap:butt;stroke-linejoin:miter;stroke-opacity:1"
       x="2.6076558"
       y="295.13992"
       id="text5863-0-0"><tspan
         sodipodi:role="line"
         id="tspan5861-3-9"
         x="2.6076558"
         y="301.19641"
         style="font-style:normal;font-variant:normal;font-weight:bold;font-stretch:normal;font-size:1.41111112px;font-family:sans-serif;-inkscape-font-specification:'sans-serif Bold';fill:#d48100;fill-opacity:1;stroke-width:0.26458335px" /></text>
    <text
       xml:space="preserve"
       style="font-style:normal;font-weight:normal;font-size:1.76388896px;line-height:1.80000007px;font-family:sans-serif;text-align:center;letter-spacing:-0.15875px;word-spacing:0px;text-anchor:middle;fill:#ffffff;fill-opacity:1;stroke:none;stroke-width:0.31030414px;stroke-linecap:butt;stroke-linejoin:miter;stroke-opacity:1"
       x="4.6083183"
       y="287.19736"
       id="text5863-5"
       transform="scale(0.9999965,1.0000035)"><tspan
         sodipodi:role="line"
         x="4.6083183"
         y="287.19736"
         style="font-style:normal;font-variant:normal;font-weight:bold;font-stretch:normal;font-size:1.76388931px;line-height:1.70000017px;font-family:Carlito;-inkscape-font-specification:'Carlito Bold';text-align:center;letter-spacing:0px;word-spacing:0px;text-anchor:middle;fill:#ffffff;fill-opacity:1;stroke-width:0.31030414px"
         dx="0 0 0 0 0 0 0 0 0 0 0 0 0 0 0 0 0 0 3.1179975e-10"
         id="tspan6000">EN GÎTE</tspan></text>
    <g
       id="g4527"
       transform="matrix(0.74142043,0,0,0.74142043,-16.410413,77.281327)">
      <path
         inkscape:connector-curvature="0"
         style="opacity:1;fill:#3d3d82;fill-opacity:1;fill-rule:nonzero;stroke:#000000;stroke-width:0.17840992;stroke-miterlimit:4;stroke-dasharray:none;stroke-opacity:1"
         d="m 27.535172,287.97669 c -3.407365,1.51129 -3.791209,2.22277 -4.955358,3.09414 v 3.49316 c 0,0.89345 0.447229,1.33823 1.338234,1.33823 h 8.921502 c 0.891424,0 1.338232,-0.44525 1.338232,-1.33823 v -3.90977 c -0.62403,-0.76591 -2.221538,-1.57699 -3.200149,-2.33011 z"
         id="path4565-6-3"
         sodipodi:nodetypes="ccccccccc" />
      <path
         sodipodi:nodetypes="ccccccccc"
         inkscape:connector-curvature="0"
         id="path4565-6-3-3-3"
         d="m 34.109642,289.11984 -0.87768,-0.89169 -1.763386,0.0109 -0.890144,0.88132 0.425508,5e-5 v 1.42239 l 2.676237,-1.1e-4 v -1.4226 z"
         style="opacity:1;fill:#3d3d82;fill-opacity:1;fill-rule:nonzero;stroke:#000000;stroke-width:0;stroke-miterlimit:4;stroke-dasharray:none;stroke-opacity:1" />
      <g
         transform="matrix(1.6013907,0,0,1.6013907,17.464472,-171.89831)"
         id="g4562">
        <path
           style="opacity:1;fill:#3d3d82;fill-opacity:1;fill-rule:nonzero;stroke:#000000;stroke-width:0;stroke-miterlimit:4;stroke-dasharray:none;stroke-opacity:1"
           d="m 7.9078953,287.24774 v -1.74554 l -0.1232924,0.25672 H 7.7615889 L 7.3952978,284.2699 7.084787,285.75892 H 7.06287 l -0.1193469,-0.25921 v 1.13262 l -1.390337,0.008 -0.8289691,0.44976 v 1.19002 l 3.198694,-9e-5 z"
           id="path4565-6-3-3-7"
           inkscape:connector-curvature="0"
           sodipodi:nodetypes="cccccccccccccc" />
        <path
           sodipodi:nodetypes="csccc"
           inkscape:connector-curvature="0"
           id="path5093-3"
           d="m 7.2751363,286.2589 v -0.27491 c 0,-0.10607 0.072318,-0.16621 0.1597963,-0.16633 0.084655,4e-4 0.1598709,0.0577 0.1597964,0.16633 v 0.27491"
           style="opacity:1;fill:#000000;fill-opacity:1;fill-rule:nonzero;stroke:#ffffff;stroke-width:0;stroke-linecap:butt;stroke-linejoin:round;stroke-miterlimit:4;stroke-dasharray:none;stroke-opacity:1" />
      </g>
      <path
         sodipodi:nodetypes="ccccccccc"
         inkscape:connector-curvature="0"
         id="path4565-6-3-3-3-6"
         d="m 25.995618,289.59447 -0.80041,-0.80985 -1.689833,0.009 -0.772328,0.80041 0.291395,4e-5 v 1.29183 l 2.676346,-9e-5 v -1.29202 z"
         style="opacity:1;fill:#3d3d82;fill-opacity:1;fill-rule:nonzero;stroke:#000000;stroke-width:0;stroke-miterlimit:4;stroke-dasharray:none;stroke-opacity:1" />
    </g>
    <g
       id="g5149"
       transform="matrix(1.5932342,0,0,1.5932342,-1.9265087,-167.0733)">
      <path
         sodipodi:nodetypes="ccccc"
         inkscape:connector-curvature="0"
         id="path5091"
         d="m 5.5098583,288.03088 9.52e-5,1.66642 H 2.9069517 l -9.73e-5,-1.66642 z"
         style="opacity:1;fill:#000000;fill-opacity:1;fill-rule:nonzero;stroke:#ffffff;stroke-width:0.1411568;stroke-linecap:round;stroke-linejoin:round;stroke-miterlimit:4;stroke-dasharray:none;stroke-opacity:1;paint-order:normal" />
      <path
         sodipodi:nodetypes="csccc"
         inkscape:connector-curvature="0"
         id="path5093"
         d="m 3.3814553,289.75749 v -0.59491 c 0,-0.18366 0.1251114,-0.28756 0.2764446,-0.28775 0.1464504,7.2e-4 0.2765737,0.0997 0.2764446,0.28775 v 0.59491"
         style="opacity:1;fill:#5b873a;fill-opacity:0;fill-rule:nonzero;stroke:#ffffff;stroke-width:0.1411568;stroke-linecap:butt;stroke-linejoin:round;stroke-miterlimit:4;stroke-dasharray:none;stroke-opacity:1" />
      <path
         style="opacity:1;fill:#040404;fill-opacity:1;fill-rule:nonzero;stroke:#ffffff;stroke-width:0.1411568;stroke-linecap:round;stroke-linejoin:miter;stroke-miterlimit:4;stroke-dasharray:none;stroke-opacity:1"
         d="M 2.7414898,288.03088 H 5.6949081 L 5.3624747,287.40187 H 3.076723 Z"
         id="path4527"
         inkscape:connector-curvature="0"
         sodipodi:nodetypes="ccccc" />
    </g>
    <path
       style="opacity:1;fill:#fffdfd;fill-opacity:1;fill-rule:nonzero;stroke:#000000;stroke-width:0;stroke-linecap:butt;stroke-linejoin:bevel;stroke-miterlimit:4;stroke-dasharray:none;stroke-opacity:1"
       d="m 0.94260736,288.19454 a 0.93944779,0.93944779 0 0 0 0.34333014,1.28345 0.93944779,0.93944779 0 0 0 1.1575232,-0.17432 0.93944779,0.93944779 0 0 1 -0.8255816,-0.0547 0.93944779,0.93944779 0 0 1 -0.3435645,-1.28371 0.93944779,0.93944779 0 0 1 0.1258559,-0.16894 0.93944779,0.93944779 0 0 0 -0.45731687,0.39842 z"
       id="path4813-3"
       inkscape:connector-curvature="0" />
    <g
       id="g5768"
       transform="translate(-6.5396991,-1.3513684)"
       style="opacity:1;fill:#427922;fill-opacity:1">
      <path
         transform="scale(-1,1)"
         style="opacity:1;fill:#427922;fill-opacity:1;fill-rule:nonzero;stroke:#000000;stroke-width:0;stroke-linecap:butt;stroke-linejoin:round;stroke-miterlimit:6;stroke-dasharray:none;stroke-opacity:1;paint-order:normal"
         d="m -3.5070339,295.41846 a 0.34017795,0.34017795 0 0 1 -0.3401779,0.34017 0.34017795,0.34017795 0 0 1 -0.340178,-0.34017 0.34017795,0.34017795 0 0 1 0.340178,-0.34018 0.34017795,0.34017795 0 0 1 0.3401779,0.34018 z"
         id="path5682"
         inkscape:connector-curvature="0" />
      <path
         transform="scale(-1,1)"
         style="opacity:0.97000002;fill:#427922;fill-opacity:1;fill-rule:nonzero;stroke:#000000;stroke-width:0;stroke-linecap:butt;stroke-linejoin:round;stroke-miterlimit:6;stroke-dasharray:none;stroke-opacity:1;paint-order:normal"
         d="m -0.34451455,295.4184 a 0.34017795,0.34017795 0 0 1 -0.34017795,0.34017 0.34017795,0.34017795 0 0 1 -0.340178,-0.34017 0.34017795,0.34017795 0 0 1 0.340178,-0.34018 0.34017795,0.34017795 0 0 1 0.34017795,0.34018 z"
         id="path5682-7"
         inkscape:connector-curvature="0" />
      <path
         id="rect5656"
         d="m 1.8984859,293.93949 c 0.361114,0.004 0.6965779,0.0203 0.7382109,0.0512 0.021984,0.0163 0.2189607,0.48456 0.2189607,0.48456 0,0 1.2560343,0.0432 1.3029611,0.1018 0.017994,0.0225 0.035714,0.0469 0.052893,0.10465 0.02572,-0.0192 0.09896,-0.017 0.09896,-0.017 0.047006,0.0498 0.050328,0.13096 0.015354,0.19109 l -0.096115,-0.01 c 0.010409,0.0437 0.028433,0.0984 0.028433,0.0984 0.2771979,0.0843 0.276601,0.4129 0.1200018,0.4129 -0.237712,0 -0.1227852,-0.34408 -0.5294876,-0.34408 -0.4668198,0 -0.2240262,0.4419 -1.0476003,0.4419 H 1.3496591 c -0.36146694,0 -0.2118216,-0.45342 -0.64664546,-0.45669 -0.43482379,-0.003 -0.29231836,0.41071 -0.67508258,0.40663 -0.19383028,-0.001 0.08357736,-0.27652 0.09895887,-0.34236 0.1046982,-0.4484 0.12997842,-0.45101 0.1774434,-0.48854 0.0503054,-0.0398 0.21953014,-0.0655 0.21953014,-0.0655 0.0441813,-0.12117 0.17484696,-0.49638 0.48398963,-0.54257 0.1428414,-0.0213 0.5295158,-0.0304 0.8906313,-0.0268 z m 0.2439851,0.14674 c -0.051692,-10e-4 -0.0885,-2.3e-4 -0.094409,0.006 -0.011522,0.0115 4.657e-4,0.0686 0.008,0.16777 0.00792,0.10478 0.012196,0.21095 0.023881,0.22294 0.022917,0.0236 0.6563945,0.0198 0.673376,0.003 0.016978,-0.017 -0.1216215,-0.33166 -0.1455954,-0.34977 -0.017987,-0.0136 -0.3101487,-0.0448 -0.4652212,-0.0495 z m -0.1831308,0.007 c -0.016867,-0.0169 -0.3380981,0.0157 -0.4680654,0.037 -0.1043868,0.017 -0.1569691,0.0859 -0.1569691,0.0859 -0.063073,0.10469 -0.1274516,0.27919 -0.1160204,0.29062 0.016979,0.017 0.7454456,2.5e-4 0.7683533,-0.0234 0.011433,-0.0118 -0.00289,-0.12155 -0.00967,-0.22407 -0.00675,-0.10152 -0.00586,-0.1543 -0.017631,-0.16607 z"
         style="opacity:1;fill:#427922;fill-opacity:1;fill-rule:nonzero;stroke:#000000;stroke-width:0;stroke-linecap:butt;stroke-linejoin:round;stroke-miterlimit:6;stroke-dasharray:none;stroke-opacity:1;paint-order:normal"
         inkscape:connector-curvature="0" />
    </g>
  </g>
</svg>
