<?xml version="1.0" encoding="UTF-8" standalone="no"?>
<!-- Created with Inkscape (http://www.inkscape.org/) -->

<svg
   xmlns:dc="http://purl.org/dc/elements/1.1/"
   xmlns:cc="http://creativecommons.org/ns#"
   xmlns:rdf="http://www.w3.org/1999/02/22-rdf-syntax-ns#"
   xmlns:svg="http://www.w3.org/2000/svg"
   xmlns="http://www.w3.org/2000/svg"
   xmlns:xlink="http://www.w3.org/1999/xlink"
   xmlns:sodipodi="http://sodipodi.sourceforge.net/DTD/sodipodi-0.dtd"
   xmlns:inkscape="http://www.inkscape.org/namespaces/inkscape"
   width="35"
   height="45"
   viewBox="0 0 9.2604169 11.90625"
   version="1.1"
   id="svg8"
   sodipodi:docname="71-trois-jours.svg"
   inkscape:version="0.92.2 2405546, 2018-03-11"
   inkscape:export-filename="/home/etienne/Documents/CAF/labels/70x90/71-trois-jours.png"
   inkscape:export-xdpi="191.21904"
   inkscape:export-ydpi="191.21904">
  <defs
     id="defs2">
    <marker
       inkscape:stockid="Arrow1Lstart"
       orient="auto"
       refY="0.0"
       refX="0.0"
       id="marker1234"
       style="overflow:visible"
       inkscape:isstock="true">
      <path
         id="path1232"
         d="M 0.0,0.0 L 5.0,-5.0 L -12.5,0.0 L 5.0,5.0 L 0.0,0.0 z "
         style="fill-rule:evenodd;stroke:#000000;stroke-width:1pt;stroke-opacity:1;fill:#000000;fill-opacity:1"
         transform="scale(0.8) translate(12.5,0)" />
    </marker>
    <marker
       inkscape:stockid="Arrow1Lstart"
       orient="auto"
       refY="0.0"
       refX="0.0"
       id="Arrow1Lstart"
       style="overflow:visible"
       inkscape:isstock="true">
      <path
         id="path950"
         d="M 0.0,0.0 L 5.0,-5.0 L -12.5,0.0 L 5.0,5.0 L 0.0,0.0 z "
         style="fill-rule:evenodd;stroke:#000000;stroke-width:1pt;stroke-opacity:1;fill:#000000;fill-opacity:1"
         transform="scale(0.8) translate(12.5,0)" />
    </marker>
    <path
       style="opacity:0.98000004;fill:none;fill-opacity:1;fill-rule:nonzero;stroke:none;stroke-width:0.01176898;stroke-miterlimit:4;stroke-dasharray:none;stroke-opacity:1"
       d="m -4.1294545e-5,294.34829 c 0,0 2.647074194545,-1.50592 6.491807494545,-1.49872 4.0941928,-0.007 6.7372928,1.48403 6.7372928,1.48403"
       id="path5715"
       inkscape:connector-curvature="0"
       sodipodi:nodetypes="ccc" />
    <path
       style="opacity:0.98000004;fill:none;fill-opacity:1;fill-rule:nonzero;stroke:none;stroke-width:0.01176898;stroke-miterlimit:4;stroke-dasharray:none;stroke-opacity:1"
       d="m -4.1294545e-5,294.34829 c 0,0 2.647074194545,-1.50592 6.491807494545,-1.49872 4.0941928,-0.007 6.7372928,1.48403 6.7372928,1.48403"
       id="path5715-8"
       inkscape:connector-curvature="0"
       sodipodi:nodetypes="ccc" />
    <path
       style="opacity:0.98000004;fill:none;fill-opacity:1;fill-rule:nonzero;stroke:none;stroke-width:0.01176898;stroke-miterlimit:4;stroke-dasharray:none;stroke-opacity:1"
       d="m -4.1294545e-5,294.34829 c 0,0 2.647074194545,-1.50592 6.491807494545,-1.49872 4.0941928,-0.007 6.7372928,1.48403 6.7372928,1.48403"
       id="path5715-7"
       inkscape:connector-curvature="0"
       sodipodi:nodetypes="ccc" />
    <path
       style="opacity:0.98000004;fill:none;fill-opacity:1;fill-rule:nonzero;stroke:none;stroke-width:0.01176898;stroke-miterlimit:4;stroke-dasharray:none;stroke-opacity:1"
       d="m -4.1294545e-5,294.34829 c 0,0 2.647074194545,-1.50592 6.491807494545,-1.49872 4.0941928,-0.007 6.7372928,1.48403 6.7372928,1.48403"
       id="path5715-2"
       inkscape:connector-curvature="0"
       sodipodi:nodetypes="ccc" />
    <path
       inkscape:connector-curvature="0"
       id="path4636-3"
       d="m 13.002663,293.85892 a 2.8764884,2.8764884 0 0 1 -2.876488,2.87649 2.8764884,2.8764884 0 0 1 -2.8764885,-2.87649 2.8764884,2.8764884 0 0 1 2.8764885,-2.87649 2.8764884,2.8764884 0 0 1 2.876488,2.87649 z"
       style="opacity:1;fill:#000000;fill-opacity:1;fill-rule:nonzero;stroke:none;stroke-width:0.17591217;stroke-linecap:round;stroke-linejoin:bevel;stroke-miterlimit:4;stroke-dasharray:none;stroke-opacity:1;paint-order:normal" />
    <path
       inkscape:connector-curvature="0"
       id="path4636-1-3"
       d="m 7.2496865,293.85892 a 2.8764884,2.8764884 0 0 0 2.8764895,2.87649 2.8764884,2.8764884 0 0 0 2.876491,-2.87649 2.8764884,2.8764884 0 0 0 -2.876491,-2.87649 2.8764884,2.8764884 0 0 0 -2.8764895,2.87649 z"
       style="opacity:1;fill:#000000;fill-opacity:1;fill-rule:nonzero;stroke:none;stroke-width:0.17591217;stroke-linecap:round;stroke-linejoin:bevel;stroke-miterlimit:4;stroke-dasharray:none;stroke-opacity:1;paint-order:normal" />
    <linearGradient
       id="linearGradient878"
       inkscape:collect="always">
      <stop
         id="stop874"
         offset="0"
         style="stop-color:#4d5857;stop-opacity:1" />
      <stop
         id="stop876"
         offset="1"
         style="stop-color:#baf5f6;stop-opacity:1" />
    </linearGradient>
    <linearGradient
       inkscape:collect="always"
       xlink:href="#linearGradient878"
       id="linearGradient6751"
       x1="0.34775239"
       y1="294.18268"
       x2="6.4939933"
       y2="293.62885"
       gradientUnits="userSpaceOnUse" />
    <clipPath
       clipPathUnits="userSpaceOnUse"
       id="clipPath1100">
      <path
         sodipodi:nodetypes="cccccccc"
         inkscape:connector-curvature="0"
         id="path1102"
         d="m 8.9131512,291.5595 c -2.817108,0.75484 -4.146603,0.39806 -4.146603,0.39806 -2.0726546,-0.29548 -3.2148063,-1.60078 -4.43581903,-3.11287 v 6.83239 c 0,0.66227 0.33059254,0.9922 0.99218753,0.9922 h 6.6145834 c 0.6619907,0 0.9921875,-0.32967 0.9921875,-0.9922 z"
         style="opacity:1;fill:#ffffff;fill-opacity:1;fill-rule:nonzero;stroke:#000000;stroke-width:0.13227685;stroke-miterlimit:4;stroke-dasharray:none;stroke-opacity:1" />
    </clipPath>
    <clipPath
       clipPathUnits="userSpaceOnUse"
       id="clipPath1106">
      <path
         sodipodi:nodetypes="cccccccc"
         inkscape:connector-curvature="0"
         id="path1108"
         d="m 8.4853448,291.67274 c -2.8171082,0.75484 -3.718804,0.28482 -3.718804,0.28482 -2.0726546,-0.29548 -3.2148063,-1.60078 -4.43581904,-3.11287 v 6.83239 c 0,0.66227 0.33059249,0.9922 0.99218754,0.9922 H 7.937493 c 0.6619898,0 0.9921869,-0.32967 0.9921869,-0.9922 z"
         style="opacity:1;fill:#ffffff;fill-opacity:1;fill-rule:nonzero;stroke:#000000;stroke-width:0.13227685;stroke-miterlimit:4;stroke-dasharray:none;stroke-opacity:1" />
    </clipPath>
    <clipPath
       clipPathUnits="userSpaceOnUse"
       id="clipPath1106-3">
      <path
         sodipodi:nodetypes="cccccccc"
         inkscape:connector-curvature="0"
         id="path1108-6"
         d="m 8.4853448,291.67274 c -2.8171082,0.75484 -3.718804,0.28482 -3.718804,0.28482 -2.0726546,-0.29548 -3.2148063,-1.60078 -4.43581904,-3.11287 v 6.83239 c 0,0.66227 0.33059249,0.9922 0.99218754,0.9922 H 7.937493 c 0.6619898,0 0.9921869,-0.32967 0.9921869,-0.9922 z"
         style="opacity:1;fill:#ffffff;fill-opacity:1;fill-rule:nonzero;stroke:#000000;stroke-width:0.13227685;stroke-miterlimit:4;stroke-dasharray:none;stroke-opacity:1" />
    </clipPath>
    <clipPath
       clipPathUnits="userSpaceOnUse"
       id="clipPath1106-3-5">
      <path
         sodipodi:nodetypes="cccccccc"
         inkscape:connector-curvature="0"
         id="path1108-6-3"
         d="m 8.4853448,291.67274 c -2.8171082,0.75484 -3.718804,0.28482 -3.718804,0.28482 -2.0726546,-0.29548 -3.2148063,-1.60078 -4.43581904,-3.11287 v 6.83239 c 0,0.66227 0.33059249,0.9922 0.99218754,0.9922 H 7.937493 c 0.6619898,0 0.9921869,-0.32967 0.9921869,-0.9922 z"
         style="opacity:1;fill:#ffffff;fill-opacity:1;fill-rule:nonzero;stroke:#000000;stroke-width:0.13227685;stroke-miterlimit:4;stroke-dasharray:none;stroke-opacity:1" />
    </clipPath>
    <clipPath
       clipPathUnits="userSpaceOnUse"
       id="clipPath1106-3-5-6">
      <path
         sodipodi:nodetypes="cccccccc"
         inkscape:connector-curvature="0"
         id="path1108-6-3-2"
         d="m 8.4853448,291.67274 c -2.8171082,0.75484 -3.718804,0.28482 -3.718804,0.28482 -2.0726546,-0.29548 -3.2148063,-1.60078 -4.43581904,-3.11287 v 6.83239 c 0,0.66227 0.33059249,0.9922 0.99218754,0.9922 H 7.937493 c 0.6619898,0 0.9921869,-0.32967 0.9921869,-0.9922 z"
         style="opacity:1;fill:#ffffff;fill-opacity:1;fill-rule:nonzero;stroke:#000000;stroke-width:0.13227685;stroke-miterlimit:4;stroke-dasharray:none;stroke-opacity:1" />
    </clipPath>
    <clipPath
       clipPathUnits="userSpaceOnUse"
       id="clipPath1106-3-5-6-1">
      <path
         sodipodi:nodetypes="cccccccc"
         inkscape:connector-curvature="0"
         id="path1108-6-3-2-2"
         d="m 8.4853448,291.67274 c -2.8171082,0.75484 -3.718804,0.28482 -3.718804,0.28482 -2.0726546,-0.29548 -3.2148063,-1.60078 -4.43581904,-3.11287 v 6.83239 c 0,0.66227 0.33059249,0.9922 0.99218754,0.9922 H 7.937493 c 0.6619898,0 0.9921869,-0.32967 0.9921869,-0.9922 z"
         style="opacity:1;fill:#ffffff;fill-opacity:1;fill-rule:nonzero;stroke:#000000;stroke-width:0.13227685;stroke-miterlimit:4;stroke-dasharray:none;stroke-opacity:1" />
    </clipPath>
    <clipPath
       clipPathUnits="userSpaceOnUse"
       id="clipPath1106-3-5-6-1-0">
      <path
         sodipodi:nodetypes="cccccccc"
         inkscape:connector-curvature="0"
         id="path1108-6-3-2-2-9"
         d="m 8.4853448,291.67274 c -2.8171082,0.75484 -3.718804,0.28482 -3.718804,0.28482 -2.0726546,-0.29548 -3.2148063,-1.60078 -4.43581904,-3.11287 v 6.83239 c 0,0.66227 0.33059249,0.9922 0.99218754,0.9922 H 7.937493 c 0.6619898,0 0.9921869,-0.32967 0.9921869,-0.9922 z"
         style="opacity:1;fill:#ffffff;fill-opacity:1;fill-rule:nonzero;stroke:#000000;stroke-width:0.13227685;stroke-miterlimit:4;stroke-dasharray:none;stroke-opacity:1" />
    </clipPath>
    <clipPath
       clipPathUnits="userSpaceOnUse"
       id="clipPath1106-3-5-6-1-6">
      <path
         sodipodi:nodetypes="cccccccc"
         inkscape:connector-curvature="0"
         id="path1108-6-3-2-2-0"
         d="m 8.4853448,291.67274 c -2.8171082,0.75484 -3.718804,0.28482 -3.718804,0.28482 -2.0726546,-0.29548 -3.2148063,-1.60078 -4.43581904,-3.11287 v 6.83239 c 0,0.66227 0.33059249,0.9922 0.99218754,0.9922 H 7.937493 c 0.6619898,0 0.9921869,-0.32967 0.9921869,-0.9922 z"
         style="opacity:1;fill:#ffffff;fill-opacity:1;fill-rule:nonzero;stroke:#000000;stroke-width:0.13227685;stroke-miterlimit:4;stroke-dasharray:none;stroke-opacity:1" />
    </clipPath>
    <clipPath
       clipPathUnits="userSpaceOnUse"
       id="clipPath1106-3-5-6-6">
      <path
         sodipodi:nodetypes="cccccccc"
         inkscape:connector-curvature="0"
         id="path1108-6-3-2-26"
         d="m 8.4853448,291.67274 c -2.8171082,0.75484 -3.718804,0.28482 -3.718804,0.28482 -2.0726546,-0.29548 -3.2148063,-1.60078 -4.43581904,-3.11287 v 6.83239 c 0,0.66227 0.33059249,0.9922 0.99218754,0.9922 H 7.937493 c 0.6619898,0 0.9921869,-0.32967 0.9921869,-0.9922 z"
         style="opacity:1;fill:#ffffff;fill-opacity:1;fill-rule:nonzero;stroke:#000000;stroke-width:0.13227685;stroke-miterlimit:4;stroke-dasharray:none;stroke-opacity:1" />
    </clipPath>
    <clipPath
       clipPathUnits="userSpaceOnUse"
       id="clipPath1106-3-5-6-7">
      <path
         sodipodi:nodetypes="cccccccc"
         inkscape:connector-curvature="0"
         id="path1108-6-3-2-9"
         d="m 8.4853448,291.67274 c -2.8171082,0.75484 -3.718804,0.28482 -3.718804,0.28482 -2.0726546,-0.29548 -3.2148063,-1.60078 -4.43581904,-3.11287 v 6.83239 c 0,0.66227 0.33059249,0.9922 0.99218754,0.9922 H 7.937493 c 0.6619898,0 0.9921869,-0.32967 0.9921869,-0.9922 z"
         style="opacity:1;fill:#ffffff;fill-opacity:1;fill-rule:nonzero;stroke:#000000;stroke-width:0.13227685;stroke-miterlimit:4;stroke-dasharray:none;stroke-opacity:1" />
    </clipPath>
    <clipPath
       clipPathUnits="userSpaceOnUse"
       id="clipPath1106-3-5-0">
      <path
         sodipodi:nodetypes="cccccccc"
         inkscape:connector-curvature="0"
         id="path1108-6-3-23"
         d="m 8.4853448,291.67274 c -2.8171082,0.75484 -3.718804,0.28482 -3.718804,0.28482 -2.0726546,-0.29548 -3.2148063,-1.60078 -4.43581904,-3.11287 v 6.83239 c 0,0.66227 0.33059249,0.9922 0.99218754,0.9922 H 7.937493 c 0.6619898,0 0.9921869,-0.32967 0.9921869,-0.9922 z"
         style="opacity:1;fill:#ffffff;fill-opacity:1;fill-rule:nonzero;stroke:#000000;stroke-width:0.13227685;stroke-miterlimit:4;stroke-dasharray:none;stroke-opacity:1" />
    </clipPath>
    <clipPath
       clipPathUnits="userSpaceOnUse"
       id="clipPath1106-3-5-0-5">
      <path
         sodipodi:nodetypes="cccccccc"
         inkscape:connector-curvature="0"
         id="path1108-6-3-23-9"
         d="m 8.4853448,291.67274 c -2.8171082,0.75484 -3.718804,0.28482 -3.718804,0.28482 -2.0726546,-0.29548 -3.2148063,-1.60078 -4.43581904,-3.11287 v 6.83239 c 0,0.66227 0.33059249,0.9922 0.99218754,0.9922 H 7.937493 c 0.6619898,0 0.9921869,-0.32967 0.9921869,-0.9922 z"
         style="opacity:1;fill:#ffffff;fill-opacity:1;fill-rule:nonzero;stroke:#000000;stroke-width:0.13227685;stroke-miterlimit:4;stroke-dasharray:none;stroke-opacity:1" />
    </clipPath>
    <clipPath
       clipPathUnits="userSpaceOnUse"
       id="clipPath1106-3-5-0-5-2">
      <path
         sodipodi:nodetypes="cccccccc"
         inkscape:connector-curvature="0"
         id="path1108-6-3-23-9-8"
         d="m 8.4853448,291.67274 c -2.8171082,0.75484 -3.718804,0.28482 -3.718804,0.28482 -2.0726546,-0.29548 -3.2148063,-1.60078 -4.43581904,-3.11287 v 6.83239 c 0,0.66227 0.33059249,0.9922 0.99218754,0.9922 H 7.937493 c 0.6619898,0 0.9921869,-0.32967 0.9921869,-0.9922 z"
         style="opacity:1;fill:#ffffff;fill-opacity:1;fill-rule:nonzero;stroke:#000000;stroke-width:0.13227685;stroke-miterlimit:4;stroke-dasharray:none;stroke-opacity:1" />
    </clipPath>
    <clipPath
       clipPathUnits="userSpaceOnUse"
       id="clipPath1106-3-3">
      <path
         sodipodi:nodetypes="cccccccc"
         inkscape:connector-curvature="0"
         id="path1108-6-1"
         d="m 8.4853448,291.67274 c -2.8171082,0.75484 -3.718804,0.28482 -3.718804,0.28482 -2.0726546,-0.29548 -3.2148063,-1.60078 -4.43581904,-3.11287 v 6.83239 c 0,0.66227 0.33059249,0.9922 0.99218754,0.9922 H 7.937493 c 0.6619898,0 0.9921869,-0.32967 0.9921869,-0.9922 z"
         style="opacity:1;fill:#ffffff;fill-opacity:1;fill-rule:nonzero;stroke:#000000;stroke-width:0.13227685;stroke-miterlimit:4;stroke-dasharray:none;stroke-opacity:1" />
    </clipPath>
    <clipPath
       clipPathUnits="userSpaceOnUse"
       id="clipPath1106-3-5-4">
      <path
         sodipodi:nodetypes="cccccccc"
         inkscape:connector-curvature="0"
         id="path1108-6-3-7"
         d="m 8.4853448,291.67274 c -2.8171082,0.75484 -3.718804,0.28482 -3.718804,0.28482 -2.0726546,-0.29548 -3.2148063,-1.60078 -4.43581904,-3.11287 v 6.83239 c 0,0.66227 0.33059249,0.9922 0.99218754,0.9922 H 7.937493 c 0.6619898,0 0.9921869,-0.32967 0.9921869,-0.9922 z"
         style="opacity:1;fill:#ffffff;fill-opacity:1;fill-rule:nonzero;stroke:#000000;stroke-width:0.13227685;stroke-miterlimit:4;stroke-dasharray:none;stroke-opacity:1" />
    </clipPath>
    <clipPath
       clipPathUnits="userSpaceOnUse"
       id="clipPath1106-3-5-4-4">
      <path
         sodipodi:nodetypes="cccccccc"
         inkscape:connector-curvature="0"
         id="path1108-6-3-7-5"
         d="m 8.4853448,291.67274 c -2.8171082,0.75484 -3.718804,0.28482 -3.718804,0.28482 -2.0726546,-0.29548 -3.2148063,-1.60078 -4.43581904,-3.11287 v 6.83239 c 0,0.66227 0.33059249,0.9922 0.99218754,0.9922 H 7.937493 c 0.6619898,0 0.9921869,-0.32967 0.9921869,-0.9922 z"
         style="opacity:1;fill:#ffffff;fill-opacity:1;fill-rule:nonzero;stroke:#000000;stroke-width:0.13227685;stroke-miterlimit:4;stroke-dasharray:none;stroke-opacity:1" />
    </clipPath>
    <clipPath
       clipPathUnits="userSpaceOnUse"
       id="clipPath1106-3-5-03">
      <path
         sodipodi:nodetypes="cccccccc"
         inkscape:connector-curvature="0"
         id="path1108-6-3-6"
         d="m 8.4853448,291.67274 c -2.8171082,0.75484 -3.718804,0.28482 -3.718804,0.28482 -2.0726546,-0.29548 -3.2148063,-1.60078 -4.43581904,-3.11287 v 6.83239 c 0,0.66227 0.33059249,0.9922 0.99218754,0.9922 H 7.937493 c 0.6619898,0 0.9921869,-0.32967 0.9921869,-0.9922 z"
         style="opacity:1;fill:#ffffff;fill-opacity:1;fill-rule:nonzero;stroke:#000000;stroke-width:0.13227685;stroke-miterlimit:4;stroke-dasharray:none;stroke-opacity:1" />
    </clipPath>
    <linearGradient
       gradientTransform="matrix(-0.99949966,0,0,0.99973823,9.2529909,0.07477428)"
       inkscape:collect="always"
       xlink:href="#linearGradient1174-3"
       id="linearGradient1264"
       x1="4.4907651"
       y1="290.57187"
       x2="9.8311014"
       y2="294.02295"
       gradientUnits="userSpaceOnUse" />
    <linearGradient
       id="linearGradient1174-3"
       inkscape:collect="always">
      <stop
         id="stop1257-6"
         offset="0"
         style="stop-color:#d8c024;stop-opacity:1" />
      <stop
         id="stop1203-7"
         offset="0.33377236"
         style="stop-color:#e2d05e;stop-opacity:1;" />
      <stop
         style="stop-color:#e9db86;stop-opacity:1;"
         offset="0.67348325"
         id="stop1205-5" />
      <stop
         id="stop1197-3"
         offset="1"
         style="stop-color:#ffffff;stop-opacity:1" />
    </linearGradient>
    <clipPath
       clipPathUnits="userSpaceOnUse"
       id="clipPath1106-3-5-9">
      <path
         sodipodi:nodetypes="cccccccc"
         inkscape:connector-curvature="0"
         id="path1108-6-3-73"
         d="m 8.4853448,291.67274 c -2.8171082,0.75484 -3.718804,0.28482 -3.718804,0.28482 -2.0726546,-0.29548 -3.2148063,-1.60078 -4.43581904,-3.11287 v 6.83239 c 0,0.66227 0.33059249,0.9922 0.99218754,0.9922 H 7.937493 c 0.6619898,0 0.9921869,-0.32967 0.9921869,-0.9922 z"
         style="opacity:1;fill:#ffffff;fill-opacity:1;fill-rule:nonzero;stroke:#000000;stroke-width:0.13227685;stroke-miterlimit:4;stroke-dasharray:none;stroke-opacity:1" />
    </clipPath>
    <clipPath
       clipPathUnits="userSpaceOnUse"
       id="clipPath1106-3-5-0-6">
      <path
         sodipodi:nodetypes="cccccccc"
         inkscape:connector-curvature="0"
         id="path1108-6-3-23-1"
         d="m 8.4853448,291.67274 c -2.8171082,0.75484 -3.718804,0.28482 -3.718804,0.28482 -2.0726546,-0.29548 -3.2148063,-1.60078 -4.43581904,-3.11287 v 6.83239 c 0,0.66227 0.33059249,0.9922 0.99218754,0.9922 H 7.937493 c 0.6619898,0 0.9921869,-0.32967 0.9921869,-0.9922 z"
         style="opacity:1;fill:#ffffff;fill-opacity:1;fill-rule:nonzero;stroke:#000000;stroke-width:0.13227685;stroke-miterlimit:4;stroke-dasharray:none;stroke-opacity:1" />
    </clipPath>
    <clipPath
       clipPathUnits="userSpaceOnUse"
       id="clipPath1106-3-5-0-5-29">
      <path
         sodipodi:nodetypes="cccccccc"
         inkscape:connector-curvature="0"
         id="path1108-6-3-23-9-3"
         d="m 8.4853448,291.67274 c -2.8171082,0.75484 -3.718804,0.28482 -3.718804,0.28482 -2.0726546,-0.29548 -3.2148063,-1.60078 -4.43581904,-3.11287 v 6.83239 c 0,0.66227 0.33059249,0.9922 0.99218754,0.9922 H 7.937493 c 0.6619898,0 0.9921869,-0.32967 0.9921869,-0.9922 z"
         style="opacity:1;fill:#ffffff;fill-opacity:1;fill-rule:nonzero;stroke:#000000;stroke-width:0.13227685;stroke-miterlimit:4;stroke-dasharray:none;stroke-opacity:1" />
    </clipPath>
    <clipPath
       clipPathUnits="userSpaceOnUse"
       id="clipPath1106-3-3-1">
      <path
         sodipodi:nodetypes="cccccccc"
         inkscape:connector-curvature="0"
         id="path1108-6-1-9"
         d="m 8.4853448,291.67274 c -2.8171082,0.75484 -3.718804,0.28482 -3.718804,0.28482 -2.0726546,-0.29548 -3.2148063,-1.60078 -4.43581904,-3.11287 v 6.83239 c 0,0.66227 0.33059249,0.9922 0.99218754,0.9922 H 7.937493 c 0.6619898,0 0.9921869,-0.32967 0.9921869,-0.9922 z"
         style="opacity:1;fill:#ffffff;fill-opacity:1;fill-rule:nonzero;stroke:#000000;stroke-width:0.13227685;stroke-miterlimit:4;stroke-dasharray:none;stroke-opacity:1" />
    </clipPath>
    <clipPath
       clipPathUnits="userSpaceOnUse"
       id="clipPath1106-3-5-4-47">
      <path
         sodipodi:nodetypes="cccccccc"
         inkscape:connector-curvature="0"
         id="path1108-6-3-7-8"
         d="m 8.4853448,291.67274 c -2.8171082,0.75484 -3.718804,0.28482 -3.718804,0.28482 -2.0726546,-0.29548 -3.2148063,-1.60078 -4.43581904,-3.11287 v 6.83239 c 0,0.66227 0.33059249,0.9922 0.99218754,0.9922 H 7.937493 c 0.6619898,0 0.9921869,-0.32967 0.9921869,-0.9922 z"
         style="opacity:1;fill:#ffffff;fill-opacity:1;fill-rule:nonzero;stroke:#000000;stroke-width:0.13227685;stroke-miterlimit:4;stroke-dasharray:none;stroke-opacity:1" />
    </clipPath>
    <clipPath
       clipPathUnits="userSpaceOnUse"
       id="clipPath1106-3-5-03-4">
      <path
         sodipodi:nodetypes="cccccccc"
         inkscape:connector-curvature="0"
         id="path1108-6-3-6-5"
         d="m 8.4853448,291.67274 c -2.8171082,0.75484 -3.718804,0.28482 -3.718804,0.28482 -2.0726546,-0.29548 -3.2148063,-1.60078 -4.43581904,-3.11287 v 6.83239 c 0,0.66227 0.33059249,0.9922 0.99218754,0.9922 H 7.937493 c 0.6619898,0 0.9921869,-0.32967 0.9921869,-0.9922 z"
         style="opacity:1;fill:#ffffff;fill-opacity:1;fill-rule:nonzero;stroke:#000000;stroke-width:0.13227685;stroke-miterlimit:4;stroke-dasharray:none;stroke-opacity:1" />
    </clipPath>
    <clipPath
       clipPathUnits="userSpaceOnUse"
       id="clipPath1106-3-5-4-4-0">
      <path
         sodipodi:nodetypes="cccccccc"
         inkscape:connector-curvature="0"
         id="path1108-6-3-7-5-3"
         d="m 8.4853448,291.67274 c -2.8171082,0.75484 -3.718804,0.28482 -3.718804,0.28482 -2.0726546,-0.29548 -3.2148063,-1.60078 -4.43581904,-3.11287 v 6.83239 c 0,0.66227 0.33059249,0.9922 0.99218754,0.9922 H 7.937493 c 0.6619898,0 0.9921869,-0.32967 0.9921869,-0.9922 z"
         style="opacity:1;fill:#ffffff;fill-opacity:1;fill-rule:nonzero;stroke:#000000;stroke-width:0.13227685;stroke-miterlimit:4;stroke-dasharray:none;stroke-opacity:1" />
    </clipPath>
    <clipPath
       clipPathUnits="userSpaceOnUse"
       id="clipPath1106-3-5-0-63">
      <path
         sodipodi:nodetypes="cccccccc"
         inkscape:connector-curvature="0"
         id="path1108-6-3-23-2"
         d="m 8.4853448,291.67274 c -2.8171082,0.75484 -3.718804,0.28482 -3.718804,0.28482 -2.0726546,-0.29548 -3.2148063,-1.60078 -4.43581904,-3.11287 v 6.83239 c 0,0.66227 0.33059249,0.9922 0.99218754,0.9922 H 7.937493 c 0.6619898,0 0.9921869,-0.32967 0.9921869,-0.9922 z"
         style="opacity:1;fill:#ffffff;fill-opacity:1;fill-rule:nonzero;stroke:#000000;stroke-width:0.13227685;stroke-miterlimit:4;stroke-dasharray:none;stroke-opacity:1" />
    </clipPath>
    <clipPath
       clipPathUnits="userSpaceOnUse"
       id="clipPath1106-3-5-0-5-0">
      <path
         sodipodi:nodetypes="cccccccc"
         inkscape:connector-curvature="0"
         id="path1108-6-3-23-9-6"
         d="m 8.4853448,291.67274 c -2.8171082,0.75484 -3.718804,0.28482 -3.718804,0.28482 -2.0726546,-0.29548 -3.2148063,-1.60078 -4.43581904,-3.11287 v 6.83239 c 0,0.66227 0.33059249,0.9922 0.99218754,0.9922 H 7.937493 c 0.6619898,0 0.9921869,-0.32967 0.9921869,-0.9922 z"
         style="opacity:1;fill:#ffffff;fill-opacity:1;fill-rule:nonzero;stroke:#000000;stroke-width:0.13227685;stroke-miterlimit:4;stroke-dasharray:none;stroke-opacity:1" />
    </clipPath>
    <clipPath
       clipPathUnits="userSpaceOnUse"
       id="clipPath1106-3-3-15">
      <path
         sodipodi:nodetypes="cccccccc"
         inkscape:connector-curvature="0"
         id="path1108-6-1-5"
         d="m 8.4853448,291.67274 c -2.8171082,0.75484 -3.718804,0.28482 -3.718804,0.28482 -2.0726546,-0.29548 -3.2148063,-1.60078 -4.43581904,-3.11287 v 6.83239 c 0,0.66227 0.33059249,0.9922 0.99218754,0.9922 H 7.937493 c 0.6619898,0 0.9921869,-0.32967 0.9921869,-0.9922 z"
         style="opacity:1;fill:#ffffff;fill-opacity:1;fill-rule:nonzero;stroke:#000000;stroke-width:0.13227685;stroke-miterlimit:4;stroke-dasharray:none;stroke-opacity:1" />
    </clipPath>
    <clipPath
       clipPathUnits="userSpaceOnUse"
       id="clipPath1106-3-5-4-476">
      <path
         sodipodi:nodetypes="cccccccc"
         inkscape:connector-curvature="0"
         id="path1108-6-3-7-56"
         d="m 8.4853448,291.67274 c -2.8171082,0.75484 -3.718804,0.28482 -3.718804,0.28482 -2.0726546,-0.29548 -3.2148063,-1.60078 -4.43581904,-3.11287 v 6.83239 c 0,0.66227 0.33059249,0.9922 0.99218754,0.9922 H 7.937493 c 0.6619898,0 0.9921869,-0.32967 0.9921869,-0.9922 z"
         style="opacity:1;fill:#ffffff;fill-opacity:1;fill-rule:nonzero;stroke:#000000;stroke-width:0.13227685;stroke-miterlimit:4;stroke-dasharray:none;stroke-opacity:1" />
    </clipPath>
    <clipPath
       clipPathUnits="userSpaceOnUse"
       id="clipPath1106-3-5-03-9">
      <path
         sodipodi:nodetypes="cccccccc"
         inkscape:connector-curvature="0"
         id="path1108-6-3-6-3"
         d="m 8.4853448,291.67274 c -2.8171082,0.75484 -3.718804,0.28482 -3.718804,0.28482 -2.0726546,-0.29548 -3.2148063,-1.60078 -4.43581904,-3.11287 v 6.83239 c 0,0.66227 0.33059249,0.9922 0.99218754,0.9922 H 7.937493 c 0.6619898,0 0.9921869,-0.32967 0.9921869,-0.9922 z"
         style="opacity:1;fill:#ffffff;fill-opacity:1;fill-rule:nonzero;stroke:#000000;stroke-width:0.13227685;stroke-miterlimit:4;stroke-dasharray:none;stroke-opacity:1" />
    </clipPath>
    <clipPath
       clipPathUnits="userSpaceOnUse"
       id="clipPath1106-3-5-4-4-7">
      <path
         sodipodi:nodetypes="cccccccc"
         inkscape:connector-curvature="0"
         id="path1108-6-3-7-5-4"
         d="m 8.4853448,291.67274 c -2.8171082,0.75484 -3.718804,0.28482 -3.718804,0.28482 -2.0726546,-0.29548 -3.2148063,-1.60078 -4.43581904,-3.11287 v 6.83239 c 0,0.66227 0.33059249,0.9922 0.99218754,0.9922 H 7.937493 c 0.6619898,0 0.9921869,-0.32967 0.9921869,-0.9922 z"
         style="opacity:1;fill:#ffffff;fill-opacity:1;fill-rule:nonzero;stroke:#000000;stroke-width:0.13227685;stroke-miterlimit:4;stroke-dasharray:none;stroke-opacity:1" />
    </clipPath>
  </defs>
  <sodipodi:namedview
     id="base"
     pagecolor="#ffffff"
     bordercolor="#666666"
     borderopacity="1.0"
     inkscape:pageopacity="0"
     inkscape:pageshadow="2"
     inkscape:zoom="11.313708"
     inkscape:cx="10.10719"
     inkscape:cy="27.221578"
     inkscape:document-units="px"
     inkscape:current-layer="layer1"
     showgrid="false"
     units="px"
     inkscape:window-width="1366"
     inkscape:window-height="704"
     inkscape:window-x="0"
     inkscape:window-y="27"
     inkscape:window-maximized="1"
     showguides="true"
     inkscape:pagecheckerboard="false" />
  <metadata
     id="metadata5">
    <rdf:RDF>
      <cc:Work
         rdf:about="">
        <dc:format>image/svg+xml</dc:format>
        <dc:type
           rdf:resource="http://purl.org/dc/dcmitype/StillImage" />
        <dc:title></dc:title>
        <cc:license
           rdf:resource="http://creativecommons.org/publicdomain/zero/1.0/" />
      </cc:Work>
      <cc:License
         rdf:about="http://creativecommons.org/publicdomain/zero/1.0/">
        <cc:permits
           rdf:resource="http://creativecommons.org/ns#Reproduction" />
        <cc:permits
           rdf:resource="http://creativecommons.org/ns#Distribution" />
        <cc:permits
           rdf:resource="http://creativecommons.org/ns#DerivativeWorks" />
      </cc:License>
    </rdf:RDF>
  </metadata>
  <g
     inkscape:label="Layer 1"
     inkscape:groupmode="layer"
     id="layer1"
     transform="translate(0,-285.09375)">
    <path
       style="opacity:1;fill:#000000;fill-opacity:1;fill-rule:nonzero;stroke:#000000;stroke-width:0.13244534;stroke-linecap:square;stroke-linejoin:miter;stroke-miterlimit:6;stroke-dasharray:none;stroke-opacity:1;paint-order:normal"
       d="m 1.322489,285.42453 c -0.66235464,0 -0.99158885,0.32957 -0.99158885,0.99193 l -1.0205e-4,9.25788 c 0,0.64845 0.3300631,0.99193 0.9916909,0.99193 l 6.6112744,-10e-5 c 0.6610553,0 0.9915888,-0.32715 0.9915888,-0.99183 v -9.25788 c 0,-0.66012 -0.3310413,-0.99192 -0.9915888,-0.99192 z"
       id="path5900-3"
       inkscape:connector-curvature="0"
       sodipodi:nodetypes="ccccccccc" />
    <text
       xml:space="preserve"
       style="font-style:normal;font-weight:normal;font-size:3.52777767px;line-height:6.61458349px;font-family:sans-serif;letter-spacing:0px;word-spacing:0px;fill:#000000;fill-opacity:1;stroke:none;stroke-width:0.26458335px;stroke-linecap:butt;stroke-linejoin:miter;stroke-opacity:1"
       id="text4655"
       x="-0.14432892"
       y="1.1055079"
       transform="matrix(0.99949971,0,0,0.99973823,1.3236647e-4,0.07768724)"><textPath
         xlink:href="#path4665-5"
         id="textPath4695"></textPath></text>
    <text
       xml:space="preserve"
       style="font-style:normal;font-weight:normal;font-size:3.52777767px;line-height:6.61458349px;font-family:sans-serif;letter-spacing:0px;word-spacing:0px;fill:#000000;fill-opacity:1;stroke:none;stroke-width:0.26458335px;stroke-linecap:butt;stroke-linejoin:miter;stroke-opacity:1"
       id="text4659"
       transform="matrix(0.99949971,0,0,0.99973823,-0.02324202,0.22971514)"><textPath
         xlink:href="#path4665"
         id="textPath4674"></textPath></text>
    <text
       xml:space="preserve"
       style="font-style:normal;font-weight:normal;font-size:3.52643323px;line-height:6.61206293px;font-family:sans-serif;letter-spacing:0px;word-spacing:0px;fill:#000000;fill-opacity:1;stroke:none;stroke-width:0.26448253px;stroke-linecap:butt;stroke-linejoin:miter;stroke-opacity:1"
       x="-3.3389592"
       y="294.61429"
       id="text4700"
       transform="scale(0.99988072,1.0001193)"><tspan
         sodipodi:role="line"
         id="tspan4698"
         x="-3.3389592"
         y="298.83636"
         style="stroke-width:0.26448253px" /></text>
    <text
       xml:space="preserve"
       style="font-style:normal;font-weight:normal;font-size:10.57929993px;line-height:6.61206293px;font-family:sans-serif;letter-spacing:0px;word-spacing:0px;fill:#000000;fill-opacity:1;stroke:none;stroke-width:0.26448253px;stroke-linecap:butt;stroke-linejoin:miter;stroke-opacity:1"
       x="2.6067944"
       y="295.1022"
       id="text5863-0-0"
       transform="scale(0.99988072,1.0001193)"><tspan
         sodipodi:role="line"
         id="tspan5861-3-9"
         x="2.6067944"
         y="301.15637"
         style="font-style:normal;font-variant:normal;font-weight:bold;font-stretch:normal;font-size:1.41057348px;font-family:sans-serif;-inkscape-font-specification:'sans-serif Bold';fill:#d48100;fill-opacity:1;stroke-width:0.26448253px" /></text>
    <g
       id="g4640-3-2-8"
       transform="matrix(2.048475,0.18823586,-0.18819096,2.0489637,63.017738,-298.59674)" />
    <text
       xml:space="preserve"
       style="font-style:normal;font-weight:normal;font-size:1.76321661px;line-height:1.79931426px;font-family:sans-serif;text-align:center;letter-spacing:-0.15868951px;word-spacing:0px;text-anchor:middle;fill:#ffffff;fill-opacity:1;stroke:none;stroke-width:0.31018588px;stroke-linecap:butt;stroke-linejoin:miter;stroke-opacity:1"
       x="5.5294814"
       y="287.16266"
       id="text5863-5-3"
       transform="scale(0.99987722,1.0001228)"><tspan
         sodipodi:role="line"
         x="5.5294814"
         y="287.16266"
         style="font-style:normal;font-variant:normal;font-weight:bold;font-stretch:normal;font-size:1.76321673px;line-height:1.69935215px;font-family:Carlito;-inkscape-font-specification:'Carlito Bold';text-align:center;letter-spacing:0px;word-spacing:0px;text-anchor:middle;fill:#ffffff;fill-opacity:1;stroke-width:0.31018588px"
         dx="0 0 0 0 0 0 0 0 0 0 0 0 0 0 0 0 3.1168096e-10"
         id="tspan6000-6">JOURS</tspan></text>
    <text
       xml:space="preserve"
       style="font-style:normal;font-variant:normal;font-weight:600;font-stretch:normal;font-size:2.82114697px;line-height:1.25;font-family:'URW Gothic';-inkscape-font-specification:'URW Gothic Semi-Bold';letter-spacing:0px;word-spacing:0px;fill:#000000;fill-opacity:1;stroke:none;stroke-width:0.22274472"
       x="1.2896569"
       y="287.4935"
       id="text868"
       transform="scale(0.99988072,1.0001193)"><tspan
         sodipodi:role="line"
         id="tspan866"
         x="1.2896569"
         y="287.4935"
         style="font-style:normal;font-variant:normal;font-weight:bold;font-stretch:normal;font-size:2.46850348px;font-family:'Arabic Newspaper';-inkscape-font-specification:'Arabic Newspaper Bold';fill:#ffffff;fill-opacity:1;stroke-width:0.22274472">3</tspan></text>
    <path
       style="opacity:1;fill:#ffffff;fill-opacity:1;fill-rule:nonzero;stroke:#000000;stroke-width:0.13222644;stroke-miterlimit:4;stroke-dasharray:none;stroke-opacity:1"
       d="m 8.9297277,293.8365 c -1.0953186,-1.54447 -2.8061533,-3.69752 -5.612976,-4.08642 -0.2961027,-0.042 -0.3442289,0.36039 -0.220884,0.81608 0.1493088,0.5516 0.4779546,1.18133 0.4636506,1.19558 -0.1851225,0.70784 -3.22444694,3.91008 -3.22444694,3.91562 0,0.66209 0.33042662,0.99194 0.99169064,0.99194 h 6.6112746 c 0.6616594,0 0.9916911,-0.32959 0.9916911,-0.99194 z"
       id="path4565-6-36-3"
       inkscape:connector-curvature="0"
       sodipodi:nodetypes="ccscccccc" />
    <path
       sodipodi:type="star"
       style="opacity:1;fill:#d1b917;fill-opacity:1;stroke:#d1b917;stroke-width:0;stroke-miterlimit:6;stroke-dasharray:none;stroke-opacity:1"
       id="path917-5"
       sodipodi:sides="11"
       sodipodi:cx="8.037715"
       sodipodi:cy="288.06876"
       sodipodi:r1="0.61603588"
       sodipodi:r2="0.30801794"
       sodipodi:arg1="0.43467022"
       sodipodi:arg2="0.72026955"
       inkscape:flatsided="false"
       inkscape:rounded="0"
       inkscape:randomized="0"
       d="m 8.596465,288.32818 -0.3272351,-0.0563 0.098283,0.31716 -0.2448741,-0.22424 -0.088787,0.31994 -0.084767,-0.32103 -0.2476672,0.22115 0.1022528,-0.3159 -0.327915,0.0521 0.2568081,-0.21047 -0.3040521,-0.13342 0.3298287,-0.0382 -0.1836547,-0.27662 0.298131,0.14617 -0.00495,-0.332 0.1717788,0.28414 0.1753291,-0.28197 -0.00911,0.33191 0.2999409,-0.14241 -0.1871097,0.27429 0.3293234,0.0423 -0.3057015,0.12959 z"
       transform="matrix(0.99949971,0,0,0.99973823,1.3236647e-4,0.07768724)" />
    <path
       style="color:#000000;font-style:normal;font-variant:normal;font-weight:normal;font-stretch:normal;font-size:medium;line-height:normal;font-family:sans-serif;font-variant-ligatures:normal;font-variant-position:normal;font-variant-caps:normal;font-variant-numeric:normal;font-variant-alternates:normal;font-feature-settings:normal;text-indent:0;text-align:start;text-decoration:none;text-decoration-line:none;text-decoration-style:solid;text-decoration-color:#000000;letter-spacing:normal;word-spacing:normal;text-transform:none;writing-mode:lr-tb;direction:ltr;text-orientation:mixed;dominant-baseline:auto;baseline-shift:baseline;text-anchor:start;white-space:normal;shape-padding:0;clip-rule:nonzero;display:inline;overflow:visible;visibility:visible;opacity:1;isolation:auto;mix-blend-mode:normal;color-interpolation:sRGB;color-interpolation-filters:linearRGB;solid-color:#000000;solid-opacity:1;vector-effect:none;fill:url(#linearGradient1264);fill-opacity:1;fill-rule:nonzero;stroke:none;stroke-width:0.13222644;stroke-linecap:butt;stroke-linejoin:miter;stroke-miterlimit:4;stroke-dasharray:none;stroke-dashoffset:0;stroke-opacity:1;color-rendering:auto;image-rendering:auto;shape-rendering:auto;text-rendering:auto;enable-background:accumulate"
       d="m 0.33629525,294.1004 c 0,0.14665 -2.5159e-4,1.54986 -2.5159e-4,1.54986 0.14173506,0.6635 0.14643639,0.5759 0.14643639,0.5759 3.02260605,-0.91071 5.55881655,-3.75605 4.88880055,-4.86983 -0.1087961,-0.18085 -0.4294917,-0.0889 -0.6056137,-0.18216 -0.2164095,-0.11467 -0.2114422,-0.5932 -0.5973076,-0.67795 -0.1378543,-0.0303 -0.3545792,0.12604 -0.440236,0.19127 -0.094819,0.0722 -0.3950205,0.0329 -0.573326,-0.14246 -0.8965895,1.75326 -1.4971214,2.32951 -2.81850205,3.55537 z"
       id="path4565-6-36-3-3"
       inkscape:connector-curvature="0"
       sodipodi:nodetypes="cscsssscc" />
    <path
       style="color:#000000;font-style:normal;font-variant:normal;font-weight:normal;font-stretch:normal;font-size:medium;line-height:normal;font-family:sans-serif;font-variant-ligatures:normal;font-variant-position:normal;font-variant-caps:normal;font-variant-numeric:normal;font-variant-alternates:normal;font-feature-settings:normal;text-indent:0;text-align:start;text-decoration:none;text-decoration-line:none;text-decoration-style:solid;text-decoration-color:#000000;letter-spacing:normal;word-spacing:normal;text-transform:none;writing-mode:lr-tb;direction:ltr;text-orientation:mixed;dominant-baseline:auto;baseline-shift:baseline;text-anchor:start;white-space:normal;shape-padding:0;clip-rule:nonzero;display:inline;overflow:visible;visibility:visible;opacity:1;isolation:auto;mix-blend-mode:normal;color-interpolation:sRGB;color-interpolation-filters:linearRGB;solid-color:#000000;solid-opacity:1;vector-effect:none;fill:#000000;fill-opacity:1;fill-rule:nonzero;stroke:none;stroke-width:0.13244534;stroke-linecap:square;stroke-linejoin:miter;stroke-miterlimit:6;stroke-dasharray:none;stroke-dashoffset:0;stroke-opacity:1;paint-order:normal;color-rendering:auto;image-rendering:auto;shape-rendering:auto;text-rendering:auto;enable-background:accumulate"
       d="m 1.3226476,285.35853 c -0.34215661,0 -0.6098696,0.0847 -0.79062013,0.26555 -0.18074953,0.18084 -0.26744413,0.4506 -0.26744413,0.79276 v 9.25734 c 0,0.33547 0.0869165,0.60256 0.26744413,0.78495 0.18053164,0.1824 0.44835058,0.27337 0.79062013,0.27337 h 6.6119248 c 0.3414481,0 0.6096658,-0.0851 0.7906202,-0.26556 0.1809544,-0.18052 0.2674441,-0.44943 0.2674441,-0.79276 v -9.25734 c 0,-0.34114 -0.086547,-0.60976 -0.2674441,-0.79081 -0.1809014,-0.18104 -0.4492621,-0.2675 -0.7906202,-0.2675 z m 0,0.13277 h 6.6119248 c 0.3191902,0 0.5471611,0.0786 0.6969171,0.22846 0.149756,0.14988 0.2284017,0.3781 0.2284007,0.69708 v 9.25734 c 0,0.32136 -0.078821,0.54981 -0.2284007,0.69903 -0.1495761,0.14923 -0.3773091,0.22652 -0.6969171,0.22652 H 1.3226476 c -0.3193581,0 -0.54701007,-0.0809 -0.69691703,-0.23237 -0.14990597,-0.15145 -0.22840068,-0.38019 -0.22840068,-0.69318 v -9.25734 c 0,-0.3202 0.0789405,-0.5495 0.22840068,-0.69903 0.14945619,-0.14954 0.37671933,-0.22651 0.69691703,-0.22651 z"
       id="path5900-3-0"
       inkscape:connector-curvature="0" />
    <g
       id="g1323"
       transform="matrix(0.76811797,-0.2385565,0.23849959,0.76830124,-67.152571,69.647022)">
      <path
         sodipodi:nodetypes="cccc"
         inkscape:connector-curvature="0"
         id="path927"
         d="m 2.8474919,296.32077 c 1.3022186,-1.67823 5.0923686,-1.95327 4.2059356,-3.76367 0.9797369,1.89599 -2.4639033,2.05947 -3.7403219,3.91305 z"
         style="fill:#000000;fill-opacity:1;stroke:#000000;stroke-width:0.03287993;stroke-linecap:butt;stroke-linejoin:bevel;stroke-miterlimit:4;stroke-dasharray:none;stroke-opacity:1" />
      <path
         sodipodi:nodetypes="cccc"
         inkscape:connector-curvature="0"
         id="path927-6"
         d="m 3.563506,296.5924 c 1.4683515,-2.07464 4.6185936,-2.0231 3.4588654,-4.14863 1.3431009,2.19182 -1.7884224,2.09899 -2.9505978,4.30028 z"
         style="fill:#000000;fill-opacity:1;stroke:#000000;stroke-width:0.03287993;stroke-linecap:butt;stroke-linejoin:bevel;stroke-miterlimit:4;stroke-dasharray:none;stroke-opacity:1" />
      <path
         style="fill:#000000;fill-opacity:1;stroke:#000000;stroke-width:0.01643996;stroke-linecap:round;stroke-linejoin:miter;stroke-miterlimit:4;stroke-dasharray:none;stroke-opacity:1"
         d="m 5.2422659,294.52822 c -0.5218369,0.24185 -1.9003405,0.64777 -2.2268079,1.08604 0,0 0.3719963,-0.20334 0.7589358,-0.43532 0.6621703,-0.39699 1.1455694,-0.47881 1.4678721,-0.65072 z"
         id="path2233-6"
         inkscape:connector-curvature="0"
         sodipodi:nodetypes="ccsc" />
    </g>
  </g>
</svg>
