<?xml version="1.0" encoding="UTF-8" standalone="no"?>
<!-- Created with Inkscape (http://www.inkscape.org/) -->

<svg
   xmlns:dc="http://purl.org/dc/elements/1.1/"
   xmlns:cc="http://creativecommons.org/ns#"
   xmlns:rdf="http://www.w3.org/1999/02/22-rdf-syntax-ns#"
   xmlns:svg="http://www.w3.org/2000/svg"
   xmlns="http://www.w3.org/2000/svg"
   xmlns:xlink="http://www.w3.org/1999/xlink"
   xmlns:sodipodi="http://sodipodi.sourceforge.net/DTD/sodipodi-0.dtd"
   xmlns:inkscape="http://www.inkscape.org/namespaces/inkscape"
   width="35"
   height="45"
   viewBox="0 0 9.2604169 11.90625"
   version="1.1"
   id="svg8"
   sodipodi:docname="73-cinq-jours.svg"
   inkscape:version="0.92.2 5c3e80d, 2017-08-06"
   inkscape:export-filename="/home/etienne/Crafts/caf-labels/70x90/73-cinq-jours.png"
   inkscape:export-xdpi="192"
   inkscape:export-ydpi="192">
  <defs
     id="defs2">
    <linearGradient
       inkscape:collect="always"
       id="linearGradient953">
      <stop
         style="stop-color:#d8c024;stop-opacity:1"
         offset="0"
         id="stop945" />
      <stop
         style="stop-color:#e2d05e;stop-opacity:1;"
         offset="0.29848811"
         id="stop947" />
      <stop
         id="stop949"
         offset="0.6317181"
         style="stop-color:#e9db86;stop-opacity:1;" />
      <stop
         style="stop-color:#ffffff;stop-opacity:1"
         offset="1"
         id="stop951" />
    </linearGradient>
    <marker
       inkscape:stockid="Arrow1Lstart"
       orient="auto"
       refY="0.0"
       refX="0.0"
       id="marker1234"
       style="overflow:visible"
       inkscape:isstock="true">
      <path
         id="path1232"
         d="M 0.0,0.0 L 5.0,-5.0 L -12.5,0.0 L 5.0,5.0 L 0.0,0.0 z "
         style="fill-rule:evenodd;stroke:#000000;stroke-width:1pt;stroke-opacity:1;fill:#000000;fill-opacity:1"
         transform="scale(0.8) translate(12.5,0)" />
    </marker>
    <marker
       inkscape:stockid="Arrow1Lstart"
       orient="auto"
       refY="0.0"
       refX="0.0"
       id="Arrow1Lstart"
       style="overflow:visible"
       inkscape:isstock="true">
      <path
         id="path950"
         d="M 0.0,0.0 L 5.0,-5.0 L -12.5,0.0 L 5.0,5.0 L 0.0,0.0 z "
         style="fill-rule:evenodd;stroke:#000000;stroke-width:1pt;stroke-opacity:1;fill:#000000;fill-opacity:1"
         transform="scale(0.8) translate(12.5,0)" />
    </marker>
    <path
       style="opacity:0.98000004;fill:none;fill-opacity:1;fill-rule:nonzero;stroke:none;stroke-width:0.01176898;stroke-miterlimit:4;stroke-dasharray:none;stroke-opacity:1"
       d="m -4.1294545e-5,294.34829 c 0,0 2.647074194545,-1.50592 6.491807494545,-1.49872 4.0941928,-0.007 6.7372928,1.48403 6.7372928,1.48403"
       id="path5715"
       inkscape:connector-curvature="0"
       sodipodi:nodetypes="ccc" />
    <path
       style="opacity:0.98000004;fill:none;fill-opacity:1;fill-rule:nonzero;stroke:none;stroke-width:0.01176898;stroke-miterlimit:4;stroke-dasharray:none;stroke-opacity:1"
       d="m -4.1294545e-5,294.34829 c 0,0 2.647074194545,-1.50592 6.491807494545,-1.49872 4.0941928,-0.007 6.7372928,1.48403 6.7372928,1.48403"
       id="path5715-8"
       inkscape:connector-curvature="0"
       sodipodi:nodetypes="ccc" />
    <path
       style="opacity:0.98000004;fill:none;fill-opacity:1;fill-rule:nonzero;stroke:none;stroke-width:0.01176898;stroke-miterlimit:4;stroke-dasharray:none;stroke-opacity:1"
       d="m -4.1294545e-5,294.34829 c 0,0 2.647074194545,-1.50592 6.491807494545,-1.49872 4.0941928,-0.007 6.7372928,1.48403 6.7372928,1.48403"
       id="path5715-7"
       inkscape:connector-curvature="0"
       sodipodi:nodetypes="ccc" />
    <path
       style="opacity:0.98000004;fill:none;fill-opacity:1;fill-rule:nonzero;stroke:none;stroke-width:0.01176898;stroke-miterlimit:4;stroke-dasharray:none;stroke-opacity:1"
       d="m -4.1294545e-5,294.34829 c 0,0 2.647074194545,-1.50592 6.491807494545,-1.49872 4.0941928,-0.007 6.7372928,1.48403 6.7372928,1.48403"
       id="path5715-2"
       inkscape:connector-curvature="0"
       sodipodi:nodetypes="ccc" />
    <path
       inkscape:connector-curvature="0"
       id="path4636-3"
       d="m 13.002663,293.85892 a 2.8764884,2.8764884 0 0 1 -2.876488,2.87649 2.8764884,2.8764884 0 0 1 -2.8764885,-2.87649 2.8764884,2.8764884 0 0 1 2.8764885,-2.87649 2.8764884,2.8764884 0 0 1 2.876488,2.87649 z"
       style="opacity:1;fill:#000000;fill-opacity:1;fill-rule:nonzero;stroke:none;stroke-width:0.17591217;stroke-linecap:round;stroke-linejoin:bevel;stroke-miterlimit:4;stroke-dasharray:none;stroke-opacity:1;paint-order:normal" />
    <path
       inkscape:connector-curvature="0"
       id="path4636-1-3"
       d="m 7.2496865,293.85892 a 2.8764884,2.8764884 0 0 0 2.8764895,2.87649 2.8764884,2.8764884 0 0 0 2.876491,-2.87649 2.8764884,2.8764884 0 0 0 -2.876491,-2.87649 2.8764884,2.8764884 0 0 0 -2.8764895,2.87649 z"
       style="opacity:1;fill:#000000;fill-opacity:1;fill-rule:nonzero;stroke:none;stroke-width:0.17591217;stroke-linecap:round;stroke-linejoin:bevel;stroke-miterlimit:4;stroke-dasharray:none;stroke-opacity:1;paint-order:normal" />
    <linearGradient
       id="linearGradient878"
       inkscape:collect="always">
      <stop
         id="stop874"
         offset="0"
         style="stop-color:#4d5857;stop-opacity:1" />
      <stop
         id="stop876"
         offset="1"
         style="stop-color:#baf5f6;stop-opacity:1" />
    </linearGradient>
    <linearGradient
       inkscape:collect="always"
       xlink:href="#linearGradient878"
       id="linearGradient6751"
       x1="0.34775239"
       y1="294.18268"
       x2="6.4939933"
       y2="293.62885"
       gradientUnits="userSpaceOnUse" />
    <clipPath
       clipPathUnits="userSpaceOnUse"
       id="clipPath1100">
      <path
         sodipodi:nodetypes="cccccccc"
         inkscape:connector-curvature="0"
         id="path1102"
         d="m 8.9131512,291.5595 c -2.817108,0.75484 -4.146603,0.39806 -4.146603,0.39806 -2.0726546,-0.29548 -3.2148063,-1.60078 -4.43581903,-3.11287 v 6.83239 c 0,0.66227 0.33059254,0.9922 0.99218753,0.9922 h 6.6145834 c 0.6619907,0 0.9921875,-0.32967 0.9921875,-0.9922 z"
         style="opacity:1;fill:#ffffff;fill-opacity:1;fill-rule:nonzero;stroke:#000000;stroke-width:0.13227685;stroke-miterlimit:4;stroke-dasharray:none;stroke-opacity:1" />
    </clipPath>
    <clipPath
       clipPathUnits="userSpaceOnUse"
       id="clipPath1106">
      <path
         sodipodi:nodetypes="cccccccc"
         inkscape:connector-curvature="0"
         id="path1108"
         d="m 8.4853448,291.67274 c -2.8171082,0.75484 -3.718804,0.28482 -3.718804,0.28482 -2.0726546,-0.29548 -3.2148063,-1.60078 -4.43581904,-3.11287 v 6.83239 c 0,0.66227 0.33059249,0.9922 0.99218754,0.9922 H 7.937493 c 0.6619898,0 0.9921869,-0.32967 0.9921869,-0.9922 z"
         style="opacity:1;fill:#ffffff;fill-opacity:1;fill-rule:nonzero;stroke:#000000;stroke-width:0.13227685;stroke-miterlimit:4;stroke-dasharray:none;stroke-opacity:1" />
    </clipPath>
    <clipPath
       clipPathUnits="userSpaceOnUse"
       id="clipPath1106-3">
      <path
         sodipodi:nodetypes="cccccccc"
         inkscape:connector-curvature="0"
         id="path1108-6"
         d="m 8.4853448,291.67274 c -2.8171082,0.75484 -3.718804,0.28482 -3.718804,0.28482 -2.0726546,-0.29548 -3.2148063,-1.60078 -4.43581904,-3.11287 v 6.83239 c 0,0.66227 0.33059249,0.9922 0.99218754,0.9922 H 7.937493 c 0.6619898,0 0.9921869,-0.32967 0.9921869,-0.9922 z"
         style="opacity:1;fill:#ffffff;fill-opacity:1;fill-rule:nonzero;stroke:#000000;stroke-width:0.13227685;stroke-miterlimit:4;stroke-dasharray:none;stroke-opacity:1" />
    </clipPath>
    <clipPath
       clipPathUnits="userSpaceOnUse"
       id="clipPath1106-3-5">
      <path
         sodipodi:nodetypes="cccccccc"
         inkscape:connector-curvature="0"
         id="path1108-6-3"
         d="m 8.4853448,291.67274 c -2.8171082,0.75484 -3.718804,0.28482 -3.718804,0.28482 -2.0726546,-0.29548 -3.2148063,-1.60078 -4.43581904,-3.11287 v 6.83239 c 0,0.66227 0.33059249,0.9922 0.99218754,0.9922 H 7.937493 c 0.6619898,0 0.9921869,-0.32967 0.9921869,-0.9922 z"
         style="opacity:1;fill:#ffffff;fill-opacity:1;fill-rule:nonzero;stroke:#000000;stroke-width:0.13227685;stroke-miterlimit:4;stroke-dasharray:none;stroke-opacity:1" />
    </clipPath>
    <clipPath
       clipPathUnits="userSpaceOnUse"
       id="clipPath1106-3-5-6">
      <path
         sodipodi:nodetypes="cccccccc"
         inkscape:connector-curvature="0"
         id="path1108-6-3-2"
         d="m 8.4853448,291.67274 c -2.8171082,0.75484 -3.718804,0.28482 -3.718804,0.28482 -2.0726546,-0.29548 -3.2148063,-1.60078 -4.43581904,-3.11287 v 6.83239 c 0,0.66227 0.33059249,0.9922 0.99218754,0.9922 H 7.937493 c 0.6619898,0 0.9921869,-0.32967 0.9921869,-0.9922 z"
         style="opacity:1;fill:#ffffff;fill-opacity:1;fill-rule:nonzero;stroke:#000000;stroke-width:0.13227685;stroke-miterlimit:4;stroke-dasharray:none;stroke-opacity:1" />
    </clipPath>
    <clipPath
       clipPathUnits="userSpaceOnUse"
       id="clipPath1106-3-5-6-1">
      <path
         sodipodi:nodetypes="cccccccc"
         inkscape:connector-curvature="0"
         id="path1108-6-3-2-2"
         d="m 8.4853448,291.67274 c -2.8171082,0.75484 -3.718804,0.28482 -3.718804,0.28482 -2.0726546,-0.29548 -3.2148063,-1.60078 -4.43581904,-3.11287 v 6.83239 c 0,0.66227 0.33059249,0.9922 0.99218754,0.9922 H 7.937493 c 0.6619898,0 0.9921869,-0.32967 0.9921869,-0.9922 z"
         style="opacity:1;fill:#ffffff;fill-opacity:1;fill-rule:nonzero;stroke:#000000;stroke-width:0.13227685;stroke-miterlimit:4;stroke-dasharray:none;stroke-opacity:1" />
    </clipPath>
    <clipPath
       clipPathUnits="userSpaceOnUse"
       id="clipPath1106-3-5-6-1-0">
      <path
         sodipodi:nodetypes="cccccccc"
         inkscape:connector-curvature="0"
         id="path1108-6-3-2-2-9"
         d="m 8.4853448,291.67274 c -2.8171082,0.75484 -3.718804,0.28482 -3.718804,0.28482 -2.0726546,-0.29548 -3.2148063,-1.60078 -4.43581904,-3.11287 v 6.83239 c 0,0.66227 0.33059249,0.9922 0.99218754,0.9922 H 7.937493 c 0.6619898,0 0.9921869,-0.32967 0.9921869,-0.9922 z"
         style="opacity:1;fill:#ffffff;fill-opacity:1;fill-rule:nonzero;stroke:#000000;stroke-width:0.13227685;stroke-miterlimit:4;stroke-dasharray:none;stroke-opacity:1" />
    </clipPath>
    <clipPath
       clipPathUnits="userSpaceOnUse"
       id="clipPath1106-3-5-6-1-6">
      <path
         sodipodi:nodetypes="cccccccc"
         inkscape:connector-curvature="0"
         id="path1108-6-3-2-2-0"
         d="m 8.4853448,291.67274 c -2.8171082,0.75484 -3.718804,0.28482 -3.718804,0.28482 -2.0726546,-0.29548 -3.2148063,-1.60078 -4.43581904,-3.11287 v 6.83239 c 0,0.66227 0.33059249,0.9922 0.99218754,0.9922 H 7.937493 c 0.6619898,0 0.9921869,-0.32967 0.9921869,-0.9922 z"
         style="opacity:1;fill:#ffffff;fill-opacity:1;fill-rule:nonzero;stroke:#000000;stroke-width:0.13227685;stroke-miterlimit:4;stroke-dasharray:none;stroke-opacity:1" />
    </clipPath>
    <clipPath
       clipPathUnits="userSpaceOnUse"
       id="clipPath1106-3-5-6-6">
      <path
         sodipodi:nodetypes="cccccccc"
         inkscape:connector-curvature="0"
         id="path1108-6-3-2-26"
         d="m 8.4853448,291.67274 c -2.8171082,0.75484 -3.718804,0.28482 -3.718804,0.28482 -2.0726546,-0.29548 -3.2148063,-1.60078 -4.43581904,-3.11287 v 6.83239 c 0,0.66227 0.33059249,0.9922 0.99218754,0.9922 H 7.937493 c 0.6619898,0 0.9921869,-0.32967 0.9921869,-0.9922 z"
         style="opacity:1;fill:#ffffff;fill-opacity:1;fill-rule:nonzero;stroke:#000000;stroke-width:0.13227685;stroke-miterlimit:4;stroke-dasharray:none;stroke-opacity:1" />
    </clipPath>
    <clipPath
       clipPathUnits="userSpaceOnUse"
       id="clipPath1106-3-5-6-7">
      <path
         sodipodi:nodetypes="cccccccc"
         inkscape:connector-curvature="0"
         id="path1108-6-3-2-9"
         d="m 8.4853448,291.67274 c -2.8171082,0.75484 -3.718804,0.28482 -3.718804,0.28482 -2.0726546,-0.29548 -3.2148063,-1.60078 -4.43581904,-3.11287 v 6.83239 c 0,0.66227 0.33059249,0.9922 0.99218754,0.9922 H 7.937493 c 0.6619898,0 0.9921869,-0.32967 0.9921869,-0.9922 z"
         style="opacity:1;fill:#ffffff;fill-opacity:1;fill-rule:nonzero;stroke:#000000;stroke-width:0.13227685;stroke-miterlimit:4;stroke-dasharray:none;stroke-opacity:1" />
    </clipPath>
    <clipPath
       clipPathUnits="userSpaceOnUse"
       id="clipPath1106-3-5-0">
      <path
         sodipodi:nodetypes="cccccccc"
         inkscape:connector-curvature="0"
         id="path1108-6-3-23"
         d="m 8.4853448,291.67274 c -2.8171082,0.75484 -3.718804,0.28482 -3.718804,0.28482 -2.0726546,-0.29548 -3.2148063,-1.60078 -4.43581904,-3.11287 v 6.83239 c 0,0.66227 0.33059249,0.9922 0.99218754,0.9922 H 7.937493 c 0.6619898,0 0.9921869,-0.32967 0.9921869,-0.9922 z"
         style="opacity:1;fill:#ffffff;fill-opacity:1;fill-rule:nonzero;stroke:#000000;stroke-width:0.13227685;stroke-miterlimit:4;stroke-dasharray:none;stroke-opacity:1" />
    </clipPath>
    <clipPath
       clipPathUnits="userSpaceOnUse"
       id="clipPath1106-3-5-0-5">
      <path
         sodipodi:nodetypes="cccccccc"
         inkscape:connector-curvature="0"
         id="path1108-6-3-23-9"
         d="m 8.4853448,291.67274 c -2.8171082,0.75484 -3.718804,0.28482 -3.718804,0.28482 -2.0726546,-0.29548 -3.2148063,-1.60078 -4.43581904,-3.11287 v 6.83239 c 0,0.66227 0.33059249,0.9922 0.99218754,0.9922 H 7.937493 c 0.6619898,0 0.9921869,-0.32967 0.9921869,-0.9922 z"
         style="opacity:1;fill:#ffffff;fill-opacity:1;fill-rule:nonzero;stroke:#000000;stroke-width:0.13227685;stroke-miterlimit:4;stroke-dasharray:none;stroke-opacity:1" />
    </clipPath>
    <clipPath
       clipPathUnits="userSpaceOnUse"
       id="clipPath1106-3-5-0-5-2">
      <path
         sodipodi:nodetypes="cccccccc"
         inkscape:connector-curvature="0"
         id="path1108-6-3-23-9-8"
         d="m 8.4853448,291.67274 c -2.8171082,0.75484 -3.718804,0.28482 -3.718804,0.28482 -2.0726546,-0.29548 -3.2148063,-1.60078 -4.43581904,-3.11287 v 6.83239 c 0,0.66227 0.33059249,0.9922 0.99218754,0.9922 H 7.937493 c 0.6619898,0 0.9921869,-0.32967 0.9921869,-0.9922 z"
         style="opacity:1;fill:#ffffff;fill-opacity:1;fill-rule:nonzero;stroke:#000000;stroke-width:0.13227685;stroke-miterlimit:4;stroke-dasharray:none;stroke-opacity:1" />
    </clipPath>
    <clipPath
       clipPathUnits="userSpaceOnUse"
       id="clipPath1106-3-3">
      <path
         sodipodi:nodetypes="cccccccc"
         inkscape:connector-curvature="0"
         id="path1108-6-1"
         d="m 8.4853448,291.67274 c -2.8171082,0.75484 -3.718804,0.28482 -3.718804,0.28482 -2.0726546,-0.29548 -3.2148063,-1.60078 -4.43581904,-3.11287 v 6.83239 c 0,0.66227 0.33059249,0.9922 0.99218754,0.9922 H 7.937493 c 0.6619898,0 0.9921869,-0.32967 0.9921869,-0.9922 z"
         style="opacity:1;fill:#ffffff;fill-opacity:1;fill-rule:nonzero;stroke:#000000;stroke-width:0.13227685;stroke-miterlimit:4;stroke-dasharray:none;stroke-opacity:1" />
    </clipPath>
    <clipPath
       clipPathUnits="userSpaceOnUse"
       id="clipPath1106-3-5-4">
      <path
         sodipodi:nodetypes="cccccccc"
         inkscape:connector-curvature="0"
         id="path1108-6-3-7"
         d="m 8.4853448,291.67274 c -2.8171082,0.75484 -3.718804,0.28482 -3.718804,0.28482 -2.0726546,-0.29548 -3.2148063,-1.60078 -4.43581904,-3.11287 v 6.83239 c 0,0.66227 0.33059249,0.9922 0.99218754,0.9922 H 7.937493 c 0.6619898,0 0.9921869,-0.32967 0.9921869,-0.9922 z"
         style="opacity:1;fill:#ffffff;fill-opacity:1;fill-rule:nonzero;stroke:#000000;stroke-width:0.13227685;stroke-miterlimit:4;stroke-dasharray:none;stroke-opacity:1" />
    </clipPath>
    <clipPath
       clipPathUnits="userSpaceOnUse"
       id="clipPath1106-3-5-4-4">
      <path
         sodipodi:nodetypes="cccccccc"
         inkscape:connector-curvature="0"
         id="path1108-6-3-7-5"
         d="m 8.4853448,291.67274 c -2.8171082,0.75484 -3.718804,0.28482 -3.718804,0.28482 -2.0726546,-0.29548 -3.2148063,-1.60078 -4.43581904,-3.11287 v 6.83239 c 0,0.66227 0.33059249,0.9922 0.99218754,0.9922 H 7.937493 c 0.6619898,0 0.9921869,-0.32967 0.9921869,-0.9922 z"
         style="opacity:1;fill:#ffffff;fill-opacity:1;fill-rule:nonzero;stroke:#000000;stroke-width:0.13227685;stroke-miterlimit:4;stroke-dasharray:none;stroke-opacity:1" />
    </clipPath>
    <clipPath
       clipPathUnits="userSpaceOnUse"
       id="clipPath1106-3-5-03">
      <path
         sodipodi:nodetypes="cccccccc"
         inkscape:connector-curvature="0"
         id="path1108-6-3-6"
         d="m 8.4853448,291.67274 c -2.8171082,0.75484 -3.718804,0.28482 -3.718804,0.28482 -2.0726546,-0.29548 -3.2148063,-1.60078 -4.43581904,-3.11287 v 6.83239 c 0,0.66227 0.33059249,0.9922 0.99218754,0.9922 H 7.937493 c 0.6619898,0 0.9921869,-0.32967 0.9921869,-0.9922 z"
         style="opacity:1;fill:#ffffff;fill-opacity:1;fill-rule:nonzero;stroke:#000000;stroke-width:0.13227685;stroke-miterlimit:4;stroke-dasharray:none;stroke-opacity:1" />
    </clipPath>
    <linearGradient
       inkscape:collect="always"
       xlink:href="#linearGradient1174"
       id="linearGradient1340"
       gradientUnits="userSpaceOnUse"
       x1="4.8409615"
       y1="292.57562"
       x2="0.63712204"
       y2="295.97504"
       gradientTransform="matrix(-1,0,0,1,9.2604096,-3.1906459e-6)" />
    <linearGradient
       id="linearGradient1174"
       inkscape:collect="always">
      <stop
         id="stop1257"
         offset="0"
         style="stop-color:#d8c024;stop-opacity:1" />
      <stop
         id="stop1203"
         offset="0.40431407"
         style="stop-color:#e2d05e;stop-opacity:1;" />
      <stop
         style="stop-color:#e9db86;stop-opacity:1;"
         offset="0.72823256"
         id="stop1205" />
      <stop
         id="stop1197"
         offset="1"
         style="stop-color:#ffffff;stop-opacity:1" />
    </linearGradient>
    <linearGradient
       inkscape:collect="always"
       xlink:href="#linearGradient953"
       id="linearGradient1264"
       x1="5.2109251"
       y1="291.37488"
       x2="9.136981"
       y2="295.95422"
       gradientUnits="userSpaceOnUse" />
  </defs>
  <sodipodi:namedview
     id="base"
     pagecolor="#ffffff"
     bordercolor="#666666"
     borderopacity="1.0"
     inkscape:pageopacity="0.0"
     inkscape:pageshadow="2"
     inkscape:zoom="7.9999996"
     inkscape:cx="39.442581"
     inkscape:cy="17.316457"
     inkscape:document-units="px"
     inkscape:current-layer="layer1"
     showgrid="false"
     units="px"
     inkscape:window-width="1366"
     inkscape:window-height="704"
     inkscape:window-x="0"
     inkscape:window-y="27"
     inkscape:window-maximized="1"
     showguides="true" />
  <metadata
     id="metadata5">
    <rdf:RDF>
      <cc:Work
         rdf:about="">
        <dc:format>image/svg+xml</dc:format>
        <dc:type
           rdf:resource="http://purl.org/dc/dcmitype/StillImage" />
        <dc:title />
        <cc:license
           rdf:resource="http://creativecommons.org/publicdomain/zero/1.0/" />
      </cc:Work>
      <cc:License
         rdf:about="http://creativecommons.org/publicdomain/zero/1.0/">
        <cc:permits
           rdf:resource="http://creativecommons.org/ns#Reproduction" />
        <cc:permits
           rdf:resource="http://creativecommons.org/ns#Distribution" />
        <cc:permits
           rdf:resource="http://creativecommons.org/ns#DerivativeWorks" />
      </cc:License>
    </rdf:RDF>
  </metadata>
  <g
     inkscape:label="Layer 1"
     inkscape:groupmode="layer"
     id="layer1"
     transform="translate(0,-285.09375)">
    <path
       style="opacity:1;fill:#000000;fill-opacity:1;fill-rule:nonzero;stroke:#000000;stroke-width:0.13249582;stroke-linecap:square;stroke-linejoin:miter;stroke-miterlimit:6;stroke-dasharray:none;stroke-opacity:1;paint-order:normal"
       d="m 1.3230186,285.42449 c -0.66268625,0 -0.99208525,0.32965 -0.99208525,0.99219 l -1.021e-4,9.2603 c 0,0.64862 0.3302283,0.99219 0.99218735,0.99219 l 6.6145835,-1e-4 c 0.6613862,0 0.9920852,-0.32723 0.9920852,-0.99209 v -9.2603 c 0,-0.6603 -0.331207,-0.99218 -0.9920852,-0.99218 z"
       id="path5900-3"
       inkscape:connector-curvature="0"
       sodipodi:nodetypes="ccccccccc" />
    <text
       xml:space="preserve"
       style="font-style:normal;font-weight:normal;font-size:3.52777767px;line-height:6.61458349px;font-family:sans-serif;letter-spacing:0px;word-spacing:0px;fill:#000000;fill-opacity:1;stroke:none;stroke-width:0.26458335px;stroke-linecap:butt;stroke-linejoin:miter;stroke-opacity:1"
       id="text4655"
       transform="translate(-0.14432892,1.1084295)"><textPath
         xlink:href="#path4665-5"
         id="textPath4695"></textPath></text>
    <text
       xml:space="preserve"
       style="font-style:normal;font-weight:normal;font-size:3.52777767px;line-height:6.61458349px;font-family:sans-serif;letter-spacing:0px;word-spacing:0px;fill:#000000;fill-opacity:1;stroke:none;stroke-width:0.26458335px;stroke-linecap:butt;stroke-linejoin:miter;stroke-opacity:1"
       id="text4659"
       transform="translate(-0.02338608,0.15498933)"><textPath
         xlink:href="#path4665"
         id="textPath4674"></textPath></text>
    <text
       xml:space="preserve"
       style="font-style:normal;font-weight:normal;font-size:3.52777767px;line-height:6.61458349px;font-family:sans-serif;letter-spacing:0px;word-spacing:0px;fill:#000000;fill-opacity:1;stroke:none;stroke-width:0.26458335px;stroke-linecap:butt;stroke-linejoin:miter;stroke-opacity:1"
       x="-3.3403645"
       y="294.65182"
       id="text4700"><tspan
         sodipodi:role="line"
         id="tspan4698"
         x="-3.3403645"
         y="298.87552"
         style="stroke-width:0.26458335px" /></text>
    <text
       xml:space="preserve"
       style="font-style:normal;font-weight:normal;font-size:10.58333302px;line-height:6.61458349px;font-family:sans-serif;letter-spacing:0px;word-spacing:0px;fill:#000000;fill-opacity:1;stroke:none;stroke-width:0.26458335px;stroke-linecap:butt;stroke-linejoin:miter;stroke-opacity:1"
       x="2.6076558"
       y="295.13992"
       id="text5863-0-0"><tspan
         sodipodi:role="line"
         id="tspan5861-3-9"
         x="2.6076558"
         y="301.19641"
         style="font-style:normal;font-variant:normal;font-weight:bold;font-stretch:normal;font-size:1.41111112px;font-family:sans-serif;-inkscape-font-specification:'sans-serif Bold';fill:#d48100;fill-opacity:1;stroke-width:0.26458335px" /></text>
    <g
       id="g4640-3-2-8"
       transform="matrix(2.0495003,0.18828516,-0.18828516,2.0495003,63.049149,-298.74972)" />
    <text
       xml:space="preserve"
       style="font-style:normal;font-weight:normal;font-size:1.76388884px;line-height:1.80000007px;font-family:sans-serif;text-align:center;letter-spacing:-0.15875px;word-spacing:0px;text-anchor:middle;fill:#ffffff;fill-opacity:1;stroke:none;stroke-width:0.31030414px;stroke-linecap:butt;stroke-linejoin:miter;stroke-opacity:1"
       x="5.5314565"
       y="287.19736"
       id="text5863-5-3"
       transform="scale(0.99999651,1.0000035)"><tspan
         sodipodi:role="line"
         x="5.5314565"
         y="287.19736"
         style="font-style:normal;font-variant:normal;font-weight:bold;font-stretch:normal;font-size:1.76388896px;line-height:1.70000005px;font-family:Carlito;-inkscape-font-specification:'Carlito Bold';text-align:center;letter-spacing:0px;word-spacing:0px;text-anchor:middle;fill:#ffffff;fill-opacity:1;stroke-width:0.31030414px"
         dx="0 0 0 0 0 0 0 0 0 0 0 0 0 0 0 0 3.1179975e-10"
         id="tspan6000-6">JOURS</tspan></text>
    <text
       xml:space="preserve"
       style="font-style:normal;font-variant:normal;font-weight:600;font-stretch:normal;font-size:2.82222223px;line-height:1.25;font-family:'URW Gothic';-inkscape-font-specification:'URW Gothic Semi-Bold';letter-spacing:0px;word-spacing:0px;fill:#000000;fill-opacity:1;stroke:none;stroke-width:0.22282963"
       x="1.2646946"
       y="287.52832"
       id="text868"><tspan
         sodipodi:role="line"
         id="tspan866"
         x="1.2646946"
         y="287.52832"
         style="font-style:normal;font-variant:normal;font-weight:bold;font-stretch:normal;font-size:2.46944451px;font-family:'Arabic Newspaper';-inkscape-font-specification:'Arabic Newspaper Bold';fill:#ffffff;fill-opacity:1;stroke-width:0.22282963">5</tspan></text>
    <path
       sodipodi:type="star"
       style="opacity:1;fill:#d1b917;fill-opacity:1;stroke:#d1b917;stroke-width:0;stroke-miterlimit:6;stroke-dasharray:none;stroke-opacity:1"
       id="path917"
       sodipodi:sides="11"
       sodipodi:cx="-1.2717636"
       sodipodi:cy="288.5679"
       sodipodi:r1="0.61603588"
       sodipodi:r2="0.30801794"
       sodipodi:arg1="0.43467022"
       sodipodi:arg2="0.72026955"
       inkscape:flatsided="false"
       inkscape:rounded="0"
       inkscape:randomized="0"
       d="m -0.7130135,288.82732 -0.3272352,-0.0562 0.0982827,0.31715 -0.24487404,-0.22424 -0.088787,0.31995 -0.084767,-0.32104 -0.2476672,0.22116 0.1022527,-0.3159 -0.327915,0.0521 0.2568082,-0.21047 -0.3040521,-0.13341 0.3298287,-0.0382 -0.1836548,-0.27662 0.298131,0.14617 -0.00495,-0.332 0.1717788,0.28415 0.1753291,-0.28197 -0.00911,0.33191 0.29994084,-0.14242 -0.18710971,0.2743 0.32932344,0.0423 -0.30570147,0.12959 z"
       transform="scale(-1,1)" />
    <path
       style="opacity:1;fill:#ffffff;fill-opacity:1;fill-rule:nonzero;stroke:#000000;stroke-width:0.13227685;stroke-miterlimit:4;stroke-dasharray:none;stroke-opacity:1"
       d="m 8.9296943,292.06349 c -1.1435694,0.95003 -3.1606165,-1.93067 -3.8707545,-1.8585 -1.0399633,0.1057 -4.0413935,2.87842 -4.72821804,3.96736 v 1.50473 c 0,0.66227 0.3305994,0.9922 0.99219434,0.9922 h 6.6145833 c 0.6619909,0 0.9921915,-0.32967 0.9921915,-0.9922 z"
       id="path4565-6-36"
       inkscape:connector-curvature="0"
       sodipodi:nodetypes="cscccccc" />
    <path
       style="color:#000000;font-style:normal;font-variant:normal;font-weight:normal;font-stretch:normal;font-size:medium;line-height:normal;font-family:sans-serif;font-variant-ligatures:normal;font-variant-position:normal;font-variant-caps:normal;font-variant-numeric:normal;font-variant-alternates:normal;font-feature-settings:normal;text-indent:0;text-align:start;text-decoration:none;text-decoration-line:none;text-decoration-style:solid;text-decoration-color:#000000;letter-spacing:normal;word-spacing:normal;text-transform:none;writing-mode:lr-tb;direction:ltr;text-orientation:mixed;dominant-baseline:auto;baseline-shift:baseline;text-anchor:start;white-space:normal;shape-padding:0;clip-rule:nonzero;display:inline;overflow:visible;visibility:visible;opacity:1;isolation:auto;mix-blend-mode:normal;color-interpolation:sRGB;color-interpolation-filters:linearRGB;solid-color:#000000;solid-opacity:1;vector-effect:none;fill:url(#linearGradient1264);fill-opacity:1;fill-rule:nonzero;stroke:none;stroke-width:0.13227685;stroke-linecap:butt;stroke-linejoin:miter;stroke-miterlimit:4;stroke-dasharray:none;stroke-dashoffset:0;stroke-opacity:1;color-rendering:auto;image-rendering:auto;shape-rendering:auto;text-rendering:auto;enable-background:accumulate"
       d="m 8.8632813,295.67773 c 0,0.21845 -0.036681,0.39376 -0.1075602,0.53064 -3.4567529,-1.51682 -5.0758012,-5.36502 -3.7859941,-5.91641 0.7426801,-0.31749 2.6433445,0.96286 3.8935543,1.22292 z"
       id="path4565-6-36-3-3"
       inkscape:connector-curvature="0"
       sodipodi:nodetypes="ccscc" />
    <g
       id="g1323"
       transform="matrix(-0.71826874,-0.36280164,-0.36280164,0.71826874,114.94712,83.631591)">
      <ellipse
         style="opacity:1;fill:#000000;fill-opacity:1;stroke:#000000;stroke-width:0;stroke-miterlimit:4;stroke-dasharray:none;stroke-opacity:1"
         id="path930"
         cx="207.13921"
         cy="255.9173"
         transform="matrix(0.85243752,0.5228291,-0.68139834,0.73191277,0,0)"
         ry="0.26994649"
         rx="0.20948927" />
      <ellipse
         style="opacity:1;fill:#000000;fill-opacity:1;stroke:#000000;stroke-width:0;stroke-miterlimit:4;stroke-dasharray:none;stroke-opacity:1"
         id="path930-6"
         cx="196.89798"
         cy="261.52142"
         rx="0.14589441"
         ry="0.18799856"
         transform="matrix(0.87738968,0.47977843,-0.64414671,0.76490196,0,0)" />
      <ellipse
         style="opacity:1;fill:#000000;fill-opacity:1;stroke:#000000;stroke-width:0;stroke-miterlimit:4;stroke-dasharray:none;stroke-opacity:1"
         id="path930-2"
         cx="114.36214"
         cy="297.48392"
         rx="0.16400363"
         ry="0.211334"
         transform="matrix(0.98527631,0.17096955,-0.36284454,0.93184969,0,0)" />
      <ellipse
         style="opacity:1;fill:#000000;fill-opacity:1;stroke:#000000;stroke-width:0;stroke-miterlimit:4;stroke-dasharray:none;stroke-opacity:1"
         id="path930-61"
         cx="173.0607"
         cy="274.07098"
         rx="0.10641558"
         ry="0.13712642"
         transform="matrix(0.92177149,0.38773358,-0.56272336,0.82664528,0,0)" />
      <ellipse
         style="opacity:1;fill:#000000;fill-opacity:1;stroke:#000000;stroke-width:0;stroke-miterlimit:4;stroke-dasharray:none;stroke-opacity:1"
         id="path930-6-8"
         cx="104.89081"
         cy="295.20538"
         rx="0.07318148"
         ry="0.094301187"
         transform="matrix(0.99041838,0.13809939,-0.33164544,0.9434041,0,0)" />
      <ellipse
         style="opacity:1;fill:#000000;fill-opacity:1;stroke:#000000;stroke-width:0;stroke-miterlimit:4;stroke-dasharray:none;stroke-opacity:1"
         id="path930-6-8-2"
         cx="37.803047"
         cy="297.65948"
         rx="0.04905935"
         ry="0.063217565"
         transform="matrix(0.99558103,-0.09390636,-0.10526474,0.99444423,0,0)" />
      <ellipse
         style="opacity:1;fill:#000000;fill-opacity:1;stroke:#000000;stroke-width:0;stroke-miterlimit:4;stroke-dasharray:none;stroke-opacity:1"
         id="path930-2-0"
         cx="118.96792"
         cy="294.65817"
         rx="0.12265098"
         ry="0.15804726"
         transform="matrix(0.98259487,0.18576144,-0.37681162,0.92628991,0,0)" />
      <ellipse
         style="opacity:1;fill:#000000;fill-opacity:1;stroke:#000000;stroke-width:0;stroke-miterlimit:4;stroke-dasharray:none;stroke-opacity:1"
         id="path930-2-0-2"
         cx="37.975048"
         cy="299.15295"
         rx="0.076703638"
         ry="0.098839812"
         transform="matrix(0.995516,-0.09459328,-0.10457856,0.99451663,0,0)" />
      <ellipse
         transform="matrix(0.92211789,-0.38690902,0.19648538,0.98050675,0,0)"
         ry="0.066275716"
         rx="0.051432598"
         cy="278.39203"
         cx="-51.989113"
         id="path930-2-0-3"
         style="opacity:1;fill:#000000;fill-opacity:1;stroke:#000000;stroke-width:0;stroke-miterlimit:4;stroke-dasharray:none;stroke-opacity:1" />
      <ellipse
         transform="matrix(0.85510446,-0.51845574,0.33870386,0.94089303,0,0)"
         ry="0.041526664"
         rx="0.032226346"
         cy="258.74478"
         cx="-94.443192"
         id="path930-2-0-3-3"
         style="opacity:1;fill:#000000;fill-opacity:1;stroke:#000000;stroke-width:0;stroke-miterlimit:4;stroke-dasharray:none;stroke-opacity:1" />
      <path
         sodipodi:nodetypes="cccc"
         inkscape:connector-curvature="0"
         id="path927"
         d="m 0.65303031,296.90379 c 4.21687239,-1.65131 6.97093159,-4.29468 5.53011899,-6.11707 1.6306984,1.82306 -1.4982139,4.77541 -4.7844554,6.49453 z"
         style="fill:#000000;fill-opacity:1;stroke:#000000;stroke-width:0.03287993;stroke-linecap:butt;stroke-linejoin:bevel;stroke-miterlimit:4;stroke-dasharray:none;stroke-opacity:1" />
      <path
         sodipodi:nodetypes="cccc"
         inkscape:connector-curvature="0"
         id="path927-6"
         d="m 1.9222344,297.52777 c 3.0123439,-1.80573 5.7180934,-4.72406 4.451872,-6.58094 1.4572787,1.85327 -1.5210055,5.08635 -3.6374379,6.98015 z"
         style="fill:#000000;fill-opacity:1;stroke:#000000;stroke-width:0.03287993;stroke-linecap:butt;stroke-linejoin:bevel;stroke-miterlimit:4;stroke-dasharray:none;stroke-opacity:1" />
      <ellipse
         style="opacity:1;fill:#000000;fill-opacity:1;stroke:#000000;stroke-width:0;stroke-miterlimit:4;stroke-dasharray:none;stroke-opacity:1"
         id="path930-6-8-2-6"
         cx="-25.34901"
         cy="285.90167"
         rx="0.035625327"
         ry="0.045906566"
         transform="matrix(0.95328751,-0.30206443,0.10714638,0.99424326,0,0)" />
      <ellipse
         transform="matrix(0.85510447,-0.51845574,0.33870387,0.94089303,0,0)"
         ry="0.029818704"
         rx="0.023140501"
         cy="258.30304"
         cx="-94.301849"
         id="path930-2-0-3-3-3"
         style="opacity:1;fill:#000000;fill-opacity:1;stroke:#000000;stroke-width:0;stroke-miterlimit:4;stroke-dasharray:none;stroke-opacity:1" />
    </g>
  </g>
</svg>
