<?xml version="1.0" encoding="UTF-8" standalone="no"?>
<!-- Created with Inkscape (http://www.inkscape.org/) -->

<svg
   xmlns:dc="http://purl.org/dc/elements/1.1/"
   xmlns:cc="http://creativecommons.org/ns#"
   xmlns:rdf="http://www.w3.org/1999/02/22-rdf-syntax-ns#"
   xmlns:svg="http://www.w3.org/2000/svg"
   xmlns="http://www.w3.org/2000/svg"
   xmlns:xlink="http://www.w3.org/1999/xlink"
   xmlns:sodipodi="http://sodipodi.sourceforge.net/DTD/sodipodi-0.dtd"
   xmlns:inkscape="http://www.inkscape.org/namespaces/inkscape"
   width="35"
   height="45"
   viewBox="0 0 9.2604169 11.90625"
   version="1.1"
   id="svg8"
   sodipodi:docname="74-six-jours.svg"
   inkscape:version="0.92.2 5c3e80d, 2017-08-06"
   inkscape:export-filename="/home/etienne/Documents/CAF/labels/70x90/74-six-jours.png"
   inkscape:export-xdpi="191.21904"
   inkscape:export-ydpi="191.21904">
  <defs
     id="defs2">
    <linearGradient
       id="linearGradient1174"
       inkscape:collect="always">
      <stop
         id="stop1257"
         offset="0"
         style="stop-color:#d8c024;stop-opacity:1" />
      <stop
         id="stop1203"
         offset="0.3191486"
         style="stop-color:#e2d05e;stop-opacity:1;" />
      <stop
         style="stop-color:#e9db86;stop-opacity:1;"
         offset="0.52734768"
         id="stop1205" />
      <stop
         id="stop1197"
         offset="1"
         style="stop-color:#ffffff;stop-opacity:1" />
    </linearGradient>
    <path
       style="opacity:0.98000004;fill:none;fill-opacity:1;fill-rule:nonzero;stroke:none;stroke-width:0.01176898;stroke-miterlimit:4;stroke-dasharray:none;stroke-opacity:1"
       d="m -4.1294545e-5,294.34829 c 0,0 2.647074194545,-1.50592 6.491807494545,-1.49872 4.0941928,-0.007 6.7372928,1.48403 6.7372928,1.48403"
       id="path5715"
       inkscape:connector-curvature="0"
       sodipodi:nodetypes="ccc" />
    <path
       style="opacity:0.98000004;fill:none;fill-opacity:1;fill-rule:nonzero;stroke:none;stroke-width:0.01176898;stroke-miterlimit:4;stroke-dasharray:none;stroke-opacity:1"
       d="m -4.1294545e-5,294.34829 c 0,0 2.647074194545,-1.50592 6.491807494545,-1.49872 4.0941928,-0.007 6.7372928,1.48403 6.7372928,1.48403"
       id="path5715-8"
       inkscape:connector-curvature="0"
       sodipodi:nodetypes="ccc" />
    <path
       style="opacity:0.98000004;fill:none;fill-opacity:1;fill-rule:nonzero;stroke:none;stroke-width:0.01176898;stroke-miterlimit:4;stroke-dasharray:none;stroke-opacity:1"
       d="m -4.1294545e-5,294.34829 c 0,0 2.647074194545,-1.50592 6.491807494545,-1.49872 4.0941928,-0.007 6.7372928,1.48403 6.7372928,1.48403"
       id="path5715-7"
       inkscape:connector-curvature="0"
       sodipodi:nodetypes="ccc" />
    <path
       style="opacity:0.98000004;fill:none;fill-opacity:1;fill-rule:nonzero;stroke:none;stroke-width:0.01176898;stroke-miterlimit:4;stroke-dasharray:none;stroke-opacity:1"
       d="m -4.1294545e-5,294.34829 c 0,0 2.647074194545,-1.50592 6.491807494545,-1.49872 4.0941928,-0.007 6.7372928,1.48403 6.7372928,1.48403"
       id="path5715-2"
       inkscape:connector-curvature="0"
       sodipodi:nodetypes="ccc" />
    <path
       inkscape:connector-curvature="0"
       id="path4636-3"
       d="m 13.002663,293.85892 a 2.8764884,2.8764884 0 0 1 -2.876488,2.87649 2.8764884,2.8764884 0 0 1 -2.8764885,-2.87649 2.8764884,2.8764884 0 0 1 2.8764885,-2.87649 2.8764884,2.8764884 0 0 1 2.876488,2.87649 z"
       style="opacity:1;fill:#000000;fill-opacity:1;fill-rule:nonzero;stroke:none;stroke-width:0.17591217;stroke-linecap:round;stroke-linejoin:bevel;stroke-miterlimit:4;stroke-dasharray:none;stroke-opacity:1;paint-order:normal" />
    <path
       inkscape:connector-curvature="0"
       id="path4636-1-3"
       d="m 7.2496865,293.85892 a 2.8764884,2.8764884 0 0 0 2.8764895,2.87649 2.8764884,2.8764884 0 0 0 2.876491,-2.87649 2.8764884,2.8764884 0 0 0 -2.876491,-2.87649 2.8764884,2.8764884 0 0 0 -2.8764895,2.87649 z"
       style="opacity:1;fill:#000000;fill-opacity:1;fill-rule:nonzero;stroke:none;stroke-width:0.17591217;stroke-linecap:round;stroke-linejoin:bevel;stroke-miterlimit:4;stroke-dasharray:none;stroke-opacity:1;paint-order:normal" />
    <linearGradient
       id="linearGradient878"
       inkscape:collect="always">
      <stop
         id="stop874"
         offset="0"
         style="stop-color:#4d5857;stop-opacity:1" />
      <stop
         id="stop876"
         offset="1"
         style="stop-color:#baf5f6;stop-opacity:1" />
    </linearGradient>
    <linearGradient
       inkscape:collect="always"
       xlink:href="#linearGradient878"
       id="linearGradient6751"
       x1="0.34775239"
       y1="294.18268"
       x2="6.4939933"
       y2="293.62885"
       gradientUnits="userSpaceOnUse" />
    <clipPath
       clipPathUnits="userSpaceOnUse"
       id="clipPath1100">
      <path
         sodipodi:nodetypes="cccccccc"
         inkscape:connector-curvature="0"
         id="path1102"
         d="m 8.9131512,291.5595 c -2.817108,0.75484 -4.146603,0.39806 -4.146603,0.39806 -2.0726546,-0.29548 -3.2148063,-1.60078 -4.43581903,-3.11287 v 6.83239 c 0,0.66227 0.33059254,0.9922 0.99218753,0.9922 h 6.6145834 c 0.6619907,0 0.9921875,-0.32967 0.9921875,-0.9922 z"
         style="opacity:1;fill:#ffffff;fill-opacity:1;fill-rule:nonzero;stroke:#000000;stroke-width:0.13227685;stroke-miterlimit:4;stroke-dasharray:none;stroke-opacity:1" />
    </clipPath>
    <clipPath
       clipPathUnits="userSpaceOnUse"
       id="clipPath1106">
      <path
         sodipodi:nodetypes="cccccccc"
         inkscape:connector-curvature="0"
         id="path1108"
         d="m 8.4853448,291.67274 c -2.8171082,0.75484 -3.718804,0.28482 -3.718804,0.28482 -2.0726546,-0.29548 -3.2148063,-1.60078 -4.43581904,-3.11287 v 6.83239 c 0,0.66227 0.33059249,0.9922 0.99218754,0.9922 H 7.937493 c 0.6619898,0 0.9921869,-0.32967 0.9921869,-0.9922 z"
         style="opacity:1;fill:#ffffff;fill-opacity:1;fill-rule:nonzero;stroke:#000000;stroke-width:0.13227685;stroke-miterlimit:4;stroke-dasharray:none;stroke-opacity:1" />
    </clipPath>
    <clipPath
       clipPathUnits="userSpaceOnUse"
       id="clipPath1106-3">
      <path
         sodipodi:nodetypes="cccccccc"
         inkscape:connector-curvature="0"
         id="path1108-6"
         d="m 8.4853448,291.67274 c -2.8171082,0.75484 -3.718804,0.28482 -3.718804,0.28482 -2.0726546,-0.29548 -3.2148063,-1.60078 -4.43581904,-3.11287 v 6.83239 c 0,0.66227 0.33059249,0.9922 0.99218754,0.9922 H 7.937493 c 0.6619898,0 0.9921869,-0.32967 0.9921869,-0.9922 z"
         style="opacity:1;fill:#ffffff;fill-opacity:1;fill-rule:nonzero;stroke:#000000;stroke-width:0.13227685;stroke-miterlimit:4;stroke-dasharray:none;stroke-opacity:1" />
    </clipPath>
    <clipPath
       clipPathUnits="userSpaceOnUse"
       id="clipPath1106-3-5">
      <path
         sodipodi:nodetypes="cccccccc"
         inkscape:connector-curvature="0"
         id="path1108-6-3"
         d="m 8.4853448,291.67274 c -2.8171082,0.75484 -3.718804,0.28482 -3.718804,0.28482 -2.0726546,-0.29548 -3.2148063,-1.60078 -4.43581904,-3.11287 v 6.83239 c 0,0.66227 0.33059249,0.9922 0.99218754,0.9922 H 7.937493 c 0.6619898,0 0.9921869,-0.32967 0.9921869,-0.9922 z"
         style="opacity:1;fill:#ffffff;fill-opacity:1;fill-rule:nonzero;stroke:#000000;stroke-width:0.13227685;stroke-miterlimit:4;stroke-dasharray:none;stroke-opacity:1" />
    </clipPath>
    <clipPath
       clipPathUnits="userSpaceOnUse"
       id="clipPath1106-3-5-6">
      <path
         sodipodi:nodetypes="cccccccc"
         inkscape:connector-curvature="0"
         id="path1108-6-3-2"
         d="m 8.4853448,291.67274 c -2.8171082,0.75484 -3.718804,0.28482 -3.718804,0.28482 -2.0726546,-0.29548 -3.2148063,-1.60078 -4.43581904,-3.11287 v 6.83239 c 0,0.66227 0.33059249,0.9922 0.99218754,0.9922 H 7.937493 c 0.6619898,0 0.9921869,-0.32967 0.9921869,-0.9922 z"
         style="opacity:1;fill:#ffffff;fill-opacity:1;fill-rule:nonzero;stroke:#000000;stroke-width:0.13227685;stroke-miterlimit:4;stroke-dasharray:none;stroke-opacity:1" />
    </clipPath>
    <clipPath
       clipPathUnits="userSpaceOnUse"
       id="clipPath1106-3-5-6-1">
      <path
         sodipodi:nodetypes="cccccccc"
         inkscape:connector-curvature="0"
         id="path1108-6-3-2-2"
         d="m 8.4853448,291.67274 c -2.8171082,0.75484 -3.718804,0.28482 -3.718804,0.28482 -2.0726546,-0.29548 -3.2148063,-1.60078 -4.43581904,-3.11287 v 6.83239 c 0,0.66227 0.33059249,0.9922 0.99218754,0.9922 H 7.937493 c 0.6619898,0 0.9921869,-0.32967 0.9921869,-0.9922 z"
         style="opacity:1;fill:#ffffff;fill-opacity:1;fill-rule:nonzero;stroke:#000000;stroke-width:0.13227685;stroke-miterlimit:4;stroke-dasharray:none;stroke-opacity:1" />
    </clipPath>
    <clipPath
       clipPathUnits="userSpaceOnUse"
       id="clipPath1106-3-5-6-1-0">
      <path
         sodipodi:nodetypes="cccccccc"
         inkscape:connector-curvature="0"
         id="path1108-6-3-2-2-9"
         d="m 8.4853448,291.67274 c -2.8171082,0.75484 -3.718804,0.28482 -3.718804,0.28482 -2.0726546,-0.29548 -3.2148063,-1.60078 -4.43581904,-3.11287 v 6.83239 c 0,0.66227 0.33059249,0.9922 0.99218754,0.9922 H 7.937493 c 0.6619898,0 0.9921869,-0.32967 0.9921869,-0.9922 z"
         style="opacity:1;fill:#ffffff;fill-opacity:1;fill-rule:nonzero;stroke:#000000;stroke-width:0.13227685;stroke-miterlimit:4;stroke-dasharray:none;stroke-opacity:1" />
    </clipPath>
    <clipPath
       clipPathUnits="userSpaceOnUse"
       id="clipPath1106-3-5-6-1-6">
      <path
         sodipodi:nodetypes="cccccccc"
         inkscape:connector-curvature="0"
         id="path1108-6-3-2-2-0"
         d="m 8.4853448,291.67274 c -2.8171082,0.75484 -3.718804,0.28482 -3.718804,0.28482 -2.0726546,-0.29548 -3.2148063,-1.60078 -4.43581904,-3.11287 v 6.83239 c 0,0.66227 0.33059249,0.9922 0.99218754,0.9922 H 7.937493 c 0.6619898,0 0.9921869,-0.32967 0.9921869,-0.9922 z"
         style="opacity:1;fill:#ffffff;fill-opacity:1;fill-rule:nonzero;stroke:#000000;stroke-width:0.13227685;stroke-miterlimit:4;stroke-dasharray:none;stroke-opacity:1" />
    </clipPath>
    <clipPath
       clipPathUnits="userSpaceOnUse"
       id="clipPath1106-3-5-6-6">
      <path
         sodipodi:nodetypes="cccccccc"
         inkscape:connector-curvature="0"
         id="path1108-6-3-2-26"
         d="m 8.4853448,291.67274 c -2.8171082,0.75484 -3.718804,0.28482 -3.718804,0.28482 -2.0726546,-0.29548 -3.2148063,-1.60078 -4.43581904,-3.11287 v 6.83239 c 0,0.66227 0.33059249,0.9922 0.99218754,0.9922 H 7.937493 c 0.6619898,0 0.9921869,-0.32967 0.9921869,-0.9922 z"
         style="opacity:1;fill:#ffffff;fill-opacity:1;fill-rule:nonzero;stroke:#000000;stroke-width:0.13227685;stroke-miterlimit:4;stroke-dasharray:none;stroke-opacity:1" />
    </clipPath>
    <clipPath
       clipPathUnits="userSpaceOnUse"
       id="clipPath1106-3-5-6-7">
      <path
         sodipodi:nodetypes="cccccccc"
         inkscape:connector-curvature="0"
         id="path1108-6-3-2-9"
         d="m 8.4853448,291.67274 c -2.8171082,0.75484 -3.718804,0.28482 -3.718804,0.28482 -2.0726546,-0.29548 -3.2148063,-1.60078 -4.43581904,-3.11287 v 6.83239 c 0,0.66227 0.33059249,0.9922 0.99218754,0.9922 H 7.937493 c 0.6619898,0 0.9921869,-0.32967 0.9921869,-0.9922 z"
         style="opacity:1;fill:#ffffff;fill-opacity:1;fill-rule:nonzero;stroke:#000000;stroke-width:0.13227685;stroke-miterlimit:4;stroke-dasharray:none;stroke-opacity:1" />
    </clipPath>
    <clipPath
       clipPathUnits="userSpaceOnUse"
       id="clipPath1106-3-5-0">
      <path
         sodipodi:nodetypes="cccccccc"
         inkscape:connector-curvature="0"
         id="path1108-6-3-23"
         d="m 8.4853448,291.67274 c -2.8171082,0.75484 -3.718804,0.28482 -3.718804,0.28482 -2.0726546,-0.29548 -3.2148063,-1.60078 -4.43581904,-3.11287 v 6.83239 c 0,0.66227 0.33059249,0.9922 0.99218754,0.9922 H 7.937493 c 0.6619898,0 0.9921869,-0.32967 0.9921869,-0.9922 z"
         style="opacity:1;fill:#ffffff;fill-opacity:1;fill-rule:nonzero;stroke:#000000;stroke-width:0.13227685;stroke-miterlimit:4;stroke-dasharray:none;stroke-opacity:1" />
    </clipPath>
    <clipPath
       clipPathUnits="userSpaceOnUse"
       id="clipPath1106-3-5-0-5">
      <path
         sodipodi:nodetypes="cccccccc"
         inkscape:connector-curvature="0"
         id="path1108-6-3-23-9"
         d="m 8.4853448,291.67274 c -2.8171082,0.75484 -3.718804,0.28482 -3.718804,0.28482 -2.0726546,-0.29548 -3.2148063,-1.60078 -4.43581904,-3.11287 v 6.83239 c 0,0.66227 0.33059249,0.9922 0.99218754,0.9922 H 7.937493 c 0.6619898,0 0.9921869,-0.32967 0.9921869,-0.9922 z"
         style="opacity:1;fill:#ffffff;fill-opacity:1;fill-rule:nonzero;stroke:#000000;stroke-width:0.13227685;stroke-miterlimit:4;stroke-dasharray:none;stroke-opacity:1" />
    </clipPath>
    <clipPath
       clipPathUnits="userSpaceOnUse"
       id="clipPath1106-3-5-0-5-2">
      <path
         sodipodi:nodetypes="cccccccc"
         inkscape:connector-curvature="0"
         id="path1108-6-3-23-9-8"
         d="m 8.4853448,291.67274 c -2.8171082,0.75484 -3.718804,0.28482 -3.718804,0.28482 -2.0726546,-0.29548 -3.2148063,-1.60078 -4.43581904,-3.11287 v 6.83239 c 0,0.66227 0.33059249,0.9922 0.99218754,0.9922 H 7.937493 c 0.6619898,0 0.9921869,-0.32967 0.9921869,-0.9922 z"
         style="opacity:1;fill:#ffffff;fill-opacity:1;fill-rule:nonzero;stroke:#000000;stroke-width:0.13227685;stroke-miterlimit:4;stroke-dasharray:none;stroke-opacity:1" />
    </clipPath>
    <clipPath
       clipPathUnits="userSpaceOnUse"
       id="clipPath1106-3-3">
      <path
         sodipodi:nodetypes="cccccccc"
         inkscape:connector-curvature="0"
         id="path1108-6-1"
         d="m 8.4853448,291.67274 c -2.8171082,0.75484 -3.718804,0.28482 -3.718804,0.28482 -2.0726546,-0.29548 -3.2148063,-1.60078 -4.43581904,-3.11287 v 6.83239 c 0,0.66227 0.33059249,0.9922 0.99218754,0.9922 H 7.937493 c 0.6619898,0 0.9921869,-0.32967 0.9921869,-0.9922 z"
         style="opacity:1;fill:#ffffff;fill-opacity:1;fill-rule:nonzero;stroke:#000000;stroke-width:0.13227685;stroke-miterlimit:4;stroke-dasharray:none;stroke-opacity:1" />
    </clipPath>
    <clipPath
       clipPathUnits="userSpaceOnUse"
       id="clipPath1106-3-5-4">
      <path
         sodipodi:nodetypes="cccccccc"
         inkscape:connector-curvature="0"
         id="path1108-6-3-7"
         d="m 8.4853448,291.67274 c -2.8171082,0.75484 -3.718804,0.28482 -3.718804,0.28482 -2.0726546,-0.29548 -3.2148063,-1.60078 -4.43581904,-3.11287 v 6.83239 c 0,0.66227 0.33059249,0.9922 0.99218754,0.9922 H 7.937493 c 0.6619898,0 0.9921869,-0.32967 0.9921869,-0.9922 z"
         style="opacity:1;fill:#ffffff;fill-opacity:1;fill-rule:nonzero;stroke:#000000;stroke-width:0.13227685;stroke-miterlimit:4;stroke-dasharray:none;stroke-opacity:1" />
    </clipPath>
    <clipPath
       clipPathUnits="userSpaceOnUse"
       id="clipPath1106-3-5-4-4">
      <path
         sodipodi:nodetypes="cccccccc"
         inkscape:connector-curvature="0"
         id="path1108-6-3-7-5"
         d="m 8.4853448,291.67274 c -2.8171082,0.75484 -3.718804,0.28482 -3.718804,0.28482 -2.0726546,-0.29548 -3.2148063,-1.60078 -4.43581904,-3.11287 v 6.83239 c 0,0.66227 0.33059249,0.9922 0.99218754,0.9922 H 7.937493 c 0.6619898,0 0.9921869,-0.32967 0.9921869,-0.9922 z"
         style="opacity:1;fill:#ffffff;fill-opacity:1;fill-rule:nonzero;stroke:#000000;stroke-width:0.13227685;stroke-miterlimit:4;stroke-dasharray:none;stroke-opacity:1" />
    </clipPath>
    <clipPath
       clipPathUnits="userSpaceOnUse"
       id="clipPath1106-3-5-03">
      <path
         sodipodi:nodetypes="cccccccc"
         inkscape:connector-curvature="0"
         id="path1108-6-3-6"
         d="m 8.4853448,291.67274 c -2.8171082,0.75484 -3.718804,0.28482 -3.718804,0.28482 -2.0726546,-0.29548 -3.2148063,-1.60078 -4.43581904,-3.11287 v 6.83239 c 0,0.66227 0.33059249,0.9922 0.99218754,0.9922 H 7.937493 c 0.6619898,0 0.9921869,-0.32967 0.9921869,-0.9922 z"
         style="opacity:1;fill:#ffffff;fill-opacity:1;fill-rule:nonzero;stroke:#000000;stroke-width:0.13227685;stroke-miterlimit:4;stroke-dasharray:none;stroke-opacity:1" />
    </clipPath>
    <linearGradient
       inkscape:collect="always"
       xlink:href="#linearGradient1174"
       id="linearGradient1330"
       x1="0.59275275"
       y1="296.22928"
       x2="1.966224"
       y2="291.60907"
       gradientUnits="userSpaceOnUse" />
    <clipPath
       clipPathUnits="userSpaceOnUse"
       id="clipPath1106-3-5-5">
      <path
         sodipodi:nodetypes="cccccccc"
         inkscape:connector-curvature="0"
         id="path1108-6-3-4"
         d="m 8.4853448,291.67274 c -2.8171082,0.75484 -3.718804,0.28482 -3.718804,0.28482 -2.0726546,-0.29548 -3.2148063,-1.60078 -4.43581904,-3.11287 v 6.83239 c 0,0.66227 0.33059249,0.9922 0.99218754,0.9922 H 7.937493 c 0.6619898,0 0.9921869,-0.32967 0.9921869,-0.9922 z"
         style="opacity:1;fill:#ffffff;fill-opacity:1;fill-rule:nonzero;stroke:#000000;stroke-width:0.13227685;stroke-miterlimit:4;stroke-dasharray:none;stroke-opacity:1" />
    </clipPath>
    <clipPath
       clipPathUnits="userSpaceOnUse"
       id="clipPath1106-3-5-0-7">
      <path
         sodipodi:nodetypes="cccccccc"
         inkscape:connector-curvature="0"
         id="path1108-6-3-23-6"
         d="m 8.4853448,291.67274 c -2.8171082,0.75484 -3.718804,0.28482 -3.718804,0.28482 -2.0726546,-0.29548 -3.2148063,-1.60078 -4.43581904,-3.11287 v 6.83239 c 0,0.66227 0.33059249,0.9922 0.99218754,0.9922 H 7.937493 c 0.6619898,0 0.9921869,-0.32967 0.9921869,-0.9922 z"
         style="opacity:1;fill:#ffffff;fill-opacity:1;fill-rule:nonzero;stroke:#000000;stroke-width:0.13227685;stroke-miterlimit:4;stroke-dasharray:none;stroke-opacity:1" />
    </clipPath>
    <clipPath
       clipPathUnits="userSpaceOnUse"
       id="clipPath1106-3-5-0-5-5">
      <path
         sodipodi:nodetypes="cccccccc"
         inkscape:connector-curvature="0"
         id="path1108-6-3-23-9-6"
         d="m 8.4853448,291.67274 c -2.8171082,0.75484 -3.718804,0.28482 -3.718804,0.28482 -2.0726546,-0.29548 -3.2148063,-1.60078 -4.43581904,-3.11287 v 6.83239 c 0,0.66227 0.33059249,0.9922 0.99218754,0.9922 H 7.937493 c 0.6619898,0 0.9921869,-0.32967 0.9921869,-0.9922 z"
         style="opacity:1;fill:#ffffff;fill-opacity:1;fill-rule:nonzero;stroke:#000000;stroke-width:0.13227685;stroke-miterlimit:4;stroke-dasharray:none;stroke-opacity:1" />
    </clipPath>
    <clipPath
       clipPathUnits="userSpaceOnUse"
       id="clipPath1106-3-3-9">
      <path
         sodipodi:nodetypes="cccccccc"
         inkscape:connector-curvature="0"
         id="path1108-6-1-3"
         d="m 8.4853448,291.67274 c -2.8171082,0.75484 -3.718804,0.28482 -3.718804,0.28482 -2.0726546,-0.29548 -3.2148063,-1.60078 -4.43581904,-3.11287 v 6.83239 c 0,0.66227 0.33059249,0.9922 0.99218754,0.9922 H 7.937493 c 0.6619898,0 0.9921869,-0.32967 0.9921869,-0.9922 z"
         style="opacity:1;fill:#ffffff;fill-opacity:1;fill-rule:nonzero;stroke:#000000;stroke-width:0.13227685;stroke-miterlimit:4;stroke-dasharray:none;stroke-opacity:1" />
    </clipPath>
    <clipPath
       clipPathUnits="userSpaceOnUse"
       id="clipPath1106-3-5-4-7">
      <path
         sodipodi:nodetypes="cccccccc"
         inkscape:connector-curvature="0"
         id="path1108-6-3-7-4"
         d="m 8.4853448,291.67274 c -2.8171082,0.75484 -3.718804,0.28482 -3.718804,0.28482 -2.0726546,-0.29548 -3.2148063,-1.60078 -4.43581904,-3.11287 v 6.83239 c 0,0.66227 0.33059249,0.9922 0.99218754,0.9922 H 7.937493 c 0.6619898,0 0.9921869,-0.32967 0.9921869,-0.9922 z"
         style="opacity:1;fill:#ffffff;fill-opacity:1;fill-rule:nonzero;stroke:#000000;stroke-width:0.13227685;stroke-miterlimit:4;stroke-dasharray:none;stroke-opacity:1" />
    </clipPath>
    <clipPath
       clipPathUnits="userSpaceOnUse"
       id="clipPath1106-3-5-03-5">
      <path
         sodipodi:nodetypes="cccccccc"
         inkscape:connector-curvature="0"
         id="path1108-6-3-6-2"
         d="m 8.4853448,291.67274 c -2.8171082,0.75484 -3.718804,0.28482 -3.718804,0.28482 -2.0726546,-0.29548 -3.2148063,-1.60078 -4.43581904,-3.11287 v 6.83239 c 0,0.66227 0.33059249,0.9922 0.99218754,0.9922 H 7.937493 c 0.6619898,0 0.9921869,-0.32967 0.9921869,-0.9922 z"
         style="opacity:1;fill:#ffffff;fill-opacity:1;fill-rule:nonzero;stroke:#000000;stroke-width:0.13227685;stroke-miterlimit:4;stroke-dasharray:none;stroke-opacity:1" />
    </clipPath>
    <clipPath
       clipPathUnits="userSpaceOnUse"
       id="clipPath1106-3-5-4-4-5">
      <path
         sodipodi:nodetypes="cccccccc"
         inkscape:connector-curvature="0"
         id="path1108-6-3-7-5-4"
         d="m 8.4853448,291.67274 c -2.8171082,0.75484 -3.718804,0.28482 -3.718804,0.28482 -2.0726546,-0.29548 -3.2148063,-1.60078 -4.43581904,-3.11287 v 6.83239 c 0,0.66227 0.33059249,0.9922 0.99218754,0.9922 H 7.937493 c 0.6619898,0 0.9921869,-0.32967 0.9921869,-0.9922 z"
         style="opacity:1;fill:#ffffff;fill-opacity:1;fill-rule:nonzero;stroke:#000000;stroke-width:0.13227685;stroke-miterlimit:4;stroke-dasharray:none;stroke-opacity:1" />
    </clipPath>
    <clipPath
       clipPathUnits="userSpaceOnUse"
       id="clipPath1106-3-5-0-7-3">
      <path
         sodipodi:nodetypes="cccccccc"
         inkscape:connector-curvature="0"
         id="path1108-6-3-23-6-6"
         d="m 8.4853448,291.67274 c -2.8171082,0.75484 -3.718804,0.28482 -3.718804,0.28482 -2.0726546,-0.29548 -3.2148063,-1.60078 -4.43581904,-3.11287 v 6.83239 c 0,0.66227 0.33059249,0.9922 0.99218754,0.9922 H 7.937493 c 0.6619898,0 0.9921869,-0.32967 0.9921869,-0.9922 z"
         style="opacity:1;fill:#ffffff;fill-opacity:1;fill-rule:nonzero;stroke:#000000;stroke-width:0.13227685;stroke-miterlimit:4;stroke-dasharray:none;stroke-opacity:1" />
    </clipPath>
    <clipPath
       clipPathUnits="userSpaceOnUse"
       id="clipPath1106-3-5-4-4-5-5">
      <path
         sodipodi:nodetypes="cccccccc"
         inkscape:connector-curvature="0"
         id="path1108-6-3-7-5-4-3"
         d="m 8.4853448,291.67274 c -2.8171082,0.75484 -3.718804,0.28482 -3.718804,0.28482 -2.0726546,-0.29548 -3.2148063,-1.60078 -4.43581904,-3.11287 v 6.83239 c 0,0.66227 0.33059249,0.9922 0.99218754,0.9922 H 7.937493 c 0.6619898,0 0.9921869,-0.32967 0.9921869,-0.9922 z"
         style="opacity:1;fill:#ffffff;fill-opacity:1;fill-rule:nonzero;stroke:#000000;stroke-width:0.13227685;stroke-miterlimit:4;stroke-dasharray:none;stroke-opacity:1" />
    </clipPath>
    <clipPath
       clipPathUnits="userSpaceOnUse"
       id="clipPath1106-3-5-4-4-5-6">
      <path
         sodipodi:nodetypes="cccccccc"
         inkscape:connector-curvature="0"
         id="path1108-6-3-7-5-4-2"
         d="m 8.4853448,291.67274 c -2.8171082,0.75484 -3.718804,0.28482 -3.718804,0.28482 -2.0726546,-0.29548 -3.2148063,-1.60078 -4.43581904,-3.11287 v 6.83239 c 0,0.66227 0.33059249,0.9922 0.99218754,0.9922 H 7.937493 c 0.6619898,0 0.9921869,-0.32967 0.9921869,-0.9922 z"
         style="opacity:1;fill:#ffffff;fill-opacity:1;fill-rule:nonzero;stroke:#000000;stroke-width:0.13227685;stroke-miterlimit:4;stroke-dasharray:none;stroke-opacity:1" />
    </clipPath>
    <clipPath
       clipPathUnits="userSpaceOnUse"
       id="clipPath1106-3-5-4-4-5-5-1">
      <path
         sodipodi:nodetypes="cccccccc"
         inkscape:connector-curvature="0"
         id="path1108-6-3-7-5-4-3-2"
         d="m 8.4853448,291.67274 c -2.8171082,0.75484 -3.718804,0.28482 -3.718804,0.28482 -2.0726546,-0.29548 -3.2148063,-1.60078 -4.43581904,-3.11287 v 6.83239 c 0,0.66227 0.33059249,0.9922 0.99218754,0.9922 H 7.937493 c 0.6619898,0 0.9921869,-0.32967 0.9921869,-0.9922 z"
         style="opacity:1;fill:#ffffff;fill-opacity:1;fill-rule:nonzero;stroke:#000000;stroke-width:0.13227685;stroke-miterlimit:4;stroke-dasharray:none;stroke-opacity:1" />
    </clipPath>
    <linearGradient
       inkscape:collect="always"
       xlink:href="#linearGradient1174"
       id="linearGradient949"
       x1="7.0615191"
       y1="293.11465"
       x2="8.5826483"
       y2="291.0567"
       gradientUnits="userSpaceOnUse" />
    <linearGradient
       inkscape:collect="always"
       xlink:href="#linearGradient1174"
       id="linearGradient968"
       gradientUnits="userSpaceOnUse"
       x1="8.4880705"
       y1="296.38873"
       x2="5.7295461"
       y2="292.64694"
       gradientTransform="matrix(-1,0,0,1,9.2597657,0)" />
    <linearGradient
       inkscape:collect="always"
       xlink:href="#linearGradient1174"
       id="linearGradient987"
       gradientUnits="userSpaceOnUse"
       x1="5.0994382"
       y1="292.07541"
       x2="6.1086674"
       y2="291.32434" />
  </defs>
  <sodipodi:namedview
     id="base"
     pagecolor="#ffffff"
     bordercolor="#666666"
     borderopacity="1.0"
     inkscape:pageopacity="0.0"
     inkscape:pageshadow="2"
     inkscape:zoom="5.656854"
     inkscape:cx="10.329515"
     inkscape:cy="19.142141"
     inkscape:document-units="px"
     inkscape:current-layer="layer1"
     showgrid="false"
     units="px"
     inkscape:window-width="1366"
     inkscape:window-height="704"
     inkscape:window-x="0"
     inkscape:window-y="27"
     inkscape:window-maximized="1"
     showguides="true" />
  <metadata
     id="metadata5">
    <rdf:RDF>
      <cc:Work
         rdf:about="">
        <dc:format>image/svg+xml</dc:format>
        <dc:type
           rdf:resource="http://purl.org/dc/dcmitype/StillImage" />
        <dc:title></dc:title>
        <cc:license
           rdf:resource="http://creativecommons.org/publicdomain/zero/1.0/" />
      </cc:Work>
      <cc:License
         rdf:about="http://creativecommons.org/publicdomain/zero/1.0/">
        <cc:permits
           rdf:resource="http://creativecommons.org/ns#Reproduction" />
        <cc:permits
           rdf:resource="http://creativecommons.org/ns#Distribution" />
        <cc:permits
           rdf:resource="http://creativecommons.org/ns#DerivativeWorks" />
      </cc:License>
    </rdf:RDF>
  </metadata>
  <g
     inkscape:label="Layer 1"
     inkscape:groupmode="layer"
     id="layer1"
     transform="translate(0,-285.09375)">
    <path
       style="opacity:1;fill:#000000;fill-opacity:1;fill-rule:nonzero;stroke:#000000;stroke-width:0.13249582;stroke-linecap:square;stroke-linejoin:miter;stroke-miterlimit:6;stroke-dasharray:none;stroke-opacity:1;paint-order:normal"
       d="m 1.3230186,285.42449 c -0.66268625,0 -0.99208525,0.32965 -0.99208525,0.99219 l -1.021e-4,9.2603 c 0,0.64862 0.3302283,0.99219 0.99218735,0.99219 l 6.6145835,-1e-4 c 0.6613862,0 0.9920852,-0.32723 0.9920852,-0.99209 v -9.2603 c 0,-0.6603 -0.331207,-0.99218 -0.9920852,-0.99218 z"
       id="path5900-3"
       inkscape:connector-curvature="0"
       sodipodi:nodetypes="ccccccccc" />
    <text
       xml:space="preserve"
       style="font-style:normal;font-weight:normal;font-size:3.52777767px;line-height:6.61458349px;font-family:sans-serif;letter-spacing:0px;word-spacing:0px;fill:#000000;fill-opacity:1;stroke:none;stroke-width:0.26458335px;stroke-linecap:butt;stroke-linejoin:miter;stroke-opacity:1"
       id="text4655"
       transform="translate(-0.14432892,1.1084295)"><textPath
         xlink:href="#path4665-5"
         id="textPath4695"></textPath></text>
    <text
       xml:space="preserve"
       style="font-style:normal;font-weight:normal;font-size:3.52777767px;line-height:6.61458349px;font-family:sans-serif;letter-spacing:0px;word-spacing:0px;fill:#000000;fill-opacity:1;stroke:none;stroke-width:0.26458335px;stroke-linecap:butt;stroke-linejoin:miter;stroke-opacity:1"
       id="text4659"
       transform="translate(-0.02338608,0.15498933)"><textPath
         xlink:href="#path4665"
         id="textPath4674"></textPath></text>
    <text
       xml:space="preserve"
       style="font-style:normal;font-weight:normal;font-size:3.52777767px;line-height:6.61458349px;font-family:sans-serif;letter-spacing:0px;word-spacing:0px;fill:#000000;fill-opacity:1;stroke:none;stroke-width:0.26458335px;stroke-linecap:butt;stroke-linejoin:miter;stroke-opacity:1"
       x="-3.3403645"
       y="294.65182"
       id="text4700"><tspan
         sodipodi:role="line"
         id="tspan4698"
         x="-3.3403645"
         y="298.87552"
         style="stroke-width:0.26458335px" /></text>
    <text
       xml:space="preserve"
       style="font-style:normal;font-weight:normal;font-size:10.58333302px;line-height:6.61458349px;font-family:sans-serif;letter-spacing:0px;word-spacing:0px;fill:#000000;fill-opacity:1;stroke:none;stroke-width:0.26458335px;stroke-linecap:butt;stroke-linejoin:miter;stroke-opacity:1"
       x="2.6076558"
       y="295.13992"
       id="text5863-0-0"><tspan
         sodipodi:role="line"
         id="tspan5861-3-9"
         x="2.6076558"
         y="301.19641"
         style="font-style:normal;font-variant:normal;font-weight:bold;font-stretch:normal;font-size:1.41111112px;font-family:sans-serif;-inkscape-font-specification:'sans-serif Bold';fill:#d48100;fill-opacity:1;stroke-width:0.26458335px" /></text>
    <g
       id="g4640-3-2-8"
       transform="matrix(2.0495003,0.18828516,-0.18828516,2.0495003,63.049149,-298.74972)" />
    <text
       xml:space="preserve"
       style="font-style:normal;font-weight:normal;font-size:1.76388884px;line-height:1.80000007px;font-family:sans-serif;text-align:center;letter-spacing:-0.15875px;word-spacing:0px;text-anchor:middle;fill:#ffffff;fill-opacity:1;stroke:none;stroke-width:0.31030414px;stroke-linecap:butt;stroke-linejoin:miter;stroke-opacity:1"
       x="5.5314565"
       y="287.1973"
       id="text5863-5-3"
       transform="scale(0.99999651,1.0000035)"><tspan
         sodipodi:role="line"
         x="5.5314565"
         y="287.1973"
         style="font-style:normal;font-variant:normal;font-weight:bold;font-stretch:normal;font-size:1.76388896px;line-height:1.70000005px;font-family:Carlito;-inkscape-font-specification:'Carlito Bold';text-align:center;letter-spacing:0px;word-spacing:0px;text-anchor:middle;fill:#ffffff;fill-opacity:1;stroke-width:0.31030414px"
         dx="0 0 0 0 0 0 0 0 0 0 0 0 0 0 0 0 3.1179975e-10"
         id="tspan6000-6">JOURS</tspan></text>
    <text
       xml:space="preserve"
       style="font-style:normal;font-variant:normal;font-weight:600;font-stretch:normal;font-size:2.82222223px;line-height:1.25;font-family:'URW Gothic';-inkscape-font-specification:'URW Gothic Semi-Bold';letter-spacing:0px;word-spacing:0px;fill:#000000;fill-opacity:1;stroke:none;stroke-width:0.22282963"
       x="1.3020738"
       y="287.52832"
       id="text868"><tspan
         sodipodi:role="line"
         id="tspan866"
         x="1.3020738"
         y="287.52832"
         style="font-style:normal;font-variant:normal;font-weight:bold;font-stretch:normal;font-size:2.46944451px;font-family:'Arabic Newspaper';-inkscape-font-specification:'Arabic Newspaper Bold';fill:#ffffff;fill-opacity:1;stroke-width:0.22282963">6</tspan></text>
    <path
       style="color:#000000;font-style:normal;font-variant:normal;font-weight:normal;font-stretch:normal;font-size:medium;line-height:normal;font-family:sans-serif;font-variant-ligatures:normal;font-variant-position:normal;font-variant-caps:normal;font-variant-numeric:normal;font-variant-alternates:normal;font-feature-settings:normal;text-indent:0;text-align:start;text-decoration:none;text-decoration-line:none;text-decoration-style:solid;text-decoration-color:#000000;letter-spacing:normal;word-spacing:normal;text-transform:none;writing-mode:lr-tb;direction:ltr;text-orientation:mixed;dominant-baseline:auto;baseline-shift:baseline;text-anchor:start;white-space:normal;shape-padding:0;clip-rule:nonzero;display:inline;overflow:visible;visibility:visible;opacity:1;isolation:auto;mix-blend-mode:normal;color-interpolation:sRGB;color-interpolation-filters:linearRGB;solid-color:#000000;solid-opacity:1;vector-effect:none;fill:url(#linearGradient949);fill-opacity:1;fill-rule:nonzero;stroke:none;stroke-width:0.13227685;stroke-linecap:butt;stroke-linejoin:miter;stroke-miterlimit:4;stroke-dasharray:none;stroke-dashoffset:0;stroke-opacity:1;color-rendering:auto;image-rendering:auto;shape-rendering:auto;text-rendering:auto;enable-background:accumulate"
       d="m 8.8632809,290.69883 v 4.9789 c 0,0.32013 -0.07878,0.54761 -0.228515,0.69727 -0.149738,0.14966 -0.3774627,0.22852 -0.6972657,0.22852 H 1.3222651 c -0.3200157,0 -0.54758767,-0.0789 -0.69726467,-0.22852 -0.149678,-0.14962 -0.22851567,-0.37699 -0.22851567,-0.69727 v -2 c 2.19614544,-0.54763 4.59010464,-0.36323 5.73684904,-1.31926 0.7904447,-0.61778 1.6146766,-1.34464 2.7299471,-1.65964 z"
       id="path4565-6-36-3-5"
       inkscape:connector-curvature="0"
       sodipodi:nodetypes="cscsscsccc" />
    <path
       sodipodi:type="star"
       style="opacity:1;fill:#d1b917;fill-opacity:1;stroke:#d1b917;stroke-width:0;stroke-miterlimit:6;stroke-dasharray:none;stroke-opacity:1"
       id="path917"
       sodipodi:sides="11"
       sodipodi:cx="4.7135232"
       sodipodi:cy="288.15385"
       sodipodi:r1="0.61603588"
       sodipodi:r2="0.30801794"
       sodipodi:arg1="0.43467022"
       sodipodi:arg2="0.72026955"
       inkscape:flatsided="false"
       inkscape:rounded="0"
       inkscape:randomized="0"
       d="m 5.2722735,288.41326 -0.3272352,-0.0563 0.098283,0.31716 -0.244874,-0.22424 -0.088787,0.31994 -0.084767,-0.32103 -0.2476672,0.22115 0.1022528,-0.3159 -0.327915,0.0521 0.2568081,-0.21047 -0.304052,-0.13341 0.3298287,-0.0382 -0.1836548,-0.27662 0.298131,0.14617 -0.00495,-0.332 0.1717788,0.28415 0.1753291,-0.28197 -0.00911,0.33191 0.2999408,-0.14242 -0.1871097,0.27429 0.3293234,0.0423 -0.3057014,0.1296 z" />
    <path
       inkscape:connector-curvature="0"
       id="path966"
       d="m 0.39648476,289.11133 v 6.5664 c 0,0.32013 0.07878,0.54761 0.228515,0.69727 0.149738,0.14966 0.37746274,0.22852 0.69726574,0.22852 h 6.6152351 c 0.3200157,0 0.5475876,-0.0789 0.6972646,-0.22852 0.149678,-0.14962 0.2285157,-0.37699 0.2285157,-0.69727 v -2 C 6.6671355,293.1301 5.3811191,292.0908 4.2343747,291.13477 3.0966643,290.18626 2.0739949,289.34365 0.39648476,289.11133 Z"
       style="color:#000000;font-style:normal;font-variant:normal;font-weight:normal;font-stretch:normal;font-size:medium;line-height:normal;font-family:sans-serif;font-variant-ligatures:normal;font-variant-position:normal;font-variant-caps:normal;font-variant-numeric:normal;font-variant-alternates:normal;font-feature-settings:normal;text-indent:0;text-align:start;text-decoration:none;text-decoration-line:none;text-decoration-style:solid;text-decoration-color:#000000;letter-spacing:normal;word-spacing:normal;text-transform:none;writing-mode:lr-tb;direction:ltr;text-orientation:mixed;dominant-baseline:auto;baseline-shift:baseline;text-anchor:start;white-space:normal;shape-padding:0;clip-rule:nonzero;display:inline;overflow:visible;visibility:visible;opacity:1;isolation:auto;mix-blend-mode:normal;color-interpolation:sRGB;color-interpolation-filters:linearRGB;solid-color:#000000;solid-opacity:1;vector-effect:none;fill:url(#linearGradient968);fill-opacity:1;fill-rule:nonzero;stroke:none;stroke-width:0.13227685;stroke-linecap:butt;stroke-linejoin:miter;stroke-miterlimit:4;stroke-dasharray:none;stroke-dashoffset:0;stroke-opacity:1;color-rendering:auto;image-rendering:auto;shape-rendering:auto;text-rendering:auto;enable-background:accumulate" />
    <g
       id="g942"
       transform="matrix(1.5579903,0,0,1.5579903,0.05965767,-158.89648)"
       style="stroke-width:0.02323916;stroke-miterlimit:4;stroke-dasharray:none">
      <path
         style="fill:#000000;fill-opacity:1;stroke:#000000;stroke-width:0.01518489;stroke-linecap:butt;stroke-linejoin:miter;stroke-miterlimit:4;stroke-dasharray:none;stroke-opacity:1"
         d="m 4.0630816,292.06246 c -1.3765196,0.54918 0.02402,0.52507 0.02402,0.52507 0,0 -1.0764355,-0.091 -0.02402,-0.52507 z"
         id="path853-6-3-7-5-4"
         inkscape:connector-curvature="0"
         sodipodi:nodetypes="ccc"
         clip-path="url(#clipPath1106-3-5-5)"
         transform="matrix(-1.9673199,0.37020763,0.23519512,1.2498502,-58.752017,-77.026499)" />
      <path
         style="fill:#000000;fill-opacity:1;stroke:#000000;stroke-width:0.00958184;stroke-linecap:butt;stroke-linejoin:miter;stroke-miterlimit:4;stroke-dasharray:none;stroke-opacity:1"
         d="m 4.151792,292.01434 c -1.4358334,-0.091 1.01867,0.88198 1.01867,0.88198 l 0.01234,-0.0393 c 0,0 -2.040078,-0.72592 -1.03101,-0.84268 z"
         id="path853-6-3-7-5-7-4"
         inkscape:connector-curvature="0"
         sodipodi:nodetypes="cccc"
         clip-path="url(#clipPath1106-3-5-0-7)"
         transform="matrix(3.1181928,-0.58419668,0.37114367,1.9810066,-119.15426,-285.91686)" />
      <path
         style="fill:#000000;fill-opacity:1;stroke:#000000;stroke-width:0.02435644;stroke-linecap:butt;stroke-linejoin:miter;stroke-miterlimit:4;stroke-dasharray:none;stroke-opacity:1"
         d="m 4.0630816,292.06246 c -1.0533583,0.23781 0.5430611,0.54675 0.5430611,0.54675 0,0 -1.1961133,-0.32661 -0.5430611,-0.54675 z"
         id="path853-6-3-7-5-8-7"
         inkscape:connector-curvature="0"
         sodipodi:nodetypes="ccc"
         clip-path="url(#clipPath1106-3-5-4-7)"
         transform="matrix(1.2399986,-0.14146332,0.0898725,0.78777861,-30.062865,59.65233)" />
      <path
         style="fill:#000000;fill-opacity:1;stroke:#000000;stroke-width:0.02799009;stroke-linecap:butt;stroke-linejoin:miter;stroke-miterlimit:4;stroke-dasharray:none;stroke-opacity:1"
         d="m 4.1053748,292.04201 c -1.3202065,0.66742 0.2704517,0.56293 0.2704517,0.56293 0,0 -1.203705,-0.0888 -0.2704517,-0.56293 z"
         id="path853-6-3-7-5-1-8"
         inkscape:connector-curvature="0"
         sodipodi:nodetypes="ccc"
         clip-path="url(#clipPath1106-3-5-03-5)"
         transform="matrix(-1.3373566,0.31891169,0.26100187,0.65953811,-69.294662,94.778502)" />
      <path
         style="fill:#000000;fill-opacity:1;stroke:#000000;stroke-width:0.04489588;stroke-linecap:butt;stroke-linejoin:miter;stroke-miterlimit:4;stroke-dasharray:none;stroke-opacity:1"
         d="m 4.0630816,292.06246 c -1.8954381,0.278 0.6647966,0.76176 0.6647966,0.76176 0,0 -1.9646703,-0.51627 -0.6647966,-0.76176 z"
         id="path853-6-3-7-5-8-0-6"
         inkscape:connector-curvature="0"
         sodipodi:nodetypes="ccc"
         clip-path="url(#clipPath1106-3-5-4-4-5)"
         transform="matrix(0.66988786,-0.09838801,0.06250648,0.42558377,-20.032061,164.54452)" />
      <path
         style="fill:#000000;fill-opacity:1;stroke:#000000;stroke-width:0.05593553;stroke-linecap:butt;stroke-linejoin:miter;stroke-miterlimit:4;stroke-dasharray:none;stroke-opacity:1"
         d="m 4.0630816,292.06246 c -2.2112933,0.59533 0.363979,0.73639 0.363979,0.73639 0,0 -2.0107671,-0.26857 -0.363979,-0.73639 z"
         id="path853-6-3-7-5-8-0-6-5"
         inkscape:connector-curvature="0"
         sodipodi:nodetypes="ccc"
         clip-path="url(#clipPath1106-3-5-4-4-5-5)"
         transform="matrix(-0.53721541,0.0820468,0.05212483,0.34129615,-11.938261,188.14746)" />
      <path
         style="fill:#000000;fill-opacity:1;stroke:#000000;stroke-width:0.05844377;stroke-linecap:butt;stroke-linejoin:miter;stroke-miterlimit:4;stroke-dasharray:none;stroke-opacity:1"
         d="m 4.0630816,292.06246 c -1.8742173,0.25971 0.6708535,0.76676 0.6708535,0.76676 0,0 -1.859474,-0.52549 -0.6708535,-0.76676 z"
         id="path853-6-3-7-5-8-0-6-9"
         inkscape:connector-curvature="0"
         sodipodi:nodetypes="ccc"
         clip-path="url(#clipPath1106-3-5-4-4-5-6)"
         transform="matrix(0.51578622,-0.07575474,0.04812743,0.32768207,-15.432121,192.56435)" />
      <path
         style="fill:#000000;fill-opacity:1;stroke:#000000;stroke-width:0.06961564;stroke-linecap:butt;stroke-linejoin:miter;stroke-miterlimit:4;stroke-dasharray:none;stroke-opacity:1"
         d="m 4.0523201,291.89376 c -1.4105084,0.90988 0.3747405,0.90509 0.3747405,0.90509 0,0 -1.4077486,-0.13362 -0.3747405,-0.90509 z"
         id="path853-6-3-7-5-8-0-6-5-7"
         inkscape:connector-curvature="0"
         sodipodi:nodetypes="ccc"
         clip-path="url(#clipPath1106-3-5-4-4-5-5-1)"
         transform="matrix(-0.43264194,0.06607571,0.0419783,0.27486,-9.6560898,207.18897)" />
    </g>
  </g>
</svg>
